<svg width="40" height="44" viewBox="0 0 40 44" fill="none" xmlns="http://www.w3.org/2000/svg">
<g clip-path="url(#clip0_31_1433)">
<path d="M19.86 31.1899C26.0732 31.1899 31.11 26.1531 31.11 19.9399C31.11 13.7267 26.0732 8.68994 19.86 8.68994C13.6468 8.68994 8.60999 13.7267 8.60999 19.9399C8.60999 26.1531 13.6468 31.1899 19.86 31.1899Z" stroke="#79C99C" stroke-width="1.25" stroke-linecap="round" stroke-linejoin="round"/>
<path d="M20.04 28.36C21.3379 28.36 22.39 24.6485 22.39 20.07C22.39 15.4916 21.3379 11.78 20.04 11.78C18.7421 11.78 17.69 15.4916 17.69 20.07C17.69 24.6485 18.7421 28.36 20.04 28.36Z" stroke="#79C99C" stroke-width="1.25" stroke-linecap="round" stroke-linejoin="round"/>
<path d="M26.8654 24.363C27.5143 23.239 24.8261 20.4721 20.861 18.1828C16.896 15.8936 13.1556 14.949 12.5067 16.073C11.8578 17.197 14.546 19.9639 18.511 22.2532C22.4761 24.5424 26.2165 25.487 26.8654 24.363Z" stroke="#79C99C" stroke-width="1.25" stroke-linecap="round" stroke-linejoin="round"/>
<path d="M20.8137 22.6353C24.7788 20.3461 27.467 17.5791 26.8181 16.4551C26.1692 15.3311 22.4288 16.2757 18.4637 18.565C14.4987 20.8542 11.8105 23.6211 12.4594 24.7451C13.1083 25.8691 16.8487 24.9245 20.8137 22.6353Z" stroke="#79C99C" stroke-width="1.25" stroke-linecap="round" stroke-linejoin="round"/>
<path d="M25.42 9.84989V7.51989H31.74V5.13989" stroke="#79C99C" stroke-width="1.25" stroke-linecap="round" stroke-linejoin="round"/>
<path d="M8.78 19.73L2.94 19.64V16.25" stroke="#79C99C" stroke-width="1.25" stroke-linecap="round" stroke-linejoin="round"/>
<path d="M21.29 30.9299V34.1599H26.94V37.5199" stroke="#79C99C" stroke-width="1.25" stroke-linecap="round" stroke-linejoin="round"/>
<path d="M17.41 8.9101V3.1001H10.85" stroke="#79C99C" stroke-width="1.25" stroke-linecap="round" stroke-linejoin="round"/>
<path d="M17.31 30.9299V34.1599H10.85V37.5199" stroke="#79C99C" stroke-width="1.25" stroke-linecap="round" stroke-linejoin="round"/>
<path d="M30.99 17.09H37.08V14.74" stroke="#79C99C" stroke-width="1.25" stroke-linecap="round" stroke-linejoin="round"/>
<path d="M11.68 27.7H9.35V31.78H5.16" stroke="#79C99C" stroke-width="1.25" stroke-linecap="round" stroke-linejoin="round"/>
<path d="M30.42 24.3101H37.08V31.4501" stroke="#79C99C" stroke-width="1.25" stroke-linecap="round" stroke-linejoin="round"/>
<path d="M27.04 42.4199C28.2882 42.4199 29.3 41.4081 29.3 40.1599C29.3 38.9117 28.2882 37.8999 27.04 37.8999C25.7918 37.8999 24.78 38.9117 24.78 40.1599C24.78 41.4081 25.7918 42.4199 27.04 42.4199Z" stroke="#79C99C" stroke-width="1.25" stroke-linecap="round" stroke-linejoin="round"/>
<path d="M10.61 42.4199C11.8582 42.4199 12.87 41.4081 12.87 40.1599C12.87 38.9117 11.8582 37.8999 10.61 37.8999C9.36184 37.8999 8.35001 38.9117 8.35001 40.1599C8.35001 41.4081 9.36184 42.4199 10.61 42.4199Z" stroke="#79C99C" stroke-width="1.25" stroke-linecap="round" stroke-linejoin="round"/>
<path d="M31.54 5.14012C32.7882 5.14012 33.8 4.12828 33.8 2.88012C33.8 1.63195 32.7882 0.620117 31.54 0.620117C30.2918 0.620117 29.28 1.63195 29.28 2.88012C29.28 4.12828 30.2918 5.14012 31.54 5.14012Z" stroke="#79C99C" stroke-width="1.25" stroke-linecap="round" stroke-linejoin="round"/>
<path d="M8.95 5.14012C10.1982 5.14012 11.21 4.12828 11.21 2.88012C11.21 1.63195 10.1982 0.620117 8.95 0.620117C7.70184 0.620117 6.69 1.63195 6.69 2.88012C6.69 4.12828 7.70184 5.14012 8.95 5.14012Z" stroke="#79C99C" stroke-width="1.25" stroke-linecap="round" stroke-linejoin="round"/>
<path d="M36.88 14.56C38.1282 14.56 39.14 13.5482 39.14 12.3C39.14 11.0519 38.1282 10.04 36.88 10.04C35.6318 10.04 34.62 11.0519 34.62 12.3C34.62 13.5482 35.6318 14.56 36.88 14.56Z" stroke="#79C99C" stroke-width="1.25" stroke-linecap="round" stroke-linejoin="round"/>
<path d="M36.88 35.97C38.1282 35.97 39.14 34.9581 39.14 33.7099C39.14 32.4618 38.1282 31.45 36.88 31.45C35.6318 31.45 34.62 32.4618 34.62 33.7099C34.62 34.9581 35.6318 35.97 36.88 35.97Z" stroke="#79C99C" stroke-width="1.25" stroke-linecap="round" stroke-linejoin="round"/>
<path d="M2.88 16.6301C4.12816 16.6301 5.14 15.6183 5.14 14.3701C5.14 13.1219 4.12816 12.1101 2.88 12.1101C1.63183 12.1101 0.619995 13.1219 0.619995 14.3701C0.619995 15.6183 1.63183 16.6301 2.88 16.6301Z" stroke="#79C99C" stroke-width="1.25" stroke-linecap="round" stroke-linejoin="round"/>
<path d="M2.88 33.9399C4.12816 33.9399 5.14 32.9281 5.14 31.6799C5.14 30.4318 4.12816 29.4199 2.88 29.4199C1.63183 29.4199 0.619995 30.4318 0.619995 31.6799C0.619995 32.9281 1.63183 33.9399 2.88 33.9399Z" stroke="#79C99C" stroke-width="1.25" stroke-linecap="round" stroke-linejoin="round"/>
</g>
<defs>
<clipPath id="clip0_31_1433">
<rect width="39.77" height="43.04" fill="white"/>
</clipPath>
</defs>
</svg>
