<svg width="33" height="37" viewBox="0 0 33 37" fill="none" xmlns="http://www.w3.org/2000/svg">
<g clip-path="url(#clip0_31_1525)">
<path d="M32.29 4.07007H0.619995V29.9301H32.29V4.07007Z" stroke="#79C99C" stroke-width="1.25" stroke-linecap="round" stroke-linejoin="round"/>
<path d="M1.82001 3.87988L2.09001 2.02988C2.21001 1.21988 2.76001 0.629883 3.41001 0.629883H9.31001C9.97001 0.629883 10.53 1.23988 10.63 2.07988L10.85 3.87988" stroke="#79C99C" stroke-width="1.25" stroke-linecap="round" stroke-linejoin="round"/>
<path d="M11.88 3.87988L12.15 2.02988C12.27 1.21988 12.82 0.629883 13.47 0.629883H19.37C20.03 0.629883 20.59 1.23988 20.69 2.07988L20.91 3.87988" stroke="#79C99C" stroke-width="1.25" stroke-linecap="round" stroke-linejoin="round"/>
<path d="M14.86 21.04V23C14.86 23.58 15.32 24.04 15.9 24.05C16.49 24.05 16.97 23.58 16.97 23V20.99C17.83 20.6 18.39 19.68 18.22 18.64C18.07 17.79 17.4 17.08 16.56 16.9C15.16 16.6 13.9 17.66 13.9 19.02C13.9 19.77 14.29 20.42 14.86 20.81" stroke="#79C99C" stroke-width="1.25" stroke-linecap="round" stroke-linejoin="round"/>
<path d="M23.7 14.3201H8.56V26.3701H23.7V14.3201Z" stroke="#79C99C" stroke-width="1.25" stroke-linecap="round" stroke-linejoin="round"/>
<path d="M11.86 14.2299V12.6499C11.86 10.4399 13.65 8.6499 15.86 8.6499C18.07 8.6499 19.86 10.4399 19.86 12.6499V14.2299" stroke="#79C99C" stroke-width="1.25" stroke-linecap="round" stroke-linejoin="round"/>
<path d="M6.19 36.3701H26.33" stroke="#79C99C" stroke-width="1.25" stroke-linecap="round" stroke-linejoin="round"/>
<path d="M15.63 30.1101V35.7401" stroke="#79C99C" stroke-width="1.25" stroke-linecap="round" stroke-linejoin="round"/>
</g>
<defs>
<clipPath id="clip0_31_1525">
<rect width="32.92" height="37" fill="white"/>
</clipPath>
</defs>
</svg>
