<svg width="124" height="83" viewBox="0 0 124 83" fill="none" xmlns="http://www.w3.org/2000/svg">
<g clip-path="url(#clip0_1_92)">
<path d="M25.5524 76.0083C26.002 76.1031 26.4042 76.269 26.7591 76.5297C27.1376 76.7904 27.4689 77.0511 27.8001 77.3118C28.1313 77.5725 28.4389 77.8095 28.7228 78.0228C29.0067 78.2361 29.2907 78.3309 29.5982 78.3309C29.7402 78.3309 29.8822 78.331 30.0005 78.2598C30.1187 78.2124 30.237 78.1888 30.3317 78.1888C30.379 78.1888 30.4027 78.2124 30.4027 78.2598C30.379 78.3784 30.2844 78.4969 30.1661 78.5917C30.0478 78.6865 29.9058 78.7813 29.7639 78.8287C29.6219 78.8998 29.4563 78.9472 29.2907 78.9709C29.125 78.9946 29.0067 79.0183 28.9121 79.0183C28.5572 79.0183 28.226 78.9472 27.8947 78.8287C27.5635 78.7102 27.2559 78.5443 26.972 78.3309C26.6644 78.1413 26.3805 77.9043 26.0966 77.6673C25.8127 77.4303 25.5524 77.1933 25.2922 76.98C25.0319 76.7667 24.7953 76.5534 24.5351 76.3875C24.2985 76.2216 24.0619 76.1031 23.8253 76.032C23.1628 75.9609 22.5713 75.795 22.0272 75.5106C21.5067 75.2262 21.0335 74.8706 20.6549 74.4203C20.2764 73.97 19.9924 73.4486 19.7795 72.8561C19.5666 72.2636 19.4719 71.5999 19.4719 70.8889C19.4719 70.1779 19.5902 69.5143 19.8505 68.8981C20.1107 68.2818 20.442 67.7367 20.8915 67.2627C21.341 66.7887 21.8379 66.4095 22.4294 66.1488C23.0209 65.8644 23.6124 65.7459 24.2748 65.7459C25.1502 65.7459 25.931 65.8881 26.5935 66.1725C27.2559 66.4569 27.8001 66.8361 28.226 67.3101C28.6519 67.7841 28.9831 68.3292 29.196 68.9455C29.409 69.5617 29.5273 70.2253 29.5273 70.9126C29.5273 71.5999 29.4326 72.1925 29.2433 72.7613C29.0541 73.3301 28.7702 73.8278 28.4153 74.2544C28.0604 74.681 27.6345 75.0365 27.1376 75.321C26.6408 75.6054 26.0966 75.795 25.5051 75.9135V75.9846L25.5524 76.0083ZM24.7953 75.3684C25.2685 75.3684 25.7181 75.2736 26.1203 75.084C26.5225 74.8943 26.8537 74.6336 27.1376 74.3255C27.4216 73.9937 27.6345 73.6145 27.8001 73.1642C27.9657 72.7139 28.0367 72.2162 28.0367 71.6947C28.0367 70.96 27.9657 70.2727 27.8001 69.6565C27.6581 69.0166 27.4216 68.4714 27.114 68.0211C26.8064 67.5471 26.4042 67.1916 25.931 66.9309C25.4578 66.6702 24.9136 66.528 24.2748 66.528C23.849 66.528 23.4467 66.5991 23.0682 66.765C22.6896 66.9309 22.3584 67.1442 22.0508 67.4523C21.7669 67.7604 21.5303 68.1159 21.3647 68.5662C21.1991 69.0166 21.1044 69.5143 21.1044 70.0831C21.1044 70.8415 21.1754 71.5525 21.341 72.1925C21.5067 72.8324 21.7432 73.4012 22.0508 73.8752C22.3584 74.3492 22.737 74.7284 23.2101 74.9891C23.6597 75.2499 24.2038 75.3921 24.7953 75.3921V75.3684Z" fill="white"/>
<path d="M41.3808 72.4769C41.3808 73.0694 41.3098 73.5908 41.1915 74.0648C41.0495 74.5388 40.8366 74.9417 40.529 75.2973C40.2214 75.6528 39.8192 75.9135 39.2987 76.1031C38.7782 76.2927 38.1631 76.3875 37.3823 76.3875C36.5069 76.3875 35.7971 76.269 35.2529 76.0557C34.7088 75.8424 34.3065 75.558 33.999 75.1787C33.7151 74.8232 33.5258 74.4203 33.4075 73.9463C33.3128 73.4723 33.2655 72.9983 33.2655 72.5243V67.3101C33.2655 67.0968 33.1945 66.9546 33.0526 66.8598C32.9106 66.765 32.6504 66.6939 32.2482 66.6465C32.1535 66.6465 32.1062 66.5517 32.1062 66.3858C32.1062 66.3147 32.1062 66.2436 32.1299 66.1488C32.4374 66.1488 32.745 66.1962 33.0762 66.1962C33.4075 66.1962 33.7151 66.1962 33.999 66.1962C34.2592 66.1962 34.5668 66.1962 34.9217 66.1962C35.2766 66.1962 35.6078 66.1725 35.9154 66.1488C35.9154 66.2436 35.9391 66.3384 35.9391 66.3858C35.9391 66.5517 35.8917 66.6465 35.7971 66.6465C35.4185 66.6939 35.1346 66.765 34.969 66.8598C34.8034 66.9546 34.7088 67.0968 34.7088 67.3101V72.1925C34.7088 73.259 34.9217 74.0648 35.3476 74.6336C35.7734 75.2024 36.4832 75.4869 37.5006 75.4869C38.0684 75.4869 38.5653 75.4158 38.9438 75.2973C39.346 75.1787 39.6773 74.9654 39.9139 74.7047C40.1741 74.444 40.3634 74.0885 40.458 73.6619C40.5763 73.2353 40.6237 72.7376 40.6237 72.1451V67.3101C40.6237 67.0968 40.5527 66.9546 40.3871 66.8598C40.2451 66.765 39.9612 66.6939 39.559 66.6465C39.4407 66.6465 39.3934 66.5517 39.3934 66.3858C39.3934 66.3147 39.3934 66.2436 39.417 66.1488C39.7009 66.1488 40.0085 66.1962 40.2924 66.1962C40.5763 66.1962 40.8129 66.1962 41.0259 66.1962C41.2625 66.1962 41.5227 66.1962 41.7593 66.1962C42.0196 66.1962 42.2562 66.1725 42.4928 66.1488C42.4928 66.2436 42.5164 66.3384 42.5164 66.3858C42.5164 66.4332 42.5164 66.4806 42.4691 66.5517C42.4455 66.5991 42.3981 66.6465 42.3508 66.6465C41.9723 66.6939 41.712 66.765 41.57 66.8598C41.4281 66.9546 41.3571 67.0968 41.3571 67.3101V72.4532L41.3808 72.4769Z" fill="white"/>
<path d="M50.182 72.2873H46.775L45.8049 74.7521C45.7576 74.8706 45.734 74.9654 45.734 75.0603C45.734 75.2736 46.0415 75.4395 46.6567 75.5106C46.7277 75.5106 46.775 75.558 46.7987 75.6054C46.8223 75.6528 46.846 75.7002 46.846 75.7713C46.846 75.8424 46.846 75.9135 46.8223 76.0083C46.5384 76.0083 46.2545 75.9609 45.9469 75.9609C45.6393 75.9609 45.3318 75.9609 45.0478 75.9609C44.8349 75.9609 44.6456 75.9609 44.409 75.9609C44.1961 75.9609 43.9595 75.9846 43.7466 76.032C43.7466 75.9609 43.7229 75.8661 43.7229 75.795C43.7229 75.7239 43.7229 75.6528 43.7702 75.6054C43.7939 75.558 43.8412 75.5343 43.9358 75.5106C44.2434 75.4632 44.48 75.3921 44.6456 75.321C44.8112 75.2499 44.9295 75.1314 45.0005 74.9654L48.6914 66.0777C48.7624 65.9118 48.857 65.817 48.9753 65.817C49.0227 65.817 49.07 65.817 49.1646 65.8407L52.8555 75.0128C52.9265 75.1551 53.0448 75.2736 53.2577 75.3447C53.4707 75.4158 53.6836 75.4869 53.8965 75.5106C53.9675 75.5106 54.0148 75.558 54.0385 75.6054C54.0858 75.6528 54.0858 75.7002 54.0858 75.795C54.0858 75.8661 54.0858 75.9372 54.0622 76.032C53.7309 76.032 53.4233 75.9846 53.0921 75.9846C52.7845 75.9846 52.477 75.9846 52.2167 75.9846C51.9564 75.9846 51.6015 75.9846 51.2467 75.9846C50.8681 75.9846 50.5369 76.0083 50.253 76.032C50.253 75.9372 50.2293 75.8424 50.2293 75.795C50.2293 75.7002 50.2293 75.6291 50.2766 75.6054C50.3239 75.558 50.3476 75.558 50.3713 75.558C50.6315 75.5106 50.8444 75.4395 51.0101 75.3921C51.1757 75.321 51.2467 75.2262 51.2467 75.084C51.2467 75.0129 51.2467 74.9417 51.1757 74.8469L50.2056 72.311L50.182 72.2873ZM49.9454 71.6473L48.5258 67.9026L47.0352 71.6473H49.9454Z" fill="white"/>
<path d="M64.2121 73.7804L64.2594 67.4049C64.2594 67.1679 64.1885 67.0257 64.0228 66.9309C63.8572 66.8361 63.5733 66.765 63.1948 66.7176C63.0765 66.7176 63.0291 66.6228 63.0291 66.4569C63.0291 66.3858 63.0291 66.3147 63.0528 66.2199C63.3131 66.2199 63.5733 66.2673 63.8336 66.2673C64.0938 66.2673 64.3541 66.2673 64.5907 66.2673C64.8273 66.2673 65.0402 66.2673 65.3005 66.2673C65.5371 66.2673 65.7737 66.2436 66.0103 66.2199C66.0103 66.3147 66.0339 66.4095 66.0339 66.4569C66.0339 66.6228 65.9866 66.7176 65.892 66.7176C65.5371 66.765 65.3005 66.8361 65.1822 66.9309C65.0639 67.0257 64.9929 67.1679 64.9929 67.3812L64.9456 76.4112C64.9456 76.4112 64.8983 76.4112 64.8273 76.4112C64.78 76.4112 64.7326 76.4112 64.709 76.4112C64.638 76.4112 64.567 76.4112 64.5197 76.3638C64.4487 76.3164 64.3777 76.2453 64.3068 76.1505L58.1553 67.95V75.2262C58.1553 75.4395 58.2262 75.5817 58.3682 75.6528C58.5102 75.7239 58.7941 75.8187 59.1963 75.8898C59.2909 75.8898 59.3382 75.9846 59.3382 76.1268C59.3382 76.1979 59.3382 76.269 59.3146 76.3638C59.0543 76.3638 58.7941 76.3164 58.5338 76.3164C58.2736 76.3164 58.037 76.3164 57.8004 76.3164C57.5874 76.3164 57.3508 76.3164 57.0906 76.3164C56.8067 76.3164 56.5701 76.3401 56.3335 76.3638C56.3335 76.269 56.3098 76.1742 56.3098 76.1268C56.3098 75.9846 56.3571 75.8898 56.4754 75.8898C56.854 75.8187 57.0906 75.7476 57.2089 75.6528C57.3272 75.5817 57.3982 75.4158 57.3982 75.2262V67.2864C57.3982 67.1205 57.3508 67.002 57.2325 66.9072C57.1142 66.8124 56.8776 66.7413 56.4991 66.6939C56.3808 66.6939 56.3335 66.5754 56.3335 66.4332C56.3335 66.3858 56.3335 66.3384 56.3335 66.291C56.3335 66.2673 56.3335 66.2199 56.3335 66.1725C56.5464 66.1725 56.7357 66.2199 56.925 66.2199C57.0906 66.2199 57.2562 66.2199 57.4455 66.2199C57.6348 66.2199 57.8004 66.2199 57.9423 66.2199C58.2262 66.2199 58.4392 66.2199 58.5338 66.2436C58.6285 66.2436 58.6994 66.3147 58.7704 66.4095L64.2121 73.733V73.7804Z" fill="white"/>
<path d="M73.8891 66.8598V75.1314C73.8891 75.3684 73.9837 75.5343 74.173 75.6291C74.3623 75.7239 74.6935 75.795 75.143 75.8424C75.2613 75.8424 75.3086 75.9135 75.3086 76.0794C75.3086 76.1505 75.3086 76.2453 75.285 76.3401C74.9537 76.3401 74.6225 76.2927 74.244 76.2927C73.8891 76.2927 73.5105 76.2927 73.1556 76.2927C72.8007 76.2927 72.4458 76.2927 72.0673 76.2927C71.6887 76.2927 71.3575 76.3164 71.0263 76.3401C71.0263 76.2453 71.0026 76.1505 71.0026 76.0794C71.0026 75.9372 71.0499 75.8424 71.1445 75.8424C71.5941 75.7713 71.9253 75.7002 72.1383 75.6054C72.3512 75.5106 72.4458 75.3447 72.4458 75.1077V66.8361H70.8606C70.5531 66.8361 70.2928 66.8598 70.0799 66.9309C69.8669 67.002 69.7013 67.0968 69.5357 67.2153C69.3937 67.3338 69.2518 67.4997 69.1335 67.6893C69.0152 67.8789 68.8969 68.1159 68.7786 68.3766C68.7786 68.424 68.7313 68.4714 68.684 68.4951C68.6366 68.4951 68.5893 68.5188 68.5657 68.5188C68.4474 68.5188 68.3527 68.4952 68.2817 68.424C68.3764 68.0448 68.471 67.713 68.5183 67.4286C68.5656 67.1442 68.613 66.9072 68.6603 66.7176C68.7076 66.528 68.7549 66.3858 68.7786 66.2673C68.8259 66.1725 68.8969 66.1014 68.9915 66.1014C69.0625 66.1014 69.1571 66.1014 69.2991 66.1014C69.4411 66.1014 69.583 66.1014 69.725 66.1251C69.8669 66.1251 70.0325 66.1251 70.1745 66.1488C70.3165 66.1488 70.4584 66.1488 70.6004 66.1488H75.7109C75.8292 66.1488 75.9711 66.1488 76.1131 66.1488C76.255 66.1488 76.4206 66.1488 76.5626 66.1251C76.7046 66.1251 76.8465 66.1251 76.9885 66.1014C77.1068 66.1014 77.2251 66.1014 77.296 66.1014C77.3907 66.1014 77.4617 66.1488 77.509 66.2673C77.5563 66.3858 77.6036 66.528 77.6273 66.7176C77.6746 66.9072 77.7219 67.1679 77.7456 67.4523C77.7929 67.7367 77.8639 68.0685 77.9822 68.424C77.9349 68.424 77.8875 68.4714 77.8402 68.4951C77.7929 68.4951 77.7456 68.5188 77.6746 68.5188C77.6273 68.5188 77.58 68.5188 77.5326 68.4951C77.4853 68.4951 77.438 68.4477 77.4143 68.3766C77.296 68.1159 77.2014 67.9026 77.0831 67.6893C76.9648 67.4997 76.8465 67.3338 76.7046 67.2153C76.5626 67.0968 76.3733 67.002 76.1604 66.9309C75.9474 66.8598 75.6872 66.8361 75.3796 66.8361H73.7944L73.8891 66.8598Z" fill="white"/>
<path d="M89.5754 72.5006C89.5754 73.0931 89.5044 73.6145 89.3861 74.0885C89.2441 74.5625 89.0312 74.9654 88.7236 75.321C88.416 75.6765 88.0138 75.9372 87.4933 76.1268C86.9728 76.3164 86.3576 76.4112 85.5769 76.4112C84.7015 76.4112 83.9917 76.2927 83.4475 76.0794C82.9033 75.8661 82.5011 75.5817 82.1936 75.2025C81.9096 74.8469 81.7204 74.444 81.6021 73.97C81.5074 73.496 81.4601 73.022 81.4601 72.548V67.3338C81.4601 67.1205 81.3891 66.9783 81.2472 66.8835C81.1052 66.7887 80.845 66.7176 80.4427 66.6702C80.3481 66.6702 80.3008 66.5754 80.3008 66.4095C80.3008 66.3384 80.3008 66.2673 80.3244 66.1725C80.632 66.1725 80.9396 66.2199 81.2708 66.2199C81.6021 66.2199 81.9096 66.2199 82.1936 66.2199C82.4538 66.2199 82.7614 66.2199 83.1163 66.2199C83.4712 66.2199 83.8024 66.1962 84.11 66.1725C84.11 66.2673 84.1336 66.3621 84.1336 66.4095C84.1336 66.5754 84.0863 66.6702 83.9917 66.6702C83.6131 66.7176 83.3292 66.7887 83.1636 66.8835C82.998 66.9783 82.9033 67.1205 82.9033 67.3338V72.2162C82.9033 73.2827 83.1163 74.0885 83.5422 74.6573C83.968 75.2262 84.6778 75.5106 85.6952 75.5106C86.263 75.5106 86.7599 75.4395 87.1384 75.321C87.5406 75.2025 87.8719 74.9891 88.1085 74.7284C88.3687 74.4677 88.558 74.1122 88.6526 73.6856C88.7709 73.259 88.8182 72.7613 88.8182 72.1688V67.3338C88.8182 67.1205 88.7473 66.9783 88.5816 66.8835C88.4397 66.7887 88.1558 66.7176 87.7536 66.6702C87.6353 66.6702 87.5879 66.5754 87.5879 66.4095C87.5879 66.3384 87.5879 66.2673 87.6116 66.1725C87.8955 66.1725 88.2031 66.2199 88.487 66.2199C88.7709 66.2199 89.0075 66.2199 89.2205 66.2199C89.4571 66.2199 89.7173 66.2199 89.9539 66.2199C90.2142 66.2199 90.4508 66.1962 90.6874 66.1725C90.6874 66.2673 90.711 66.3621 90.711 66.4095C90.711 66.4569 90.711 66.5043 90.6637 66.5754C90.64 66.6228 90.5927 66.6702 90.5454 66.6702C90.1668 66.7176 89.9066 66.7887 89.7646 66.8835C89.6227 66.9783 89.5517 67.1205 89.5517 67.3338V72.4769L89.5754 72.5006Z" fill="white"/>
<path d="M102.919 66.5043C102.919 66.5043 102.967 66.4332 102.99 66.3858C103.014 66.3384 103.061 66.3147 103.109 66.291C103.18 66.291 103.251 66.2436 103.345 66.2436C103.44 66.2436 103.582 66.2436 103.771 66.2436C103.842 66.2436 103.96 66.2436 104.102 66.2436C104.244 66.2436 104.386 66.2436 104.528 66.2436C104.67 66.2436 104.836 66.2436 105.001 66.2436C105.167 66.2436 105.309 66.2436 105.427 66.2199C105.427 66.3147 105.451 66.4095 105.451 66.4569C105.451 66.6228 105.404 66.7176 105.309 66.7176C104.93 66.765 104.694 66.8361 104.576 66.9309C104.457 67.0257 104.386 67.1442 104.386 67.2864C104.386 67.2864 104.386 67.4286 104.386 67.6893C104.386 67.95 104.434 68.4003 104.457 69.0166C104.481 69.6328 104.528 70.4623 104.576 71.4814C104.623 72.5006 104.67 73.7804 104.741 75.2973C104.741 75.4869 104.812 75.6291 104.93 75.7239C105.049 75.8187 105.309 75.8898 105.688 75.9609C105.735 75.9609 105.782 76.0083 105.806 76.0557C105.83 76.1031 105.853 76.1505 105.853 76.2216C105.853 76.2927 105.853 76.3638 105.83 76.4586C105.475 76.4586 105.143 76.4112 104.859 76.4112C104.576 76.4112 104.292 76.4112 104.055 76.4112C103.96 76.4112 103.818 76.4112 103.676 76.4112C103.535 76.4112 103.369 76.4112 103.203 76.4112C103.038 76.4112 102.872 76.4112 102.706 76.4112C102.541 76.4112 102.399 76.4112 102.281 76.4349C102.281 76.3401 102.257 76.2453 102.257 76.1979C102.257 76.032 102.304 75.9609 102.399 75.9609C102.801 75.8898 103.085 75.795 103.227 75.7239C103.369 75.6528 103.44 75.5106 103.44 75.2973C103.44 75.2736 103.44 75.084 103.44 74.7284C103.44 74.3729 103.393 73.9463 103.369 73.4486C103.345 72.9509 103.322 72.3821 103.298 71.8133C103.274 71.2207 103.251 70.6756 103.227 70.1542C103.203 69.6328 103.18 69.1825 103.156 68.8033C103.156 68.424 103.132 68.187 103.132 68.1159L99.7727 76.2453C99.7727 76.2453 99.7017 76.4112 99.6544 76.4586C99.607 76.506 99.5597 76.5297 99.5124 76.5297C99.4414 76.5297 99.3941 76.5297 99.3704 76.5297L95.6322 67.8789C95.6322 67.8789 95.6322 68.2344 95.5849 68.6374C95.5849 69.0403 95.5376 69.5143 95.5139 70.0594C95.4903 70.6045 95.4666 71.197 95.4193 71.7896C95.3956 72.4058 95.372 72.9746 95.3247 73.4723C95.301 73.9937 95.2773 74.4203 95.2537 74.7758C95.2537 75.1314 95.2537 75.321 95.2537 75.3447C95.2537 75.6765 95.6086 75.8898 96.2947 76.0083C96.3893 76.0083 96.4366 76.1031 96.4366 76.2453C96.4366 76.3164 96.4367 76.3875 96.413 76.4823C96.1291 76.4823 95.8688 76.4349 95.6086 76.4349C95.3483 76.4349 95.1117 76.4349 94.8988 76.4349C94.7332 76.4349 94.5202 76.4349 94.2363 76.4349C93.9524 76.4349 93.6921 76.4586 93.4555 76.4823C93.4555 76.3875 93.4319 76.2927 93.4319 76.2453C93.4319 76.1031 93.4792 76.0083 93.5738 76.0083C93.8578 75.9609 94.0707 75.8898 94.2363 75.795C94.4019 75.7002 94.4966 75.558 94.5202 75.3447C94.5202 75.2499 94.5202 74.9892 94.5439 74.5625C94.5439 74.1359 94.5912 73.6145 94.6149 73.022C94.6385 72.4295 94.6622 71.8133 94.7095 71.1496C94.7332 70.486 94.7568 69.8698 94.8041 69.301C94.8278 68.7322 94.8515 68.2818 94.8751 67.9026C94.8751 67.5471 94.8751 67.3575 94.8751 67.3338C94.8751 67.1679 94.8041 67.0494 94.6858 66.9783C94.5675 66.9072 94.3073 66.8361 93.9524 66.765C93.8578 66.765 93.8104 66.6702 93.8104 66.5043C93.8104 66.4332 93.8104 66.3621 93.8341 66.2673C93.9761 66.2673 94.118 66.2673 94.2836 66.291C94.4492 66.291 94.6149 66.291 94.7805 66.291C94.9461 66.291 95.1117 66.291 95.2537 66.291C95.3956 66.291 95.5376 66.291 95.6322 66.291C95.8215 66.291 95.9635 66.291 96.0581 66.291C96.1527 66.291 96.2474 66.3147 96.2947 66.3384C96.3657 66.3384 96.3893 66.3858 96.413 66.4332C96.4367 66.4806 96.4603 66.5043 96.484 66.5517L99.749 74.3018L102.848 66.5517L102.919 66.5043Z" fill="white"/>
<path d="M92.864 44.3678L95.23 47.1408C102.139 41.2393 115.057 30.6214 123.976 25.8575L122.249 22.6342C113.022 27.5877 99.8673 38.3715 92.864 44.3678Z" fill="#495B9A"/>
<path d="M24.7495 38.7765L0.0161133 55.5325L2.05726 58.5559L26.7906 41.8L24.7495 38.7765Z" fill="#495B9A"/>
<path d="M106.61 0.616219H18.7385V62.2144H106.61V0.616219Z" fill="#193057"/>
<path d="M107.225 62.8544H18.1233V0H107.225V62.8544ZM19.3536 61.5982H105.971V1.25614H19.3536V61.6219V61.5982Z" fill="white"/>
<path d="M62.2011 14.173C62.2011 14.173 48.7388 30.9769 41.3333 40.2202C43.4154 33.8447 47.958 19.8612 47.958 19.8612C47.958 19.8612 35.0162 32.8255 29.7638 38.1108C30.6628 35.1482 33.0998 27.2322 33.0998 27.2322L0 49.2738L2.03473 52.3075C2.03473 52.3075 20.4182 40.0543 26.5934 35.9303C25.4341 39.7461 21.9561 51.0751 21.9561 51.0751C21.9561 51.0751 34.4484 38.5611 39.7481 33.2521C37.5715 39.9595 31.6329 58.1379 31.6329 58.1379C31.6329 58.1379 49.4013 35.9777 57.3036 26.1182C54.0622 34.2002 47.7687 49.8664 47.7687 49.8664C47.7687 49.8664 61.0891 38.3715 66.3415 33.8447C64.2122 40.0306 58.2263 57.3558 58.2263 57.3558C58.2263 57.3558 71.9725 41.4763 78.7628 33.6551C75.829 39.7698 68.9204 54.1088 68.9204 54.1088C68.9204 54.1088 84.7724 39.9832 89.9065 35.4089C89.0074 38.9877 86.6651 48.4206 86.6651 48.4206L91.0895 44.4626C91.3024 44.273 111.626 26.1893 123.976 19.5768L122.249 16.3535C112.975 21.3307 99.8199 32.1382 93.0532 37.9212C93.9523 34.295 96.3183 24.791 96.3183 24.791C96.3183 24.791 85.6005 34.3424 80.1351 39.201C83.6367 31.9249 93.905 10.5705 93.905 10.5705C93.905 10.5705 74.5041 32.9677 67.8321 40.6705C69.8668 34.769 74.1965 22.2076 74.1965 22.2076C74.1965 22.2076 62.0828 32.6596 56.7594 37.2576C59.9298 29.3415 69.9141 4.52684 69.9141 4.52684L62.1774 14.173H62.2011Z" fill="#8992C1"/>
<path d="M59.8116 33.3469C59.8116 46.3587 56.2863 53.5637 50.9155 53.5637C43.4864 53.5637 40.6709 42.0925 40.6709 31.4035C40.6709 18.2733 44.1489 11.1867 49.4486 11.1867C56.8304 11.1867 59.8116 22.8001 59.8116 33.3469ZM67.1224 30.9769C67.1224 21.6862 63.952 8.43746 50.7263 8.43746C38.7072 8.43746 33.3601 19.245 33.3601 33.7262C33.3601 43.0642 36.6488 56.313 49.7562 56.313C61.586 56.313 67.1224 45.5054 67.1224 30.9769Z" fill="white"/>
<path d="M77.6744 27.1848C77.6744 23.8904 77.6034 21.2596 77.6034 19.1739C77.6034 17.7045 77.6034 16.9697 76.6807 16.9697C75.5214 16.9697 70.9551 19.3398 69.6065 19.9086C69.2989 20.0271 68.9913 20.1456 68.7547 20.1456C68.5655 20.1456 68.3289 19.8375 68.3289 19.482C68.3289 19.1265 68.6364 18.8184 68.944 18.6288C69.1806 18.5103 80.8211 10.8075 83.0215 9.21959C83.5183 8.86408 84.1098 8.41376 84.6067 8.41376C85.1508 8.41376 85.2691 9.07739 85.2691 9.69361C85.2691 10.1913 84.9616 16.235 84.9616 25.5731V36.8784C84.9616 42.7324 84.9616 47.9229 85.1982 50.6248C85.3874 52.5683 85.695 53.4926 87.6351 53.9192C88.5578 54.1088 91.1604 54.2747 91.6572 54.2747C91.8938 54.2747 92.1541 54.4643 92.1541 54.8909C92.1541 55.3175 91.8465 55.436 91.184 55.436C86.5468 55.436 82.6429 55.2464 81.0104 55.2464C79.6145 55.2464 74.4804 55.436 70.5765 55.436C69.9141 55.436 69.6065 55.3175 69.6065 54.8909C69.6065 54.4643 69.8431 54.2747 70.1033 54.2747C70.7658 54.2747 73.8179 54.0851 74.9772 53.8481C76.87 53.4215 77.2249 52.5683 77.4142 50.6011C77.6507 47.9229 77.6507 42.7324 77.6507 36.8547V27.1374L77.6744 27.1848Z" fill="white"/>
<path d="M106.137 80.4403H18.9988V83H106.137V80.4403Z" fill="#193057"/>
<path d="M19.3064 82.6919H105.83V80.7721H19.3064V82.6919Z" fill="white"/>
<path d="M100.79 59.8444H100.317V58.0194H99.6543V57.6165H101.452V58.0194H100.79V59.8444Z" fill="white"/>
<path d="M103.937 59.8444H103.511V57.972L103.085 59.8444H102.635L102.233 57.972V59.8444H101.807V57.6165H102.494L102.896 59.3704L103.298 57.6165H103.96V59.8444H103.937Z" fill="white"/>
</g>
<defs>
<clipPath id="clip0_1_92">
<rect width="124" height="83" fill="white"/>
</clipPath>
</defs>
</svg>
