<svg width="17" height="18" viewBox="0 0 17 18" fill="none" xmlns="http://www.w3.org/2000/svg">
<g clip-path="url(#clip0_30_1224)">
<path d="M5.00499 6.76498C5.56832 6.76498 6.02499 6.30831 6.02499 5.74498C6.02499 5.18165 5.56832 4.72498 5.00499 4.72498C4.44166 4.72498 3.98499 5.18165 3.98499 5.74498C3.98499 6.30831 4.44166 6.76498 5.00499 6.76498Z" stroke="#6E8090" stroke-width="0.33" stroke-linecap="round" stroke-linejoin="round"/>
<path d="M8.19501 16.2749C0.375008 13.3849 1.07501 3.47494 1.07501 3.47494C3.90501 3.27494 5.71501 2.11494 6.80501 1.06494H9.57501C10.665 2.12494 12.475 3.27494 15.305 3.47494C15.305 3.47494 16.005 13.3849 8.19501 16.2749Z" stroke="#6E8090" stroke-width="1.38" stroke-linecap="round" stroke-linejoin="round"/>
<path d="M8.42501 12.195C10.7612 12.195 12.655 10.3012 12.655 7.96499C12.655 5.62882 10.7612 3.73499 8.42501 3.73499C6.08884 3.73499 4.19501 5.62882 4.19501 7.96499C4.19501 10.3012 6.08884 12.195 8.42501 12.195Z" stroke="#6E8090" stroke-width="1.38" stroke-linecap="round" stroke-linejoin="round"/>
<path d="M8.42501 10.395C9.75602 10.395 10.835 9.31596 10.835 7.98495C10.835 6.65395 9.75602 5.57495 8.42501 5.57495C7.09401 5.57495 6.01501 6.65395 6.01501 7.98495C6.01501 9.31596 7.09401 10.395 8.42501 10.395Z" stroke="#6E8090" stroke-width="0.78" stroke-linecap="round" stroke-linejoin="round"/>
</g>
<rect x="0.375" y="0.375" width="15.63" height="16.59" stroke="black" stroke-width="0.75"/>
<defs>
<clipPath id="clip0_30_1224">
<rect x="0.375" y="0.375" width="15.63" height="16.59" fill="white"/>
</clipPath>
</defs>
</svg>
