<svg width="21" height="18" viewBox="0 0 21 18" fill="none" xmlns="http://www.w3.org/2000/svg">
<g clip-path="url(#clip0_30_1260)">
<mask id="mask0_30_1260" style="mask-type:luminance" maskUnits="userSpaceOnUse" x="0" y="0" width="17" height="18">
<path d="M8.41999 17.96C-0.810012 14.55 0.0199877 2.85 0.0199877 2.85C3.35999 2.61 5.49999 1.25 6.77999 0H10.05C11.33 1.25 13.47 2.61 16.81 2.85C16.81 2.85 16.81 4.95 16.55 6.91C16.52 7.18 14.44 5.44 14.39 5.72C14.09 7.51 11.61 12.11 10.45 14.07C10.3 14.32 13.77 13.88 13.6 14.12C12.36 15.92 10.98 17.03 8.40999 17.97" fill="white"/>
</mask>
<g mask="url(#mask0_30_1260)">
<path d="M8.42 16.57C0.609998 13.68 1.31 3.76999 1.31 3.76999C4.14 3.56999 5.95 2.40999 7.04 1.35999H9.81C10.9 2.41999 12.71 3.56999 15.54 3.76999C15.54 3.76999 16.24 13.68 8.43 16.57" stroke="#6E8090" stroke-width="1.38" stroke-linecap="round" stroke-linejoin="round"/>
</g>
<path d="M16.13 7.41003C16.13 7.41003 16.03 7.41003 15.98 7.41003C15.56 6.03003 14.28 5.03003 12.76 5.03003C11.24 5.03003 9.95999 6.03003 9.53999 7.41003C7.74999 7.49003 6.32999 8.96003 6.32999 10.77C6.32999 12.58 7.83999 14.14 9.69999 14.14H16.13C17.99 14.14 19.5 12.63 19.5 10.77C19.5 8.91003 17.99 7.40003 16.13 7.40003V7.41003Z" stroke="#6E8090" stroke-width="1.18" stroke-linecap="round" stroke-linejoin="round"/>
<path d="M14.1 12.68L13.41 9.49999C13.8 9.31999 14.07 8.92998 14.07 8.47998C14.07 7.85998 13.56 7.35999 12.94 7.35999C12.32 7.35999 11.81 7.85998 11.81 8.47998C11.81 8.86998 12.01 9.20999 12.31 9.40999C12.38 9.45999 12.46 9.49998 12.54 9.52998L11.81 12.67L14.09 12.69L14.1 12.68Z" stroke="#6E8090" stroke-width="1.18" stroke-linecap="round" stroke-linejoin="round"/>
</g>
<defs>
<clipPath id="clip0_30_1260">
<rect width="20.08" height="17.96" fill="white"/>
</clipPath>
</defs>
</svg>
