<svg width="19" height="18" viewBox="0 0 19 18" fill="none" xmlns="http://www.w3.org/2000/svg">
<g clip-path="url(#clip0_30_1269)">
<mask id="mask0_30_1269" style="mask-type:luminance" maskUnits="userSpaceOnUse" x="0" y="0" width="17" height="18">
<path d="M8.42002 17.96C-0.809981 14.55 0.0200182 2.85 0.0200182 2.85C3.36002 2.61 5.50002 1.25 6.78002 0H10.05C11.33 1.25 13.47 2.61 16.81 2.85C16.81 2.85 16.91 4.23 16.66 6.18C16.63 6.45 14.37 5.18 14.32 5.47C14.02 7.26 11.31 12.95 10.14 14.91C9.99002 15.16 13.19 15.6 13.02 15.85C11.78 17.65 10.98 17.02 8.41002 17.97" fill="white"/>
</mask>
<g mask="url(#mask0_30_1269)">
<path d="M8.42 16.57C0.609998 13.68 1.31 3.76999 1.31 3.76999C4.14 3.56999 5.95 2.40999 7.04 1.35999H9.81C10.9 2.41999 12.71 3.56999 15.54 3.76999C15.54 3.76999 16.24 13.68 8.43 16.57" stroke="#6E8090" stroke-width="1.38" stroke-linecap="round" stroke-linejoin="round"/>
</g>
<path d="M12.8 15.67C15.705 15.67 18.06 13.315 18.06 10.41C18.06 7.50501 15.705 5.15002 12.8 5.15002C9.89496 5.15002 7.53998 7.50501 7.53998 10.41C7.53998 13.315 9.89496 15.67 12.8 15.67Z" stroke="#6E8090" stroke-width="1.38" stroke-miterlimit="10"/>
<path d="M11.37 8.02002L9.40002 12.99H10.31L10.69 11.95H12.68L13.06 12.99H13.96L12 8.02002H11.37ZM10.95 11.22L11.68 9.23002L12.41 11.22H10.96H10.95Z" fill="#6E8090"/>
<path d="M15.37 8.02002H14.54V12.99H15.37V8.02002Z" fill="#6E8090"/>
</g>
<defs>
<clipPath id="clip0_30_1269">
<rect width="18.75" height="17.96" fill="white"/>
</clipPath>
</defs>
</svg>
