<svg width="35" height="23" viewBox="0 0 35 23" fill="none" xmlns="http://www.w3.org/2000/svg">
<mask id="mask0_63_1550" style="mask-type:luminance" maskUnits="userSpaceOnUse" x="0" y="3" width="14" height="14">
<path d="M12.3297 5.61881C13.0687 7.32051 13.1316 10.0657 12.9587 11.0129C12.2825 14.641 8.87038 17.017 5.31672 16.3267C1.77878 15.6524 -0.5484 12.1527 0.112016 8.5406C0.788155 4.91244 4.2003 2.53648 7.75396 3.2268C9.43645 3.54787 10.4271 2.92178 10.6158 3.99738L8.65024 6.90311C8.80748 6.2128 8.60307 5.84356 7.47093 5.63486C5.20665 5.20141 3.00526 6.71047 2.58071 9.03827C2.15616 11.35 3.63423 13.5975 5.91424 14.031C8.19424 14.4644 10.3799 12.9554 10.8045 10.6276C10.8516 10.3386 11.1032 9.80885 10.5529 8.71719L12.3454 5.63486L12.3297 5.61881Z" fill="white"/>
</mask>
<g mask="url(#mask0_63_1550)">
<path d="M6.79536 15.7809C9.86957 15.7809 12.3617 13.2365 12.3617 10.0978C12.3617 6.95918 9.86957 4.41479 6.79536 4.41479C3.72115 4.41479 1.229 6.95918 1.229 10.0978C1.229 13.2365 3.72115 15.7809 6.79536 15.7809Z" stroke="#B6BBCD" stroke-width="0.79" stroke-miterlimit="10"/>
</g>
<mask id="mask1_63_1550" style="mask-type:luminance" maskUnits="userSpaceOnUse" x="21" y="3" width="14" height="15">
<path d="M23.981 15.7809C22.8174 14.3521 22.0312 11.7193 21.9369 10.756C21.6224 7.07973 24.2798 3.85292 27.8806 3.53184C31.4815 3.21076 34.642 5.92385 34.9565 9.60017C35.271 13.2765 32.6136 16.5033 29.0128 16.8244C27.3146 16.9689 26.5283 17.8679 26.0566 16.8725L27.1888 13.5333C27.2202 14.2397 27.5032 14.5447 28.6511 14.4324C30.9468 14.2237 32.6608 12.1527 32.4564 9.80887C32.2519 7.46502 30.2235 5.71515 27.9278 5.92385C25.6321 6.13255 23.9181 8.20349 24.1225 10.5473C24.154 10.8363 24.0597 11.4142 24.8616 12.3133L23.9653 15.7648L23.981 15.7809Z" fill="white"/>
</mask>
<g mask="url(#mask1_63_1550)">
<path d="M28.3681 15.7809C31.4423 15.7809 33.9345 13.2365 33.9345 10.0978C33.9345 6.95918 31.4423 4.41479 28.3681 4.41479C25.2939 4.41479 22.8018 6.95918 22.8018 10.0978C22.8018 13.2365 25.2939 15.7809 28.3681 15.7809Z" stroke="#B6BBCD" stroke-width="0.79" stroke-miterlimit="10"/>
</g>
<mask id="mask2_63_1550" style="mask-type:luminance" maskUnits="userSpaceOnUse" x="7" y="0" width="21" height="23">
<path d="M26.4496 5.82752C27.2516 7.59344 27.9592 9.72859 27.9592 11.3821C27.9592 17.6592 23.3363 22.7482 17.6441 22.7482C14.5936 22.7482 8.77567 17.5307 8.77567 17.5307L11.3702 15.2832C11.3702 15.2832 10.5682 14.3039 10.2066 13.2604C10.1122 13.0036 7.84794 14.9621 7.78504 14.7053C7.50201 13.6618 7.34477 12.538 7.34477 11.3982C7.32904 5.08905 11.9519 0 17.6441 0C20.3329 0 24.0438 1.99067 25.3804 3.4034L22.7387 6.24492L24.8772 11.2376C24.8772 11.2376 24.4527 10.4028 24.1382 9.56805L26.4654 5.81147L26.4496 5.82752Z" fill="white"/>
</mask>
<g mask="url(#mask2_63_1550)">
<path d="M17.6602 2.37595C12.8643 2.37595 8.98047 6.34123 8.98047 11.2376C8.98047 14.8337 11.0718 17.916 14.0751 19.3127L16.0406 13.1641C15.0343 12.5701 14.3424 11.4624 14.3424 10.1781C14.3424 8.26768 15.8677 6.71047 17.7388 6.71047C19.61 6.71047 21.1353 8.26768 21.1353 10.1781C21.1353 11.4784 20.4277 12.6022 19.3741 13.1962L21.4497 19.2164C24.3587 17.7876 26.3557 14.7534 26.3557 11.2376C26.3557 6.34123 22.4718 2.37595 17.6759 2.37595H17.6602Z" stroke="#B6BBCD" stroke-width="0.79" stroke-miterlimit="10"/>
</g>
</svg>
