<svg width="27" height="24" viewBox="0 0 27 24" fill="none" xmlns="http://www.w3.org/2000/svg">
<path d="M16.6608 1.53699C15.2045 0.87836 13.5926 0.5 11.896 0.5C5.60415 0.5 0.5 5.55881 0.5 11.7948C0.5 18.0307 5.60415 23.0895 11.896 23.0895C18.1878 23.0895 23.2919 18.0307 23.2919 11.7948V3.59695" stroke="#B6BBCD" stroke-miterlimit="10"/>
<path d="M18.8384 13.1821C18.9233 12.7617 18.9657 12.3413 18.9657 11.8928C18.9657 11.4444 18.9233 11.024 18.8384 10.6036H17.5801C17.4387 9.97302 17.1842 9.37045 16.8449 8.83794L17.7356 7.96911C17.2408 7.25443 16.6187 6.63784 15.8976 6.14738L15.0068 7.03022C14.4696 6.6939 13.8757 6.44166 13.2395 6.30152V5.06835C12.8153 4.98427 12.3911 4.94223 11.9386 4.94223C11.4862 4.94223 11.062 4.98427 10.6379 5.06835V6.30152C10.0016 6.44166 9.40779 6.6939 8.87051 7.03022L7.9939 6.16139C7.27282 6.63784 6.65072 7.25443 6.15586 7.98312L7.04662 8.86597C6.70729 9.39847 6.45276 9.98703 6.31137 10.6316H5.05298C4.96815 11.052 4.92578 11.4724 4.92578 11.9209C4.92578 12.3693 4.96815 12.7897 5.05298 13.2101H6.29721C6.4386 13.8407 6.69313 14.4433 7.03247 14.9758L6.14171 15.8586C6.63657 16.5733 7.25866 17.1899 7.97975 17.6804L8.87051 16.7975C9.40779 17.1338 10.0016 17.3861 10.6379 17.5262V18.7594C11.062 18.8435 11.4862 18.8855 11.9386 18.8855C12.3911 18.8855 12.8153 18.8435 13.2395 18.7594V17.5262C13.8757 17.3861 14.4836 17.1338 15.0209 16.7975L15.8976 17.6663C16.6187 17.1759 17.2408 16.5733 17.7356 15.8446L16.8449 14.9618C17.1842 14.4293 17.4387 13.8407 17.5801 13.1961H18.8243L18.8384 13.1821Z" stroke="#B6BBCD" stroke-miterlimit="10"/>
<path d="M11.9245 14.8356C13.6659 14.8356 15.0775 13.4365 15.0775 11.7107C15.0775 9.98479 13.6659 8.58569 11.9245 8.58569C10.1832 8.58569 8.77148 9.98479 8.77148 11.7107C8.77148 13.4365 10.1832 14.8356 11.9245 14.8356Z" stroke="#B6BBCD" stroke-miterlimit="10"/>
<path d="M26.0753 6.01227L22.4834 2.32849L18.8916 6.01227" stroke="#B6BBCD" stroke-miterlimit="10"/>
</svg>
