<svg width="29" height="22" viewBox="0 0 29 22" fill="none" xmlns="http://www.w3.org/2000/svg">
<path d="M22.8868 15.8016V17.0125C22.8868 17.5997 22.4796 18.0767 21.9612 18.0767H1.42558C0.919598 18.0767 0.5 17.5997 0.5 17.0125V1.56415C0.5 0.977042 0.907257 0.5 1.42558 0.5H21.9612C22.4672 0.5 22.8868 0.977042 22.8868 1.56415V6.13873" stroke="#B6BBCD" stroke-miterlimit="10"/>
<path d="M0.511719 15.7159H16.4195" stroke="#B6BBCD" stroke-miterlimit="10"/>
<path d="M9.74333 18.0767V19.8503C9.74333 20.0949 9.65692 20.3395 9.49649 20.5108L9.10156 20.9388" stroke="#B6BBCD" stroke-miterlimit="10"/>
<path d="M13.6431 18.0767V19.8503C13.6431 20.0949 13.7294 20.3395 13.8898 20.5108L14.2848 20.9388" stroke="#B6BBCD" stroke-miterlimit="10"/>
<path d="M7.32422 20.9267H9.1137H14.2846H16.0618" stroke="#B6BBCD" stroke-miterlimit="10"/>
<path d="M5.62109 11.6918V4.36511" stroke="#B6BBCD" stroke-miterlimit="10"/>
<path d="M9.17578 11.6918V8.18137" stroke="#B6BBCD" stroke-miterlimit="10"/>
<path d="M13.0142 11.6918V5.39258" stroke="#B6BBCD" stroke-miterlimit="10"/>
<path d="M16.8643 7.44746V4.36511" stroke="#B6BBCD" stroke-miterlimit="10"/>
<path d="M19.9741 16.6211C23.1026 16.6211 25.6387 14.1075 25.6387 11.0069C25.6387 7.90619 23.1026 5.39258 19.9741 5.39258C16.8456 5.39258 14.3096 7.90619 14.3096 11.0069C14.3096 14.1075 16.8456 16.6211 19.9741 16.6211Z" stroke="#B6BBCD" stroke-miterlimit="10"/>
<path d="M24.2563 14.7741L27.9587 18.15" stroke="#B6BBCD" stroke-miterlimit="10"/>
<path d="M16.8394 11.8386V6.71359" stroke="#B6BBCD" stroke-miterlimit="10"/>
</svg>
