<svg width="29" height="17" viewBox="0 0 29 17" fill="none" xmlns="http://www.w3.org/2000/svg">
<g clip-path="url(#clip0_68_2970)">
<path d="M6.37886 7.63131H2.51758V3.67871" stroke="#707272" stroke-width="0.56" stroke-miterlimit="10"/>
<path d="M3.33946 3.67876C3.33946 3.22219 2.9742 2.85693 2.51763 2.85693C2.06106 2.85693 1.6958 3.22219 1.6958 3.67876C1.6958 4.13533 2.06106 4.50059 2.51763 4.50059C2.9742 4.50059 3.33946 4.13533 3.33946 3.67876Z" fill="#707272"/>
<path d="M7.33118 9.11816H0.821777" stroke="#707272" stroke-width="0.56" stroke-miterlimit="10"/>
<path d="M0.821828 8.28369C0.365257 8.28369 0 8.64895 0 9.10552C0 9.56209 0.365257 9.92735 0.821828 9.92735C1.2784 9.92735 1.64366 9.56209 1.64366 9.10552C1.64366 8.64895 1.2784 8.28369 0.821828 8.28369Z" fill="#707272"/>
<path d="M6.37888 10.6055H2.33496V14.0754" stroke="#707272" stroke-width="0.56" stroke-miterlimit="10"/>
<path d="M1.51318 14.0752C1.51318 14.5318 1.87844 14.8971 2.33501 14.8971C2.79158 14.8971 3.15684 14.5318 3.15684 14.0752C3.15684 13.6187 2.79158 13.2534 2.33501 13.2534C1.87844 13.2534 1.51318 13.6187 1.51318 14.0752Z" fill="#707272"/>
<path d="M1.86523 7.70947H6.32659" stroke="#707272" stroke-width="0.56" stroke-miterlimit="10"/>
<path d="M3.46973 10.5664C4.22633 12.7971 6.41787 14.3103 8.87031 14.1016C11.7532 13.8537 13.8795 11.3099 13.6317 8.42703C13.5665 7.67042 13.3317 6.966 12.9925 6.33984" stroke="#707272" stroke-width="0.56" stroke-miterlimit="10"/>
<path d="M11.349 4.55273C10.3837 3.90048 9.20969 3.56131 7.97042 3.67872C5.80497 3.86135 4.07 5.34846 3.44385 7.29215" stroke="#707272" stroke-width="0.56" stroke-miterlimit="10"/>
<path d="M13.1102 13.4101C13.9321 14.5059 15.0148 15.3929 16.2801 15.9669L18.1325 10.3054C17.1802 9.75755 16.541 8.74005 16.541 7.55297C16.541 5.79191 17.9629 4.37001 19.724 4.37001C21.4851 4.37001 22.907 5.79191 22.907 7.55297C22.907 8.7531 22.2417 9.78364 21.2633 10.3315L23.207 15.8756C25.9334 14.5581 27.8249 11.7665 27.8249 8.53133C27.8249 4.0178 24.1723 0.365234 19.6588 0.365234C15.1452 0.365234 11.4927 4.0178 11.4927 8.53133C11.4927 9.43143 11.6362 10.2793 11.9101 11.0881" stroke="#707272" stroke-width="0.56" stroke-miterlimit="10"/>
</g>
<defs>
<clipPath id="clip0_68_2970">
<rect width="28.19" height="16.4626" fill="white"/>
</clipPath>
</defs>
</svg>
