<svg width="29" height="17" viewBox="0 0 29 17" fill="none" xmlns="http://www.w3.org/2000/svg">
<path d="M3.24627 9.45681C3.82158 9.45681 4.28795 8.99734 4.28795 8.43055C4.28795 7.86377 3.82158 7.4043 3.24627 7.4043C2.67097 7.4043 2.20459 7.86377 2.20459 8.43055C2.20459 8.99734 2.67097 9.45681 3.24627 9.45681Z" stroke="#B6BBCD" stroke-miterlimit="10"/>
<path d="M13.2843 6.84437H8.61249C7.98117 5.35164 6.466 4.26318 4.69829 4.26318C2.39397 4.26318 0.5 6.1291 0.5 8.43041C0.5 10.7317 2.39397 12.5976 4.72986 12.5976C6.49756 12.5976 7.98117 11.5403 8.64406 10.0164H13.3158V6.84437H13.2843Z" stroke="#B6BBCD" stroke-miterlimit="10"/>
<path d="M13.3794 5.00977V11.8515" stroke="#B6BBCD" stroke-miterlimit="10"/>
<path d="M20.2925 4.85417L22.6599 3.08154H27.963" stroke="#B6BBCD" stroke-miterlimit="10"/>
<path d="M27.9628 3.79675C28.3638 3.79675 28.6889 3.47651 28.6889 3.08148C28.6889 2.68645 28.3638 2.36621 27.9628 2.36621C27.5619 2.36621 27.2368 2.68645 27.2368 3.08148C27.2368 3.47651 27.5619 3.79675 27.9628 3.79675Z" fill="#B6BBCD"/>
<path d="M24.1436 8.55469L26.1954 6.34668H27.9631" stroke="#B6BBCD" stroke-miterlimit="10"/>
<path d="M27.9628 7.06237C28.3638 7.06237 28.6889 6.74214 28.6889 6.34711C28.6889 5.95207 28.3638 5.63184 27.9628 5.63184C27.5619 5.63184 27.2368 5.95207 27.2368 6.34711C27.2368 6.74214 27.5619 7.06237 27.9628 7.06237Z" fill="#B6BBCD"/>
<path d="M20.3555 12.3804L22.6598 14.2152H27.9629" stroke="#B6BBCD" stroke-miterlimit="10"/>
<path d="M27.9628 14.93C28.3638 14.93 28.6889 14.6098 28.6889 14.2148C28.6889 13.8197 28.3638 13.4995 27.9628 13.4995C27.5619 13.4995 27.2368 13.8197 27.2368 14.2148C27.2368 14.6098 27.5619 14.93 27.9628 14.93Z" fill="#B6BBCD"/>
<path d="M24.3013 8.6792L26.3531 10.8561H27.9629" stroke="#B6BBCD" stroke-miterlimit="10"/>
<path d="M27.9628 11.5717C28.3638 11.5717 28.6889 11.2514 28.6889 10.8564C28.6889 10.4614 28.3638 10.1411 27.9628 10.1411C27.5619 10.1411 27.2368 10.4614 27.2368 10.8564C27.2368 11.2514 27.5619 11.5717 27.9628 11.5717Z" fill="#B6BBCD"/>
<path d="M21.5552 8.61719H24.6487" stroke="#B6BBCD" stroke-miterlimit="10"/>
<path d="M6.40315 4.44953C7.82362 2.08603 10.412 0.5 13.3793 0.5C17.8301 0.5 21.4286 4.04525 21.4286 8.43016C21.4286 12.8151 17.8301 16.3603 13.3793 16.3603C10.3805 16.3603 7.76049 14.7432 6.37158 12.3486" stroke="#B6BBCD" stroke-miterlimit="10"/>
</svg>
