<svg width="29" height="18" viewBox="0 0 29 18" fill="none" xmlns="http://www.w3.org/2000/svg">
<g clip-path="url(#clip0_68_2963)">
<path d="M17.2255 10.9342C17.3477 10.415 17.4393 9.89576 17.4699 9.37655C17.5004 8.85734 17.4699 8.30759 17.4088 7.78838L15.8817 7.69675C15.7595 6.90267 15.4847 6.13913 15.1182 5.46721L16.2482 4.45933C15.6985 3.54308 14.9655 2.749 14.1103 2.10762L12.9803 3.1155C12.3389 2.65737 11.6364 2.32141 10.8729 2.10762L10.9645 0.580534C10.4453 0.458367 9.92608 0.366742 9.37633 0.3362C8.82658 0.305659 8.30737 0.3362 7.78816 0.397284L7.69653 1.92437C6.90245 2.04654 6.16945 2.32141 5.46699 2.71845L4.45911 1.58841C3.54286 2.13816 2.74878 2.84062 2.07686 3.69579L3.08473 4.82583C2.62661 5.46721 2.29065 6.16967 2.07686 6.96375L0.549772 6.87213C0.427606 7.39134 0.33598 7.91055 0.305439 8.4603C0.274897 9.01005 0.305439 9.52926 0.366522 10.0485L1.89361 10.1401C2.01577 10.9342 2.29065 11.6977 2.68769 12.3696L1.55765 13.3775C2.1074 14.2938 2.8404 15.0879 3.66503 15.7292L4.79507 14.7213C5.43645 15.1795 6.13891 15.5154 6.90245 15.7292L6.81082 17.2563C7.33003 17.3785 7.84924 17.4701 8.39899 17.5006C8.94874 17.5312 9.46795 17.5006 9.98716 17.4396L10.0788 15.9125C10.8729 15.7903 11.6364 15.5154 12.3083 15.1489L13.3162 16.279C14.2325 15.7292 15.0265 15.0268 15.6679 14.1716L14.66 13.0416C15.1182 12.4002 15.4541 11.6977 15.6679 10.9036L17.195 10.9953L17.2255 10.9342Z" stroke="#B6BBCD" stroke-miterlimit="10"/>
<path d="M8.88759 12.5222C11.0298 12.5222 12.7664 10.7856 12.7664 8.64345C12.7664 6.50125 11.0298 4.76465 8.88759 4.76465C6.74539 4.76465 5.00879 6.50125 5.00879 8.64345C5.00879 10.7856 6.74539 12.5222 8.88759 12.5222Z" stroke="#B6BBCD" stroke-miterlimit="10"/>
<path d="M26.8769 6.44434C27.3045 7.36059 27.5183 8.39901 27.5183 9.46797C27.5183 13.4689 24.2503 16.7369 20.2493 16.7369C18.2947 16.7369 16.5233 15.9734 15.21 14.7211" stroke="#B6BBCD" stroke-miterlimit="10"/>
<path d="M15.668 3.84847C16.9202 2.81005 18.5083 2.19922 20.2798 2.19922C22.2039 2.19922 23.9448 2.93222 25.2275 4.15389" stroke="#B6BBCD" stroke-miterlimit="10"/>
<path d="M18.5083 7.42171L20.7378 11.0256L27.9457 2.99316" stroke="#B6BBCD" stroke-miterlimit="10"/>
</g>
<defs>
<clipPath id="clip0_68_2963">
<rect width="28.19" height="17.7753" fill="white"/>
</clipPath>
</defs>
</svg>
