<svg width="101" height="331" viewBox="0 0 101 331" fill="none" xmlns="http://www.w3.org/2000/svg">
<path d="M56.625 204.678C77.0883 204.678 93.6771 188.089 93.6771 167.625C93.6771 147.162 77.0883 130.573 56.625 130.573C36.1616 130.573 19.5728 147.162 19.5728 167.625C19.5728 188.089 36.1616 204.678 56.625 204.678Z" stroke="#B6BBCD" stroke-width="1.38" stroke-miterlimit="10"/>
<g clip-path="url(#clip0_426_30)">
<path d="M68.8339 146.966H67.0609L61.7682 152.222L44.3288 169.513V152.222H59.2542L64.5469 146.966H51.6327C49.5156 146.966 47.5044 147.793 46.0225 149.287L41.3649 153.903C39.883 155.371 39.0361 157.399 39.0361 159.48V178.479H56.9254C59.0425 178.479 61.0537 177.652 62.5356 176.157L65.4995 173.222H48.0602L65.4995 155.931V188.992H70.7922V146.966H68.8339Z" fill="#6E8090"/>
</g>
<path d="M0.5 253.686V310.957C0.5 321.45 9.00659 329.957 19.5 329.957H60.5" stroke="#B6BBCD"/>
<path d="M0.5 209.224V261.063" stroke="#B6BBCD"/>
<path d="M0.5 76.8722L0.499994 226.872" stroke="#B6BBCD"/>
<path d="M19.4995 166.212L0.499512 166.212" stroke="#B6BBCD"/>
<path d="M0.5 76.7712V19.5C0.5 9.00663 9.00659 0.500054 19.5 0.500054H60.5" stroke="#B6BBCD"/>
<defs>
<clipPath id="clip0_426_30">
<rect width="31.7561" height="42" fill="white" transform="translate(39.0361 146.966)"/>
</clipPath>
</defs>
</svg>
