<svg width="27" height="31" viewBox="0 0 27 31" fill="none" xmlns="http://www.w3.org/2000/svg">
<path d="M25.5703 24.6299C25.6417 24.2619 25.6703 23.894 25.6703 23.5119C25.6703 23.1298 25.6417 22.7618 25.5703 22.3938H24.4853C24.3568 21.8419 24.1426 21.3324 23.8428 20.8654L24.6137 20.1153C24.1854 19.4926 23.6428 18.9548 23.0146 18.5302L22.2436 19.2944C21.7725 18.9972 21.2584 18.7849 20.7016 18.6576V17.582C20.3304 17.5112 19.9592 17.4829 19.5737 17.4829C19.1881 17.4829 18.8169 17.5112 18.4456 17.582V18.6576C17.8888 18.7849 17.3748 18.9972 16.9037 19.2944L16.1469 18.5443C15.5187 18.9548 14.9761 19.4926 14.5478 20.1153L15.3187 20.8795C15.0189 21.3465 14.8047 21.856 14.6762 22.408H13.5912C13.5198 22.7759 13.4912 23.1439 13.4912 23.526C13.4912 23.9081 13.5198 24.2761 13.5912 24.6441H14.6762C14.8047 25.196 15.0189 25.7055 15.3187 26.1725L14.5478 26.9368C14.9761 27.5595 15.5187 28.0831 16.1469 28.5218L16.9179 27.7576C17.3891 28.0548 17.9031 28.2671 18.4599 28.3945V29.4701C18.8312 29.5408 19.2024 29.5691 19.5879 29.5691C19.9734 29.5691 20.3446 29.5408 20.7159 29.4701V28.3945C21.2727 28.2671 21.7867 28.0548 22.2579 27.7576L23.0146 28.5077C23.6428 28.0831 24.1854 27.5595 24.6137 26.9368L23.8428 26.1725C24.1426 25.7055 24.3568 25.196 24.4853 24.6441H25.5703V24.6299Z" stroke="#B6BBCD" stroke-linecap="round" stroke-linejoin="round"/>
<path d="M19.588 26.0735C21.1021 26.0735 22.3295 24.8569 22.3295 23.3562C22.3295 21.8555 21.1021 20.6389 19.588 20.6389C18.074 20.6389 16.8467 21.8555 16.8467 23.3562C16.8467 24.8569 18.074 26.0735 19.588 26.0735Z" stroke="#B6BBCD" stroke-linecap="round" stroke-linejoin="round"/>
<path d="M14.6622 7.647C14.7336 7.27904 14.7622 6.91107 14.7622 6.52896C14.7622 6.14684 14.7336 5.77888 14.6622 5.41091H13.5771C13.4486 4.85896 13.2344 4.34948 12.9346 3.88244L13.7055 3.13236C13.2772 2.50965 12.7346 1.97186 12.1064 1.54728L11.3354 2.31152C10.8643 2.01432 10.3502 1.80203 9.79338 1.67466V0.599067C9.42215 0.528305 9.05096 0.5 8.66545 0.5C8.27994 0.5 7.90866 0.528305 7.53743 0.599067V1.67466C6.98059 1.80203 6.46664 2.01432 5.99547 2.31152L5.23869 1.56144C4.61046 1.97186 4.06791 2.50965 3.63957 3.13236L4.41063 3.8966C4.1108 4.36363 3.89661 4.87312 3.76811 5.42506H2.68296C2.61157 5.79303 2.58301 6.16099 2.58301 6.54311C2.58301 6.92523 2.61157 7.29319 2.68296 7.66116H3.76811C3.89661 8.2131 4.1108 8.72259 4.41063 9.18962L3.63957 9.95386C4.06791 10.5766 4.61046 11.1002 5.23869 11.5389L6.00976 10.7747C6.48094 11.0719 6.99488 11.2842 7.55172 11.4116V12.4872C7.92295 12.5579 8.29424 12.5862 8.67974 12.5862C9.06525 12.5862 9.43644 12.5579 9.80767 12.4872V11.4116C10.3645 11.2842 10.8785 11.0719 11.3497 10.7747L12.1064 11.5248C12.7346 11.1002 13.2772 10.5766 13.7055 9.95386L12.9346 9.18962C13.2344 8.72259 13.4486 8.2131 13.5771 7.66116H14.6622V7.647Z" stroke="#B6BBCD" stroke-linecap="round" stroke-linejoin="round"/>
<path d="M8.67992 9.26048C10.1939 9.26048 11.4213 8.04391 11.4213 6.5432C11.4213 5.04249 10.1939 3.82593 8.67992 3.82593C7.1659 3.82593 5.93848 5.04249 5.93848 6.5432C5.93848 8.04391 7.1659 9.26048 8.67992 9.26048Z" stroke="#B6BBCD" stroke-linecap="round" stroke-linejoin="round"/>
<path d="M10.065 18.9124C10.4648 19.5775 10.7218 20.3418 10.7789 21.1768C10.9788 23.9931 8.85141 26.4273 6.01009 26.6255C3.16877 26.8236 0.712899 24.7149 0.513007 21.8985C0.313115 19.0822 2.44058 16.648 5.2819 16.4498C5.98152 16.4074 6.65253 16.4923 7.28076 16.7046" stroke="#B6BBCD" stroke-linecap="round" stroke-linejoin="round"/>
<path d="M9.42223 15.926L5.78136 22.9032L3.75391 20.3982" stroke="#B6BBCD" stroke-linecap="round" stroke-linejoin="round"/>
<path d="M25.4849 7.49121C25.8847 8.15638 26.1417 8.92061 26.1988 9.75561C26.3987 12.572 24.2713 15.0062 21.43 15.2043C18.5887 15.4024 16.1328 13.2937 15.9329 10.4774C15.733 7.66104 17.8605 5.22682 20.7018 5.02868C21.4014 4.98622 22.0725 5.07114 22.7008 5.28343" stroke="#B6BBCD" stroke-linecap="round" stroke-linejoin="round"/>
<path d="M24.8422 4.50513L21.1871 11.4823L19.1738 8.97731" stroke="#B6BBCD" stroke-linecap="round" stroke-linejoin="round"/>
<path d="M5.79508 16.3792C5.62374 15.6998 5.53809 14.9781 5.53809 14.2421C5.53809 13.0958 5.75225 11.9919 6.15203 10.9871" stroke="#B6BBCD" stroke-linecap="round" stroke-linejoin="round"/>
<path d="M13.534 23.1439C12.5346 23.0306 11.578 22.7476 10.707 22.3372" stroke="#B6BBCD" stroke-miterlimit="10"/>
<path d="M23.586 14.4968C23.5432 16.181 23.0292 17.7519 22.1582 19.0822" stroke="#B6BBCD" stroke-linecap="round" stroke-linejoin="round"/>
<path d="M14.5625 5.31177C15.7761 5.31177 16.9469 5.55236 18.0035 5.99109" stroke="#B6BBCD" stroke-linecap="round" stroke-linejoin="round"/>
</svg>
