<svg width="28" height="21" viewBox="0 0 28 21" fill="none" xmlns="http://www.w3.org/2000/svg">
<path d="M18.1761 9.23206C18.0762 8.8924 18.019 8.53859 18.019 8.17062C18.019 6.14682 19.6753 4.49097 21.7313 4.49097C23.7874 4.49097 25.4436 6.13266 25.4436 8.17062C25.4436 8.5952 25.3722 9.00564 25.2437 9.38776" stroke="#B6BBCD" stroke-miterlimit="10"/>
<path d="M21.6456 17.6245C24.4292 17.6245 26.6857 15.3878 26.6857 12.6286C26.6857 9.86952 24.4292 7.63281 21.6456 7.63281C18.862 7.63281 16.6055 9.86952 16.6055 12.6286C16.6055 15.3878 18.862 17.6245 21.6456 17.6245Z" stroke="#B6BBCD" stroke-miterlimit="10"/>
<path d="M22.3736 14.1714V12.6287C22.8162 12.3881 23.1018 11.8786 22.9876 11.3125C22.9019 10.8455 22.5164 10.4493 22.0452 10.3502C21.2456 10.1804 20.5317 10.7889 20.5317 11.5532C20.5317 12.006 20.7887 12.4023 21.1457 12.6146V14.1572C21.1457 14.4827 21.417 14.7516 21.7596 14.7516C22.088 14.7516 22.3593 14.4827 22.3593 14.1572L22.3736 14.1714Z" stroke="#B6BBCD" stroke-miterlimit="10"/>
<path d="M18.9615 17.0018H1.37096C0.899784 17.0018 0.5 16.5489 0.5 15.9969V1.50481C0.5 0.952867 0.885506 0.5 1.37096 0.5H20.632C21.1032 0.5 21.5029 0.952867 21.5029 1.50481V4.3636" stroke="#B6BBCD" stroke-miterlimit="10"/>
<path d="M0.5 14.7798H17.2909" stroke="#B6BBCD" stroke-miterlimit="10"/>
<path d="M9.16657 17.0017V18.6717C9.16657 18.8981 9.0809 19.1246 8.93812 19.2802L8.56689 19.6765" stroke="#B6BBCD" stroke-miterlimit="10"/>
<path d="M12.8218 17.0017V18.6717C12.8218 18.8981 12.9074 19.1246 13.0502 19.2802L13.4215 19.6765" stroke="#B6BBCD" stroke-miterlimit="10"/>
<path d="M6.89648 19.6765H8.56701H13.4215H15.0921" stroke="#B6BBCD" stroke-miterlimit="10"/>
<path d="M5.43994 11.0153V5.45337" stroke="#B6BBCD" stroke-miterlimit="10"/>
<path d="M8.35303 11.0153V5.45337" stroke="#B6BBCD" stroke-miterlimit="10"/>
<path d="M11.2656 11.0153V5.45337" stroke="#B6BBCD" stroke-miterlimit="10"/>
<path d="M14.1782 11.086V5.45337" stroke="#B6BBCD" stroke-miterlimit="10"/>
<path d="M5.49707 10.1236C5.95443 10.1236 6.32519 9.75614 6.32519 9.3028C6.32519 8.84946 5.95443 8.48193 5.49707 8.48193C5.03971 8.48193 4.66895 8.84946 4.66895 9.3028C4.66895 9.75614 5.03971 10.1236 5.49707 10.1236Z" stroke="#B6BBCD" stroke-miterlimit="10"/>
<path d="M11.1943 9.01962C11.6517 9.01962 12.0225 8.65214 12.0225 8.1988C12.0225 7.74546 11.6517 7.37793 11.1943 7.37793C10.737 7.37793 10.3662 7.74546 10.3662 8.1988C10.3662 8.65214 10.737 9.01962 11.1943 9.01962Z" stroke="#B6BBCD" stroke-miterlimit="10"/>
<path d="M8.41016 8.19882C8.86752 8.19882 9.23828 7.83129 9.23828 7.37795C9.23828 6.92461 8.86752 6.55713 8.41016 6.55713C7.9528 6.55713 7.58203 6.92461 7.58203 7.37795C7.58203 7.83129 7.9528 8.19882 8.41016 8.19882Z" stroke="#B6BBCD" stroke-miterlimit="10"/>
<path d="M14.2354 8.19882C14.6927 8.19882 15.0635 7.83129 15.0635 7.37795C15.0635 6.92461 14.6927 6.55713 14.2354 6.55713C13.778 6.55713 13.4072 6.92461 13.4072 7.37795C13.4072 7.83129 13.778 8.19882 14.2354 8.19882Z" stroke="#B6BBCD" stroke-miterlimit="10"/>
</svg>
