<svg width="27" height="25" viewBox="0 0 27 25" fill="none" xmlns="http://www.w3.org/2000/svg">
<path d="M13.136 17.6528L8.66699 23.8375" stroke="#B6BBCD" stroke-linecap="round" stroke-linejoin="round"/>
<path d="M19.6897 23.8375L15.1636 17.6528" stroke="#B6BBCD" stroke-linecap="round" stroke-linejoin="round"/>
<path d="M14.3497 13.4778C16.32 13.4778 18.0049 12.3031 18.733 10.619H15.0636V6.86858H18.7187C17.9906 5.19859 16.3058 4.03809 14.3497 4.03809C12.2365 4.03809 10.466 5.39669 9.82349 7.27897H0.5V10.251H9.82349C10.4517 12.1333 12.2365 13.4919 14.3497 13.4919V13.4778Z" stroke="#B6BBCD" stroke-linecap="round" stroke-linejoin="round"/>
<path d="M3.25586 10.6332V15.8554C3.25586 16.7329 3.96975 17.4405 4.85499 17.4405H24.0303C24.9156 17.4405 25.6295 16.7329 25.6295 15.8554V2.08507C25.6295 1.20762 24.9156 0.5 24.0303 0.5H4.85499C3.96975 0.5 3.25586 1.20762 3.25586 2.08507V7.20826" stroke="#B6BBCD" stroke-miterlimit="10" stroke-linecap="round"/>
</svg>
