<svg width="19" height="18" viewBox="0 0 19 18" fill="none" xmlns="http://www.w3.org/2000/svg">
<g clip-path="url(#clip0_71_7167)">
<path d="M2.29739 0C3.6841 0 4.55338 0.90205 4.57407 2.09112C4.57407 3.25968 3.6841 4.18223 2.27669 4.18223H2.25599C0.889978 4.18223 0 3.25968 0 2.09112C0 0.922551 0.910675 0 2.29739 0Z" fill="#71BFFF"/>
<path d="M14.323 5.57617C16.9929 5.57617 19.0005 7.31877 19.0005 11.0295V17.9794H14.9232V11.4805C14.9232 9.84041 14.3437 8.73335 12.8535 8.73335C11.7358 8.73335 11.0528 9.49189 10.763 10.2094C10.6596 10.4759 10.6389 10.8245 10.6389 11.1935V17.9794H6.56152C6.56152 17.9794 6.62361 6.97025 6.56152 5.84269H10.6389V7.56478C11.177 6.74474 12.1498 5.57617 14.3023 5.57617H14.323Z" fill="#71BFFF"/>
<path d="M4.32539 5.84277H0.248047V17.9794H4.32539V5.84277Z" fill="#71BFFF"/>
</g>
<defs>
<clipPath id="clip0_71_7167">
<rect width="19" height="18" fill="white"/>
</clipPath>
</defs>
</svg>
