<svg width="58" height="82" viewBox="0 0 58 82" fill="none" xmlns="http://www.w3.org/2000/svg">
<path d="M51.6129 81.2706H5.8238C2.88229 81.2706 0.5 78.8871 0.5 75.9441V5.82652C0.5 2.88351 2.88229 0.5 5.8238 0.5H51.9261C54.8676 0.5 57.2499 2.88351 57.2499 5.82652V75.6308C57.2499 78.7417 54.7222 81.2706 51.6129 81.2706Z" stroke="#79C99C" stroke-linecap="round" stroke-linejoin="round"/>
<path d="M0.51123 70.6958H56.7131" stroke="#79C99C" stroke-linecap="round" stroke-linejoin="round"/>
<path d="M23.6406 5.34546H34.1205" stroke="#79C99C" stroke-linecap="round" stroke-linejoin="round"/>
<path d="M31.2795 75.5411C31.2795 76.8728 30.2058 77.947 28.8749 77.947C27.5439 77.947 26.4702 76.8728 26.4702 75.5411C26.4702 74.2095 27.5439 73.1353 28.8749 73.1353C30.2058 73.1353 31.2795 74.2095 31.2795 75.5411Z" stroke="#79C99C" stroke-linecap="round" stroke-linejoin="round"/>
<path d="M40.9321 37.3381L28.8864 49.4011L16.8296 37.3381" stroke="#79C99C" stroke-linecap="round" stroke-linejoin="round"/>
<path d="M28.8975 49.7143V18.1804" stroke="#79C99C" stroke-linecap="round" stroke-linejoin="round"/>
<path d="M16.7734 57.8943H41.0101" stroke="#79C99C" stroke-linecap="round" stroke-linejoin="round"/>
</svg>
