<svg width="122" height="97" viewBox="0 0 122 97" fill="none" xmlns="http://www.w3.org/2000/svg">
<path d="M34.501 96.0864H86.7883" stroke="#79C99C" stroke-width="1.69" stroke-linecap="round" stroke-linejoin="round"/>
<path d="M60.3367 73.8066C61.4776 73.8066 62.3947 74.7355 62.3947 75.8769C62.3947 77.0183 61.4664 77.9358 60.3367 77.9358C59.2071 77.9358 58.2788 77.0071 58.2788 75.8769C58.2788 74.7467 59.2071 73.8066 60.3367 73.8066Z" stroke="#79C99C" stroke-linecap="round" stroke-linejoin="round"/>
<path d="M120.162 70.8078V76.7834C120.162 79.5026 117.959 81.7182 115.23 81.7182H5.43234C2.70334 81.7182 0.5 79.5138 0.5 76.7834V5.4349C0.5 2.71569 2.70334 0.5 5.43234 0.5H115.23C117.959 0.5 120.162 2.7045 120.162 5.4349V70.8078Z" stroke="#79C99C" stroke-linecap="round" stroke-linejoin="round"/>
<path d="M0.5 70.8076H120.162H120.61" stroke="#79C99C" stroke-linecap="round" stroke-linejoin="round"/>
<path d="M49.9015 81.7183V89.9207C49.9015 91.0733 49.4206 92.1587 48.5817 92.942L46.4902 94.8891" stroke="#79C99C" stroke-linecap="round" stroke-linejoin="round"/>
<path d="M70.7607 81.7183V89.9207C70.7607 91.0733 71.2305 92.1587 72.0693 92.942L74.1608 94.8891" stroke="#79C99C" stroke-linecap="round" stroke-linejoin="round"/>
<path d="M62.3947 75.8656C62.3947 77.007 61.4664 77.9246 60.3367 77.9246C59.2071 77.9246 58.2788 76.9958 58.2788 75.8656C58.2788 74.7354 59.2071 73.7954 60.3367 73.7954C61.4664 73.7954 62.3947 74.7242 62.3947 75.8656Z" stroke="#79C99C" stroke-linecap="round" stroke-linejoin="round"/>
<path d="M14.2012 15.2822H105.388" stroke="#79C99C" stroke-linecap="round" stroke-linejoin="round"/>
<path d="M82.3032 31.4519H105.388" stroke="#79C99C" stroke-linecap="round" stroke-linejoin="round"/>
<path d="M82.3032 43.0002H105.388" stroke="#79C99C" stroke-linecap="round" stroke-linejoin="round"/>
<path d="M82.3032 54.5483H105.388" stroke="#79C99C" stroke-linecap="round" stroke-linejoin="round"/>
<path d="M41.3233 24.5142H19.9722V62.0459H41.3233V24.5142Z" stroke="#79C99C" stroke-linecap="round" stroke-linejoin="round"/>
<path d="M69.6086 37.2261H51.1431V62.0571H69.6086V37.2261Z" stroke="#79C99C" stroke-linecap="round" stroke-linejoin="round"/>
</svg>
