<svg width="58" height="82" viewBox="0 0 58 82" fill="none" xmlns="http://www.w3.org/2000/svg">
<path d="M51.6129 81.2706H5.8238C2.88229 81.2706 0.5 78.8871 0.5 75.9441V5.8265C0.5 2.88348 2.88229 0.5 5.8238 0.5H51.9261C54.8676 0.5 57.2499 2.88348 57.2499 5.8265V75.6308C57.2499 78.7416 54.7222 81.2706 51.6129 81.2706Z" stroke="#79C99C" stroke-linecap="round" stroke-linejoin="round"/>
<path d="M0.51123 70.6956H56.7131" stroke="#79C99C" stroke-linecap="round" stroke-linejoin="round"/>
<path d="M23.6406 5.34497H34.1205" stroke="#79C99C" stroke-linecap="round" stroke-linejoin="round"/>
<path d="M31.28 75.5409C31.28 76.8726 30.2063 77.9468 28.8754 77.9468C27.5444 77.9468 26.4707 76.8726 26.4707 75.5409C26.4707 74.2093 27.5444 73.135 28.8754 73.135C30.2063 73.135 31.28 74.2093 31.28 75.5409Z" stroke="#79C99C" stroke-linecap="round" stroke-linejoin="round"/>
<path d="M41.8716 35.9836H18.4961V59.3711H41.8716V35.9836Z" stroke="#79C99C" stroke-linecap="round" stroke-linejoin="round"/>
<path d="M37.7106 14.0173H21.9741V24.4466H37.7106V14.0173Z" stroke="#79C99C" stroke-linecap="round" stroke-linejoin="round"/>
<path d="M26.269 27.5127H33.2146" stroke="#79C99C" stroke-linecap="round" stroke-linejoin="round"/>
<path d="M38.1247 40.8179H22.3882V51.2471H38.1247V40.8179Z" stroke="#79C99C" stroke-linecap="round" stroke-linejoin="round"/>
<path d="M26.6719 54.3245H33.6286" stroke="#79C99C" stroke-linecap="round" stroke-linejoin="round"/>
</svg>
