<svg width="295" height="68" viewBox="0 0 295 68" fill="none" xmlns="http://www.w3.org/2000/svg">
<g clip-path="url(#clip0_45_70)">
<path d="M86.94 31.98H85.47V52.39H86.94V31.98Z" fill="#193057"/>
<path d="M106.66 52.4V31.99H115.14C116 31.99 116.8 32.17 117.53 32.54C118.26 32.9 118.89 33.39 119.41 33.99C119.94 34.59 120.35 35.27 120.65 36.03C120.95 36.79 121.1 37.55 121.1 38.32C121.1 39.09 120.98 39.79 120.76 40.49C120.53 41.19 120.2 41.82 119.78 42.37C119.36 42.93 118.85 43.39 118.26 43.75C117.67 44.11 117.01 44.35 116.31 44.47L121.4 52.4H119.7L114.75 44.69H108.14V52.4H106.67H106.66ZM108.12 43.34H115.28C115.93 43.34 116.53 43.2 117.06 42.91C117.6 42.62 118.06 42.24 118.44 41.77C118.82 41.3 119.11 40.76 119.32 40.16C119.52 39.56 119.62 38.94 119.62 38.31C119.62 37.68 119.5 37.03 119.26 36.43C119.02 35.83 118.69 35.29 118.28 34.83C117.87 34.37 117.39 34 116.84 33.72C116.29 33.44 115.7 33.3 115.07 33.3H108.11V43.33L108.12 43.34Z" fill="#193057"/>
<path d="M147.83 52.54C146.41 52.54 145.12 52.24 143.95 51.65C142.78 51.06 141.77 50.28 140.93 49.32C140.09 48.36 139.43 47.26 138.98 46.01C138.52 44.76 138.29 43.49 138.29 42.18C138.29 40.87 138.53 39.52 139.02 38.27C139.51 37.02 140.18 35.92 141.03 34.96C141.88 34 142.89 33.24 144.06 32.67C145.23 32.1 146.49 31.82 147.86 31.82C149.23 31.82 150.58 32.12 151.76 32.73C152.94 33.33 153.95 34.12 154.78 35.1C155.61 36.08 156.26 37.18 156.72 38.42C157.18 39.66 157.41 40.91 157.41 42.17C157.41 43.55 157.17 44.86 156.68 46.11C156.19 47.36 155.52 48.45 154.67 49.4C153.82 50.35 152.81 51.11 151.64 51.67C150.47 52.24 149.21 52.52 147.84 52.52M139.75 42.19C139.75 43.36 139.95 44.49 140.34 45.57C140.73 46.65 141.29 47.61 142.01 48.45C142.73 49.28 143.59 49.95 144.58 50.45C145.58 50.95 146.67 51.2 147.86 51.2C149.05 51.2 150.19 50.94 151.18 50.42C152.17 49.9 153.01 49.22 153.71 48.36C154.41 47.51 154.95 46.54 155.33 45.47C155.71 44.4 155.91 43.3 155.91 42.19C155.91 41.02 155.71 39.89 155.31 38.81C154.91 37.73 154.35 36.77 153.63 35.94C152.91 35.11 152.06 34.44 151.09 33.94C150.11 33.44 149.04 33.19 147.87 33.19C146.64 33.19 145.53 33.45 144.54 33.97C143.54 34.49 142.69 35.17 141.98 36.03C141.27 36.88 140.72 37.85 140.34 38.92C139.96 39.99 139.77 41.09 139.77 42.2" fill="#193057"/>
<path d="M177.19 34.75V52.4H175.72V31.99H176.84L191.16 49.96V31.99H192.62V52.4H191.27L177.19 34.75Z" fill="#193057"/>
<path d="M210.42 42.02C210.42 40.79 210.65 39.57 211.11 38.35C211.57 37.13 212.24 36.04 213.12 35.09C214 34.13 215.08 33.36 216.34 32.76C217.6 32.17 219.04 31.87 220.65 31.87C222.57 31.87 224.23 32.28 225.64 33.1C227.05 33.93 228.1 35 228.79 36.32L225.17 38.85C224.94 38.31 224.65 37.87 224.29 37.51C223.93 37.16 223.55 36.87 223.13 36.65C222.71 36.43 222.28 36.28 221.84 36.19C221.4 36.1 220.97 36.06 220.55 36.06C219.65 36.06 218.86 36.24 218.19 36.61C217.52 36.97 216.96 37.44 216.52 38.02C216.08 38.6 215.75 39.25 215.54 39.98C215.33 40.71 215.22 41.45 215.22 42.19C215.22 43 215.34 43.77 215.59 44.52C215.84 45.27 216.2 45.93 216.67 46.5C217.14 47.07 217.71 47.53 218.37 47.86C219.03 48.2 219.77 48.36 220.6 48.36C221.02 48.36 221.46 48.31 221.91 48.2C222.36 48.1 222.79 47.93 223.2 47.71C223.61 47.49 223.99 47.2 224.34 46.85C224.69 46.5 224.96 46.06 225.17 45.54L229.02 47.81C228.71 48.56 228.26 49.23 227.66 49.82C227.06 50.41 226.36 50.91 225.57 51.32C224.78 51.72 223.95 52.03 223.07 52.24C222.19 52.45 221.33 52.56 220.48 52.56C219 52.56 217.65 52.26 216.41 51.65C215.17 51.05 214.11 50.25 213.22 49.25C212.33 48.25 211.64 47.12 211.15 45.86C210.66 44.6 210.42 43.31 210.42 42.01" fill="#193057"/>
<path d="M251.02 31.99H255.27L262.72 52.4H257.89L256.31 47.83H249.96L248.41 52.4H243.58L251.03 31.99H251.02ZM255.53 44.58L253.14 37.36L250.7 44.58H255.53Z" fill="#193057"/>
<path d="M279.11 52.4V31.99H287.82C288.8 31.99 289.69 32.19 290.51 32.59C291.32 32.99 292.02 33.52 292.61 34.17C293.19 34.82 293.65 35.56 293.99 36.38C294.33 37.21 294.49 38.04 294.49 38.88C294.49 39.78 294.33 40.64 294.02 41.47C293.7 42.29 293.26 43.03 292.7 43.68C292.13 44.33 291.45 44.85 290.64 45.23C289.83 45.61 288.94 45.8 287.97 45.8H283.83V52.38H279.12L279.11 52.4ZM283.82 41.7H287.67C288.23 41.7 288.71 41.46 289.11 40.98C289.51 40.5 289.71 39.8 289.71 38.88C289.71 38.4 289.65 37.99 289.52 37.64C289.4 37.3 289.23 37.01 289.02 36.78C288.81 36.55 288.57 36.38 288.3 36.28C288.03 36.17 287.76 36.12 287.49 36.12H283.81V41.7H283.82Z" fill="#193057"/>
<path d="M31.6399 15.25C22.4999 15.25 15.0699 22.68 15.0699 31.82C15.0699 40.96 22.4999 48.39 31.6399 48.39C40.7799 48.39 48.2099 40.96 48.2099 31.82C48.2099 22.68 40.7799 15.25 31.6399 15.25ZM31.6399 46.56C23.5099 46.56 16.8999 39.95 16.8999 31.82C16.8999 23.69 23.5099 17.08 31.6399 17.08C39.7699 17.08 46.3799 23.69 46.3799 31.82C46.3799 39.95 39.7699 46.56 31.6399 46.56Z" fill="#193057"/>
<path d="M47.1801 27.71C44.9101 27.71 43.0601 29.56 43.0601 31.83C43.0601 34.1 44.9101 35.96 47.1801 35.96C49.4501 35.96 51.3001 34.11 51.3001 31.83C51.3001 29.55 49.4501 27.71 47.1801 27.71Z" fill="#193057"/>
<path d="M20.3 17.03C18.02 17.03 16.17 18.88 16.17 21.15C16.17 23.42 18.02 25.28 20.3 25.28C22.58 25.28 24.42 23.43 24.42 21.15C24.42 18.87 22.57 17.03 20.3 17.03Z" fill="#193057"/>
<path d="M31.64 27.63C23.88 27.63 16.03 29 16.03 31.62C16.03 34.24 23.88 35.61 31.64 35.61C39.4 35.61 47.25 34.24 47.25 31.62C47.25 29 39.4 27.63 31.64 27.63ZM31.64 34.57C22.75 34.57 17.07 32.82 17.07 31.62C17.07 30.42 22.75 28.67 31.64 28.67C40.53 28.67 46.21 30.42 46.21 31.62C46.21 32.82 40.53 34.57 31.64 34.57Z" fill="#193057"/>
<path d="M31.6401 23.61C27.1101 23.61 23.4301 27.29 23.4301 31.82C23.4301 36.35 27.1101 40.03 31.6401 40.03C36.1701 40.03 39.8501 36.35 39.8501 31.82C39.8501 27.29 36.1701 23.61 31.6401 23.61Z" fill="#193057"/>
<path d="M63.13 10.7C50.59 9.8 42.55 4.69 37.73 0H25.47C20.65 4.69 12.61 9.8 0.0699735 10.7C0.0699735 10.7 -3.05003 54.65 31.6 67.45C66.25 54.65 63.13 10.7 63.13 10.7ZM31.6 61.87C2.68997 51.19 5.28997 14.51 5.28997 14.51C15.75 13.76 22.46 9.49 26.48 5.58H36.71C40.73 9.49 47.44 13.76 57.9 14.51C57.9 14.51 60.5 51.19 31.59 61.87" fill="#193057"/>
<path d="M92.1 22.39V23.44H85.76V14.1H91.98V15.15H86.94V18.18H91.32V19.17H86.94V22.39H92.1Z" fill="#193057"/>
<path d="M99.43 23.45H98.27V19.61C98.27 18.87 98.16 18.34 97.94 18C97.72 17.67 97.38 17.5 96.92 17.5C96.68 17.5 96.44 17.55 96.21 17.64C95.97 17.73 95.75 17.86 95.54 18.02C95.33 18.18 95.14 18.37 94.99 18.59C94.83 18.81 94.71 19.05 94.63 19.31V23.46H93.47V16.59H94.52V18.06C94.79 17.58 95.19 17.19 95.7 16.9C96.21 16.61 96.77 16.46 97.38 16.46C97.78 16.46 98.1 16.53 98.37 16.68C98.63 16.82 98.84 17.03 99 17.29C99.16 17.55 99.27 17.85 99.34 18.2C99.41 18.55 99.44 18.93 99.44 19.35V23.46L99.43 23.45Z" fill="#193057"/>
<path d="M104.07 23.58C103.6 23.58 103.16 23.48 102.75 23.29C102.35 23.1 102 22.84 101.71 22.51C101.42 22.19 101.19 21.81 101.03 21.38C100.87 20.95 100.79 20.5 100.79 20.02C100.79 19.54 100.87 19.08 101.02 18.64C101.17 18.21 101.39 17.83 101.67 17.5C101.95 17.18 102.28 16.92 102.66 16.73C103.04 16.54 103.46 16.45 103.92 16.45C104.47 16.45 104.97 16.6 105.4 16.89C105.83 17.18 106.18 17.53 106.43 17.94V13.83H107.59V22.02C107.59 22.29 107.71 22.43 107.96 22.44V23.44L107.66 23.48H107.44C107.21 23.49 107.01 23.42 106.84 23.26C106.67 23.11 106.58 22.93 106.58 22.73V22.15C106.31 22.6 105.95 22.95 105.49 23.2C105.04 23.45 104.56 23.58 104.06 23.58M104.34 22.58C104.55 22.58 104.77 22.54 104.99 22.46C105.21 22.38 105.42 22.27 105.62 22.13C105.82 21.99 105.99 21.82 106.13 21.64C106.27 21.45 106.37 21.25 106.41 21.04V19.07C106.33 18.85 106.21 18.64 106.05 18.45C105.89 18.25 105.71 18.08 105.52 17.94C105.32 17.8 105.11 17.68 104.89 17.6C104.67 17.52 104.44 17.48 104.23 17.48C103.89 17.48 103.58 17.55 103.3 17.7C103.02 17.84 102.79 18.04 102.59 18.28C102.39 18.52 102.24 18.8 102.14 19.11C102.03 19.42 101.98 19.74 101.98 20.06C101.98 20.38 102.04 20.73 102.16 21.04C102.28 21.35 102.45 21.62 102.66 21.85C102.87 22.08 103.12 22.26 103.4 22.4C103.69 22.54 103.99 22.6 104.33 22.6" fill="#193057"/>
<path d="M113.3 19.32H109.42V20.37H113.3V19.32Z" fill="#193057"/>
<path d="M118.64 23.1L118.36 23.22C118.24 23.27 118.12 23.32 117.97 23.36C117.83 23.41 117.67 23.45 117.5 23.48C117.33 23.51 117.15 23.53 116.97 23.53C116.55 23.53 116.18 23.41 115.88 23.18C115.57 22.95 115.42 22.59 115.42 22.09V17.47H114.49V16.56H115.42V14.27H116.58V16.56H118.12V17.47H116.58V21.73C116.6 21.99 116.68 22.17 116.83 22.28C116.98 22.4 117.16 22.45 117.36 22.45C117.59 22.45 117.8 22.41 117.98 22.34C118.17 22.27 118.3 22.21 118.37 22.16L118.65 23.08L118.64 23.1Z" fill="#193057"/>
<path d="M122.63 23.58C122.11 23.58 121.64 23.48 121.21 23.29C120.78 23.1 120.42 22.84 120.12 22.51C119.82 22.19 119.58 21.81 119.41 21.38C119.24 20.95 119.16 20.5 119.16 20.02C119.16 19.54 119.25 19.08 119.42 18.65C119.59 18.22 119.83 17.84 120.13 17.52C120.43 17.19 120.8 16.94 121.22 16.74C121.64 16.54 122.11 16.45 122.62 16.45C123.13 16.45 123.6 16.55 124.03 16.74C124.46 16.93 124.83 17.19 125.13 17.52C125.43 17.84 125.67 18.22 125.84 18.65C126.01 19.08 126.1 19.54 126.1 20.02C126.1 20.5 126.02 20.95 125.85 21.38C125.68 21.81 125.45 22.19 125.14 22.51C124.83 22.84 124.47 23.09 124.04 23.29C123.61 23.48 123.14 23.58 122.62 23.58M120.35 20.04C120.35 20.4 120.41 20.73 120.53 21.04C120.65 21.35 120.81 21.61 121.02 21.84C121.23 22.07 121.47 22.25 121.74 22.38C122.02 22.51 122.31 22.58 122.63 22.58C122.95 22.58 123.24 22.51 123.52 22.38C123.8 22.25 124.04 22.07 124.25 21.83C124.46 21.6 124.63 21.33 124.74 21.01C124.86 20.7 124.92 20.36 124.92 20C124.92 19.64 124.86 19.32 124.74 19.01C124.62 18.7 124.46 18.43 124.25 18.19C124.04 17.96 123.8 17.78 123.52 17.64C123.24 17.51 122.95 17.44 122.63 17.44C122.31 17.44 122.02 17.51 121.74 17.64C121.46 17.78 121.22 17.96 121.02 18.19C120.81 18.42 120.65 18.69 120.53 19.01C120.41 19.32 120.35 19.66 120.35 20.02" fill="#193057"/>
<path d="M131.3 19.32H127.42V20.37H131.3V19.32Z" fill="#193057"/>
<path d="M139.61 22.39V23.44H133.27V14.1H139.49V15.15H134.45V18.18H138.84V19.17H134.45V22.39H139.61Z" fill="#193057"/>
<path d="M146.94 23.45H145.78V19.61C145.78 18.87 145.67 18.34 145.45 18C145.23 17.67 144.88 17.5 144.43 17.5C144.19 17.5 143.96 17.55 143.72 17.64C143.48 17.73 143.26 17.86 143.05 18.02C142.84 18.18 142.65 18.37 142.5 18.59C142.34 18.81 142.22 19.05 142.14 19.31V23.46H140.98V16.59H142.03V18.06C142.3 17.58 142.7 17.19 143.21 16.9C143.72 16.61 144.28 16.46 144.89 16.46C145.29 16.46 145.61 16.53 145.88 16.68C146.14 16.82 146.35 17.03 146.51 17.29C146.67 17.55 146.78 17.85 146.85 18.2C146.92 18.55 146.95 18.93 146.95 19.35V23.46L146.94 23.45Z" fill="#193057"/>
<path d="M151.58 23.58C151.11 23.58 150.67 23.48 150.26 23.29C149.85 23.1 149.51 22.84 149.22 22.51C148.93 22.19 148.7 21.81 148.54 21.38C148.38 20.95 148.3 20.5 148.3 20.02C148.3 19.54 148.38 19.08 148.53 18.64C148.68 18.21 148.9 17.83 149.18 17.5C149.46 17.18 149.78 16.92 150.17 16.73C150.55 16.54 150.97 16.45 151.43 16.45C151.98 16.45 152.48 16.6 152.91 16.89C153.34 17.18 153.69 17.53 153.94 17.94V13.83H155.1V22.02C155.1 22.29 155.22 22.43 155.47 22.44V23.44L155.17 23.48H154.95C154.72 23.49 154.52 23.42 154.35 23.26C154.18 23.11 154.09 22.93 154.09 22.73V22.15C153.82 22.6 153.46 22.95 153 23.2C152.55 23.45 152.07 23.58 151.57 23.58M151.86 22.58C152.07 22.58 152.29 22.54 152.51 22.46C152.73 22.38 152.94 22.27 153.14 22.13C153.34 21.99 153.51 21.82 153.65 21.64C153.79 21.45 153.89 21.25 153.93 21.04V19.07C153.85 18.85 153.73 18.64 153.57 18.45C153.41 18.26 153.24 18.08 153.04 17.94C152.84 17.8 152.63 17.68 152.41 17.6C152.19 17.52 151.96 17.48 151.74 17.48C151.4 17.48 151.09 17.55 150.81 17.7C150.53 17.84 150.3 18.04 150.1 18.28C149.9 18.52 149.75 18.8 149.65 19.11C149.54 19.42 149.49 19.74 149.49 20.06C149.49 20.38 149.55 20.73 149.67 21.04C149.79 21.35 149.96 21.62 150.17 21.85C150.38 22.08 150.63 22.26 150.91 22.4C151.2 22.54 151.5 22.6 151.84 22.6" fill="#193057"/>
<path d="M166.89 22.39V23.44H160.54V14.1H166.77V15.15H161.73V18.18H166.11V19.17H161.73V22.39H166.89Z" fill="#193057"/>
<path d="M178.62 23.45H177.46V19.61C177.46 18.89 177.34 18.36 177.11 18.02C176.88 17.68 176.53 17.51 176.08 17.51C175.63 17.51 175.18 17.68 174.81 18.02C174.44 18.36 174.17 18.79 174.01 19.33V23.46H172.85V19.62C172.85 18.88 172.74 18.35 172.51 18.01C172.28 17.68 171.94 17.51 171.48 17.51C171.02 17.51 170.59 17.68 170.22 18C169.84 18.33 169.57 18.77 169.42 19.31V23.46H168.26V16.59H169.31V18.06C169.59 17.55 169.96 17.16 170.4 16.88C170.85 16.6 171.35 16.46 171.91 16.46C172.47 16.46 172.95 16.62 173.29 16.93C173.63 17.24 173.84 17.64 173.91 18.13C174.53 17.01 175.4 16.46 176.53 16.46C176.93 16.46 177.26 16.53 177.52 16.68C177.79 16.82 178 17.03 178.16 17.29C178.32 17.55 178.43 17.85 178.5 18.2C178.57 18.55 178.61 18.93 178.61 19.35V23.46L178.62 23.45Z" fill="#193057"/>
<path d="M182.19 23.58C181.86 23.58 181.56 23.52 181.28 23.41C181 23.3 180.76 23.15 180.55 22.96C180.34 22.77 180.18 22.54 180.06 22.28C179.94 22.02 179.88 21.74 179.88 21.43C179.88 21.12 179.95 20.83 180.09 20.57C180.23 20.31 180.43 20.09 180.69 19.9C180.95 19.71 181.26 19.57 181.61 19.47C181.97 19.36 182.35 19.31 182.77 19.31C183.1 19.31 183.44 19.34 183.78 19.4C184.12 19.46 184.42 19.54 184.69 19.65V19.1C184.69 18.54 184.53 18.1 184.22 17.78C183.9 17.46 183.46 17.3 182.88 17.3C182.19 17.3 181.46 17.57 180.69 18.1L180.31 17.35C181.2 16.75 182.09 16.45 182.98 16.45C183.87 16.45 184.59 16.69 185.09 17.18C185.59 17.66 185.85 18.34 185.85 19.22V22.02C185.85 22.29 185.97 22.43 186.22 22.44V23.44L185.92 23.48H185.67C185.44 23.49 185.26 23.43 185.12 23.29C184.98 23.15 184.9 22.99 184.88 22.8L184.85 22.31C184.54 22.72 184.16 23.04 183.69 23.25C183.22 23.46 182.72 23.57 182.18 23.57M182.49 22.71C182.9 22.71 183.29 22.63 183.64 22.48C184 22.33 184.26 22.12 184.45 21.87C184.62 21.7 184.7 21.53 184.7 21.36V20.35C184.14 20.13 183.55 20.02 182.95 20.02C182.35 20.02 181.9 20.14 181.53 20.39C181.17 20.64 180.98 20.96 180.98 21.35C180.98 21.54 181.02 21.72 181.09 21.89C181.16 22.06 181.27 22.2 181.41 22.32C181.55 22.44 181.71 22.54 181.89 22.61C182.07 22.68 182.27 22.72 182.48 22.72" fill="#193057"/>
<path d="M188.88 16.57H187.72V23.44H188.88V16.57Z" fill="#193057"/>
<path d="M190.77 13.83H191.93V21.66C191.93 21.91 192 22.11 192.14 22.26C192.28 22.4 192.47 22.48 192.71 22.48L193.05 22.43L193.42 22.32L193.6 23.26C193.41 23.34 193.18 23.4 192.92 23.46C192.66 23.51 192.42 23.54 192.22 23.54C191.77 23.54 191.42 23.41 191.16 23.16C190.9 22.91 190.77 22.55 190.77 22.09V13.84V13.83Z" fill="#193057"/>
<path d="M203.12 16.06C203.01 15.94 202.87 15.82 202.7 15.7C202.53 15.59 202.33 15.48 202.11 15.39C201.89 15.3 201.65 15.22 201.39 15.17C201.13 15.11 200.86 15.08 200.58 15.08C199.85 15.08 199.32 15.22 198.98 15.49C198.64 15.76 198.47 16.13 198.47 16.61C198.47 16.87 198.52 17.08 198.61 17.24C198.7 17.4 198.86 17.55 199.06 17.67C199.27 17.79 199.52 17.89 199.83 17.98C200.14 18.07 200.5 18.16 200.92 18.26C201.4 18.36 201.84 18.49 202.23 18.62C202.62 18.76 202.95 18.93 203.23 19.13C203.51 19.33 203.72 19.58 203.86 19.87C204 20.16 204.08 20.51 204.08 20.94C204.08 21.39 203.99 21.78 203.82 22.1C203.64 22.43 203.41 22.7 203.1 22.92C202.8 23.13 202.44 23.29 202.03 23.39C201.62 23.49 201.17 23.54 200.69 23.54C199.97 23.54 199.29 23.43 198.64 23.21C198 22.99 197.41 22.66 196.88 22.23L197.45 21.23C197.59 21.38 197.77 21.53 198 21.68C198.22 21.83 198.48 21.96 198.76 22.08C199.05 22.2 199.35 22.29 199.68 22.37C200.01 22.44 200.35 22.48 200.71 22.48C201.38 22.48 201.9 22.36 202.26 22.12C202.63 21.88 202.81 21.53 202.81 21.05C202.81 20.79 202.75 20.57 202.63 20.38C202.51 20.2 202.34 20.05 202.11 19.91C201.88 19.78 201.6 19.66 201.26 19.56C200.92 19.46 200.54 19.36 200.11 19.25C199.64 19.14 199.22 19.01 198.86 18.88C198.5 18.75 198.2 18.59 197.96 18.41C197.72 18.23 197.54 18 197.41 17.74C197.28 17.48 197.22 17.16 197.22 16.79C197.22 16.34 197.3 15.95 197.47 15.6C197.64 15.26 197.87 14.97 198.17 14.73C198.47 14.49 198.82 14.32 199.24 14.2C199.65 14.08 200.1 14.02 200.58 14.02C201.21 14.02 201.78 14.12 202.29 14.31C202.8 14.5 203.25 14.76 203.65 15.09L203.1 16.05L203.12 16.06Z" fill="#193057"/>
<path d="M208.5 23.58C207.98 23.58 207.51 23.49 207.08 23.3C206.65 23.11 206.28 22.85 205.98 22.53C205.67 22.21 205.43 21.83 205.26 21.39C205.09 20.96 205 20.5 205 20.01C205 19.52 205.09 19.07 205.26 18.64C205.43 18.21 205.67 17.83 205.98 17.51C206.29 17.19 206.66 16.93 207.09 16.74C207.52 16.55 207.99 16.46 208.51 16.46C209.03 16.46 209.5 16.56 209.93 16.75C210.36 16.94 210.72 17.2 211.02 17.52C211.32 17.84 211.55 18.21 211.71 18.64C211.87 19.06 211.95 19.51 211.95 19.96V20.22L211.92 20.4H206.22C206.25 20.74 206.33 21.05 206.46 21.33C206.59 21.61 206.76 21.85 206.97 22.05C207.18 22.25 207.42 22.41 207.69 22.52C207.96 22.64 208.24 22.69 208.54 22.69C208.75 22.69 208.96 22.66 209.16 22.6C209.36 22.54 209.55 22.47 209.73 22.37C209.9 22.27 210.06 22.15 210.2 22.01C210.34 21.87 210.44 21.71 210.51 21.54L211.51 21.82C211.4 22.07 211.24 22.31 211.04 22.52C210.84 22.73 210.61 22.91 210.35 23.07C210.09 23.22 209.8 23.35 209.49 23.43C209.17 23.52 208.84 23.56 208.5 23.56M210.86 19.55C210.83 19.23 210.75 18.92 210.62 18.65C210.48 18.37 210.31 18.14 210.11 17.95C209.9 17.76 209.66 17.6 209.39 17.5C209.12 17.39 208.83 17.33 208.52 17.33C208.21 17.33 207.92 17.38 207.65 17.5C207.38 17.61 207.14 17.76 206.93 17.96C206.72 18.16 206.56 18.39 206.43 18.66C206.3 18.93 206.23 19.23 206.2 19.56H210.86V19.55Z" fill="#193057"/>
<path d="M212.78 20C212.78 19.52 212.86 19.06 213.03 18.63C213.2 18.2 213.43 17.82 213.74 17.5C214.05 17.18 214.41 16.93 214.84 16.74C215.27 16.55 215.74 16.46 216.27 16.46C216.96 16.46 217.55 16.61 218.04 16.91C218.54 17.21 218.91 17.62 219.17 18.13L218.04 18.49C217.86 18.17 217.62 17.91 217.3 17.73C216.98 17.55 216.63 17.46 216.25 17.46C215.94 17.46 215.64 17.52 215.36 17.65C215.08 17.78 214.84 17.96 214.64 18.18C214.44 18.41 214.28 18.68 214.16 18.98C214.04 19.29 213.98 19.63 213.98 19.99C213.98 20.35 214.04 20.69 214.17 21C214.29 21.32 214.46 21.59 214.66 21.82C214.87 22.05 215.11 22.24 215.38 22.37C215.66 22.5 215.95 22.57 216.27 22.57C216.47 22.57 216.67 22.54 216.87 22.48C217.07 22.42 217.25 22.35 217.41 22.25C217.57 22.15 217.72 22.04 217.84 21.91C217.96 21.78 218.05 21.65 218.1 21.5L219.23 21.84C219.12 22.09 218.98 22.33 218.79 22.54C218.6 22.75 218.38 22.93 218.12 23.08C217.86 23.23 217.58 23.35 217.27 23.44C216.96 23.53 216.63 23.57 216.29 23.57C215.77 23.57 215.3 23.47 214.87 23.28C214.44 23.09 214.07 22.83 213.76 22.5C213.45 22.17 213.21 21.8 213.04 21.36C212.87 20.93 212.78 20.47 212.78 19.98" fill="#193057"/>
<path d="M222.65 23.58C221.93 23.58 221.39 23.34 221.02 22.86C220.65 22.38 220.47 21.66 220.47 20.7V16.58H221.63V20.48C221.63 21.88 222.12 22.59 223.09 22.59C223.56 22.59 224.01 22.44 224.43 22.14C224.85 21.84 225.16 21.42 225.36 20.9V16.6H226.52V22.05C226.52 22.32 226.64 22.46 226.89 22.47V23.47L226.58 23.5H226.36C226.13 23.5 225.94 23.44 225.79 23.3C225.64 23.16 225.55 22.99 225.55 22.79L225.52 21.99C225.21 22.51 224.81 22.9 224.31 23.18C223.81 23.46 223.26 23.59 222.66 23.59" fill="#193057"/>
<path d="M232.08 17.59C231.5 17.61 230.99 17.76 230.55 18.04C230.11 18.32 229.79 18.71 229.61 19.21V23.45H228.45V16.58H229.53V18.17C229.77 17.7 230.08 17.31 230.46 17.02C230.85 16.73 231.26 16.56 231.7 16.53H232.08V17.6V17.59Z" fill="#193057"/>
<path d="M234.38 16.57H233.22V23.44H234.38V16.57Z" fill="#193057"/>
<path d="M239.81 23.1L239.53 23.22C239.42 23.27 239.29 23.32 239.14 23.36C239 23.41 238.84 23.45 238.67 23.48C238.5 23.51 238.32 23.53 238.14 23.53C237.72 23.53 237.36 23.41 237.05 23.18C236.74 22.95 236.59 22.59 236.59 22.09V17.47H235.66V16.56H236.59V14.27H237.75V16.56H239.29V17.47H237.75V21.73C237.77 21.99 237.85 22.17 238 22.28C238.15 22.4 238.33 22.45 238.53 22.45C238.76 22.45 238.97 22.41 239.16 22.34C239.35 22.27 239.48 22.21 239.55 22.16L239.83 23.08L239.81 23.1Z" fill="#193057"/>
<path d="M241.2 25.31L241.54 25.35H241.8L242.08 25.29C242.16 25.24 242.25 25.15 242.33 25.01C242.41 24.87 242.51 24.67 242.61 24.42C242.72 24.17 242.85 23.84 243.01 23.44L240.1 16.57H241.3L243.64 22.4L245.77 16.57H246.87L243.53 25.25C243.41 25.56 243.2 25.83 242.92 26.06C242.63 26.29 242.24 26.41 241.74 26.41H241.5L241.19 26.34V25.31H241.2Z" fill="#193057"/>
</g>
<defs>
<clipPath id="clip0_45_70">
<rect width="294.49" height="67.46" fill="white"/>
</clipPath>
</defs>
</svg>
