<svg preserveAspectRatio="none" width="100%" height="100%" overflow="visible" style="display: block;" viewBox="0 0 24 21" fill="none" xmlns="http://www.w3.org/2000/svg">
<g id="Group 11">
<path id="Vector" d="M17.3655 13.5921C17.4731 13.0794 17.5 12.5667 17.5 12.027C17.5 11.4873 17.4462 10.9476 17.3655 10.4349H15.8591C15.6708 9.6524 15.375 8.92382 14.9715 8.2762L16.0474 7.19681C15.4557 6.30633 14.7025 5.55077 13.8149 4.95712L12.7389 6.03651C12.0933 5.63175 11.3671 5.30794 10.587 5.14603V3.63493C10.0759 3.52699 9.56487 3.5 9 3.5C8.43513 3.5 7.92406 3.55398 7.41299 3.63493V5.14603C6.63292 5.33492 5.90661 5.63175 5.26104 6.03651L4.18511 4.95712C3.29745 5.55077 2.54432 6.30635 1.95255 7.16984L3.02848 8.24919C2.625 8.89681 2.30217 9.62539 2.14078 10.4079H0.634461C0.526866 10.9206 0.5 11.4333 0.5 12C0.5 12.5666 0.553765 13.0524 0.634461 13.5651H2.14078C2.32907 14.3476 2.625 15.0762 3.02848 15.7238L1.95255 16.8032C2.54432 17.6937 3.29745 18.4222 4.18511 19.0428L5.26104 17.9635C5.90661 18.3682 6.63292 18.6921 7.41299 18.854V20.3651C7.92406 20.473 8.43513 20.5 9 20.5C9.56487 20.5 10.0759 20.446 10.587 20.3651V18.854C11.3671 18.6651 12.0933 18.3682 12.7389 17.9635L13.8149 19.0428C14.7025 18.4492 15.4557 17.6937 16.0474 16.8302L14.9715 15.7508C15.375 15.1032 15.6977 14.3746 15.8591 13.5921H17.3655Z" stroke="var(--stroke-0, #6E8090)" stroke-miterlimit="10" stroke-linecap="round"/>
<path id="Vector_2" d="M9.25 16C11.3211 16 13 14.3211 13 12.25C13 10.1789 11.3211 8.5 9.25 8.5C7.17894 8.5 5.5 10.1789 5.5 12.25C5.5 14.3211 7.17894 16 9.25 16Z" stroke="var(--stroke-0, #6E8090)" stroke-miterlimit="10" stroke-linecap="round"/>
<path id="Vector_3" d="M12.0217 5.40017C12.5556 2.61215 14.9047 0.5 17.7075 0.5C20.9108 0.5 23.5 3.23169 23.5 6.61111C23.5 9.99053 20.9108 12.7222 17.7075 12.7222" stroke="var(--stroke-0, #6E8090)" stroke-miterlimit="10" stroke-linecap="round"/>
<path id="Vector_4" d="M17.761 2.72221V7.16665H20.6306" stroke="var(--stroke-0, #6E8090)" stroke-miterlimit="10" stroke-linecap="round"/>
</g>
</svg>
