<svg preserveAspectRatio="none" width="100%" height="100%" overflow="visible" style="display: block;" viewBox="0 0 17 22" fill="none" xmlns="http://www.w3.org/2000/svg">
<g id="Group 6">
<path id="Vector" d="M10 12.0437C10 11.199 9.32075 10.5 8.5 10.5C7.67925 10.5 7 11.199 7 12.0437C7 12.6553 7.36792 13.2087 7.87736 13.4417L7.50943 16.5H9.54717L9.12264 13.4417C9.63208 13.2087 10 12.6553 10 12.0437Z" stroke="var(--stroke-0, #6E8090)" stroke-miterlimit="10" stroke-linecap="round"/>
<path id="Vector_2" d="M12.2333 17.0555L16.5 21.5" stroke="var(--stroke-0, #6E8090)" stroke-miterlimit="10" stroke-linecap="round"/>
<path id="Vector_3" d="M8.5 21.5C12.9183 21.5 16.5 17.9183 16.5 13.5C16.5 9.08175 12.9183 5.5 8.5 5.5C4.08172 5.5 0.5 9.08175 0.5 13.5C0.5 17.9183 4.08172 21.5 8.5 21.5Z" stroke="var(--stroke-0, #6E8090)" stroke-miterlimit="10" stroke-linecap="round"/>
<path id="Vector_4" d="M3.5 7.16667V5.33203C3.5 2.67053 5.89572 0.5 8.83333 0.5C11.7709 0.5 14.1667 2.67053 14.1667 5.33203V6.88243" stroke="var(--stroke-0, #6E8090)" stroke-miterlimit="10" stroke-linecap="round"/>
</g>
</svg>
