<svg preserveAspectRatio="none" width="100%" height="100%" overflow="visible" style="display: block;" viewBox="0 0 22.0001 22.5" fill="none" xmlns="http://www.w3.org/2000/svg">
<g id="Group 10">
<path id="Vector" d="M10.0834 12.6C9.07353 13.7461 7.75292 14.9577 7.33861 15.3179C5.60368 16.8897 4.15356 17.1189 0.916748 16.9552" stroke="var(--stroke-0, #6E8090)" stroke-miterlimit="10" stroke-linecap="round"/>
<g id="Vector_2">
<mask id="path-2-inside-1_0_180" fill="white">
<path d="M2.5285 14.8L2.75008 15.2L1.42041 16.9231L2.64937 18.8308L2.40763 19.2L0.916748 16.8923L2.5285 14.8Z"/>
</mask>
<path d="M2.5285 14.8L3.40326 14.3154L2.66547 12.9835L1.73629 14.1897L2.5285 14.8ZM2.75008 15.2L3.54176 15.8109L3.94338 15.2905L3.62484 14.7154L2.75008 15.2ZM1.42041 16.9231L0.628726 16.3121L0.197385 16.8711L0.579749 17.4646L1.42041 16.9231ZM2.64937 18.8308L3.48599 19.3785L3.84176 18.8352L3.49003 18.2892L2.64937 18.8308ZM2.40763 19.2L1.56767 19.7426L2.40201 21.0341L3.24425 19.7478L2.40763 19.2ZM0.916748 16.8923L0.124542 16.282L-0.306521 16.8416L0.0767906 17.4349L0.916748 16.8923ZM2.5285 14.8L1.65374 15.2845L1.87532 15.6845L2.75008 15.2L3.62484 14.7154L3.40326 14.3154L2.5285 14.8ZM2.75008 15.2L1.9584 14.5891L0.628726 16.3121L1.42041 16.9231L2.21209 17.534L3.54176 15.8109L2.75008 15.2ZM1.42041 16.9231L0.579749 17.4646L1.80871 19.3723L2.64937 18.8308L3.49003 18.2892L2.26107 16.3815L1.42041 16.9231ZM2.64937 18.8308L1.81275 18.283L1.57101 18.6522L2.40763 19.2L3.24425 19.7478L3.48599 19.3785L2.64937 18.8308ZM2.40763 19.2L3.24758 18.6573L1.75671 16.3496L0.916748 16.8923L0.0767906 17.4349L1.56767 19.7426L2.40763 19.2ZM0.916748 16.8923L1.70895 17.5025L3.32071 15.4102L2.5285 14.8L1.73629 14.1897L0.124542 16.282L0.916748 16.8923Z" fill="var(--stroke-0, #6E8090)" mask="url(#path-2-inside-1_0_180)"/>
</g>
<path id="Vector_3" d="M21.0834 6.143C19.0545 6.01478 17.8079 5.52754 15.1434 7.57911C14.8012 7.8612 13.139 9.27164 11.9167 10.4" stroke="var(--stroke-0, #6E8090)" stroke-miterlimit="10" stroke-linecap="round"/>
<g id="Vector_4">
<mask id="path-5-inside-2_0_180" fill="white">
<path d="M20.5653 4.90004L20.3063 5.08466L21.5019 6.05389L20.1667 6.90005L20.386 7.10004L22.0001 6.06928L20.5653 4.90004Z"/>
</mask>
<path d="M20.5653 4.90004L21.197 4.12485L20.6059 3.64315L19.985 4.08568L20.5653 4.90004ZM20.3063 5.08466L19.7259 4.2703L18.655 5.03344L19.6765 5.86149L20.3063 5.08466ZM21.5019 6.05389L22.0372 6.89855L23.2128 6.15351L22.1316 5.27707L21.5019 6.05389ZM20.1667 6.90005L19.6314 6.05539L18.5254 6.75633L19.4928 7.63882L20.1667 6.90005ZM20.386 7.10004L19.712 7.83882L20.2782 8.35536L20.9242 7.94285L20.386 7.10004ZM22.0001 6.06928L22.5383 6.91209L23.7039 6.16775L22.6318 5.29409L22.0001 6.06928ZM20.5653 4.90004L19.985 4.08568L19.7259 4.2703L20.3063 5.08466L20.8866 5.89903L21.1457 5.71441L20.5653 4.90004ZM20.3063 5.08466L19.6765 5.86149L20.8722 6.83072L21.5019 6.05389L22.1316 5.27707L20.936 4.30784L20.3063 5.08466ZM21.5019 6.05389L20.9666 5.20923L19.6314 6.05539L20.1667 6.90005L20.7021 7.74471L22.0372 6.89855L21.5019 6.05389ZM20.1667 6.90005L19.4928 7.63882L19.712 7.83882L20.386 7.10004L21.0599 6.36127L20.8407 6.16128L20.1667 6.90005ZM20.386 7.10004L20.9242 7.94285L22.5383 6.91209L22.0001 6.06928L21.4619 5.22647L19.8478 6.25724L20.386 7.10004ZM22.0001 6.06928L22.6318 5.29409L21.197 4.12485L20.5653 4.90004L19.9336 5.67524L21.3684 6.84447L22.0001 6.06928Z" fill="var(--stroke-0, #6E8090)" mask="url(#path-5-inside-2_0_180)"/>
</g>
<path id="Vector_5" d="M0.916748 6.14855C2.94318 6.00776 3.96864 5.5009 6.60544 7.7536C7.50879 8.51388 13.7345 14.4835 15.0285 15.5536C16.6643 16.9052 18.0316 17.1023 21.0834 16.9615" stroke="var(--stroke-0, #6E8090)" stroke-miterlimit="10" stroke-linecap="round"/>
<g id="Vector_6">
<mask id="path-8-inside-3_0_180" fill="white">
<path d="M2.42123 7.10004L2.75 6.90005L0.747297 6.05389L2.54074 5.08466L2.15213 4.90004L0 6.06928L2.42123 7.10004Z"/>
</mask>
<path d="M2.42123 7.10004L2.02953 8.02014L2.50213 8.22133L2.94095 7.95439L2.42123 7.10004ZM2.75 6.90005L3.26971 7.75439L4.93861 6.73916L3.1392 5.97889L2.75 6.90005ZM0.747297 6.05389L0.271855 5.17414L-1.56052 6.16441L0.358101 6.97505L0.747297 6.05389ZM2.54074 5.08466L3.01618 5.96441L4.75027 5.02726L2.96985 4.18141L2.54074 5.08466ZM2.15213 4.90004L2.58124 3.99679L2.12174 3.7785L1.67474 4.02135L2.15213 4.90004ZM0 6.06928L-0.477387 5.19059L-2.29605 6.17865L-0.391701 6.98937L0 6.06928ZM2.42123 7.10004L2.94095 7.95439L3.26971 7.75439L2.75 6.90005L2.23029 6.04571L1.90152 6.2457L2.42123 7.10004ZM2.75 6.90005L3.1392 5.97889L1.13649 5.13274L0.747297 6.05389L0.358101 6.97505L2.3608 7.8212L2.75 6.90005ZM0.747297 6.05389L1.22274 6.93364L3.01618 5.96441L2.54074 5.08466L2.06529 4.20492L0.271855 5.17414L0.747297 6.05389ZM2.54074 5.08466L2.96985 4.18141L2.58124 3.99679L2.15213 4.90004L1.72301 5.8033L2.11162 5.98791L2.54074 5.08466ZM2.15213 4.90004L1.67474 4.02135L-0.477387 5.19059L0 6.06928L0.477387 6.94797L2.62951 5.77874L2.15213 4.90004ZM0 6.06928L-0.391701 6.98937L2.02953 8.02014L2.42123 7.10004L2.81293 6.17995L0.391701 5.14919L0 6.06928Z" fill="var(--stroke-0, #6E8090)" mask="url(#path-8-inside-3_0_180)"/>
</g>
<g id="Vector_7">
<mask id="path-10-inside-4_0_180" fill="white">
<path d="M19.7939 19.2L19.4012 18.8308L21.2445 16.9231L19.25 15.2L19.5825 14.8L22 16.8923L19.7939 19.2Z"/>
</mask>
<path d="M19.7939 19.2L19.109 19.9286L19.8315 20.6078L20.5168 19.891L19.7939 19.2ZM19.4012 18.8308L18.682 18.1359L17.9775 18.865L18.7162 19.5594L19.4012 18.8308ZM21.2445 16.9231L21.9636 17.6179L22.6984 16.8576L21.8982 16.1663L21.2445 16.9231ZM19.25 15.2L18.4809 14.5608L17.8538 15.3153L18.5963 15.9567L19.25 15.2ZM19.5825 14.8L20.2369 14.0438L19.4655 13.3762L18.8134 14.1608L19.5825 14.8ZM22 16.8923L22.7228 17.5833L23.4489 16.8238L22.6544 16.1361L22 16.8923ZM19.7939 19.2L20.4788 18.4714L20.0861 18.1021L19.4012 18.8308L18.7162 19.5594L19.109 19.9286L19.7939 19.2ZM19.4012 18.8308L20.1203 19.5256L21.9636 17.6179L21.2445 16.9231L20.5254 16.2282L18.682 18.1359L19.4012 18.8308ZM21.2445 16.9231L21.8982 16.1663L19.9037 14.4433L19.25 15.2L18.5963 15.9567L20.5908 17.6798L21.2445 16.9231ZM19.25 15.2L20.0191 15.8392L20.3515 15.4392L19.5825 14.8L18.8134 14.1608L18.4809 14.5608L19.25 15.2ZM19.5825 14.8L18.928 15.5561L21.3456 17.6484L22 16.8923L22.6544 16.1361L20.2369 14.0438L19.5825 14.8ZM22 16.8923L21.2772 16.2013L19.0711 18.509L19.7939 19.2L20.5168 19.891L22.7228 17.5833L22 16.8923Z" fill="var(--stroke-0, #6E8090)" mask="url(#path-10-inside-4_0_180)"/>
</g>
<path id="Vector_8" d="M11 0.5V8.2" stroke="var(--stroke-0, #6E8090)" stroke-miterlimit="10" stroke-linecap="round"/>
<g id="Vector_9">
<mask id="path-13-inside-5_0_180" fill="white">
<path d="M9.16667 2.39999L9.4977 2.7L11 1.125L12.5024 2.7L12.8333 2.39999L11 0.5L9.16667 2.39999Z"/>
</mask>
<path d="M9.16667 2.39999L8.44705 1.70562L7.73062 2.4481L8.49513 3.14097L9.16667 2.39999ZM9.4977 2.7L8.82616 3.44097L9.54848 4.0956L10.2213 3.39021L9.4977 2.7ZM11 1.125L11.7236 0.434773L11 -0.323812L10.2764 0.434792L11 1.125ZM12.5024 2.7L11.7788 3.39023L12.4517 4.09566L13.174 3.4409L12.5024 2.7ZM12.8333 2.39999L13.505 3.14089L14.2693 2.44801L13.553 1.70562L12.8333 2.39999ZM11 0.5L11.7196 -0.194371L11 -0.940153L10.2804 -0.194371L11 0.5ZM9.16667 2.39999L8.49513 3.14097L8.82616 3.44097L9.4977 2.7L10.1692 1.95903L9.8382 1.65902L9.16667 2.39999ZM9.4977 2.7L10.2213 3.39021L11.7236 1.81521L11 1.125L10.2764 0.434792L8.77409 2.00979L9.4977 2.7ZM11 1.125L10.2764 1.81523L11.7788 3.39023L12.5024 2.7L13.226 2.00977L11.7236 0.434773L11 1.125ZM12.5024 2.7L13.174 3.4409L13.505 3.14089L12.8333 2.39999L12.1617 1.6591L11.8308 1.9591L12.5024 2.7ZM12.8333 2.39999L13.553 1.70562L11.7196 -0.194371L11 0.5L10.2804 1.19437L12.1137 3.09436L12.8333 2.39999ZM11 0.5L10.2804 -0.194371L8.44705 1.70562L9.16667 2.39999L9.88628 3.09436L11.7196 1.19437L11 0.5Z" fill="var(--stroke-0, #6E8090)" mask="url(#path-13-inside-5_0_180)"/>
</g>
<path id="Vector_10" d="M11 13.7V21.4" stroke="var(--stroke-0, #6E8090)" stroke-miterlimit="10" stroke-linecap="round"/>
<g id="Vector_11">
<mask id="path-16-inside-6_0_180" fill="white">
<path d="M9.16675 21.5484L9.49778 21.4L11.0001 22.1787L12.5025 21.4L12.8334 21.5484L11.0001 22.5L9.16675 21.5484Z"/>
</mask>
<path d="M9.16675 21.5484L8.75789 20.6358L6.86872 21.4821L8.70602 22.4359L9.16675 21.5484ZM9.49778 21.4L9.95795 20.5122L9.52941 20.2901L9.08892 20.4874L9.49778 21.4ZM11.0001 22.1787L10.5399 23.0665L11.0001 23.305L11.4602 23.0665L11.0001 22.1787ZM12.5025 21.4L12.9114 20.4875L12.4709 20.2901L12.0423 20.5122L12.5025 21.4ZM12.8334 21.5484L13.2941 22.4359L15.1312 21.4823L13.2424 20.6358L12.8334 21.5484ZM11.0001 22.5L10.5394 23.3876L11.0001 23.6268L11.4608 23.3876L11.0001 22.5ZM9.16675 21.5484L9.57561 22.461L9.90664 22.3126L9.49778 21.4L9.08892 20.4874L8.75789 20.6358L9.16675 21.5484ZM9.49778 21.4L9.03761 22.2879L10.5399 23.0665L11.0001 22.1787L11.4602 21.2909L9.95795 20.5122L9.49778 21.4ZM11.0001 22.1787L11.4602 23.0665L12.9626 22.2879L12.5025 21.4L12.0423 20.5122L10.5399 21.2909L11.0001 22.1787ZM12.5025 21.4L12.0935 22.3126L12.4245 22.4609L12.8334 21.5484L13.2424 20.6358L12.9114 20.4875L12.5025 21.4ZM12.8334 21.5484L12.3727 20.6608L10.5394 21.6125L11.0001 22.5L11.4608 23.3876L13.2941 22.4359L12.8334 21.5484ZM11.0001 22.5L11.4608 21.6125L9.62747 20.6608L9.16675 21.5484L8.70602 22.4359L10.5394 23.3876L11.0001 22.5Z" fill="var(--stroke-0, #6E8090)" mask="url(#path-16-inside-6_0_180)"/>
</g>
</g>
</svg>
