<svg viewBox="0 0 600 444" xmlns="http://www.w3.org/2000/svg" id="el_cSctNaCmZ"><style>@-webkit-keyframes kf_el_efiMZrSKMC0_an_210yKCyzX{0%,to{-webkit-transform:translate(.00007031249697320163px,.00031638145446777344px) translate(-.00007031249697320163px,-.00031638145446777344px) translate(0,0);transform:translate(.00007031249697320163px,.00031638145446777344px) translate(-.00007031249697320163px,-.00031638145446777344px) translate(0,0)}50%{-webkit-transform:translate(.00007031249697320163px,.00031638145446777344px) translate(-.00007031249697320163px,-.00031638145446777344px) translate(0,30px);transform:translate(.00007031249697320163px,.00031638145446777344px) translate(-.00007031249697320163px,-.00031638145446777344px) translate(0,30px)}}@keyframes kf_el_efiMZrSKMC0_an_210yKCyzX{0%,to{-webkit-transform:translate(.00007031249697320163px,.00031638145446777344px) translate(-.00007031249697320163px,-.00031638145446777344px) translate(0,0);transform:translate(.00007031249697320163px,.00031638145446777344px) translate(-.00007031249697320163px,-.00031638145446777344px) translate(0,0)}50%{-webkit-transform:translate(.00007031249697320163px,.00031638145446777344px) translate(-.00007031249697320163px,-.00031638145446777344px) translate(0,30px);transform:translate(.00007031249697320163px,.00031638145446777344px) translate(-.00007031249697320163px,-.00031638145446777344px) translate(0,30px)}}@-webkit-keyframes kf_el_9KB1uY3-EtN_an_TDIPXy31K{0%,33.33%,66.67%,to{-webkit-transform:translate(276px,55px) translate(-276px,-55px) translate(0,5px);transform:translate(276px,55px) translate(-276px,-55px) translate(0,5px)}16.67%,50%,83.33%{-webkit-transform:translate(276px,55px) translate(-276px,-55px) translate(0,-5px);transform:translate(276px,55px) translate(-276px,-55px) translate(0,-5px)}}@keyframes kf_el_9KB1uY3-EtN_an_TDIPXy31K{0%,33.33%,66.67%,to{-webkit-transform:translate(276px,55px) translate(-276px,-55px) translate(0,5px);transform:translate(276px,55px) translate(-276px,-55px) translate(0,5px)}16.67%,50%,83.33%{-webkit-transform:translate(276px,55px) translate(-276px,-55px) translate(0,-5px);transform:translate(276px,55px) translate(-276px,-55px) translate(0,-5px)}}@-webkit-keyframes kf_el_XPNW9-qnT34_an_afS3RPxC-{0%,33.33%,66.67%,to{-webkit-transform:translate(272px,41px) translate(-272px,-41px) translate(0,0);transform:translate(272px,41px) translate(-272px,-41px) translate(0,0)}16.67%,50%,83.33%{-webkit-transform:translate(272px,41px) translate(-272px,-41px) translate(0,20px);transform:translate(272px,41px) translate(-272px,-41px) translate(0,20px)}}@keyframes kf_el_XPNW9-qnT34_an_afS3RPxC-{0%,33.33%,66.67%,to{-webkit-transform:translate(272px,41px) translate(-272px,-41px) translate(0,0);transform:translate(272px,41px) translate(-272px,-41px) translate(0,0)}16.67%,50%,83.33%{-webkit-transform:translate(272px,41px) translate(-272px,-41px) translate(0,20px);transform:translate(272px,41px) translate(-272px,-41px) translate(0,20px)}}@-webkit-keyframes kf_el_ETpu9O5pJN4_an_0rwZLsIeg{0%,to{-webkit-transform:translate(0,0) translate(0,0) translate(0,30px);transform:translate(0,0) translate(0,0) translate(0,30px)}50%{-webkit-transform:translate(0,0) translate(0,0) translate(0,0);transform:translate(0,0) translate(0,0) translate(0,0)}}@keyframes kf_el_ETpu9O5pJN4_an_0rwZLsIeg{0%,to{-webkit-transform:translate(0,0) translate(0,0) translate(0,30px);transform:translate(0,0) translate(0,0) translate(0,30px)}50%{-webkit-transform:translate(0,0) translate(0,0) translate(0,0);transform:translate(0,0) translate(0,0) translate(0,0)}}@-webkit-keyframes kf_el_FyL0H7ROP59_an_J68LTtWnn{0%,33.33%,66.67%,to{-webkit-transform:translate(516px,125px) translate(-516px,-125px) translate(0,-5px);transform:translate(516px,125px) translate(-516px,-125px) translate(0,-5px)}16.67%,50%,83.33%{-webkit-transform:translate(516px,125px) translate(-516px,-125px) translate(0,5px);transform:translate(516px,125px) translate(-516px,-125px) translate(0,5px)}}@keyframes kf_el_FyL0H7ROP59_an_J68LTtWnn{0%,33.33%,66.67%,to{-webkit-transform:translate(516px,125px) translate(-516px,-125px) translate(0,-5px);transform:translate(516px,125px) translate(-516px,-125px) translate(0,-5px)}16.67%,50%,83.33%{-webkit-transform:translate(516px,125px) translate(-516px,-125px) translate(0,5px);transform:translate(516px,125px) translate(-516px,-125px) translate(0,5px)}}@-webkit-keyframes kf_el_vaS-JFZSCKy_an_4WgvFURN1{0%,33.33%,66.67%,to{-webkit-transform:translate(512px,111px) translate(-512px,-111px) translate(0,20px);transform:translate(512px,111px) translate(-512px,-111px) translate(0,20px)}16.67%,50%,83.33%{-webkit-transform:translate(512px,111px) translate(-512px,-111px) translate(0,0);transform:translate(512px,111px) translate(-512px,-111px) translate(0,0)}}@keyframes kf_el_vaS-JFZSCKy_an_4WgvFURN1{0%,33.33%,66.67%,to{-webkit-transform:translate(512px,111px) translate(-512px,-111px) translate(0,20px);transform:translate(512px,111px) translate(-512px,-111px) translate(0,20px)}16.67%,50%,83.33%{-webkit-transform:translate(512px,111px) translate(-512px,-111px) translate(0,0);transform:translate(512px,111px) translate(-512px,-111px) translate(0,0)}}@-webkit-keyframes kf_el_88ooTMRsL7j_an_uOmNpNJDu{0%,to{-webkit-transform:translate(.004491227678954601px,0) translate(-.004491227678954601px,0) translate(0,0);transform:translate(.004491227678954601px,0) translate(-.004491227678954601px,0) translate(0,0)}50%{-webkit-transform:translate(.004491227678954601px,0) translate(-.004491227678954601px,0) translate(0,30px);transform:translate(.004491227678954601px,0) translate(-.004491227678954601px,0) translate(0,30px)}}@keyframes kf_el_88ooTMRsL7j_an_uOmNpNJDu{0%,to{-webkit-transform:translate(.004491227678954601px,0) translate(-.004491227678954601px,0) translate(0,0);transform:translate(.004491227678954601px,0) translate(-.004491227678954601px,0) translate(0,0)}50%{-webkit-transform:translate(.004491227678954601px,0) translate(-.004491227678954601px,0) translate(0,30px);transform:translate(.004491227678954601px,0) translate(-.004491227678954601px,0) translate(0,30px)}}@-webkit-keyframes kf_el_fXlaEnezHiZ_an_NWDIvebuV{0%,33.33%,66.67%,to{-webkit-transform:translate(516px,315px) translate(-516px,-315px) translate(0,5px);transform:translate(516px,315px) translate(-516px,-315px) translate(0,5px)}16.67%,50%,83.33%{-webkit-transform:translate(516px,315px) translate(-516px,-315px) translate(0,-5px);transform:translate(516px,315px) translate(-516px,-315px) translate(0,-5px)}}@keyframes kf_el_fXlaEnezHiZ_an_NWDIvebuV{0%,33.33%,66.67%,to{-webkit-transform:translate(516px,315px) translate(-516px,-315px) translate(0,5px);transform:translate(516px,315px) translate(-516px,-315px) translate(0,5px)}16.67%,50%,83.33%{-webkit-transform:translate(516px,315px) translate(-516px,-315px) translate(0,-5px);transform:translate(516px,315px) translate(-516px,-315px) translate(0,-5px)}}@-webkit-keyframes kf_el_O3K1Xpn0bkF_an_rB2uHkkGA{0%,33.33%,66.67%,to{-webkit-transform:translate(512px,301px) translate(-512px,-301px) translate(0,0);transform:translate(512px,301px) translate(-512px,-301px) translate(0,0)}16.67%,50%,83.33%{-webkit-transform:translate(512px,301px) translate(-512px,-301px) translate(0,20px);transform:translate(512px,301px) translate(-512px,-301px) translate(0,20px)}}@keyframes kf_el_O3K1Xpn0bkF_an_rB2uHkkGA{0%,33.33%,66.67%,to{-webkit-transform:translate(512px,301px) translate(-512px,-301px) translate(0,0);transform:translate(512px,301px) translate(-512px,-301px) translate(0,0)}16.67%,50%,83.33%{-webkit-transform:translate(512px,301px) translate(-512px,-301px) translate(0,20px);transform:translate(512px,301px) translate(-512px,-301px) translate(0,20px)}}@-webkit-keyframes kf_el_fFA1XV6EyT6_an_iWVZmh_1U{0%,to{-webkit-transform:translate(0,.0341796875px) translate(0,-.0341796875px) translate(0,30px);transform:translate(0,.0341796875px) translate(0,-.0341796875px) translate(0,30px)}50%{-webkit-transform:translate(0,.0341796875px) translate(0,-.0341796875px) translate(0,0);transform:translate(0,.0341796875px) translate(0,-.0341796875px) translate(0,0)}}@keyframes kf_el_fFA1XV6EyT6_an_iWVZmh_1U{0%,to{-webkit-transform:translate(0,.0341796875px) translate(0,-.0341796875px) translate(0,30px);transform:translate(0,.0341796875px) translate(0,-.0341796875px) translate(0,30px)}50%{-webkit-transform:translate(0,.0341796875px) translate(0,-.0341796875px) translate(0,0);transform:translate(0,.0341796875px) translate(0,-.0341796875px) translate(0,0)}}@-webkit-keyframes kf_el_ss4yflcy6qc_an_nvIselJmY{0%,33.33%,66.67%,to{-webkit-transform:translate(276px,355px) translate(-276px,-355px) translate(0,-5px);transform:translate(276px,355px) translate(-276px,-355px) translate(0,-5px)}16.67%,50%,83.33%{-webkit-transform:translate(276px,355px) translate(-276px,-355px) translate(0,5px);transform:translate(276px,355px) translate(-276px,-355px) translate(0,5px)}}@keyframes kf_el_ss4yflcy6qc_an_nvIselJmY{0%,33.33%,66.67%,to{-webkit-transform:translate(276px,355px) translate(-276px,-355px) translate(0,-5px);transform:translate(276px,355px) translate(-276px,-355px) translate(0,-5px)}16.67%,50%,83.33%{-webkit-transform:translate(276px,355px) translate(-276px,-355px) translate(0,5px);transform:translate(276px,355px) translate(-276px,-355px) translate(0,5px)}}@-webkit-keyframes kf_el_oeehovrRicg_an_ggIIKTIDK{0%,33.33%,66.67%,to{-webkit-transform:translate(272px,341px) translate(-272px,-341px) translate(0,20px);transform:translate(272px,341px) translate(-272px,-341px) translate(0,20px)}16.67%,50%,83.33%{-webkit-transform:translate(272px,341px) translate(-272px,-341px) translate(0,0);transform:translate(272px,341px) translate(-272px,-341px) translate(0,0)}}@keyframes kf_el_oeehovrRicg_an_ggIIKTIDK{0%,33.33%,66.67%,to{-webkit-transform:translate(272px,341px) translate(-272px,-341px) translate(0,20px);transform:translate(272px,341px) translate(-272px,-341px) translate(0,20px)}16.67%,50%,83.33%{-webkit-transform:translate(272px,341px) translate(-272px,-341px) translate(0,0);transform:translate(272px,341px) translate(-272px,-341px) translate(0,0)}}@-webkit-keyframes kf_el_Xr7uL_7WVuB_an_gWL3Ja-EU{0%,to{-webkit-transform:translate(1.1368683094535245e-13px,0) translate(-1.1368683094535245e-13px,0) translate(0,0);transform:translate(1.1368683094535245e-13px,0) translate(-1.1368683094535245e-13px,0) translate(0,0)}50%{-webkit-transform:translate(1.1368683094535245e-13px,0) translate(-1.1368683094535245e-13px,0) translate(0,30px);transform:translate(1.1368683094535245e-13px,0) translate(-1.1368683094535245e-13px,0) translate(0,30px)}}@keyframes kf_el_Xr7uL_7WVuB_an_gWL3Ja-EU{0%,to{-webkit-transform:translate(1.1368683094535245e-13px,0) translate(-1.1368683094535245e-13px,0) translate(0,0);transform:translate(1.1368683094535245e-13px,0) translate(-1.1368683094535245e-13px,0) translate(0,0)}50%{-webkit-transform:translate(1.1368683094535245e-13px,0) translate(-1.1368683094535245e-13px,0) translate(0,30px);transform:translate(1.1368683094535245e-13px,0) translate(-1.1368683094535245e-13px,0) translate(0,30px)}}@-webkit-keyframes kf_el_re_aQI-9pNS_an_k4JzqHZSP{0%,33.33%,66.67%,to{-webkit-transform:translate(36px,305px) translate(-36px,-305px) translate(0,5px);transform:translate(36px,305px) translate(-36px,-305px) translate(0,5px)}16.67%,50%,83.33%{-webkit-transform:translate(36px,305px) translate(-36px,-305px) translate(0,-5px);transform:translate(36px,305px) translate(-36px,-305px) translate(0,-5px)}}@keyframes kf_el_re_aQI-9pNS_an_k4JzqHZSP{0%,33.33%,66.67%,to{-webkit-transform:translate(36px,305px) translate(-36px,-305px) translate(0,5px);transform:translate(36px,305px) translate(-36px,-305px) translate(0,5px)}16.67%,50%,83.33%{-webkit-transform:translate(36px,305px) translate(-36px,-305px) translate(0,-5px);transform:translate(36px,305px) translate(-36px,-305px) translate(0,-5px)}}@-webkit-keyframes kf_el_YDruniOgoXd_an_NcpIIQox6{0%,33.33%,66.67%,to{-webkit-transform:translate(32px,291px) translate(-32px,-291px) translate(0,0);transform:translate(32px,291px) translate(-32px,-291px) translate(0,0)}16.67%,50%,83.33%{-webkit-transform:translate(32px,291px) translate(-32px,-291px) translate(0,20px);transform:translate(32px,291px) translate(-32px,-291px) translate(0,20px)}}@keyframes kf_el_YDruniOgoXd_an_NcpIIQox6{0%,33.33%,66.67%,to{-webkit-transform:translate(32px,291px) translate(-32px,-291px) translate(0,0);transform:translate(32px,291px) translate(-32px,-291px) translate(0,0)}16.67%,50%,83.33%{-webkit-transform:translate(32px,291px) translate(-32px,-291px) translate(0,20px);transform:translate(32px,291px) translate(-32px,-291px) translate(0,20px)}}@-webkit-keyframes kf_el_r-Zrox0QFcn_an_PY3_MvCP4{0%,to{-webkit-transform:translate(.06623077392578125px,-.000018736347556114197px) translate(-.06623077392578125px,.000018736347556114197px) translate(0,30px);transform:translate(.06623077392578125px,-.000018736347556114197px) translate(-.06623077392578125px,.000018736347556114197px) translate(0,30px)}50%{-webkit-transform:translate(.06623077392578125px,-.000018736347556114197px) translate(-.06623077392578125px,.000018736347556114197px) translate(0,0);transform:translate(.06623077392578125px,-.000018736347556114197px) translate(-.06623077392578125px,.000018736347556114197px) translate(0,0)}}@keyframes kf_el_r-Zrox0QFcn_an_PY3_MvCP4{0%,to{-webkit-transform:translate(.06623077392578125px,-.000018736347556114197px) translate(-.06623077392578125px,.000018736347556114197px) translate(0,30px);transform:translate(.06623077392578125px,-.000018736347556114197px) translate(-.06623077392578125px,.000018736347556114197px) translate(0,30px)}50%{-webkit-transform:translate(.06623077392578125px,-.000018736347556114197px) translate(-.06623077392578125px,.000018736347556114197px) translate(0,0);transform:translate(.06623077392578125px,-.000018736347556114197px) translate(-.06623077392578125px,.000018736347556114197px) translate(0,0)}}@-webkit-keyframes kf_el_mxPLii-5ygt_an_DE_HSgOk6{0%,33.33%,66.67%,to{-webkit-transform:translate(36px,135px) translate(-36px,-135px) translate(0,-5px);transform:translate(36px,135px) translate(-36px,-135px) translate(0,-5px)}16.67%,50%,83.33%{-webkit-transform:translate(36px,135px) translate(-36px,-135px) translate(0,5px);transform:translate(36px,135px) translate(-36px,-135px) translate(0,5px)}}@keyframes kf_el_mxPLii-5ygt_an_DE_HSgOk6{0%,33.33%,66.67%,to{-webkit-transform:translate(36px,135px) translate(-36px,-135px) translate(0,-5px);transform:translate(36px,135px) translate(-36px,-135px) translate(0,-5px)}16.67%,50%,83.33%{-webkit-transform:translate(36px,135px) translate(-36px,-135px) translate(0,5px);transform:translate(36px,135px) translate(-36px,-135px) translate(0,5px)}}@-webkit-keyframes kf_el_hvor5AvBUFl_an_zT3evwEP6{0%,33.33%,66.67%,to{-webkit-transform:translate(32px,121px) translate(-32px,-121px) translate(0,20px);transform:translate(32px,121px) translate(-32px,-121px) translate(0,20px)}16.67%,50%,83.33%{-webkit-transform:translate(32px,121px) translate(-32px,-121px) translate(0,0);transform:translate(32px,121px) translate(-32px,-121px) translate(0,0)}}@keyframes kf_el_hvor5AvBUFl_an_zT3evwEP6{0%,33.33%,66.67%,to{-webkit-transform:translate(32px,121px) translate(-32px,-121px) translate(0,20px);transform:translate(32px,121px) translate(-32px,-121px) translate(0,20px)}16.67%,50%,83.33%{-webkit-transform:translate(32px,121px) translate(-32px,-121px) translate(0,0);transform:translate(32px,121px) translate(-32px,-121px) translate(0,0)}}#el_cSctNaCmZ *{-webkit-animation-duration:3s;animation-duration:3s;-webkit-animation-iteration-count:infinite;animation-iteration-count:infinite;-webkit-animation-timing-function:cubic-bezier(0,0,1,1);animation-timing-function:cubic-bezier(0,0,1,1)}</style><defs><linearGradient x1="50%" y1="0%" x2="50%" y2="100%" id="linearGradient-1"><stop stop-color="#002315" offset="0%"/><stop stop-color="#0DC47C" offset="100%"/></linearGradient></defs><g style="-webkit-transform:translate(-419px,-285px);transform:translate(-419px,-285px)" fill-rule="evenodd" fill="none"><g style="-webkit-transform:translate(420px,285px);transform:translate(420px,285px)"><g style="-webkit-transform:translate(0,69px);transform:translate(0,69px)"><g style="-webkit-transform:translate(0,35px);transform:translate(0,35px)"><ellipse cx="300" cy="170" rx="300" ry="150" stroke="#5f7890" stroke-width="2" fill-opacity=".7" fill="#061428"/><ellipse cx="300" cy="20" rx="40" ry="20" fill="#5f7890"/><ellipse cx="540" cy="80" rx="40" ry="20" fill="#5f7890"/><ellipse cx="540" cy="260" rx="40" ry="20" fill="#5f7890"/><ellipse cx="60" cy="80" rx="40" ry="20" fill="#5f7890"/><ellipse cx="60" cy="260" rx="40" ry="20" fill="#5f7890"/><ellipse cx="300" cy="320" rx="40" ry="20" fill="#5f7890"/></g><ellipse cx="300" cy="205" rx="20" ry="10" stroke="#2c2c2c"/><ellipse cx="300" cy="205" rx="4" ry="2" fill="#0dc47c"/><path d="M300 85v100M329 197.5l166.433-68.558" stroke-linecap="square" stroke-dasharray="0,9" stroke="url(#linearGradient-1)"/><path d="M329 281.5l166.433-68.558" stroke-linecap="square" stroke-dasharray="0,9" style="-webkit-transform:translate(295.547145237015px,-219.0715763555045px) rotate(45deg);transform:translate(295.547145237015px,-219.0715763555045px) rotate(45deg)" stroke="url(#linearGradient-1)"/><path d="M104 197.5l166.433-68.558" stroke-linecap="square" stroke-dasharray="0,9" style="-webkit-transform:translate(374.432716px,0) scale(-1,1);transform:translate(374.432716px,0) scale(-1,1)" stroke="url(#linearGradient-1)"/><path d="M104 281.5l166.433-68.558" stroke-linecap="square" stroke-dasharray="0,9" style="-webkit-transform:translate(144.78654499523503px,-59.972550587754455px) scale(-1,1) rotate(45deg);transform:translate(144.78654499523503px,-59.972550587754455px) scale(-1,1) rotate(45deg)" stroke="url(#linearGradient-1)"/><path d="M300 225v100" stroke-linecap="square" stroke-dasharray="0,9" style="-webkit-transform:translate(600px,550px) rotate(180deg);transform:translate(600px,550px) rotate(180deg)" stroke="url(#linearGradient-1)"/><g style="-webkit-transform:translate(270px,0);transform:translate(270px,0)"><ellipse cx="30" cy="55" rx="30" ry="15" fill="#fff"/><path fill="#fff" d="M0 15h60v40H0z"/><ellipse cx="30" cy="15" rx="30" ry="15" fill="#ddd"/></g><g style="-webkit-transform:translate(510px,70px);transform:translate(510px,70px)"><ellipse cx="30" cy="45" rx="30" ry="15" fill="#fff"/><path fill="#fff" d="M0 15h60v30H0z"/><ellipse cx="30" cy="15" rx="30" ry="15" fill="#ddd"/></g><g style="-webkit-transform:translate(510px,260px);transform:translate(510px,260px)"><ellipse cx="30" cy="35" rx="30" ry="15" fill="#fff"/><path fill="#fff" d="M0 15h60v20H0z"/><ellipse cx="30" cy="15" rx="30" ry="15" fill="#ddd"/></g><g style="-webkit-transform:translate(30px,80px);transform:translate(30px,80px)"><ellipse cx="30" cy="35" rx="30" ry="15" fill="#fff"/><path fill="#fff" d="M0 15h60v20H0z"/><ellipse cx="30" cy="15" rx="30" ry="15" fill="#ddd"/></g><g style="-webkit-transform:translate(30px,250px);transform:translate(30px,250px)"><ellipse cx="30" cy="45" rx="30" ry="15" fill="#fff"/><path fill="#fff" d="M0 15h60v30H0z"/><ellipse cx="30" cy="15" rx="30" ry="15" fill="#ddd"/></g><g style="-webkit-transform:translate(270px,243px);transform:translate(270px,243px)"><ellipse cx="30" cy="112" rx="30" ry="15" fill="#fff"/><path fill="#fff" d="M0 72h60v40H0z"/><ellipse cx="30" cy="72" rx="30" ry="15" fill="#ddd"/></g></g><ellipse cx="60" cy="135" rx="28" ry="14" stroke="#fff" opacity=".5" data-animator-group="true" data-animator-type="0"/><ellipse cx="60" cy="147" rx="24" ry="12" fill="#fff" opacity=".5" data-animator-group="true" data-animator-type="0"/><g style="-webkit-animation-fill-mode:backwards;animation-fill-mode:backwards;-webkit-transform:translate(.06623077392578125px,-.000018736347556114197px) translate(-.06623077392578125px,.000018736347556114197px) translate(0,30px);transform:translate(.06623077392578125px,-.000018736347556114197px) translate(-.06623077392578125px,.000018736347556114197px) translate(0,30px);-webkit-animation-name:kf_el_r-Zrox0QFcn_an_PY3_MvCP4;animation-name:kf_el_r-Zrox0QFcn_an_PY3_MvCP4;-webkit-animation-timing-function:cubic-bezier(0,0,1,1);animation-timing-function:cubic-bezier(0,0,1,1)"><g style="-webkit-transform:translate(46px,80px);transform:translate(46px,80px)" fill="#0dc47c" data-animator-group="true" data-animator-type="0"><path d="M2.62 10.095c.24.053.463.049 1.149-.478a6.304 6.304 0 0 0 1.17-1.177l.182-.242c1.557-2.07 5.201-6.918 10.465-6.655 4.341.317 7.42 3.595 8.9 9.481.05.2.08.324.114.417.028.118.058.239.09.361h1.6c-.077-.246-.15-.512-.21-.768a.776.776 0 0 0-.042-.126c-.014-.051-.042-.16-.066-.258-.235-.933-.858-3.411-2.37-5.742C21.65 1.898 18.988.252 15.688.015l-.015-.002C9.59-.297 5.6 5.011 3.896 7.278l-.18.237C3.25 8.132 2.7 8.516 2.51 8.627a.778.778 0 0 0-.475.885c.065.291.293.52.585.583z" id="el_Kto5sQ9ms4D"/><path d="M10.793 20.813c-2.117 1.279-4.792 2.805-6.9 3.706a.766.766 0 1 0 .603 1.41c3.003-1.285 7.07-3.762 9.214-5.116h-2.917z" id="el_xAAJuJkFOjg"/><path d="M22.166 11.803c.185-1.032.084-2.034-.312-2.864-.494-1.033-1.416-1.78-2.664-2.164-1.833-.56-4.054.458-6.09 2.79a37.472 37.472 0 0 1-2.369 2.237h2.284c.758-.716 1.225-1.213 1.235-1.224 1.236-1.416 3.065-2.773 4.49-2.337.84.258 1.423.715 1.732 1.36.29.608.33 1.387.13 2.202h1.564z" id="el_aPPYLuCD-ku"/><path d="M12.122 6.883a13.62 13.62 0 0 1 .347-.281 11.268 11.268 0 0 1 1.701-1.08 6.92 6.92 0 0 1 1.82-.637c.228-.047.277-.052.448-.07.416-.043.767-.316.767-.766 0-.386-.35-.81-.767-.767-2.77.287-5.14 2.02-6.966 4.03-.348.384-.66.796-.996 1.188-.44.515-.922.996-1.425 1.45-.516.466-.934.8-1.544 1.15-.417.24-.84.475-1.267.703H7.2c1.069-.813 1.987-1.76 2.832-2.798a16.317 16.317 0 0 1 2.09-2.122z" id="el_VhVQxPICG3e"/><path d="M3.507 21.989c.48-.165 1.54-.551 2.915-1.176h-3.81a.766.766 0 0 0 .868 1.186l.027-.01z" id="el_U8fuJY8jKCs"/><path d="M17.261 10.624c-.29.407-.596.8-.913 1.179h1.946c.072-.096.144-.19.215-.289a.767.767 0 0 0-1.248-.89z" id="el_fEIPdoA-sLW"/><path d="M24.363 26.552c-1.062-.354-2.362-1.28-3.619-2.175-1.82-1.298-3.392-2.417-4.674-2.197-.962.167-2.643 1.241-5.298 2.99-1.913 1.262-4.083 2.692-5.026 2.945a.767.767 0 0 0 .398 1.481c1.183-.319 3.267-1.692 5.472-3.145 1.782-1.175 3.999-2.636 4.715-2.76.65-.111 2.244 1.022 3.524 1.934 1.349.96 2.744 1.954 4.024 2.381a.767.767 0 0 0 .484-1.454z" id="el_mx8EWFL7M-T"/><path d="M22.444 30.307c-.617-.223-1.622-.844-2.593-1.444-2.051-1.268-3.356-2.037-4.291-1.876-.948.164-2.939 1.517-6.28 3.957-.408.298-.761.555-1.006.73a.767.767 0 0 0 .884 1.251c.255-.18.612-.442 1.026-.743 1.33-.971 4.862-3.55 5.629-3.682.478-.033 2.202 1.031 3.233 1.667 1.085.67 2.11 1.304 2.878 1.582a.767.767 0 0 0 .52-1.442z" id="el_dlSJgLodIEA"/><path d="M19.856 34.117c-.43-.28-.826-.564-1.21-.836-1.256-.899-2.343-1.674-3.534-1.466-1.34.23-3.476 2.378-3.891 2.806a.768.768 0 0 0 .55 1.3c.2 0 .4-.078.55-.233 1.028-1.06 2.486-2.266 3.052-2.364.559-.096 1.405.507 2.383 1.204.377.27.804.574 1.261.873a.767.767 0 0 0 .84-1.284z" id="el_Pcn1TGtvtPG"/><path d="M25.113 22.295c-.576-.177-1.013-.402-1.622-.762a7.728 7.728 0 0 1-1.018-.72h-2.097c1.082 1.398 2.648 2.443 4.329 2.96.948.292 1.35-1.187.408-1.478z" id="el_EnUOFrNqsnt"/><path d="M.066 12.238v7.393H28.24v-7.393H.066zm26.96 6.18H1.28V13.45h25.747v4.967z" id="el_ocZ8GcuNKSJ" fill-rule="nonzero"/><path id="el_dyui2IdlUNQ" d="M5.076 17.127l.787.497.47-1.022.433 1.008.852-.486-.68-.85 1.051.126v-.94l-1.06.14.677-.89-.823-.465-.437 1.005-.445-.997-.829.476.666.864-1.025-.132v.94l1.031-.132z"/><path id="el_CdMRTFy7X9C" d="M10.277 17.127l.786.497.471-1.022.433 1.008.851-.486-.679-.85 1.051.126v-.94l-1.06.14.677-.89-.823-.465-.437 1.005-.445-.997-.83.476.666.864-1.024-.132v.94l1.03-.132z"/><path id="el_H-tKzIxhcJ1" d="M15.477 17.127l.787.497.472-1.022.432 1.008.852-.486-.68-.85 1.051.126v-.94l-1.06.14.676-.89-.822-.465-.438 1.005-.445-.997-.828.476.665.864-1.024-.132v.94l1.03-.132z"/><path id="el_nZytcZfzTve" d="M20.679 17.127l.786.497.471-1.022.432 1.008.852-.486-.68-.85 1.052.126v-.94l-1.06.14.676-.89-.822-.465-.438 1.005-.444-.997-.83.476.666.864-1.024-.132v.94l1.03-.132z"/></g></g><ellipse cx="60" cy="305" rx="28" ry="14" stroke="#fff" opacity=".5" data-animator-group="true" data-animator-type="0"/><ellipse cx="60" cy="317" rx="24" ry="12" fill="#fff" opacity=".5" data-animator-group="true" data-animator-type="0"/><g style="-webkit-animation-fill-mode:backwards;animation-fill-mode:backwards;-webkit-transform:translate(1.1368683094535245e-13px,0) translate(-1.1368683094535245e-13px,0) translate(0,0);transform:translate(1.1368683094535245e-13px,0) translate(-1.1368683094535245e-13px,0) translate(0,0);-webkit-animation-name:kf_el_Xr7uL_7WVuB_an_gWL3Ja-EU;animation-name:kf_el_Xr7uL_7WVuB_an_gWL3Ja-EU;-webkit-animation-timing-function:cubic-bezier(0,0,1,1);animation-timing-function:cubic-bezier(0,0,1,1)"><g style="-webkit-transform:translate(42px,257px);transform:translate(42px,257px)" fill="#0dc47c" data-animator-group="true" data-animator-type="0"><path id="el_s6UgeDXVUyW" d="M2.652 20.64H4.77v1.07H2.652z"/><path id="el_mEOd483SuEk" d="M5.827 20.64h2.117v1.07H5.827z"/><path id="el_PNcBTvkOfMd" d="M9.003 20.64h2.117v1.07H9.003z"/><path id="el_U4sp5nCWUyC" d="M12.178 20.64h2.117v1.07h-2.117z"/><path id="el_7WjsMgVUEJJ" d="M2.652 22.757h1.059v1.07H2.652z"/><path id="el_Eh-swxl1Jfp" d="M4.77 22.757h1.057v1.07H4.77z"/><path id="el_cHTNi3E868-" d="M6.886 22.757h1.058v1.07H6.886z"/><path id="el_C8tpP4UmxN4" d="M9.003 22.757h1.059v1.07H9.003z"/><path id="el_6A8mFJkfnpv" d="M12.178 22.757h1.059v1.07h-1.059z"/><path id="el_0FScjQQ4xAu" d="M14.295 22.757h1.059v1.07h-1.059z"/><path id="el_FRX1kN5QRua" d="M16.412 22.757h1.059v1.07h-1.059z"/><path id="el_WuMyGNAjLXA" d="M18.53 22.757h1.058v1.07h-1.059z"/><path id="el_on1CslYS81q" d="M21.705 22.757h1.058v1.07h-1.058z"/><path id="el_0j_rO5mDf-o" d="M23.822 22.757h1.058v1.07h-1.058z"/><path id="el_TKfIjQEayEY" d="M25.938 22.757h1.059v1.07h-1.059z"/><path id="el_PhumzIyVIh8" d="M28.056 22.757h1.058v1.07h-1.058z"/><path id="el_oG-Q0aQ0GXs" d="M2.652 24.874h3.175v1.07H2.652z"/><path id="el_CeyE1tZCzya" d="M6.754 24.874h3.308v1.07H6.754z"/><path id="el_KvwdOMkVnbA" d="M31.76 24.874h1.059v1.07H31.76z"/><path id="el_jjTPRc-TThg" d="M31.76 10.056h1.059v1.07H31.76z"/><path id="el_sHO81mFxJgr" d="M2.652 10.056h1.059v1.07H2.652z"/><path d="M29.65 5.822h-1.06V2.784A2.787 2.787 0 0 0 25.807 0h-3.44a2.788 2.788 0 0 0-2.784 2.784v3.038h-1.059v6.892H29.65V5.822zm-8.998-3.038c0-.945.77-1.714 1.714-1.714h3.44c.945 0 1.714.77 1.714 1.714v3.038h-6.868V2.784zm-1.058 8.86v-1.577h3.17v-1.07h-3.17V6.892h8.985v2.105h-2.64v1.07h2.64v1.576h-8.985z" id="el_0K_SZxjDBPe" fill-rule="nonzero"/><path d="M33.48 7.41h-2.778v1.07h2.778c.813 0 1.45.6 1.45 1.365v16.367c0 .795-.647 1.44-1.44 1.44H2.51c-.793 0-1.44-.645-1.44-1.44V9.845c0-.765.637-1.365 1.45-1.365h14.95V7.41H2.52C1.107 7.41 0 8.48 0 9.844v16.367a2.514 2.514 0 0 0 2.51 2.51h30.98a2.513 2.513 0 0 0 2.51-2.51V9.845c0-1.365-1.107-2.436-2.52-2.436z" id="el_T2PROdZW0vy"/><path id="el_oqFJH8tAHa8" d="M23.816 7.944h1.07v2.647h-1.07z"/></g></g><ellipse cx="300" cy="355" rx="28" ry="14" stroke="#fff" opacity=".5" data-animator-group="true" data-animator-type="0"/><ellipse cx="300" cy="367" rx="24" ry="12" fill="#fff" opacity=".5" data-animator-group="true" data-animator-type="0"/><g style="-webkit-animation-fill-mode:backwards;animation-fill-mode:backwards;-webkit-transform:translate(0,.0341796875px) translate(0,-.0341796875px) translate(0,30px);transform:translate(0,.0341796875px) translate(0,-.0341796875px) translate(0,30px);-webkit-animation-name:kf_el_fFA1XV6EyT6_an_iWVZmh_1U;animation-name:kf_el_fFA1XV6EyT6_an_iWVZmh_1U;-webkit-animation-timing-function:cubic-bezier(0,0,1,1);animation-timing-function:cubic-bezier(0,0,1,1)"><g style="-webkit-transform:translate(282px,302px);transform:translate(282px,302px)" fill="#0dc47c" data-animator-group="true" data-animator-type="0"><path d="M27.296 28.084v2.263c0 .831.695 1.507 1.55 1.507.854 0 1.55-.676 1.55-1.507v-2.263a2.866 2.866 0 0 0 1.403-2.443c0-1.583-1.325-2.871-2.953-2.871s-2.953 1.288-2.953 2.87c0 1 .54 1.926 1.403 2.444zm1.55-4.279c1.04 0 1.888.824 1.888 1.836a1.84 1.84 0 0 1-1.095 1.665.517.517 0 0 0-.309.47v2.571c0 .26-.217.472-.484.472a.479.479 0 0 1-.485-.472v-2.57a.517.517 0 0 0-.308-.47 1.84 1.84 0 0 1-1.095-1.666c0-1.012.847-1.836 1.888-1.836z" id="el_HcGRtmquYVG" fill-rule="nonzero"/><path d="M7.217 12.718c0-1.39-.882-1.907-2.013-1.907-1.131 0-2.005.516-2.005 1.907v2.324c0 1.391.874 1.908 2.005 1.908 1.13 0 2.013-.517 2.013-1.908v-2.324zm-1.114 2.324c0 .658-.343.958-.9.958-.565 0-.89-.3-.89-.958v-2.324c0-.658.325-.958.89-.958.557 0 .9.3.9.958v2.324z" id="el_e426HnZidkU" fill-rule="nonzero"/><path d="M11.304 16.558v-5.414c0-.283-.493-.463-.728-.267l-1.011.75c-.373.226-.215.825.146.825.212 0 .276-.176.48-.342v4.448c0 .457 1.113.453 1.113 0z" id="el__yLXJCBVDhQ"/><path d="M17.918 12.718c0-1.39-.882-1.907-2.013-1.907-1.13 0-2.005.516-2.005 1.907v2.324c0 1.391.874 1.908 2.005 1.908 1.131 0 2.013-.517 2.013-1.908v-2.324zm-1.113 2.324c0 .658-.343.958-.9.958-.565 0-.89-.3-.89-.958v-2.324c0-.658.325-.958.89-.958.557 0 .9.3.9.958v2.324z" id="el_6_GgR1GmO4N" fill-rule="nonzero"/><path d="M22.006 16.558v-5.414c0-.283-.493-.463-.729-.267l-1.01.75a.464.464 0 0 0-.215.391c0 .362.343.548.565.359l.275-.267v4.448c0 .457 1.114.453 1.114 0z" id="el_52Ej6syanF1"/><path d="M5.204 25.655c-1.131 0-2.005.517-2.005 1.908v2.324c0 1.39.874 1.907 2.005 1.907 1.13 0 2.013-.516 2.013-1.907v-2.324c0-1.391-.882-1.908-2.013-1.908zm.9 4.232c0 .658-.344.958-.9.958-.566 0-.891-.3-.891-.958v-2.324c0-.658.325-.958.89-.958.557 0 .9.3.9.958v2.324z" id="el_LUEWsdKicmu" fill-rule="nonzero"/><path d="M11.304 31.403v-5.415c0-.282-.493-.462-.728-.266l-1.011.75c-.373.226-.215.824.146.824.212 0 .276-.176.48-.341v4.448c0 .457 1.113.452 1.113 0z" id="el_22Lh75nvHEk"/><path d="M15.905 25.655c-1.13 0-2.005.517-2.005 1.908v2.324c0 1.39.874 1.907 2.005 1.907 1.131 0 2.013-.516 2.013-1.907v-2.324c0-1.391-.882-1.908-2.013-1.908zm.9 4.232c0 .658-.343.958-.9.958-.565 0-.89-.3-.89-.958v-2.324c0-.658.325-.958.89-.958.557 0 .9.3.9.958v2.324z" id="el_cVLwuOhx7Q_" fill-rule="nonzero"/><path d="M3.726 19.768L4 19.502v4.448c0 .457 1.114.453 1.114 0v-5.414c0-.283-.493-.463-.729-.267l-1.01.75a.464.464 0 0 0-.215.391c0 .363.344.547.566.358z" id="el_z1YMxnUxA8Q"/><path d="M7.59 20.11v2.324c0 1.391.874 1.908 2.005 1.908 1.13 0 2.013-.517 2.013-1.908V20.11c0-1.391-.882-1.907-2.013-1.907-1.131 0-2.005.516-2.005 1.907zm1.114 0c0-.658.325-.958.89-.958.558 0 .9.3.9.958v2.324c0 .658-.342.958-.9.958-.565 0-.89-.3-.89-.958V20.11z" id="el_1854ZWp1oPl" fill-rule="nonzero"/><path d="M13.981 19.843c.213 0 .277-.176.48-.341v4.448c0 .457 1.114.453 1.114 0v-5.414c0-.217-.265-.35-.497-.35-.189 0-.164.051-1.242.833-.373.226-.214.824.145.824z" id="el_QmqndlVqLY2"/><path d="M19.495 24.292c.274 0 .557-.117.557-.342v-5.414c0-.283-.492-.463-.728-.267l-1.011.75c-.373.226-.214.824.145.824.213 0 .277-.176.48-.341v4.448c0 .225.275.342.557.342z" id="el_lOEoZyABqLQ"/><path d="M35.112 3.417h-2.404a.525.525 0 0 0-.533.518c0 .285.239.517.533.517h2.227v3.176H1.065V4.452h29.512a.525.525 0 0 0 .533-.517.525.525 0 0 0-.533-.518h-9.642l-.41-2.648a.874.874 0 0 0-.877-.735H17.73a.525.525 0 0 0-.533.518c0 .286.239.518.533.518h1.765l.363 2.347h-8.277l.363-2.347H15.6a.525.525 0 0 0 .532-.518.525.525 0 0 0-.532-.518h-3.81a.874.874 0 0 0-.877.735l-.408 2.641-.41-2.641A.874.874 0 0 0 9.22.034H1.36A.874.874 0 0 0 .484.77L.006 3.858l-.001.01-.003.031A.704.704 0 0 0 0 3.923L0 3.935v16.35c0 .287.238.519.533.519a.525.525 0 0 0 .532-.518V8.664h33.87v10.995h-.643v-4.202c0-.127-.004-.255-.014-.382a.526.526 0 0 0-.569-.48.523.523 0 0 0-.493.554c.007.102.011.206.011.308v4.202h-.835v-4.202c0-1.9-1.59-3.447-3.546-3.447-1.955 0-3.547 1.546-3.547 3.447v4.202h-.835v-4.202c0-2.348 1.966-4.259 4.382-4.259 1.588 0 3.057.842 3.832 2.197a.54.54 0 0 0 .725.2.51.51 0 0 0 .206-.704c-.963-1.682-2.788-2.728-4.763-2.728-3.003 0-5.447 2.375-5.447 5.294v4.202h-.82a.878.878 0 0 0-.887.864v13.406H1.065V22.357a.525.525 0 0 0-.532-.518.525.525 0 0 0-.533.518v11.745c0 .476.398.863.888.863h34.224c.49 0 .888-.387.888-.863V4.28a.876.876 0 0 0-.888-.863zM1.514 1.07h7.552l.363 2.347H1.15l.363-2.347zm24.85 14.387c0-1.33 1.114-2.412 2.482-2.412s2.481 1.082 2.481 2.412v4.202h-4.963v-4.202zm8.57 18.472H22.758V20.694h12.178V33.93z" id="el_k8_w-0LT7Vo" fill-rule="nonzero"/><path d="M30.71 5.488H2.355a.525.525 0 0 0-.532.517c0 .286.238.518.532.518H30.71a.525.525 0 0 0 .532-.518.525.525 0 0 0-.532-.517z" id="el_MOUlnwdkSuq"/><path d="M33.645 6.005a.7.7 0 0 1-.71.69.7.7 0 0 1-.71-.69.7.7 0 0 1 .71-.69.7.7 0 0 1 .71.69z" id="el_QJjhWvdwbKA"/></g></g><ellipse cx="540" cy="315" rx="28" ry="14" stroke="#fff" opacity=".5" data-animator-group="true" data-animator-type="0"/><ellipse cx="540" cy="327" rx="24" ry="12" fill="#fff" opacity=".5" data-animator-group="true" data-animator-type="0"/><g style="-webkit-animation-fill-mode:backwards;animation-fill-mode:backwards;-webkit-transform:translate(.004491227678954601px,0) translate(-.004491227678954601px,0) translate(0,0);transform:translate(.004491227678954601px,0) translate(-.004491227678954601px,0) translate(0,0);-webkit-animation-name:kf_el_88ooTMRsL7j_an_uOmNpNJDu;animation-name:kf_el_88ooTMRsL7j_an_uOmNpNJDu;-webkit-animation-timing-function:cubic-bezier(0,0,1,1);animation-timing-function:cubic-bezier(0,0,1,1)"><g style="-webkit-transform:translate(522px,260px);transform:translate(522px,260px)" fill="#0dc47c" data-animator-group="true" data-animator-type="0"><path d="M17.553 11.213a.63.63 0 0 0 .425.174.752.752 0 0 0 .114-.012.372.372 0 0 0 .114-.036.334.334 0 0 0 .102-.054c.035-.024.066-.048.096-.072a.692.692 0 0 0 .125-.198.6.6 0 0 0 .048-.227.62.62 0 0 0-.173-.425 1.376 1.376 0 0 0-.096-.072.334.334 0 0 0-.102-.054.362.362 0 0 0-.114-.036.614.614 0 0 0-.539.162.93.93 0 0 0-.072.09.445.445 0 0 0-.054.107.394.394 0 0 0-.036.108.6.6 0 0 0 .036.347c.03.073.073.14.126.198z" id="el_AWdE0ExUX10"/><path d="M18.404 24.735a1.376 1.376 0 0 0-.096-.072.334.334 0 0 0-.102-.054.597.597 0 0 0-.653.126.69.69 0 0 0-.126.197.598.598 0 0 0-.036.347.39.39 0 0 0 .037.108.442.442 0 0 0 .053.108.994.994 0 0 0 .072.09.63.63 0 0 0 .425.174.752.752 0 0 0 .114-.012.37.37 0 0 0 .114-.036.334.334 0 0 0 .102-.054c.035-.024.066-.048.096-.072a.62.62 0 0 0 .173-.425.598.598 0 0 0-.048-.228.696.696 0 0 0-.125-.197z" id="el_AJalUE3pnX0"/><path d="M15.523 11.818a.579.579 0 0 0 .42-.174c.027-.028.053-.058.077-.09.018-.036.036-.066.054-.101l.036-.114a.583.583 0 0 0-.168-.539.383.383 0 0 0-.09-.078 1.794 1.794 0 0 0-.101-.054l-.114-.036a.601.601 0 0 0-.669.82.595.595 0 0 0 .555.366z" id="el_aQerorZbzK4"/><path d="M20.858 24.303a.569.569 0 0 0-.089-.077l-.102-.054a.84.84 0 0 0-.114-.03.516.516 0 0 0-.233 0 .82.82 0 0 0-.114.03c-.036.018-.072.036-.102.054a.393.393 0 0 0-.09.077.525.525 0 0 0-.132.192.586.586 0 0 0 .132.653c.026.03.056.056.09.078.03.017.066.036.102.053a.818.818 0 0 0 .114.036.716.716 0 0 0 .113.012.79.79 0 0 0 .12-.012.833.833 0 0 0 .114-.036c.036-.017.066-.036.102-.053a.569.569 0 0 0 .09-.078.578.578 0 0 0 .173-.42.644.644 0 0 0-.041-.233.62.62 0 0 0-.133-.192z" id="el_PLIvjcQiPzH"/><path d="M12.804 12.698a.622.622 0 0 0 .132.198.605.605 0 0 0 .425.174.624.624 0 0 0 .42-.174.616.616 0 0 0 .077-.096c.018-.03.036-.066.054-.102.012-.036.024-.072.036-.114a.688.688 0 0 0 .012-.113c0-.04-.005-.08-.012-.12l-.036-.114-.054-.102a.736.736 0 0 0-.27-.222.615.615 0 0 0-.46 0 .732.732 0 0 0-.27.222l-.054.102-.036.114a.828.828 0 0 0-.011.12.754.754 0 0 0 .011.113c.012.042.024.078.036.114z" id="el_Xy6UNesjKJJ"/><path d="M22.93 22.98a.783.783 0 0 0-.101-.054.602.602 0 0 0-.784.784.524.524 0 0 0 .13.192.58.58 0 0 0 .54.162.812.812 0 0 0 .114-.03.839.839 0 0 0 .191-.132c.056-.055.1-.12.132-.192a.643.643 0 0 0 .042-.233.604.604 0 0 0-.174-.425l-.09-.072z" id="el_W42scuw6FxH"/><path d="M11.33 13.956a.604.604 0 0 0-.173.425.593.593 0 0 0 .042.227c.033.073.077.14.132.198a.599.599 0 0 0 .977-.198.596.596 0 0 0 .047-.227.608.608 0 0 0-.18-.425.62.62 0 0 0-.844 0z" id="el_wK8394HnR_1"/><path d="M24.625 21.142a.597.597 0 0 0-.754-.072.6.6 0 0 0 0 .994c.03.023.065.042.101.054.036.018.075.03.115.036a.618.618 0 0 0 .539-.162.692.692 0 0 0 .125-.198.564.564 0 0 0 0-.455.692.692 0 0 0-.126-.197z" id="el_IV-FdQpnIII"/><path d="M10.9 17.327a.605.605 0 0 0 .599-.599.523.523 0 0 0-.048-.233.59.59 0 0 0-.126-.192.62.62 0 0 0-.844 0 .522.522 0 0 0-.132.192.628.628 0 0 0-.048.233c.008.328.272.591.599.6z" id="el_lg1YUouWg6Q"/><path d="M25.608 18.992a.338.338 0 0 0-.055-.102.385.385 0 0 0-.078-.09.613.613 0 0 0-.538-.168l-.114.036-.102.054c-.031.025-.061.05-.09.078a.58.58 0 0 0-.161.54.817.817 0 0 0 .03.113.57.57 0 0 0 .06.102.329.329 0 0 0 .071.09c.029.027.059.053.09.077l.102.054a.822.822 0 0 0 .233.042.578.578 0 0 0 .42-.173.56.56 0 0 0 .179-.426.745.745 0 0 0-.012-.114.426.426 0 0 0-.035-.113z" id="el_KGjEmlXVUuD"/><path d="M11.325 19.645a.594.594 0 0 0 .126-.192.523.523 0 0 0 .048-.234.605.605 0 0 0-.174-.419.613.613 0 0 0-.844 0 .586.586 0 0 0 0 .845.58.58 0 0 0 .539.161.741.741 0 0 0 .107-.03l.109-.054c.03-.024.06-.05.09-.077z" id="el_J8PF8Gj1CTo"/><path d="M24.63 16.303a.594.594 0 0 0-.16.54.643.643 0 0 0 .03.113.57.57 0 0 0 .06.102.26.26 0 0 0 .07.09c.03.027.06.053.091.077l.102.054.114.036a.583.583 0 0 0 .539-.168.386.386 0 0 0 .077-.09.338.338 0 0 0 .055-.101.369.369 0 0 0 .035-.114.754.754 0 0 0 .012-.114.826.826 0 0 0-.012-.12.429.429 0 0 0-.035-.113.57.57 0 0 0-.132-.192.597.597 0 0 0-.54-.161.787.787 0 0 0-.113.03l-.102.053c-.031.024-.061.05-.09.078z" id="el_qHDt7cz-NI7"/><path d="M11.33 21.142a.607.607 0 0 0 0 .85.62.62 0 0 0 .426.174.597.597 0 0 0 .42-1.024.62.62 0 0 0-.845 0z" id="el__TkK71UpV8E"/><path d="M24.087 13.794a.358.358 0 0 0-.115.036.334.334 0 0 0-.101.054.604.604 0 0 0-.168.162.47.47 0 0 0-.054.107.702.702 0 0 0-.036.108.61.61 0 0 0 .257.617c.031.024.066.042.102.054.036.018.075.03.115.036a.75.75 0 0 0 .113.012.837.837 0 0 0 .12-.012.389.389 0 0 0 .107-.036.457.457 0 0 0 .109-.054l.09-.072c.025-.028.049-.058.071-.09a.442.442 0 0 0 .054-.108.394.394 0 0 0 .036-.108.62.62 0 0 0 0-.239.39.39 0 0 0-.036-.108.445.445 0 0 0-.054-.107.93.93 0 0 0-.072-.09.614.614 0 0 0-.538-.162z" id="el_XHKJQOD0yvS"/><path d="M13.912 23.25a1.966 1.966 0 0 0-.054-.102.385.385 0 0 0-.077-.09.526.526 0 0 0-.192-.132.615.615 0 0 0-.461 0 .523.523 0 0 0-.192.132.386.386 0 0 0-.077.09c-.019.03-.037.066-.055.102-.012.035-.024.071-.036.113a.597.597 0 0 0 .168.539c.055.056.12.1.192.132.074.03.153.044.233.042a.587.587 0 0 0 .228-.042.613.613 0 0 0 .192-.132.6.6 0 0 0 .167-.539c-.012-.042-.024-.078-.036-.113z" id="el_Evl4XPBX6ES"/><path d="M22.176 12.89a.585.585 0 0 0 .844 0c.056-.055.1-.12.132-.192a.616.616 0 0 0-.132-.653.832.832 0 0 0-.192-.132.812.812 0 0 0-.113-.03.594.594 0 0 0-.54 1.007z" id="el_uH5sKHfJSmp"/><path d="M15.942 24.303a.62.62 0 0 0-.844 0 .608.608 0 0 0-.132.192.624.624 0 0 0-.042.234.593.593 0 0 0 .042.227.61.61 0 0 0 .132.192.586.586 0 0 0 .844 0 .61.61 0 0 0 .18-.42.607.607 0 0 0-.18-.425z" id="el_GcsrfMayCwY"/><path d="M20.104 11.722c.03.018.066.036.102.054a.787.787 0 0 0 .227.042.81.81 0 0 0 .234-.042l.102-.054a.554.554 0 0 0 .09-.078.6.6 0 0 0 0-.844.554.554 0 0 0-.09-.078.909.909 0 0 0-.102-.054.885.885 0 0 0-.114-.036.76.76 0 0 0-.233 0 .853.853 0 0 0-.114.036 1.62 1.62 0 0 0-.102.054.386.386 0 0 0-.09.078.586.586 0 0 0 0 .844c.026.03.056.057.09.078z" id="el_IolV1q9zT8B"/><path d="M32.95 19.172a1.2 1.2 0 0 0 1.197-1.198v-1.882a2.39 2.39 0 0 0-.6-4.705 2.39 2.39 0 0 0-.598 4.705v1.882h-4.79a10.113 10.113 0 0 0-2.982-7.198 10.291 10.291 0 0 0-1.21-1.022V8.99h8.383a1.2 1.2 0 0 0 1.198-1.197V6.51a2.395 2.395 0 1 0-1.198 0v1.283h-8.383c-.66 0-1.194.533-1.198 1.192a10.097 10.097 0 0 0-4.192-1.163V6.596h2.395a1.2 1.2 0 0 0 1.198-1.198v-.683a2.395 2.395 0 1 0-1.198 0v.683h-2.395a1.2 1.2 0 0 0-1.197 1.198v1.227c-.813.043-1.617.183-2.396.417V3.602a1.2 1.2 0 0 0-1.197-1.198H7.713a2.395 2.395 0 1 0 0 1.198h6.073v5.1a10.164 10.164 0 0 0-5.541 6.278H3.008V11.9a2.395 2.395 0 1 0-1.198 0v3.08a1.2 1.2 0 0 0 1.198 1.197h4.955a10.276 10.276 0 0 0-.165 1.797H6.601a1.2 1.2 0 0 0-1.198 1.198v8.383h-.684a2.395 2.395 0 1 0 0 1.198h.684A1.2 1.2 0 0 0 6.6 27.555v-8.383h1.274a10.134 10.134 0 0 0 5.912 8.073v5.7h-3.679a2.395 2.395 0 1 0 0 1.197h3.679a1.2 1.2 0 0 0 1.197-1.197v-5.238c.78.235 1.583.375 2.396.418v1.227a1.2 1.2 0 0 0 1.197 1.197h4.192v.684a2.395 2.395 0 1 0 1.198 0v-.684a1.2 1.2 0 0 0-1.198-1.197h-4.192v-1.227a10.097 10.097 0 0 0 6.6-2.953 10.215 10.215 0 0 0 1.789-2.408h4.785v6.074a2.395 2.395 0 1 0 1.198 0v-6.074a1.2 1.2 0 0 0-1.198-1.197h-4.253c.291-.772.487-1.576.584-2.396h4.867zm-.6-5.39a1.198 1.198 0 1 1 2.396 0 1.198 1.198 0 0 1-2.396 0zm-.599-9.581a1.198 1.198 0 1 1 2.396 0 1.198 1.198 0 0 1-2.396 0zM20.374 2.404a1.198 1.198 0 1 1 2.395 0 1.198 1.198 0 0 1-2.395 0zM5.403 4.201a1.198 1.198 0 1 1 0-2.396 1.198 1.198 0 0 1 0 2.396zm-2.994 6.587a1.198 1.198 0 1 1 0-2.395 1.198 1.198 0 0 1 0 2.395zm0 18.564a1.198 1.198 0 1 1 0-2.396 1.198 1.198 0 0 1 0 2.396zm5.39 5.39a1.198 1.198 0 1 1 0-2.396 1.198 1.198 0 0 1 0 2.395zm15.569-2.396a1.198 1.198 0 1 1 0 2.395 1.198 1.198 0 0 1 0-2.395zm.962-8.02a8.982 8.982 0 1 1 2.63-6.352 8.923 8.923 0 0 1-2.63 6.351zm8.02 5.625a1.198 1.198 0 1 1 0 2.395 1.198 1.198 0 0 1 0-2.395z" id="el_nFctWn4Rc2s" fill-rule="nonzero"/></g></g><ellipse cx="540" cy="125" rx="28" ry="14" stroke="#fff" opacity=".5" data-animator-group="true" data-animator-type="0"/><ellipse cx="540" cy="137" rx="24" ry="12" fill="#fff" opacity=".5" data-animator-group="true" data-animator-type="0"/><g style="-webkit-animation-fill-mode:backwards;animation-fill-mode:backwards;-webkit-transform:translate(0,0) translate(0,0) translate(0,30px);transform:translate(0,0) translate(0,0) translate(0,30px);-webkit-animation-name:kf_el_ETpu9O5pJN4_an_0rwZLsIeg;animation-name:kf_el_ETpu9O5pJN4_an_0rwZLsIeg;-webkit-animation-timing-function:cubic-bezier(0,0,1,1);animation-timing-function:cubic-bezier(0,0,1,1)"><g style="-webkit-transform:translate(524px,70px);transform:translate(524px,70px)" fill="#0dc47c" data-animator-group="true" data-animator-type="0"><path d="M1.161 3.484h17.42v4.064c0 .322.26.581.58.581h4.065v4.645h1.161V7.548a.58.58 0 0 0-.17-.41l-4.644-4.644a.58.58 0 0 0-.412-.171H3.484V1.16h22.064v12.774h1.162V.581A.58.58 0 0 0 26.129 0H2.903a.58.58 0 0 0-.58.58v1.743H.58a.58.58 0 0 0-.581.58V35.42c0 .322.26.581.58.581h19.743v-1.161H1.16V3.484zm18.58.82l2.664 2.664h-2.663V4.305z" id="el_Z7d0Nq5ysg4" fill-rule="nonzero"/><path d="M31.935 17.42h-.874a8.686 8.686 0 0 1-6.69-3.134l-.118-.141a.6.6 0 0 0-.893 0l-.117.14a8.687 8.687 0 0 1-6.691 3.134h-.875a.58.58 0 0 0-.58.581v9.404a6.4 6.4 0 0 0 3.218 5.546l5.203 2.973a.58.58 0 0 0 .577 0l5.203-2.973a6.4 6.4 0 0 0 3.218-5.546V18a.58.58 0 0 0-.58-.58zm-.58 9.984c0 1.87-1.009 3.61-2.633 4.537l-4.916 2.81-4.915-2.809a5.237 5.237 0 0 1-2.633-4.538v-8.823h.294a9.843 9.843 0 0 0 7.254-3.177 9.842 9.842 0 0 0 7.255 3.177h.294v8.823z" id="el_Y1Gbzv35BjE" fill-rule="nonzero"/><path d="M23.806 19.161a6.395 6.395 0 0 0-6.387 6.387 6.395 6.395 0 0 0 6.387 6.387 6.395 6.395 0 0 0 6.388-6.387 6.395 6.395 0 0 0-6.388-6.387zm0 11.613a5.232 5.232 0 0 1-5.225-5.226 5.232 5.232 0 0 1 5.225-5.225 5.232 5.232 0 0 1 5.226 5.225 5.232 5.232 0 0 1-5.226 5.226z" id="el_joBQnECJCWR" fill-rule="nonzero"/><path d="M23.53 27.354l-1.055-1.055-.821.821 1.742 1.742a.58.58 0 0 0 .967-.244l1.742-5.806-1.113-.334-1.463 4.876z" id="el_z1Ixuyh1Vjp"/><path id="el_XwkSmvmjXJ1" d="M2.323 9.29h15.096v1.162H2.323z"/><path id="el_vSfRJUGZYRT" d="M2.323 11.613h15.096v1.161H2.323z"/><path id="el_4Imhs61QCjd" d="M2.323 13.935h15.096v1.162H2.323z"/><path id="el_-bF4WtzcJS9" d="M2.323 16.258h11.612v1.161H2.323z"/><path id="el_Qv-4DaG_qRD" d="M2.323 18.58h11.612v1.162H2.323z"/><path id="el_jRemHp94eL3" d="M2.323 20.903h11.612v1.162H2.323z"/><path id="el_DZ4yGwWju4Y" d="M2.323 27.871h11.612v1.161H2.323z"/><path id="el_2OU60iqzZZg" d="M2.323 30.194h11.612v1.16H2.323z"/><path id="el_vIsWEeb0V8r" d="M2.323 32.516h11.612v1.161H2.323z"/><path id="el_aZeWPLsM-x8" d="M2.903 4.645h1.162v1.161H2.903z"/><path id="el_QMn8o1pJKAg" d="M5.226 4.645h1.161v1.161H5.226z"/><path id="el_FYqgWXcn6lQ" d="M7.548 4.645H8.71v1.161H7.548z"/><path id="el_AXK1A2FYhR8" d="M9.871 4.645h7.548v1.161H9.871z"/></g></g><ellipse cx="300" cy="55" rx="28" ry="14" stroke="#fff" opacity=".5" data-animator-group="true" data-animator-type="0"/><ellipse cx="300" cy="67" rx="24" ry="12" fill="#fff" opacity=".5" data-animator-group="true" data-animator-type="0"/><g style="-webkit-animation-fill-mode:backwards;animation-fill-mode:backwards;-webkit-transform:translate(.00007031249697320163px,.00031638145446777344px) translate(-.00007031249697320163px,-.00031638145446777344px) translate(0,0);transform:translate(.00007031249697320163px,.00031638145446777344px) translate(-.00007031249697320163px,-.00031638145446777344px) translate(0,0);-webkit-animation-name:kf_el_efiMZrSKMC0_an_210yKCyzX;animation-name:kf_el_efiMZrSKMC0_an_210yKCyzX;-webkit-animation-timing-function:cubic-bezier(0,0,1,1);animation-timing-function:cubic-bezier(0,0,1,1)"><g style="-webkit-transform:translate(282px,0);transform:translate(282px,0)" fill="#0dc47c" data-animator-group="true" data-animator-type="0"><path d="M35.991 13.762a.567.567 0 0 0-.025-.122.6.6 0 0 0-.034-.103.538.538 0 0 0-.06-.092.566.566 0 0 0-.08-.093c-.01-.008-.013-.02-.024-.028l-5.77-4.482V4.198a1.8 1.8 0 0 0-1.8-1.8h-6.502L19.093.377a1.779 1.779 0 0 0-2.189 0L14.3 2.397H7.798a1.8 1.8 0 0 0-1.8 1.8v4.646L.23 13.323c-.01.01-.015.02-.024.03a.563.563 0 0 0-.08.092.536.536 0 0 0-.06.092.592.592 0 0 0-.034.103.569.569 0 0 0-.025.12c0 .013-.007.024-.007.036v20.402c0 .382.124.753.352 1.059.004.005.004.012.009.017l.019.016c.337.444.861.706 1.418.708h32.4a1.792 1.792 0 0 0 1.423-.71c.005-.006.012-.008.017-.014.004-.006.004-.012.008-.017a1.78 1.78 0 0 0 .352-1.059v-20.4c0-.013-.006-.024-.007-.036zM17.638 1.323a.575.575 0 0 1 .716 0l1.384 1.075h-3.48l1.38-1.075zM1.95 34.798L17.64 22.61a.576.576 0 0 1 .715 0l15.693 12.187H1.949zm32.85-.936L19.092 21.664a1.78 1.78 0 0 0-2.189 0L1.198 33.862v-19.15l9.832 7.635a.6.6 0 1 0 .736-.949l-9.989-7.756 4.221-3.28v4.636a.6.6 0 0 0 1.2 0v-10.8a.6.6 0 0 1 .6-.6h20.4a.6.6 0 0 1 .6.6v10.8a.6.6 0 1 0 1.2 0v-4.636l4.221 3.28-10.006 7.77a.6.6 0 1 0 .735.948l9.85-7.648v19.15z" id="el_zzDboVJ_pLx" fill-rule="nonzero"/><path d="M23.848 13.498v-2.175a6.525 6.525 0 1 0-6.525 6.525.544.544 0 1 0 0-1.088 5.437 5.437 0 1 1 5.438-5.437v2.175a1.088 1.088 0 1 1-2.175 0v-2.175a.544.544 0 1 0-1.088 0 2.175 2.175 0 1 1-2.175-2.175.544.544 0 1 0 0-1.087 3.263 3.263 0 1 0 2.199 5.666 2.169 2.169 0 0 0 4.326-.23z" id="el_HHxHILhmsrG"/></g></g></g></g></svg>