<?xml version="1.0" encoding="UTF-8"?>
<svg width="60px" height="60px" viewBox="0 0 60 60" version="1.1" xmlns="http://www.w3.org/2000/svg" xmlns:xlink="http://www.w3.org/1999/xlink">
    <!-- Generator: Sketch 52.6 (67491) - http://www.bohemiancoding.com/sketch -->
    <title>blockchain</title>
    <desc>Created with Sketch.</desc>
    <g id="Page-1" stroke="none" stroke-width="1" fill="none" fill-rule="evenodd">
        <g id="homepage" transform="translate(-840.000000, -1485.000000)" fill="#0DC47C">
            <g id="Applications" transform="translate(135.000000, 1371.000000)">
                <g id="blockchain" transform="translate(705.000000, 114.000000)">
                    <g id="bitcoin">
                        <path d="M29.2552047,18.688538 C29.4465497,18.8707602 29.6996491,18.9740351 29.9638596,18.9780117 C30.0272515,18.9761404 30.0905263,18.9694737 30.1529825,18.9580117 C30.2191813,18.9484211 30.2833918,18.9281871 30.3430409,18.8981287 C30.4043275,18.8781287 30.4617544,18.8476023 30.5126316,18.8079532 C30.5720468,18.7684211 30.622807,18.728538 30.6725146,18.688538 C30.7605848,18.591462 30.831462,18.48 30.8821053,18.3590643 C30.9332164,18.2390643 30.9603509,18.1102924 30.9619883,17.979883 C30.959883,17.7153216 30.8562573,17.4616374 30.6725146,17.2712281 C30.622807,17.231345 30.5721637,17.191345 30.5126316,17.151345 C30.4617544,17.1116959 30.4043275,17.0811696 30.3430409,17.0611696 C30.2833918,17.0309942 30.2191813,17.0108772 30.1529825,17.0017544 C29.8278363,16.9411696 29.4933333,17.0415205 29.2553216,17.2712281 C29.2122807,17.3185965 29.1722807,17.368538 29.1354386,17.4208187 C29.0975439,17.4762573 29.0673684,17.5366082 29.045731,17.600117 C29.0169591,17.6568421 28.9966082,17.7174269 28.9852632,17.779883 C28.9739181,17.8459649 28.9673684,17.9127485 28.965731,17.9797661 C28.9673684,18.1101754 28.9945029,18.2389474 29.045614,18.3589474 C29.0962573,18.48 29.1671345,18.591345 29.2552047,18.688538 Z" id="Path"></path>
                        <path d="M30.6725146,41.2244444 C30.622807,41.1845614 30.5721637,41.1445614 30.5126316,41.1045614 C30.4617544,41.0649123 30.4043275,41.034386 30.3430409,41.014386 C30.2833918,40.9842105 30.2191813,40.9640936 30.1529825,40.9549708 C29.8274854,40.8893567 29.4907602,40.9904094 29.2553216,41.2244444 C29.1672515,41.3214035 29.0963743,41.4326316 29.045731,41.5534503 C28.9945029,41.6735673 28.9673684,41.8025731 28.965848,41.9330994 C28.9674854,41.999883 28.9740351,42.0665497 28.9853801,42.1323977 C28.9966082,42.1949708 29.017076,42.2555556 29.045848,42.3121637 C29.0673684,42.3759064 29.0975439,42.4363743 29.1355556,42.4920468 C29.1726316,42.5442105 29.2126316,42.594152 29.2554386,42.6416374 C29.4467836,42.8238596 29.699883,42.9271345 29.9640936,42.9311111 C30.0274854,42.9292398 30.0907602,42.9225731 30.1532164,42.9111111 C30.2194152,42.9015205 30.2836257,42.8812865 30.3432749,42.8511111 C30.4045614,42.8311111 30.4619883,42.8005848 30.5128655,42.7609357 C30.5722807,42.7214035 30.6230409,42.6815205 30.6727485,42.6415205 C30.8564912,42.4511111 30.960117,42.1975439 30.9622222,41.9329825 C30.9607018,41.8024561 30.9335673,41.6734503 30.8823392,41.5533333 C30.831345,41.4326316 30.7605848,41.3214035 30.6725146,41.2244444 Z" id="Path"></path>
                        <path d="M25.871345,19.6962573 C26.1339181,19.6989474 26.3863158,19.594386 26.5701754,19.4067836 C26.6161404,19.3594152 26.6594152,19.3094737 26.6997661,19.257193 C26.7299415,19.197193 26.7602339,19.1474854 26.7894737,19.0876023 C26.8099415,19.0276023 26.8293567,18.9580117 26.8499415,18.8980117 C26.8612865,18.8319298 26.8677193,18.7651462 26.8694737,18.6982456 C26.868655,18.4345029 26.7605848,18.1824561 26.5702924,17.999883 C26.5276023,17.9490058 26.4773099,17.9051462 26.4211696,17.8698246 C26.3705263,17.840117 26.3109942,17.8098246 26.2515789,17.780117 C26.1911111,17.760117 26.1209357,17.7402339 26.0615205,17.720117 C25.734152,17.6582456 25.3973099,17.7630409 25.162924,17.999883 C24.877193,18.2845614 24.7920468,18.7139181 24.9474854,19.0860819 C25.1026901,19.4582456 25.4679532,19.6994152 25.871345,19.6962573 Z" id="Path"></path>
                        <path d="M34.7640936,40.505731 C34.7190643,40.4574269 34.6690058,40.4140351 34.6149708,40.3761404 C34.5545029,40.3459649 34.5047953,40.3161404 34.4453801,40.2859649 C34.3832749,40.2649123 34.3197661,40.2484211 34.2553216,40.2362573 C34.1273684,40.2065497 33.994386,40.2065497 33.8664327,40.2362573 C33.8019883,40.2481871 33.7384795,40.2649123 33.6763743,40.2859649 C33.6169591,40.3161404 33.5564912,40.3459649 33.5067836,40.3761404 C33.4504094,40.411462 33.399883,40.4552047 33.3567251,40.505731 C33.2607018,40.594386 33.185731,40.7035088 33.1374269,40.8249123 C33.0872515,40.9487719 33.060117,41.0807018 33.0575439,41.214269 C33.0588304,41.4780117 33.1667836,41.7300585 33.3567251,41.9130994 C33.399883,41.9636257 33.4505263,42.0073684 33.5067836,42.0426901 C33.5564912,42.0723977 33.6169591,42.1026901 33.6763743,42.1323977 C33.7381287,42.1569591 33.8016374,42.177076 33.8664327,42.1923977 C33.9287719,42.2040936 33.9920468,42.2107602 34.0555556,42.2123977 C34.1225731,42.2108772 34.1893567,42.2040936 34.2553216,42.1923977 C34.32,42.1769591 34.3835088,42.1569591 34.4453801,42.1323977 C34.5047953,42.1026901 34.5545029,42.0723977 34.6149708,42.0426901 C34.6690058,42.0047953 34.7190643,41.9614035 34.7640936,41.9130994 C34.9518129,41.7293567 35.0563743,41.4769591 35.0535673,41.214269 C35.0547368,41.0812865 35.031345,40.9492398 34.9843275,40.8249123 C34.9316959,40.7054971 34.8569591,40.597193 34.7640936,40.505731 Z" id="Path"></path>
                        <path d="M21.340117,21.1636257 C21.3702924,21.2236257 21.4005848,21.2835088 21.4307602,21.3332164 C21.468538,21.3906433 21.5119298,21.4442105 21.5603509,21.4930994 C21.6521637,21.582807 21.7603509,21.6539181 21.8790643,21.7026901 C22.0024561,21.7549708 22.1349708,21.7821053 22.2688889,21.7825731 C22.5299415,21.7773099 22.7794152,21.6739181 22.9677193,21.4930994 C23.0161404,21.4443275 23.0595322,21.3907602 23.0973099,21.3332164 C23.1265497,21.2835088 23.1567251,21.2236257 23.1870175,21.1636257 C23.2065497,21.1036257 23.2269006,21.0437427 23.2464327,20.9740351 C23.2584795,20.9115789 23.2653801,20.8480702 23.2669006,20.7844444 C23.2653801,20.7174269 23.2585965,20.6505263 23.2464327,20.5846784 C23.2269006,20.5246784 23.2064327,20.4549708 23.1870175,20.3949708 C23.1568421,20.3349708 23.1265497,20.2852632 23.0973099,20.2253801 C23.0569591,20.1729825 23.0136842,20.122924 22.9677193,20.0753216 C22.8734503,19.985731 22.7654971,19.9116959 22.6480702,19.8560234 C22.4015205,19.7561404 22.125614,19.7561404 21.8790643,19.8560234 C21.7618713,19.9116959 21.654269,19.985731 21.5603509,20.0753216 C21.514386,20.122924 21.4711111,20.1729825 21.4307602,20.2253801 C21.4005848,20.2853801 21.3702924,20.3350877 21.340117,20.3949708 C21.3205848,20.4549708 21.3002339,20.5245614 21.2807018,20.5845614 C21.2693567,20.6506433 21.262807,20.7174269 21.2611696,20.7843275 C21.262807,20.8479532 21.2693567,20.911345 21.2805848,20.9739181 C21.300117,21.0437427 21.3205848,21.1036257 21.340117,21.1636257 Z" id="Path"></path>
                        <path d="M38.2173099,38.3 C38.1630409,38.2659649 38.1064327,38.2360234 38.0477193,38.2102924 C37.9861988,38.185731 37.9230409,38.165614 37.8585965,38.1502924 C37.5651462,38.0922807 37.2611696,38.1681871 37.0294737,38.3574269 C36.7977778,38.5465497 36.6625731,38.8292398 36.6607018,39.1284211 C36.6632749,39.2618713 36.6902924,39.3936842 36.7405848,39.5173099 C36.7887719,39.6389474 36.8637427,39.7481871 36.959883,39.8369591 C37.1437427,40.0244444 37.3961404,40.1290058 37.6587135,40.1264327 C37.7259649,40.1297076 37.7933333,40.1230409 37.8584795,40.1064327 C37.9226901,40.094269 37.985848,40.0775439 38.0476023,40.0562573 C38.1064327,40.0271345 38.1630409,39.9939181 38.217193,39.9568421 C38.2718129,39.9230409 38.3222222,39.8826901 38.3672515,39.8369591 C38.4603509,39.745614 38.5347368,39.6369591 38.5865497,39.5173099 C38.6338012,39.3930994 38.6576608,39.2612865 38.6567251,39.1284211 C38.6573099,38.8632749 38.5533333,38.608655 38.3672515,38.4197661 C38.3176608,38.38 38.2670175,38.34 38.2173099,38.3 Z" id="Path"></path>
                        <path d="M18.8849123,23.2595322 C18.6988304,23.4484211 18.5948538,23.7030409 18.5954386,23.9681871 C18.5936842,24.0978947 18.6175439,24.2267836 18.665614,24.3473684 C18.7197661,24.468655 18.7939181,24.58 18.8849123,24.6768421 C19.0753216,24.8604678 19.3290058,24.9639766 19.5935673,24.9663158 C19.9968421,24.9647953 20.3595322,24.7204678 20.5126316,24.3473684 C20.5635088,24.2273684 20.5902924,24.0985965 20.591462,23.9683041 C20.5888889,23.7019883 20.4812865,23.4473684 20.2922807,23.2596491 C19.8959064,22.8901754 19.2812865,22.8901754 18.8849123,23.2595322 Z" id="Path"></path>
                        <path d="M41.0418713,35.2361404 C40.8064327,35.0021053 40.4697076,34.9010526 40.1442105,34.9666667 C40.0780117,34.9756725 40.0136842,34.9957895 39.954152,35.0260819 C39.8928655,35.0460819 39.8354386,35.0766082 39.7845614,35.1162573 C39.728538,35.1480702 39.6778947,35.188538 39.6345029,35.2361404 C39.4463158,35.4239766 39.3405848,35.6788304 39.3405848,35.9446784 C39.3405848,36.2105263 39.4463158,36.4654971 39.6345029,36.6532164 C39.6778947,36.7007018 39.728655,36.7409357 39.7845614,36.7726316 C39.8354386,36.8122807 39.8928655,36.842807 39.954152,36.862807 C40.0138012,36.8930994 40.0780117,36.9133333 40.1442105,36.922807 C40.2066667,36.934269 40.2698246,36.9409357 40.3333333,36.942807 C40.5980117,36.9409357 40.8516959,36.8373099 41.0419883,36.6533333 C41.1300585,36.5562573 41.2009357,36.4447953 41.2515789,36.3238596 C41.3581287,36.0821053 41.3581287,35.8067836 41.2515789,35.5651462 C41.2008187,35.4443275 41.1299415,35.3330994 41.0418713,35.2361404 Z" id="Path"></path>
                        <path d="M18.1665497,28.8784795 C18.4334503,28.8777778 18.6887719,28.7697076 18.8752047,28.5788304 C19.0587135,28.3923977 19.1624561,28.1419883 19.1646784,27.8804678 C19.1684211,27.7461988 19.1410526,27.6129825 19.0847953,27.4911111 C19.0364912,27.3720468 18.9652632,27.2636257 18.8752047,27.1719298 C18.4788304,26.8025731 17.8642105,26.8025731 17.4678363,27.1719298 C17.3716959,27.2605848 17.2967251,27.3695906 17.248538,27.4911111 C17.1973099,27.6146199 17.1701754,27.7467836 17.168655,27.8804678 C17.1818713,28.4259649 17.6209357,28.8651462 18.1665497,28.8784795 Z" id="Path"></path>
                        <path d="M42.6792982,31.6528655 C42.6590643,31.5915789 42.6283041,31.534152 42.588655,31.4832749 C42.5534503,31.4270175 42.5097076,31.3764912 42.4590643,31.3336842 C42.2231579,31.1 41.8883041,30.9956725 41.5614035,31.0539181 C41.5009357,31.0739181 41.4318129,31.0938012 41.371345,31.1139181 C41.3119298,31.1440936 41.2611696,31.1739181 41.2017544,31.2040936 C41.1494737,31.2445614 41.0992982,31.2878363 41.0516959,31.3336842 C40.8644444,31.5175439 40.76,31.7695906 40.7622222,32.0320468 C40.7588304,32.0992982 40.765731,32.1666667 40.7826901,32.2318129 C40.7946199,32.2961404 40.811345,32.3594152 40.8323977,32.4214035 C40.859883,32.4812865 40.8935673,32.5381287 40.9327485,32.5909942 C40.9632749,32.6476023 41.0035088,32.6983626 41.0516959,32.7410526 C41.0995322,32.7867836 41.1495906,32.8300585 41.2017544,32.8706433 C41.2611696,32.9003509 41.3119298,32.9306433 41.371345,32.9603509 C41.4334503,32.9816374 41.4969591,32.9983626 41.5614035,33.0105263 C41.6264327,33.0266667 41.6933333,33.0332164 41.7602339,33.0300585 C42.022807,33.0329825 42.2752047,32.928655 42.4590643,32.7410526 C42.5074854,32.6957895 42.5508772,32.6454971 42.588655,32.5909942 C42.6263158,32.5388304 42.6568421,32.4817544 42.6792982,32.4214035 C42.7078363,32.3612865 42.7279532,32.2975439 42.7387135,32.2318129 C42.7500585,32.165731 42.7566082,32.0989474 42.7582456,32.0320468 C42.7566082,31.9684211 42.7500585,31.9050292 42.7387135,31.8424561 C42.7279532,31.7767251 42.7078363,31.7129825 42.6792982,31.6528655 Z" id="Path"></path>
                        <path d="M18.8752047,32.7410526 C18.9651462,32.6491228 19.0363743,32.5405848 19.0847953,32.4214035 C19.1410526,32.2995322 19.1684211,32.1661988 19.1646784,32.0320468 C19.1624561,31.7705263 19.0585965,31.520117 18.8752047,31.3336842 C18.4807018,30.9594152 17.8622222,30.9594152 17.4678363,31.3336842 C17.2778947,31.5164912 17.1700585,31.7684211 17.168655,32.0320468 C17.1701754,32.165731 17.1973099,32.2978947 17.248538,32.4214035 C17.2968421,32.542924 17.3718129,32.6521637 17.4678363,32.7410526 C17.6519298,32.9283041 17.9040936,33.0326316 18.1666667,33.0300585 C18.2339181,33.0332164 18.3011696,33.0266667 18.3664327,33.0105263 C18.4273684,32.9983626 18.4873684,32.9815205 18.545731,32.9603509 C18.6061988,32.9306433 18.665614,32.9003509 18.7260819,32.8706433 C18.7782456,32.8302924 18.8279532,32.7870175 18.8752047,32.7410526 Z" id="Path"></path>
                        <path d="M41.0515789,27.1719298 C40.8639766,27.3597661 40.7596491,27.6150877 40.7621053,27.8805848 C40.7587135,27.9444444 40.765731,28.0084211 40.7825731,28.0701754 C40.7933333,28.1347368 40.8099415,28.1982456 40.8322807,28.2597661 C40.8597661,28.3196491 40.8934503,28.3764912 40.9326316,28.4293567 C40.9605848,28.4874854 41.0012865,28.5385965 41.0515789,28.5789474 C41.0992982,28.6249123 41.1493567,28.6684211 41.2016374,28.7090058 C41.2610526,28.7387135 41.3118129,28.7690058 41.3712281,28.7987135 C41.4316959,28.8187135 41.5008187,28.8385965 41.5612865,28.8587135 C41.6270175,28.8701754 41.6934503,28.8768421 41.760117,28.8787135 C42.0240936,28.8778947 42.2763743,28.7697076 42.4589474,28.5790643 C42.5095906,28.5361404 42.5533333,28.485731 42.588538,28.4294737 C42.6281871,28.3785965 42.6589474,28.3211696 42.6791813,28.259883 C42.7091228,28.2003509 42.7292398,28.1362573 42.7385965,28.0702924 C42.7499415,28.0077193 42.7563743,27.9443275 42.7581287,27.8807018 C42.7564912,27.8136842 42.7499415,27.7469006 42.7385965,27.6809357 C42.7277193,27.6153216 42.7077193,27.551462 42.6791813,27.491345 C42.6567251,27.4309942 42.6261988,27.3739181 42.588538,27.3217544 C42.5506433,27.2674854 42.5072515,27.2174269 42.4589474,27.1721637 C42.2233918,26.9381287 41.8867836,26.837076 41.5612865,26.9026901 C41.4967251,26.9145029 41.4332164,26.9311111 41.3712281,26.9523977 C41.3118129,26.9825731 41.2610526,27.0122807 41.2016374,27.0421053 C41.1493567,27.0824561 41.0992982,27.125848 41.0515789,27.1719298 Z" id="Path"></path>
                        <path d="M18.8849123,35.2361404 C18.4989474,35.6297076 18.4989474,36.2597661 18.8849123,36.6533333 C19.0754386,36.8369591 19.3290058,36.9404678 19.5935673,36.942807 C19.9985965,36.9439766 20.3639766,36.6995322 20.5174269,36.3246784 C20.6708772,35.9498246 20.5818713,35.5194152 20.2923977,35.2361404 C19.8959064,34.8666667 19.2812865,34.8666667 18.8849123,35.2361404 Z" id="Path"></path>
                        <path d="M40.1442105,22.9901754 C40.0780117,22.9991813 40.0136842,23.0192982 39.954152,23.0495906 C39.8928655,23.0695906 39.8354386,23.100117 39.7845614,23.1397661 C39.7308772,23.1748538 39.6805848,23.2149708 39.6345029,23.2596491 C39.5884211,23.3069006 39.5451462,23.3569591 39.5049123,23.4092398 C39.4674854,23.4649123 39.4373099,23.5251462 39.4152047,23.588538 C39.3905263,23.6467836 39.3707602,23.7069006 39.3557895,23.7684211 C39.3442105,23.834386 39.3373099,23.9011696 39.3353216,23.9681871 C39.3384795,24.2345029 39.445848,24.4888889 39.6345029,24.6768421 C39.6804678,24.7214035 39.7307602,24.7614035 39.7845614,24.7962573 C39.8354386,24.8359064 39.8928655,24.8664327 39.954152,24.8864327 C40.0138012,24.9167251 40.0780117,24.9369591 40.1442105,24.9464327 C40.2066667,24.9578947 40.2698246,24.9645614 40.3333333,24.9664327 C40.4003509,24.9645614 40.4671345,24.9578947 40.5330994,24.9464327 C40.5954386,24.9353216 40.6559064,24.9150877 40.7123977,24.8864327 C40.7762573,24.8645614 40.8368421,24.834152 40.8927485,24.7962573 C40.9424561,24.7567251 40.9921637,24.7168421 41.0418713,24.6768421 C41.0846784,24.6293567 41.1246784,24.5792982 41.1617544,24.5272515 C41.1997661,24.4716959 41.2298246,24.4112281 41.251462,24.3473684 C41.2802339,24.2906433 41.3005848,24.2300585 41.3119298,24.1674854 C41.3378947,24.0356725 41.3378947,23.900117 41.3119298,23.7684211 C41.3007018,23.705848 41.2803509,23.6452632 41.251462,23.588538 C41.2298246,23.5250292 41.1996491,23.4646784 41.1617544,23.4092398 C41.1249123,23.3569591 41.0849123,23.3070175 41.0418713,23.2596491 C40.8037427,23.0299415 40.4693567,22.9295906 40.1442105,22.9901754 Z" id="Path"></path>
                        <path d="M23.1871345,38.7493567 C23.1569591,38.6893567 23.1266667,38.6294737 23.0974269,38.5792982 C23.0622222,38.5230409 23.0184795,38.4725146 22.9678363,38.4297076 C22.8789474,38.3336842 22.7697076,38.2587135 22.6481871,38.2104094 C22.4016374,38.1105263 22.125731,38.1105263 21.8791813,38.2104094 C21.7578947,38.2587135 21.6488889,38.3336842 21.5604678,38.4297076 C21.5098246,38.4726316 21.4660819,38.5230409 21.4308772,38.5792982 C21.4007018,38.6294737 21.3704094,38.6894737 21.3402339,38.7493567 C21.3207018,38.8087719 21.3003509,38.8687719 21.2808187,38.9389474 C21.2694737,39.0015205 21.2630409,39.0649123 21.2612865,39.128538 C21.2619883,39.3953216 21.3698246,39.6506433 21.5604678,39.837193 C21.6516959,39.9300585 21.759883,40.0044444 21.8791813,40.0564912 C22.0031579,40.105731 22.1356725,40.1295906 22.2690058,40.1266667 C22.3988304,40.128655 22.5277193,40.1047953 22.6481871,40.0564912 C22.7677193,40.0044444 22.8762573,39.9300585 22.9678363,39.837193 C23.1581287,39.6504094 23.265848,39.3952047 23.2670175,39.128538 C23.2654971,39.0649123 23.2585965,39.0015205 23.2465497,38.9389474 C23.2270175,38.8687719 23.2065497,38.8087719 23.1871345,38.7493567 Z" id="Path"></path>
                        <path d="M36.959883,21.482807 C37.1426901,21.6730994 37.3948538,21.7812865 37.6587135,21.7824561 C37.725731,21.7805848 37.7925146,21.7739181 37.8584795,21.7624561 C37.9239766,21.751462 37.9876023,21.7312281 38.0476023,21.7024561 C38.1080702,21.6805848 38.1651462,21.6501754 38.217193,21.6122807 C38.2697076,21.5720468 38.319883,21.5287719 38.3672515,21.4826901 C38.4602339,21.391462 38.5347368,21.2830409 38.5865497,21.1635088 C38.7325146,20.7891228 38.6469006,20.3639766 38.3672515,20.0753216 C38.3223392,20.0295906 38.2719298,19.9894737 38.217193,19.9559064 C38.1630409,19.9185965 38.1064327,19.8852632 38.0476023,19.8560234 C37.985848,19.8347368 37.9226901,19.8180117 37.8584795,19.805848 C37.4966082,19.7280702 37.1215205,19.8587135 36.8863158,20.1444444 C36.6509942,20.4301754 36.5948538,20.8232749 36.7405848,21.1635088 C36.7888889,21.2850292 36.8638596,21.394152 36.959883,21.482807 Z" id="Path"></path>
                        <path d="M26.5700585,40.505731 C26.1736842,40.1363743 25.5590643,40.1363743 25.1626901,40.505731 C25.0697076,40.597076 24.9953216,40.7053801 24.9433918,40.8249123 C24.8953216,40.9490058 24.871462,41.0811696 24.8732164,41.214269 C24.871462,41.3439766 24.8953216,41.4728655 24.9433918,41.5934503 C24.9953216,41.7130994 25.0697076,41.8216374 25.1626901,41.9130994 C25.3469006,42.1043275 25.6009357,42.2122807 25.8664327,42.2122807 C26.1319298,42.2122807 26.3859649,42.1042105 26.5701754,41.9130994 C26.6631579,41.8216374 26.7375439,41.7130994 26.7894737,41.5934503 C26.8411696,41.4736842 26.8683041,41.3447953 26.8693567,41.214269 C26.8672515,41.0805848 26.840117,40.948538 26.7894737,40.8249123 C26.7375439,40.7053801 26.6630409,40.5969591 26.5700585,40.505731 Z" id="Path"></path>
                        <path d="M33.5067836,19.5368421 C33.5564912,19.5665497 33.6169591,19.5962573 33.6763743,19.6265497 C33.7383626,19.6478363 33.8018713,19.6644444 33.8664327,19.6762573 C33.9280702,19.6927485 33.9918129,19.6995322 34.0555556,19.6962573 C34.122807,19.6995322 34.1901754,19.6928655 34.2553216,19.6762573 C34.3197661,19.6643275 34.3832749,19.6477193 34.4453801,19.6265497 C34.5047953,19.5963743 34.5545029,19.5665497 34.6149708,19.5368421 C34.6692398,19.4989474 34.7191813,19.4553216 34.7640936,19.4067836 C35.1500585,19.017193 35.1500585,18.3894737 34.7640936,17.999883 C34.7191813,17.951345 34.6692398,17.9077193 34.6149708,17.8698246 C34.5604678,17.8363743 34.5037427,17.8064327 34.4453801,17.780117 C34.3835088,17.7559064 34.32,17.7357895 34.2553216,17.720117 C34.1264327,17.700117 33.9953216,17.700117 33.8664327,17.720117 C33.8017544,17.7356725 33.7382456,17.7556725 33.6763743,17.780117 C33.6169591,17.8098246 33.5564912,17.840117 33.5067836,17.8698246 C33.4502924,17.9051462 33.3996491,17.9491228 33.3567251,17.999883 C33.1654971,18.1839766 33.0575439,18.4378947 33.0575439,18.7033918 C33.0575439,18.9687719 33.165614,19.222807 33.3567251,19.4069006 C33.3996491,19.4576608 33.4502924,19.5015205 33.5067836,19.5368421 Z" id="Path"></path>
                        <path d="M54.9150877,31.9526316 C56.0169591,31.951345 56.9099415,31.0584795 56.9112281,29.9564912 L56.9112281,26.8205848 C58.857193,26.3215205 60.1270175,24.4515789 59.8734503,22.4587135 C59.619883,20.465848 57.9221053,18.9736842 55.9132164,18.9778947 C53.9043275,18.9736842 52.2065497,20.4659649 51.9529825,22.4587135 C51.6994152,24.4515789 52.9692398,26.3214035 54.9152047,26.8205848 L54.9152047,29.9564912 L46.9307602,29.9564912 C46.9430409,25.454152 45.1534503,21.134152 41.9609357,17.9594152 C41.3334503,17.3407018 40.6592982,16.7712281 39.9443275,16.2561404 L39.9443275,14.985731 L53.917076,14.985731 C55.0189474,14.9844444 55.9119298,14.0915789 55.9132164,12.9895906 L55.9132164,10.8518129 C57.8597661,10.3492398 59.1288889,8.47766082 58.8755556,6.48339181 C58.6222222,4.48900585 56.9254971,2.99415205 54.9150877,2.99415205 C52.9046784,2.99415205 51.2080702,4.48900585 50.9547368,6.48327485 C50.7014035,8.47754386 51.9705263,10.3491228 53.917076,10.8516959 L53.917076,12.9894737 L39.9443275,12.9894737 C38.845848,12.9909942 37.9546199,13.8788304 37.9491228,14.9773099 C35.788655,13.8308772 33.4042105,13.1690058 30.9618713,13.0381287 L30.9618713,10.9935673 L34.9540351,10.9935673 C36.0559064,10.9922807 36.9488889,10.0992982 36.9501754,8.9974269 L36.9501754,7.85766082 C38.8967251,7.35508772 40.165848,5.48350877 39.9125146,3.48923977 C39.6591813,1.4948538 37.9624561,0 35.9521637,0 C33.9418713,0 32.2451462,1.4948538 31.9918129,3.48912281 C31.7384795,5.48339181 33.0076023,7.35497076 34.954152,7.85754386 L34.954152,8.99730994 L30.9619883,8.99730994 C29.860117,8.99859649 28.9671345,9.89157895 28.965848,10.9934503 L28.965848,13.0381287 C27.6120468,13.1097076 26.2718129,13.3432749 24.9736842,13.7340351 L24.9736842,6.00327485 C24.9723977,4.90140351 24.0794152,4.00842105 22.9775439,4.0071345 L12.8553216,4.0071345 C12.3527485,2.0605848 10.4811696,0.791461988 8.48690058,1.04479532 C6.49251462,1.29812865 4.99766082,2.9948538 4.99766082,5.00526316 C4.99766082,7.01567251 6.49251462,8.7122807 8.48678363,8.96561404 C10.4810526,9.21894737 12.3526316,7.94982456 12.8552047,6.00327485 L22.9774269,6.00327485 L22.9774269,14.5046784 C18.5387135,16.502924 15.1740351,20.3140351 13.7414035,24.9661988 L5.01263158,24.9661988 L5.01263158,19.834269 C6.95918129,19.3316959 8.22830409,17.460117 7.97497076,15.465848 C7.72163743,13.471462 6.02491228,11.9766082 4.01450292,11.9766082 C2.00421053,11.9766082 0.30748538,13.471462 0.0541520468,15.465731 C-0.199181287,17.46 1.06994152,19.3315789 3.01649123,19.834152 L3.01649123,24.9660819 C3.01777778,26.0679532 3.91076023,26.9609357 5.01263158,26.9622222 L13.2723977,26.9622222 C13.0929825,27.9502924 13.0008187,28.9521637 12.9969591,29.9563743 L11.0009357,29.9563743 C9.89906433,29.9576608 9.00608187,30.8506433 9.00479532,31.9525146 L9.00479532,45.9252632 L7.86502924,45.9252632 C7.36245614,43.9787135 5.49087719,42.7095906 3.49660819,42.962924 C1.50233918,43.2162573 0.00748538012,44.9129825 0.00748538012,46.9232749 C0.00748538012,48.9335673 1.50233918,50.6302924 3.49660819,50.8836257 C5.49087719,51.1369591 7.36245614,49.8678363 7.86502924,47.9212865 L9.00479532,47.9212865 C10.1066667,47.92 10.9996491,47.0270175 11.0009357,45.9251462 L11.0009357,31.9526316 L13.1250292,31.9526316 C13.8115789,37.8595322 17.5536842,42.9701754 22.9775439,45.4083041 L22.9775439,54.9077193 L16.8474854,54.9077193 C16.3449123,52.9611696 14.4733333,51.6920468 12.4790643,51.9453801 C10.4847953,52.1987135 8.98994152,53.8954386 8.98994152,55.905731 C8.98994152,57.9160234 10.4847953,59.6127485 12.4790643,59.8660819 C14.4733333,60.1194152 16.3449123,58.8502924 16.8474854,56.9037427 L22.9775439,56.9037427 C24.0794152,56.9024561 24.9723977,56.0095906 24.9736842,54.9076023 L24.9736842,46.1785965 C26.2718129,46.5693567 27.6121637,46.802924 28.965848,46.8745029 L28.965848,48.9191813 C28.9671345,50.0210526 29.860117,50.9140351 30.9619883,50.9153216 L37.9483041,50.9153216 L37.9483041,52.0550877 C36.0017544,52.5576608 34.7326316,54.4292398 34.9859649,56.4235088 C35.2392982,58.4177778 36.9360234,59.9126316 38.9463158,59.9126316 C40.9566082,59.9126316 42.6533333,58.4177778 42.9066667,56.4235088 C43.16,54.4292398 41.8908772,52.5576608 39.9443275,52.0550877 L39.9443275,50.9153216 C39.9430409,49.8134503 39.0500585,48.9204678 37.9481871,48.9191813 L30.9618713,48.9191813 L30.9618713,46.8745029 C35.1099415,46.6479532 39.0276023,44.8950877 41.9609357,41.9533333 C43.1471345,40.7698246 44.1521637,39.4176608 44.9433918,37.9407018 L52.9190643,37.9407018 L52.9190643,48.062924 C50.9725146,48.5654971 49.7033918,50.437076 49.9567251,52.431345 C50.2100585,54.425614 51.9067836,55.9204678 53.917076,55.9204678 C55.9273684,55.9204678 57.6240936,54.425614 57.8774269,52.431345 C58.1307602,50.437076 56.8616374,48.5654971 54.9150877,48.062924 L54.9150877,37.9407018 C54.9138012,36.8388304 54.0208187,35.945848 52.9189474,35.9445614 L45.8292398,35.9445614 C46.3154386,34.6585965 46.6423392,33.3178947 46.8025731,31.9523977 L54.9150877,31.9523977 L54.9150877,31.9526316 Z M53.917076,22.9701754 C53.917076,21.8677193 54.8107602,20.9740351 55.9132164,20.9740351 C57.0156725,20.9740351 57.9093567,21.8677193 57.9093567,22.9701754 C57.9080702,24.0720468 57.0152047,24.9650292 55.9132164,24.9663158 C54.8107602,24.9661988 53.917076,24.0725146 53.917076,22.9701754 Z M52.9190643,7.00128655 C52.9190643,5.89883041 53.8127485,5.0051462 54.9152047,5.0051462 C56.0176608,5.0051462 56.911345,5.89883041 56.911345,7.00128655 C56.911345,8.10374269 56.0176608,8.9974269 54.9152047,8.9974269 C53.8132164,8.99614035 52.9202339,8.10315789 52.9190643,7.00128655 Z M33.9560234,4.0071345 C33.9560234,2.90467836 34.8497076,2.01099415 35.9521637,2.01099415 C37.0546199,2.01099415 37.9483041,2.90467836 37.9483041,4.0071345 C37.9483041,5.10959064 37.0546199,6.00327485 35.9521637,6.00327485 C34.8502924,6.0019883 33.9573099,5.10900585 33.9560234,4.0071345 Z M9.00479532,7.00128655 C7.90233918,7.00128655 7.00865497,6.10760234 7.00865497,5.0051462 C7.00865497,3.90269006 7.90233918,3.00900585 9.00479532,3.00900585 C10.1072515,3.00900585 11.0009357,3.90269006 11.0009357,5.0051462 C10.9996491,6.1071345 10.1066667,7 9.00479532,7.00128655 Z M4.01450292,17.979883 C2.91263158,17.9785965 2.01964912,17.085614 2.01836257,15.9837427 C2.01836257,14.8812865 2.91204678,13.9876023 4.01450292,13.9876023 C5.11695906,13.9876023 6.01064327,14.8812865 6.01064327,15.9837427 C6.01064327,17.0861988 5.11695906,17.979883 4.01450292,17.979883 Z M4.01450292,48.9194152 C2.91204678,48.9194152 2.01836257,48.025731 2.01836257,46.9232749 C2.01836257,45.8208187 2.91204678,44.9271345 4.01450292,44.9271345 C5.11695906,44.9271345 6.01064327,45.8208187 6.01064327,46.9232749 C6.00935673,48.0252632 5.11637427,48.9181287 4.01450292,48.9194152 Z M12.9969591,57.9018713 C11.8945029,57.9018713 11.0008187,57.0081871 11.0008187,55.905731 C11.0008187,54.8032749 11.8945029,53.9095906 12.9969591,53.9095906 C14.0994152,53.9095906 14.9930994,54.8032749 14.9930994,55.905731 C14.9918129,57.0077193 14.0989474,57.9005848 12.9969591,57.9018713 Z M38.9463158,53.9097076 C40.0481871,53.9109942 40.9411696,54.8038596 40.9424561,55.905848 C40.9424561,57.0083041 40.0487719,57.9019883 38.9463158,57.9019883 C37.8438596,57.9019883 36.9501754,57.0083041 36.9501754,55.905848 C36.9501754,54.8033918 37.8438596,53.9097076 38.9463158,53.9097076 Z M40.5495906,40.5422222 C35.4994152,45.5920468 27.5853801,46.3712281 21.6473684,42.4033918 C15.7093567,38.4354386 13.4010526,30.825614 16.134152,24.2274854 C18.8672515,17.6293567 25.8805848,13.8808187 32.8851462,15.274152 C39.8897076,16.6674854 44.9345029,22.8147368 44.9345029,29.9564912 C44.9453801,33.9291228 43.3664327,37.7409357 40.5495906,40.5422222 Z M53.917076,49.9175439 C55.0189474,49.9188304 55.9119298,50.8118129 55.9132164,51.9136842 C55.9132164,53.0161404 55.0195322,53.9098246 53.917076,53.9098246 C52.8146199,53.9098246 51.9209357,53.0161404 51.9209357,51.9136842 C51.9209357,50.8112281 52.8146199,49.9175439 53.917076,49.9175439 Z" id="Shape" fill-rule="nonzero"></path>
                    </g>
                </g>
            </g>
        </g>
    </g>
</svg>