<?xml version="1.0" encoding="UTF-8"?>
<svg width="30px" height="24px" viewBox="0 0 30 24" version="1.1" xmlns="http://www.w3.org/2000/svg" xmlns:xlink="http://www.w3.org/1999/xlink">
    <!-- Generator: Sketch 52.6 (67491) - http://www.bohemiancoding.com/sketch -->
    <title>support</title>
    <desc>Created with Sketch.</desc>
    <g id="Support" stroke="none" stroke-width="1" fill="none" fill-rule="evenodd">
        <g id="support" transform="translate(-801.000000, -629.000000)" fill="#FFFFFF">
            <g id="content" transform="translate(0.000000, 300.000000)">
                <g id="support" transform="translate(801.000000, 329.000000)">
                    <path d="M27.7268493,0.0138876404 L7.17890411,0.0138876404 C5.9460274,0.0138876404 4.95972603,1.01164045 4.95972603,2.1981573 L4.95972603,14.7644494 C4.95972603,15.9779326 5.97342466,16.9487191 7.17890411,16.9487191 L21.3432877,16.9487191 L24.5487671,20.1307416 C24.6857534,20.265573 24.850137,20.3464719 25.0419178,20.3464719 C25.4254795,20.3464719 25.7542466,20.0498427 25.7542466,19.6453483 L25.7542466,16.9487191 L27.7268493,16.9487191 C28.959726,16.9487191 29.9460274,15.9509663 29.9460274,14.7644494 L29.9460274,2.1981573 C29.9460274,0.984674157 28.9323288,0.0138876404 27.7268493,0.0138876404 Z M10.329589,10.8273708 C9.20630137,10.8273708 8.27479452,9.91051685 8.27479452,8.80489888 C8.27479452,7.6992809 9.20630137,6.78242697 10.329589,6.78242697 C11.4528767,6.78242697 12.3843836,7.6992809 12.3843836,8.80489888 C12.3843836,9.91051685 11.480274,10.8273708 10.329589,10.8273708 Z M17.5350685,10.8273708 C16.4117808,10.8273708 15.480274,9.91051685 15.480274,8.80489888 C15.480274,7.6992809 16.4117808,6.78242697 17.5350685,6.78242697 C18.6583562,6.78242697 19.589863,7.6992809 19.589863,8.80489888 C19.589863,9.91051685 18.6583562,10.8273708 17.5350685,10.8273708 Z M24.7131507,10.8273708 C23.589863,10.8273708 22.6583562,9.91051685 22.6583562,8.80489888 C22.6583562,7.6992809 23.589863,6.78242697 24.7131507,6.78242697 C25.8364384,6.78242697 26.7679452,7.6992809 26.7679452,8.80489888 C26.7679452,9.91051685 25.8364384,10.8273708 24.7131507,10.8273708 Z" id="Shape" fill-rule="nonzero"></path>
                    <path d="M3.69945205,14.818382 L3.69945205,10.5307416 L1.45287671,10.5307416 C0.658356164,10.5307416 0.000821917808,11.1779326 0.000821917808,11.9599551 L0.000821917808,20.2116404 C-0.0265753425,21.0475955 0.630958904,21.6947865 1.45287671,21.6947865 L2.74054795,21.6947865 L2.74054795,23.4745618 C2.74054795,23.7172584 2.95972603,23.9329888 3.20630137,23.9329888 C3.34328767,23.9329888 3.45287671,23.8790562 3.53506849,23.7981573 L5.64465753,21.7217528 L14.959726,21.7217528 C15.7542466,21.7217528 16.4117808,21.0745618 16.4117808,20.2925393 L16.4117808,18.2431011 L7.17890411,18.2431011 C5.26109589,18.2431011 3.69945205,16.7060225 3.69945205,14.818382 Z" id="Path"></path>
                </g>
            </g>
        </g>
    </g>
</svg>