<?xml version="1.0" encoding="UTF-8"?>
<svg width="60px" height="47px" viewBox="0 0 60 47" version="1.1" xmlns="http://www.w3.org/2000/svg" xmlns:xlink="http://www.w3.org/1999/xlink">
    <!-- Generator: Sketch 52.6 (67491) - http://www.bohemiancoding.com/sketch -->
    <title>cloud</title>
    <desc>Created with Sketch.</desc>
    <g id="homepage" stroke="none" stroke-width="1" fill="none" fill-rule="evenodd">
        <g transform="translate(-840.000000, -1789.000000)" fill="#0DC47C" id="Applications">
            <g transform="translate(135.000000, 1376.000000)">
                <g id="upload-to-cloud" transform="translate(705.000000, 413.000000)">
                    <g id="Path">
                        <path d="M46.1698983,15.3063051 C45.6095593,6.81457627 38.5224407,0.0768813559 29.8913898,0.0768813559 C21.2581017,0.0768813559 14.1697627,6.81742373 13.6124746,15.3122034 C5.89383051,16.2831864 0,22.8589831 0,30.7492881 C0,39.3392542 6.98847458,46.3279322 15.5786441,46.3279322 L39.2701017,46.3279322 C39.9439322,46.3279322 40.4904407,45.7814237 40.4904407,45.1075932 C40.4904407,44.4337627 39.9439322,43.8872542 39.2701017,43.8872542 L15.5786441,43.8872542 C8.33430508,43.8870508 2.44067797,37.9934237 2.44067797,30.7492881 C2.44067797,23.7781017 7.89823729,18.0235932 14.8651525,17.6487458 C15.5127458,17.6139661 16.02,17.0786441 16.02,16.4302373 C16.02,16.4060339 16.0193898,16.3822373 16.0179661,16.3580339 C16.0362712,8.72359322 22.252678,2.51755932 29.8913898,2.51755932 C37.531322,2.51755932 43.7487458,8.72461017 43.7648136,16.3608814 C43.7637966,16.3844746 43.7629831,16.4092881 43.7629831,16.4277966 C43.7629831,17.0778305 44.2724746,17.6137627 44.9214915,17.6465085 C51.912,18.0006102 57.387661,23.7559322 57.387661,30.7490847 C57.387661,34.7204746 55.6185763,38.4374237 52.5339661,40.9466441 C52.0110508,41.3719322 51.9321356,42.1405424 52.3574237,42.6632542 C52.7827119,43.1861695 53.551322,43.2650847 54.0740339,42.8397966 C57.7309831,39.8650169 59.828339,35.4581695 59.828339,30.7488814 C59.828339,22.8343729 53.9145763,16.2561356 46.1698983,15.3063051 Z"></path>
                        <path d="M28.6710508,21.9819661 L28.6710508,37.5435254 C28.6710508,38.2173559 29.2175593,38.7638644 29.8913898,38.7638644 C30.5652203,38.7638644 31.1117288,38.2173559 31.1117288,37.5435254 L31.1117288,21.9819661 C31.1117288,21.3081356 30.5652203,20.7616271 29.8913898,20.7616271 C29.2175593,20.7616271 28.6710508,21.3081356 28.6710508,21.9819661 Z"></path>
                        <path d="M36.8711186,24.2448814 C37.1835254,24.2448814 37.4957288,24.1256949 37.7341017,23.8875254 C38.2106441,23.4109831 38.2106441,22.6383051 37.7341017,22.1617627 L30.7543729,15.1820339 C30.2778305,14.7054915 29.5049492,14.7054915 29.0286102,15.1820339 L22.0488814,22.1617627 C21.572339,22.6383051 21.572339,23.4109831 22.0488814,23.8875254 C22.5254237,24.3640678 23.2983051,24.3640678 23.7746441,23.8875254 L29.8913898,17.7707797 L36.0081356,23.8875254 C36.2465085,24.1256949 36.5589153,24.2448814 36.8711186,24.2448814 Z"></path>
                    </g>
                </g>
            </g>
        </g>
    </g>
</svg>