<svg width="61" height="74" viewBox="0 0 61 74" fill="none" xmlns="http://www.w3.org/2000/svg">
<path d="M40.5213 71.2429C50.3258 71.2429 58.2739 63.2046 58.2739 53.2888C58.2739 43.373 50.3258 35.3347 40.5213 35.3347C30.7168 35.3347 22.7687 43.373 22.7687 53.2888C22.7687 63.2046 30.7168 71.2429 40.5213 71.2429Z" stroke="#31AC67" stroke-width="2.5" stroke-linecap="round" stroke-linejoin="round"/>
<path d="M22.7686 53.2888C22.7686 43.3633 30.7071 35.3347 40.5212 35.3347C42.8548 35.3347 45.0575 35.7979 47.0857 36.614V2.75708H2.72607V65.2656H27.3049C24.4915 62.0894 22.7686 57.8987 22.7686 53.2888Z" stroke="#31AC67" stroke-width="2.5" stroke-linecap="round" stroke-linejoin="round"/>
<path d="M32.8009 55.7591L38.5367 62.5305L47.1513 44.1573" stroke="#31AC67" stroke-width="2.5" stroke-linecap="round" stroke-linejoin="round"/>
<path d="M16.3132 18.5276H34.4802" stroke="#31AC67" stroke-width="2.5" stroke-linecap="round" stroke-linejoin="round"/>
<path d="M16.3132 28.2104H34.4802" stroke="#31AC67" stroke-width="2.5" stroke-linecap="round" stroke-linejoin="round"/>
<path d="M16.3132 37.8712H31.1216" stroke="#31AC67" stroke-width="2.5" stroke-linecap="round" stroke-linejoin="round"/>
<path d="M16.3132 47.5541H23.0086" stroke="#31AC67" stroke-width="2.5" stroke-linecap="round" stroke-linejoin="round"/>
<ellipse cx="11.7769" cy="18.5276" rx="2.72614" ry="2.75708" fill="#31AC67"/>
<ellipse cx="11.7769" cy="28.2104" rx="2.72614" ry="2.75708" fill="#31AC67"/>
<ellipse cx="11.7769" cy="37.8712" rx="2.72614" ry="2.75708" fill="#31AC67"/>
<ellipse cx="11.7769" cy="47.532" rx="2.72614" ry="2.75708" fill="#31AC67"/>
</svg>
