<?xml version="1.0" encoding="UTF-8"?>
<svg width="60px" height="48px" viewBox="0 0 60 48" version="1.1" xmlns="http://www.w3.org/2000/svg" xmlns:xlink="http://www.w3.org/1999/xlink">
    <!-- Generator: Sketch 52.6 (67491) - http://www.bohemiancoding.com/sketch -->
    <title>credit-card</title>
    <desc>Created with Sketch.</desc>
    <g id="homepage" stroke="none" stroke-width="1" fill="none" fill-rule="evenodd">
        <g transform="translate(-540.000000, -1788.000000)" fill="#0DC47C" id="Applications">
            <g transform="translate(135.000000, 1376.000000)">
                <g id="credit-card" transform="translate(405.000000, 412.000000)">
                    <g>
                        <polygon id="Path" points="4.42016602 34.1632374 7.9486084 34.1632374 7.9486084 35.9348398 4.42016602 35.9348398"></polygon>
                        <polygon id="Path" points="9.7123718 34.1632374 13.2408142 34.1632374 13.2408142 35.9348398 9.7123718 35.9348398"></polygon>
                        <polygon id="Path" points="15.0050354 34.1632374 18.5330201 34.1632374 18.5330201 35.9348398 15.0050354 35.9348398"></polygon>
                        <polygon id="Path" points="20.2972412 34.1632374 23.8256836 34.1632374 23.8256836 35.9348398 20.2972412 35.9348398"></polygon>
                        <polygon id="Path" points="4.42016602 37.6668912 6.18438727 37.6668912 6.18438727 39.4389479 4.42016602 39.4389479"></polygon>
                        <polygon id="Path" points="7.9486084 37.6668912 9.7123718 37.6668912 9.7123718 39.4389479 7.9486084 39.4389479"></polygon>
                        <polygon id="Path" points="11.476593 37.6668912 13.2408142 37.6668912 13.2408142 39.4389479 11.476593 39.4389479"></polygon>
                        <polygon id="Path" points="15.0050354 37.6668912 16.7692566 37.6668912 16.7692566 39.4389479 15.0050354 39.4389479"></polygon>
                        <polygon id="Path" points="20.2972412 37.6668912 22.0614623 37.6668912 22.0614623 39.4389479 20.2972412 39.4389479"></polygon>
                        <polygon id="Path" points="23.8256836 37.6668912 25.5899048 37.6668912 25.5899048 39.4389479 23.8256836 39.4389479"></polygon>
                        <polygon id="Path" points="27.3536682 37.6668912 29.1178894 37.6668912 29.1178894 39.4389479 27.3536682 39.4389479"></polygon>
                        <polygon id="Path" points="30.8821106 37.6668912 32.6463318 37.6668912 32.6463318 39.4389479 30.8821106 39.4389479"></polygon>
                        <polygon id="Path" points="36.1743164 37.6668912 37.9385377 37.6668912 37.9385377 39.4389479 36.1743164 39.4389479"></polygon>
                        <polygon id="Path" points="39.7027588 37.6668912 41.4669799 37.6668912 41.4669799 39.4389479 39.7027588 39.4389479"></polygon>
                        <polygon id="Path" points="43.2307434 37.6668912 44.9949646 37.6668912 44.9949646 39.4389479 43.2307434 39.4389479"></polygon>
                        <polygon id="Path" points="46.7591858 37.6668912 48.523407 37.6668912 48.523407 39.4389479 46.7591858 39.4389479"></polygon>
                        <polygon id="Path" points="4.42016602 41.1709995 9.7123718 41.1709995 9.7123718 42.9426017 4.42016602 42.9426017"></polygon>
                        <polygon id="Path" points="11.2559509 41.1709995 16.7692566 41.1709995 16.7692566 42.9426017 11.2559509 42.9426017"></polygon>
                        <polygon id="Path" points="52.9335022 41.1709995 54.6977234 41.1709995 54.6977234 42.9426017 52.9335022 42.9426017"></polygon>
                        <polygon id="Path" points="52.9335022 16.6436052 54.6977234 16.6436052 54.6977234 18.4152074 52.9335022 18.4152074"></polygon>
                        <polygon id="Path" points="4.42016602 16.6436052 6.18438727 16.6436052 6.18438727 18.4152074 4.42016602 18.4152074"></polygon>
                        <path d="M49.4151306,9.63584321 L47.6509095,9.63584321 L47.6509095,4.60880247 C47.6509095,2.06755119 45.569458,0 43.0105591,0 L37.2770691,0 C34.7181702,0 32.636261,2.06755119 32.636261,4.60880247 L32.636261,9.63584321 L30.8720398,9.63584321 L30.8720398,21.0432886 L49.4151306,21.0432886 L49.4151306,9.63584321 Z M34.420166,4.60880247 C34.420166,3.04450091 35.7019043,1.77160221 37.2770691,1.77160221 L43.0105591,1.77160221 C44.5857239,1.77160221 45.8674622,3.04404634 45.8674622,4.60880247 L45.8674622,9.63584321 L34.420166,9.63584321 L34.420166,4.60880247 Z M32.6559448,19.2716864 L32.6559448,16.6631533 L37.9385377,16.6631533 L37.9385377,14.891551 L32.6559448,14.891551 L32.6559448,11.4074454 L47.6312256,11.4074454 L47.6312256,14.891551 L43.2307434,14.891551 L43.2307434,16.6631533 L47.6312256,16.6631533 L47.6312256,19.2716864 L32.6559448,19.2716864 Z" id="Shape" fill-rule="nonzero"></path>
                        <path d="M55.800476,12.2634698 L51.169281,12.2634698 L51.169281,14.0355266 L55.800476,14.0355266 C57.1549988,14.0355266 58.216095,15.0283876 58.216095,16.2958311 L58.216095,43.3858432 C58.216095,44.7005657 57.1389771,45.7698006 55.8155823,45.7698006 L4.18487555,45.7698006 C2.86102289,45.7698006 1.783905,44.7005657 1.783905,43.3858432 L1.783905,16.2958311 C1.783905,15.0283876 2.84500125,14.0355266 4.19998172,14.0355266 L29.1178894,14.0355266 L29.1178894,12.2634698 L4.19952398,12.2634698 C1.84478766,12.2634698 1.13686838e-13,14.035072 1.13686838e-13,16.2958311 L1.13686838e-13,43.3858432 C1.13686838e-13,45.6770609 1.87728879,47.5414029 4.18487555,47.5414029 L55.8155823,47.5414029 C58.1231689,47.5414029 60,45.6770609 60,43.3858432 L60,16.2958311 C60,14.035072 58.1552123,12.2634698 55.800476,12.2634698 Z" id="Path"></path>
                        <polygon id="Path" points="39.692688 13.1494982 41.476593 13.1494982 41.476593 17.5296336 39.692688 17.5296336"></polygon>
                    </g>
                </g>
            </g>
        </g>
    </g>
</svg>