<?xml version="1.0" encoding="UTF-8"?>
<svg width="33px" height="36px" viewBox="0 0 33 36" version="1.1" xmlns="http://www.w3.org/2000/svg" xmlns:xlink="http://www.w3.org/1999/xlink">
    <!-- Generator: Sketch 52.6 (67491) - http://www.bohemiancoding.com/sketch -->
    <title>document</title>
    <desc>Created with Sketch.</desc>
    <g id="homepage" stroke="none" stroke-width="1" fill="none" fill-rule="evenodd">
        <g transform="translate(-1239.000000, -220.000000)" fill="#0DC47C" id="banner">
            <g>
                <g id="illustration" transform="translate(715.000000, 150.000000)">
                    <g id="government" transform="translate(510.000000, 70.000000)">
                        <g id="document" transform="translate(14.000000, 0.000000)">
                            <g>
                                <path d="M1.16129032,3.48387097 L18.5806452,3.48387097 L18.5806452,7.5483871 C18.5806452,7.86961314 18.8400643,8.12903226 19.1612903,8.12903226 L23.2258065,8.12903226 L23.2258065,12.7741935 L24.3870968,12.7741935 L24.3870968,7.5483871 C24.3870968,7.38763229 24.3216041,7.242471 24.2164189,7.13728582 L19.5729587,2.4938256 C19.4672064,2.38807335 19.3220451,2.32258065 19.1612903,2.32258065 L3.48387097,2.32258065 L3.48387097,1.16129032 L25.5483871,1.16129032 L25.5483871,13.9354839 L26.7096774,13.9354839 L26.7096774,0.580645161 C26.7096774,0.259419121 26.4502583,0 26.1290323,0 L2.90322581,0 C2.58199977,0 2.32258065,0.259419121 2.32258065,0.580645161 L2.32258065,2.32258065 L0.580645161,2.32258065 C0.259419121,2.32258065 0,2.58199977 0,2.90322581 L0,35.4193548 C0,35.7405809 0.259419121,36 0.580645161,36 L20.3225806,36 L20.3225806,34.8387097 L1.16129032,34.8387097 L1.16129032,3.48387097 Z M19.7419355,4.30493952 L22.4047379,6.96774194 L19.7419355,6.96774194 L19.7419355,4.30493952 Z" id="Shape" fill-rule="nonzero"></path>
                                <path d="M31.9354839,17.4193548 L31.0611139,17.4193548 C28.4683405,17.4193548 26.0298009,16.2773438 24.3703692,14.2861958 L24.2529927,14.1450038 C24.0329826,13.8796308 23.5804877,13.8796308 23.3604776,14.1450038 L23.243101,14.2856288 C21.5831024,16.2773438 19.1445627,17.4193548 16.5517893,17.4193548 L15.6774194,17.4193548 C15.3561933,17.4193548 15.0967742,17.678774 15.0967742,18 L15.0967742,27.4040133 C15.0967742,29.6905872 16.3300782,31.8158392 18.3152722,32.9499118 L23.5183972,35.9234501 C23.6074218,35.9744834 23.7072202,36 23.8064516,36 C23.905683,36 24.0054814,35.9744834 24.094506,35.9234501 L29.297631,32.9499118 C31.2828251,31.8158392 32.516129,29.6905872 32.516129,27.4040133 L32.516129,18 C32.516129,17.678774 32.2567099,17.4193548 31.9354839,17.4193548 Z M31.3548387,27.4040133 C31.3548387,29.2749496 30.3463647,31.0134829 28.7215222,31.9411542 L23.8064516,34.7511026 L18.891381,31.9420048 C17.2665385,31.0134829 16.2580645,29.2749496 16.2580645,27.4040133 L16.2580645,18.5806452 L16.5517893,18.5806452 C19.3226121,18.5806452 21.9392011,17.429278 23.8064516,15.4038244 C25.6731351,17.429278 28.2902911,18.5806452 31.0611139,18.5806452 L31.3548387,18.5806452 L31.3548387,27.4040133 Z" id="Shape" fill-rule="nonzero"></path>
                                <path d="M23.8064516,19.1612903 C20.2848728,19.1612903 17.4193548,22.0268082 17.4193548,25.5483871 C17.4193548,29.069966 20.2848728,31.9354839 23.8064516,31.9354839 C27.3280305,31.9354839 30.1935484,29.069966 30.1935484,25.5483871 C30.1935484,22.0268082 27.3280305,19.1612903 23.8064516,19.1612903 Z M23.8064516,30.7741935 C20.9247732,30.7741935 18.5806452,28.4300655 18.5806452,25.5483871 C18.5806452,22.6667087 20.9247732,20.3225806 23.8064516,20.3225806 C26.68813,20.3225806 29.0322581,22.6667087 29.0322581,25.5483871 C29.0322581,28.4300655 26.68813,30.7741935 23.8064516,30.7741935 Z" id="Shape" fill-rule="nonzero"></path>
                                <path d="M23.5294544,27.3535471 L22.4750504,26.2991431 L21.6539819,27.1202117 L23.3959173,28.8621472 C23.5056389,28.9724357 23.6542024,29.0322581 23.8064516,29.0322581 C23.8535157,29.0322581 23.9011467,29.0265877 23.9482107,29.0149635 C24.1466734,28.9647807 24.3034589,28.8139491 24.3627142,28.6183216 L26.1046497,22.81187 L24.9921245,22.4784526 L23.5294544,27.3535471 Z" id="Path"></path>
                                <polygon id="Path" points="2.32258065 9.29032258 17.4193548 9.29032258 17.4193548 10.4516129 2.32258065 10.4516129"></polygon>
                                <polygon id="Path" points="2.32258065 11.6129032 17.4193548 11.6129032 17.4193548 12.7741935 2.32258065 12.7741935"></polygon>
                                <polygon id="Path" points="2.32258065 13.9354839 17.4193548 13.9354839 17.4193548 15.0967742 2.32258065 15.0967742"></polygon>
                                <polygon id="Path" points="2.32258065 16.2580645 13.9354839 16.2580645 13.9354839 17.4193548 2.32258065 17.4193548"></polygon>
                                <polygon id="Path" points="2.32258065 18.5806452 13.9354839 18.5806452 13.9354839 19.7419355 2.32258065 19.7419355"></polygon>
                                <polygon id="Path" points="2.32258065 20.9032258 13.9354839 20.9032258 13.9354839 22.0645161 2.32258065 22.0645161"></polygon>
                                <polygon id="Path" points="2.32258065 27.8709677 13.9354839 27.8709677 13.9354839 29.0322581 2.32258065 29.0322581"></polygon>
                                <polygon id="Path" points="2.32258065 30.1935484 13.9354839 30.1935484 13.9354839 31.3548387 2.32258065 31.3548387"></polygon>
                                <polygon id="Path" points="2.32258065 32.516129 13.9354839 32.516129 13.9354839 33.6774194 2.32258065 33.6774194"></polygon>
                                <polygon id="Path" points="2.90322581 4.64516129 4.06451613 4.64516129 4.06451613 5.80645161 2.90322581 5.80645161"></polygon>
                                <polygon id="Path" points="5.22580645 4.64516129 6.38709677 4.64516129 6.38709677 5.80645161 5.22580645 5.80645161"></polygon>
                                <polygon id="Path" points="7.5483871 4.64516129 8.70967742 4.64516129 8.70967742 5.80645161 7.5483871 5.80645161"></polygon>
                                <polygon id="Path" points="9.87096774 4.64516129 17.4193548 4.64516129 17.4193548 5.80645161 9.87096774 5.80645161"></polygon>
                            </g>
                        </g>
                    </g>
                </g>
            </g>
        </g>
    </g>
</svg>