<svg width="83" height="71" viewBox="0 0 83 71" fill="none" xmlns="http://www.w3.org/2000/svg">
<path d="M59.7097 45.0783C60.0438 43.3528 60.201 41.5685 60.201 39.7646C60.201 37.9607 60.0438 36.1568 59.7097 34.4313H54.5603C53.9706 31.8038 52.9486 29.3332 51.5335 27.1372L55.1695 23.5293C53.1452 20.5685 50.5901 17.9999 47.6027 15.9803L43.9666 19.6078C41.7653 18.2156 39.3086 17.1568 36.6749 16.5685V11.4509C34.9453 11.1176 33.1568 10.9607 31.3289 10.9607C29.5011 10.9607 27.7125 11.1176 25.983 11.4509V16.5685C23.3493 17.1568 20.8925 18.196 18.6912 19.5881L15.0748 15.9803C12.107 17.9803 9.53233 20.5293 7.48828 23.4901L11.1243 27.1176C9.72887 29.3136 8.70685 31.7842 8.09756 34.4117H2.94814C2.61402 36.1372 2.45679 37.9215 2.45679 39.745C2.45679 41.5685 2.61402 43.3332 2.94814 45.0587H8.07791C8.66754 47.6862 9.70921 50.1568 11.1243 52.3529L7.48828 55.9803C9.51267 58.9411 12.0677 61.4901 15.0552 63.5293L18.6912 59.9019C20.8925 61.294 23.3493 62.3136 25.983 62.9215V68.0391C27.7125 68.3725 29.5011 68.5293 31.3289 68.5293C33.1568 68.5293 34.9453 68.3725 36.6749 68.0391V62.9215C39.3086 62.3332 41.785 61.3136 43.9863 59.9019L47.6027 63.5097C50.5704 61.4901 53.1452 58.9607 55.1695 55.9999L51.5335 52.3725C52.929 50.1764 53.9903 47.7058 54.5799 45.0783H59.7097Z" stroke="#31AC67" stroke-width="2.5"/>
<path d="M31.0538 53.1765C38.1962 53.1765 43.9863 47.4001 43.9863 40.2745C43.9863 33.149 38.1962 27.3726 31.0538 27.3726C23.9113 27.3726 18.1212 33.149 18.1212 40.2745C18.1212 47.4001 23.9113 53.1765 31.0538 53.1765Z" stroke="#31AC67" stroke-width="2.5"/>
<path d="M41.3133 18.2745C43.1411 9.23524 51.1404 2.45093 60.7317 2.45093C71.6791 2.45093 80.5432 11.2941 80.5432 22.2156C80.5432 33.1372 71.6791 41.9803 60.7317 41.9803" stroke="#31AC67" stroke-width="2.5"/>
<path d="M60.771 9.70581V23.8823H70.6768" stroke="#31AC67" stroke-width="2.5"/>
</svg>
