<?xml version="1.0" encoding="UTF-8"?>
<svg width="60px" height="60px" viewBox="0 0 60 60" version="1.1" xmlns="http://www.w3.org/2000/svg" xmlns:xlink="http://www.w3.org/1999/xlink">
    <!-- Generator: Sketch 52.6 (67491) - http://www.bohemiancoding.com/sketch -->
    <title>email</title>
    <desc>Created with Sketch.</desc>
    <g id="homepage" stroke="none" stroke-width="1" fill="none" fill-rule="evenodd">
        <g transform="translate(-240.000000, -1485.000000)" fill="#0DC47C" id="Applications">
            <g transform="translate(135.000000, 1376.000000)">
                <g id="email" transform="translate(105.000000, 109.000000)">
                    <g>
                        <path d="M59.985,22.9365234 C59.9787891,22.8676172 59.9650781,22.7995312 59.9439844,22.7335547 C59.9302734,22.6746094 59.9111719,22.6170703 59.8870312,22.5615234 C59.8590234,22.5072656 59.8255078,22.4559375 59.7870703,22.4084766 C59.7485156,22.3521094 59.7038672,22.3001953 59.6540625,22.2534375 C59.6380078,22.2394922 59.6310937,22.2203906 59.6141016,22.2064453 L49.9971094,14.7375 L49.9971094,6.9965625 C49.9971094,5.33976562 48.6539062,3.9965625 46.9971094,3.9965625 L36.1600781,3.9965625 L31.8209766,0.627539063 C30.7490625,-0.208476562 29.2458984,-0.208476562 28.1739844,0.627539063 L23.8339453,3.9965625 L12.9969141,3.9965625 C11.3401172,3.9965625 9.99691406,5.33964844 9.99691406,6.9965625 L9.99691406,14.7376172 L0.38296875,22.2065625 C0.365976563,22.220625 0.358945313,22.2396094 0.343007813,22.2535547 C0.293203125,22.3001953 0.248554688,22.3522266 0.21,22.4085937 C0.1715625,22.4560547 0.138046875,22.5072656 0.110039063,22.5616406 C0.08578125,22.6170703 0.066796875,22.6747266 0.0530859375,22.7336719 C0.0322265625,22.7987109 0.018515625,22.8657422 0.0120703125,22.9337109 C0.0120703125,22.9546875 0.0001171875,22.9727344 0.0001171875,22.9937109 L0.0001171875,56.9964844 C0.0015234375,57.6325781 0.207304688,58.2513281 0.587109375,58.7614453 C0.593085938,58.7704687 0.594140625,58.7814844 0.601054688,58.7894531 C0.608085938,58.7974219 0.623085938,58.8064453 0.633046875,58.8174609 C1.19484375,59.5566797 2.06859375,59.9925 2.99707031,59.9964844 L56.9970703,59.9964844 C57.9291797,59.9936719 58.8065625,59.5557422 59.3690625,58.8125391 C59.3770312,58.8025781 59.3891016,58.7995312 59.3960156,58.7895703 C59.4030469,58.7796094 59.4039844,58.7705859 59.4100781,58.7615625 C59.7898828,58.2513281 59.9956641,57.6325781 59.9970703,56.9966016 L59.9970703,22.9965234 C59.9969531,22.9755469 59.9860547,22.9575 59.985,22.9365234 Z M29.3969531,2.20546875 C29.7461719,1.92796875 30.2407031,1.92796875 30.5899219,2.20546875 L32.896875,3.99644531 L27.0969141,3.99644531 L29.3969531,2.20546875 Z M3.24902344,57.9965625 L29.3970703,37.6855078 C29.7465234,37.4084766 30.2407031,37.4084766 30.5900391,37.6855078 L56.745,57.9965625 L3.24902344,57.9965625 Z M57.9970312,56.4375 L31.8209766,36.1074609 C30.7488281,35.2721484 29.2461328,35.2721484 28.1739844,36.1074609 L1.99699219,56.4375 L1.99699219,24.5194922 L18.3840234,37.2445312 C18.8206641,37.5830859 19.4490234,37.5036328 19.7875781,37.0669922 C20.1261328,36.6303516 20.0466797,36.0019922 19.6100391,35.6634375 L2.96203125,22.7364844 L9.99703125,17.2694531 L9.99703125,24.9964453 C9.99703125,25.54875 10.4448047,25.9964062 10.9969922,25.9964062 C11.5492969,25.9964062 11.9969531,25.5486328 11.9969531,24.9964453 L11.9969531,6.99644531 C11.9969531,6.44414063 12.4446094,5.99648438 12.9969141,5.99648438 L46.996875,5.99648438 C47.5491797,5.99648438 47.9968359,6.44414063 47.9968359,6.99644531 L47.9968359,24.9964453 C47.9968359,25.54875 48.4444922,25.9964062 48.9967969,25.9964062 C49.5491016,25.9964062 49.9967578,25.5486328 49.9967578,24.9964453 L49.9967578,17.2694531 L57.0317578,22.7364844 L40.3548047,35.6865234 C40.0679297,35.9039062 39.9199219,36.25875 39.9675,36.6155859 C40.0150781,36.9724219 40.2507422,37.2761719 40.5846094,37.4108203 C40.9184766,37.5454687 41.2989844,37.4903906 41.5808203,37.2664453 L57.9967969,24.5194922 L57.9970312,56.4375 Z" id="Shape" fill-rule="nonzero"></path>
                        <path d="M39.746955,22.496488 L39.746955,18.8715234 C39.746955,12.8654224 34.8780557,7.99652344 28.8719541,7.99652344 C22.8658525,7.99652344 17.9969531,12.8654224 17.9969531,18.8715234 C17.9969531,24.8776245 22.8658525,29.7465234 28.8719541,29.7465234 C29.3724802,29.7465234 29.7781687,29.340835 29.7781687,28.8403088 C29.7781687,28.3397827 29.3724802,27.9340942 28.8719541,27.9340942 C23.8669048,27.9340942 19.8094887,23.8766785 19.8094887,18.8716296 C19.8094887,13.8665808 23.8669048,9.80916504 28.8719541,9.80916504 C33.8770033,9.80916504 37.9344194,13.8665808 37.9344194,18.8716296 L37.9344194,22.4965942 C37.9344194,23.4976465 37.1229362,24.3091296 36.1218839,24.3091296 C35.1208316,24.3091296 34.3093483,23.4976465 34.3093483,22.4965942 L34.3093483,18.8716296 C34.3093483,18.3711035 33.9036598,17.965415 33.4031337,17.965415 C32.9026075,17.965415 32.496919,18.3711035 32.496919,18.8716296 C32.496919,20.8736279 30.8739525,22.4965942 28.8719541,22.4965942 C26.8699556,22.4965942 25.2469892,20.8736279 25.2469892,18.8716296 C25.2469892,16.8696313 26.8699556,15.246665 28.8719541,15.246665 C29.3724802,15.246665 29.7781687,14.8409766 29.7781687,14.3404504 C29.7781687,13.8399243 29.3724802,13.4342358 28.8719541,13.4342358 C26.438354,13.4288196 24.2974444,15.0410596 23.630501,17.381521 C22.9635576,19.7219824 23.9328557,22.2205774 26.0037788,23.4988147 C28.0747018,24.777052 30.7426879,24.523656 32.5358948,22.8782812 C32.7332166,24.7947876 34.3989821,26.2197949 36.3229227,26.117948 C38.2469695,26.0159949 39.7530085,24.4231897 39.746955,22.496488 Z" id="Path"></path>
                    </g>
                </g>
            </g>
        </g>
    </g>
</svg>