<?xml version="1.0" encoding="UTF-8"?>
<svg width="8px" height="16px" viewBox="0 0 8 16" version="1.1" xmlns="http://www.w3.org/2000/svg" xmlns:xlink="http://www.w3.org/1999/xlink">
    <!-- Generator: Sketch 52.6 (67491) - http://www.bohemiancoding.com/sketch -->
    <title>facebook-logo</title>
    <desc>Created with Sketch.</desc>
    <g id="Symbols" stroke="none" stroke-width="1" fill="none" fill-rule="evenodd">
        <g id="footer" transform="translate(-1005.000000, -347.000000)" fill="#0DC47C">
            <g id="facebook-logo" transform="translate(1005.000000, 347.000000)">
                <g id="Path">
                    <path d="M4.97735881,5.23719745 L4.97735881,3.86000849 C4.97735881,3.65326539 4.98687049,3.49312951 5.00619958,3.38000849 C5.02546072,3.26671762 5.06928238,3.15529512 5.13729087,3.04529936 C5.20519745,2.93537155 5.31515924,2.85948195 5.46700637,2.81742675 C5.61905732,2.77530361 5.82111253,2.75430998 6.0733758,2.75430998 L7.45049682,2.75430998 L7.45049682,0 L5.2489172,0 C3.97503185,0 3.0601104,0.302233546 2.50401699,0.906700637 C1.94799151,1.51130361 1.67001274,2.40186837 1.67001274,3.57873461 L1.67001274,5.23716348 L0.0210276008,5.23716348 L0.0210276008,7.99167728 L1.66991083,7.99167728 L1.66991083,15.9833885 L4.97732484,15.9833885 L4.97732484,7.99171125 L7.17876858,7.99171125 L7.46975796,5.23719745 L4.97735881,5.23719745 Z"></path>
                </g>
            </g>
        </g>
    </g>
</svg>