<svg width="94" height="70" viewBox="0 0 94 70" fill="none" xmlns="http://www.w3.org/2000/svg">
<path d="M46.0876 27.428L34.4009 20.3934V8.28467L46.0876 15.2962V27.428Z" stroke="#3BC57D" stroke-width="2.5" stroke-linecap="round" stroke-linejoin="round"/>
<path d="M58.2345 8.2846L46.0876 1.25L34.4009 8.2846L46.0876 15.2961L58.2345 8.2846Z" stroke="#3BC57D" stroke-width="2.5" stroke-linecap="round" stroke-linejoin="round"/>
<path d="M46.0874 27.428L58.3033 20.3934L58.2342 8.28467L46.0874 15.2962V27.428Z" stroke="#3BC57D" stroke-width="2.5" stroke-linecap="round" stroke-linejoin="round"/>
<path d="M79.5832 46.9866L67.8965 39.952V27.8433L79.5832 34.8548V46.9866Z" stroke="#3BC57D" stroke-width="2.5" stroke-linecap="round" stroke-linejoin="round"/>
<path d="M91.7301 27.8432L79.5832 20.8086L67.8965 27.8432L79.5832 34.8547L91.7301 27.8432Z" stroke="#3BC57D" stroke-width="2.5" stroke-linecap="round" stroke-linejoin="round"/>
<path d="M79.5833 46.9866L91.7991 39.952L91.7301 27.8433L79.5833 34.8548V46.9866Z" stroke="#3BC57D" stroke-width="2.5" stroke-linecap="round" stroke-linejoin="round"/>
<path d="M68.2416 28.3046L51.4937 17.8564" stroke="#3BC57D" stroke-width="2.5" stroke-linecap="round" stroke-linejoin="round"/>
<path d="M12.9367 47.0786L1.25 40.0671V27.9353L12.9367 34.9699V47.0786Z" stroke="#3BC57D" stroke-width="2.5" stroke-linecap="round" stroke-linejoin="round"/>
<path d="M25.0836 27.9354L12.9367 20.9238L1.25 27.9354L12.9367 34.97L25.0836 27.9354Z" stroke="#3BC57D" stroke-width="2.5" stroke-linecap="round" stroke-linejoin="round"/>
<path d="M12.9368 47.0786L25.1526 40.0671L25.0836 27.9353L12.9368 34.9699V47.0786Z" stroke="#3BC57D" stroke-width="2.5" stroke-linecap="round" stroke-linejoin="round"/>
<path d="M45.6733 67.7904L33.9866 60.7558V48.624L45.6733 55.6586V67.7904Z" stroke="#3BC57D" stroke-width="2.5" stroke-linecap="round" stroke-linejoin="round"/>
<path d="M57.8202 48.6241L45.6733 41.6125L33.9866 48.6241L45.6733 55.6587L57.8202 48.6241Z" stroke="#3BC57D" stroke-width="2.5" stroke-linecap="round" stroke-linejoin="round"/>
<path d="M45.6733 67.7904L57.8892 60.7558L57.8202 48.624L45.6733 55.6586V67.7904Z" stroke="#3BC57D" stroke-width="2.5" stroke-linecap="round" stroke-linejoin="round"/>
<path d="M35.2981 47.7245L19.4014 38.2451" stroke="#3BC57D" stroke-width="2.5" stroke-linecap="round" stroke-linejoin="round"/>
<path d="M73.8551 37.8762L57.6133 47.7247" stroke="#3BC57D" stroke-width="2.5" stroke-linecap="round" stroke-linejoin="round"/>
<path d="M39.623 18.479L24.9226 26.736" stroke="#3BC57D" stroke-width="2.5" stroke-linecap="round" stroke-linejoin="round"/>
</svg>
