<svg width="55" height="71" viewBox="0 0 55 71" fill="none" xmlns="http://www.w3.org/2000/svg">
<path d="M32.0452 37.4754C32.0452 34.8613 29.9366 32.7461 27.3309 32.7461C24.7251 32.7461 22.6166 34.8613 22.6166 37.4754C22.6166 39.3911 23.7703 41.0274 25.4014 41.7658L24.2278 51.1845H30.613L29.2802 41.7658C30.9113 41.0274 32.065 39.3911 32.065 37.4754H32.0452Z" stroke="#31AC67" stroke-width="2.5"/>
<path d="M39.1266 53.699L53.349 66.3704" stroke="#31AC67" stroke-width="2.5"/>
<path d="M27.3309 68.5256C41.0522 68.5256 52.1754 57.3669 52.1754 43.6018C52.1754 29.8368 41.0522 18.678 27.3309 18.678C13.6097 18.678 2.48645 29.8368 2.48645 43.6018C2.48645 57.3669 13.6097 68.5256 27.3309 68.5256Z" stroke="#31AC67" stroke-width="2.5"/>
<path d="M10.642 25.5624V19.2167C10.642 9.97752 18.1212 2.49438 27.3309 2.49438C36.5407 2.49438 44 9.97752 44 19.2167V24.6046" stroke="#31AC67" stroke-width="2.5"/>
</svg>
