<?xml version="1.0" encoding="UTF-8"?>
<svg width="16px" height="16px" viewBox="0 0 16 16" version="1.1" xmlns="http://www.w3.org/2000/svg" xmlns:xlink="http://www.w3.org/1999/xlink">
    <!-- Generator: Sketch 52.6 (67491) - http://www.bohemiancoding.com/sketch -->
    <title>instagram-logo</title>
    <desc>Created with Sketch.</desc>
    <g id="Symbols" stroke="none" stroke-width="1" fill="none" fill-rule="evenodd">
        <g id="footer" transform="translate(-1089.000000, -347.000000)" fill="#0DC47C">
            <g id="instagram-logo" transform="translate(1089.000000, 347.000000)">
                <g>
                    <path d="M11.5205647,0 L4.39096471,0 C1.96978824,0 0,1.96988235 0,4.39105882 L0,11.5206588 C0,13.9419294 1.96978824,15.9117176 4.39096471,15.9117176 L11.5205647,15.9117176 C13.9419294,15.9117176 15.9117176,13.9418353 15.9117176,11.5206588 L15.9117176,4.39105882 C15.9118118,1.96988235 13.9419294,0 11.5205647,0 Z M14.5000471,11.5206588 C14.5000471,13.1634824 13.1634824,14.4999529 11.5206588,14.4999529 L4.39096471,14.4999529 C2.74823529,14.5000471 1.41176471,13.1634824 1.41176471,11.5206588 L1.41176471,4.39105882 C1.41176471,2.74832941 2.74823529,1.41176471 4.39096471,1.41176471 L11.5205647,1.41176471 C13.1633882,1.41176471 14.4999529,2.74832941 14.4999529,4.39105882 L14.4999529,11.5206588 L14.5000471,11.5206588 Z" id="Shape" fill-rule="nonzero"></path>
                    <path d="M8.10004706,3 C5.83924706,3 4,4.83924706 4,7.10004706 C4,9.36075294 5.83924706,11.1999059 8.10004706,11.1999059 C10.3608471,11.1999059 12.2000941,9.36075294 12.2000941,7.10004706 C12.2000941,4.83924706 10.3608471,3 8.10004706,3 Z M8.10004706,9.78804706 C6.61778824,9.78804706 5.41176471,8.58221176 5.41176471,7.09995294 C5.41176471,5.6176 6.61769412,4.41167059 8.10004706,4.41167059 C9.5824,4.41167059 10.7883294,5.6176 10.7883294,7.09995294 C10.7883294,8.58221176 9.58230588,9.78804706 8.10004706,9.78804706 Z" id="Shape" fill-rule="nonzero"></path>
                    <path d="M12.0352941,2 C11.7632941,2 11.4960941,2.11011765 11.304,2.30305882 C11.1109647,2.49505882 11,2.76235294 11,3.03529412 C11,3.30738824 11.1110588,3.57458824 11.304,3.76752941 C11.496,3.95952941 11.7632941,4.07058824 12.0352941,4.07058824 C12.3082353,4.07058824 12.5745882,3.95952941 12.7675294,3.76752941 C12.9604706,3.57458824 13.0705882,3.30729412 13.0705882,3.03529412 C13.0705882,2.76235294 12.9604706,2.49505882 12.7675294,2.30305882 C12.5755294,2.11011765 12.3082353,2 12.0352941,2 Z" id="Path"></path>
                </g>
            </g>
        </g>
    </g>
</svg>