<svg width="20" height="20" viewBox="0 0 20 20" fill="none" xmlns="http://www.w3.org/2000/svg">
<g id="Social/LinkedIn">
<path id="Icon" fill-rule="evenodd" clip-rule="evenodd" d="M17.0396 17.0433H14.078V12.4025C14.078 11.2958 14.0555 9.87166 12.5346 9.87166C10.9905 9.87166 10.7546 11.0758 10.7546 12.3208V17.0433H7.79297V7.49999H10.638V8.80082H10.6763C11.0738 8.05082 12.0405 7.25916 13.4846 7.25916C16.4855 7.25916 17.0405 9.23415 17.0405 11.805V17.0433H17.0396ZM4.4475 6.19417C3.49417 6.19417 2.72833 5.4225 2.72833 4.47333C2.72833 3.525 3.495 2.75417 4.4475 2.75417C5.3975 2.75417 6.1675 3.525 6.1675 4.47333C6.1675 5.4225 5.39667 6.19417 4.4475 6.19417ZM5.93289 17.0433H2.96289V7.5H5.93289V17.0433ZM18.5208 0H1.47583C0.66 0 0 0.645 0 1.44083V18.5592C0 19.3558 0.66 20 1.47583 20H18.5183C19.3333 20 20 19.3558 20 18.5592V1.44083C20 0.645 19.3333 0 18.5183 0H18.5208Z" fill="#115293"/>
</g>
</svg>
