<svg width="80" height="80" viewBox="0 0 80 80" fill="none" xmlns="http://www.w3.org/2000/svg">
<g filter="url(#filter0_d_111_1387)">
<circle cx="40" cy="36" r="32" fill="white"/>
<circle cx="40" cy="36" r="31" stroke="#115293" stroke-width="2"/>
</g>
<g clip-path="url(#clip0_111_1387)">
<path d="M44.5952 25.4823H30.7141C29.2173 25.4823 28 26.6996 28 28.1964V40.3604C28 40.9365 28.6515 41.2613 29.1114 40.9328L32.9772 38.1746C33.3016 37.9435 33.6831 37.8212 34.0816 37.8212H42.5842C44.0809 37.8212 45.2983 36.6039 45.2983 35.1071V26.1854C45.2983 25.7973 44.9833 25.4823 44.5952 25.4823ZM41.1798 34H33.0559C32.6678 34 32.3528 33.6854 32.3528 33.2968C32.3528 32.9087 32.6678 32.5937 33.0559 32.5937H41.1798C41.568 32.5937 41.883 32.9087 41.883 33.2968C41.883 33.6854 41.568 34 41.1798 34ZM41.1798 30.7187H33.0559C32.6678 30.7187 32.3528 30.4042 32.3528 30.0156C32.3528 29.6275 32.6678 29.3125 33.0559 29.3125H41.1798C41.568 29.3125 41.883 29.6275 41.883 30.0156C41.883 30.4042 41.568 30.7187 41.1798 30.7187Z" fill="#115293"/>
<path d="M51.9999 33.6503V45.8139C51.9999 46.3861 51.3517 46.717 50.8885 46.3862L47.0228 43.6285C46.6984 43.3974 46.3168 43.2751 45.9184 43.2751H37.4157C35.919 43.2751 34.7017 42.0573 34.7017 40.5606V39.2274H42.5842C44.8562 39.2274 46.7045 37.3792 46.7045 35.1071V30.9357H49.2859C50.7826 30.9357 51.9999 32.1535 51.9999 33.6503Z" fill="#115293"/>
</g>
<defs>
<filter id="filter0_d_111_1387" x="0" y="0" width="80" height="80" filterUnits="userSpaceOnUse" color-interpolation-filters="sRGB">
<feFlood flood-opacity="0" result="BackgroundImageFix"/>
<feColorMatrix in="SourceAlpha" type="matrix" values="0 0 0 0 0 0 0 0 0 0 0 0 0 0 0 0 0 0 127 0" result="hardAlpha"/>
<feOffset dy="4"/>
<feGaussianBlur stdDeviation="4"/>
<feComposite in2="hardAlpha" operator="out"/>
<feColorMatrix type="matrix" values="0 0 0 0 0 0 0 0 0 0 0 0 0 0 0 0 0 0 0.32 0"/>
<feBlend mode="normal" in2="BackgroundImageFix" result="effect1_dropShadow_111_1387"/>
<feBlend mode="normal" in="SourceGraphic" in2="effect1_dropShadow_111_1387" result="shape"/>
</filter>
<clipPath id="clip0_111_1387">
<rect width="24" height="24" fill="white" transform="translate(28 24)"/>
</clipPath>
</defs>
</svg>
