<svg width="429" height="98" viewBox="0 0 429 98" fill="none" xmlns="http://www.w3.org/2000/svg">
<path d="M126.631 46.0612H124.498V75.4605H126.631V46.0612Z" fill="white"/>
<path d="M155.352 75.4605V46.0612H167.717C168.964 46.0612 170.121 46.3303 171.188 46.846C172.254 47.3618 173.162 48.057 173.933 48.9316C174.704 49.8061 175.294 50.7704 175.725 51.8693C176.156 52.9681 176.383 54.0669 176.383 55.1657C176.383 56.2646 176.224 57.2961 175.884 58.2828C175.544 59.292 175.067 60.189 174.455 60.9963C173.842 61.8036 173.093 62.4539 172.231 62.9921C171.369 63.5079 170.416 63.8667 169.396 64.0237L176.814 75.438H174.341L167.127 64.3376H157.485V75.438H155.352V75.4605ZM157.508 62.4091H167.944C168.896 62.4091 169.758 62.2072 170.53 61.7811C171.301 61.3775 171.982 60.8169 172.549 60.1441C173.116 59.4714 173.525 58.6865 173.819 57.8343C174.114 56.9598 174.25 56.0852 174.25 55.1657C174.25 54.2463 174.069 53.3269 173.729 52.4523C173.388 51.5777 172.912 50.8153 172.299 50.1425C171.71 49.4922 171.006 48.954 170.212 48.5503C169.418 48.1467 168.556 47.9449 167.626 47.9449H157.485V62.3866L157.508 62.4091Z" fill="white"/>
<path d="M215.336 75.6623C213.272 75.6623 211.389 75.2362 209.687 74.3841C207.986 73.5319 206.511 72.4107 205.286 71.0427C204.061 69.6524 203.108 68.0826 202.45 66.2886C201.77 64.4946 201.452 62.6557 201.452 60.772C201.452 58.8883 201.815 56.9373 202.518 55.1433C203.222 53.3493 204.197 51.7571 205.445 50.3892C206.693 48.9989 208.167 47.9225 209.869 47.0927C211.57 46.2854 213.408 45.8593 215.404 45.8593C217.401 45.8593 219.352 46.2854 221.076 47.16C222.8 48.0346 224.252 49.1783 225.477 50.5686C226.703 51.9814 227.633 53.5736 228.313 55.3452C228.994 57.1167 229.311 58.9332 229.311 60.7496C229.311 62.7454 228.948 64.6292 228.245 66.4232C227.542 68.2172 226.566 69.8093 225.319 71.1549C224.071 72.5228 222.596 73.6216 220.895 74.4289C219.193 75.2362 217.356 75.6399 215.359 75.6399M203.562 60.7496C203.562 62.4315 203.857 64.0461 204.424 65.6159C204.991 67.1856 205.808 68.5535 206.852 69.7645C207.895 70.953 209.143 71.9173 210.595 72.6349C212.047 73.3525 213.635 73.7113 215.359 73.7113C217.083 73.7113 218.762 73.3301 220.191 72.5901C221.621 71.85 222.868 70.8633 223.867 69.6299C224.888 68.3966 225.682 67.0062 226.226 65.4813C226.793 63.934 227.065 62.3642 227.065 60.7496C227.065 59.0677 226.771 57.4531 226.181 55.8834C225.591 54.3136 224.774 52.9457 223.731 51.7347C222.687 50.5238 221.439 49.5819 220.033 48.8643C218.603 48.1467 217.038 47.7879 215.336 47.7879C213.544 47.7879 211.933 48.1691 210.481 48.9092C209.03 49.6492 207.782 50.6359 206.761 51.8693C205.717 53.1026 204.923 54.493 204.379 56.0403C203.812 57.5877 203.539 59.1574 203.539 60.7496" fill="white"/>
<path d="M258.101 50.0304V75.438H255.969V46.0612H257.602L278.451 71.9397V46.0612H280.584V75.438H278.633L258.101 50.0304Z" fill="white"/>
<path d="M306.515 60.5029C306.515 58.7313 306.855 56.9821 307.513 55.233C308.171 53.4838 309.169 51.9141 310.439 50.5237C311.733 49.1558 313.298 48.0345 315.136 47.1824C316.973 46.3302 319.083 45.9041 321.42 45.9041C324.21 45.9041 326.638 46.4872 328.68 47.6757C330.721 48.8643 332.264 50.4116 333.262 52.3177L327.976 55.9506C327.636 55.1657 327.228 54.5378 326.706 54.022C326.184 53.5063 325.617 53.1026 325.004 52.7887C324.392 52.4747 323.757 52.2504 323.121 52.1383C322.486 52.0262 321.851 51.9589 321.238 51.9589C319.923 51.9589 318.788 52.228 317.813 52.7438C316.837 53.2596 316.02 53.9323 315.385 54.7621C314.75 55.5918 314.274 56.5336 313.956 57.5876C313.638 58.6416 313.502 59.6956 313.502 60.772C313.502 61.9381 313.684 63.0593 314.047 64.1357C314.41 65.2122 314.931 66.154 315.612 66.9837C316.293 67.8135 317.109 68.4638 318.085 68.9571C319.06 69.4505 320.127 69.6747 321.329 69.6747C321.942 69.6747 322.577 69.6075 323.235 69.4505C323.893 69.2935 324.528 69.0693 325.118 68.7553C325.708 68.4414 326.275 68.0153 326.774 67.5219C327.273 67.0062 327.681 66.3783 327.976 65.6382L333.58 68.9123C333.126 69.9887 332.468 70.953 331.584 71.8051C330.699 72.6573 329.678 73.3749 328.544 73.9579C327.409 74.541 326.184 74.9895 324.891 75.281C323.598 75.595 322.35 75.7295 321.125 75.7295C318.97 75.7295 316.996 75.3034 315.204 74.4289C313.411 73.5543 311.846 72.4106 310.553 70.9754C309.26 69.5402 308.262 67.9032 307.536 66.0867C306.832 64.2703 306.469 62.409 306.469 60.5477" fill="white"/>
<path d="M365.659 46.0612H371.852L382.696 75.4605H375.663L373.372 68.8899H364.116L361.847 75.4605H354.814L365.659 46.0612ZM372.238 64.1806L368.767 53.7978L365.205 64.1806H372.238Z" fill="white"/>
<path d="M406.585 75.4605V46.0612H419.267C420.697 46.0612 421.99 46.3527 423.192 46.9357C424.372 47.5188 425.393 48.2812 426.255 49.2231C427.117 50.1649 427.775 51.2189 428.274 52.4075C428.773 53.596 429 54.8069 429 56.0179C429 57.3186 428.773 58.5519 428.319 59.7405C427.866 60.929 427.208 61.983 426.391 62.9248C425.574 63.8667 424.576 64.6067 423.396 65.1673C422.217 65.728 420.923 65.9971 419.494 65.9971H413.46V75.4829H406.585V75.4605ZM413.437 60.0544H419.04C419.857 60.0544 420.538 59.718 421.128 59.0229C421.718 58.3277 422.012 57.3186 422.012 55.9955C422.012 55.3003 421.922 54.7172 421.74 54.2239C421.559 53.7305 421.309 53.3045 421.014 52.9905C420.697 52.6541 420.356 52.4075 419.971 52.2729C419.585 52.1159 419.177 52.0487 418.791 52.0487H413.437V60.0768V60.0544Z" fill="white"/>
<path d="M46.0931 21.9542C32.7759 21.9542 21.9543 32.651 21.9543 45.8145C21.9543 58.978 32.7759 69.6748 46.0931 69.6748C59.4102 69.6748 70.2318 58.978 70.2318 45.8145C70.2318 32.651 59.4102 21.9542 46.0931 21.9542ZM46.0931 67.0511C34.2506 67.0511 24.6087 57.5204 24.6087 45.8145C24.6087 34.1086 34.2506 24.5779 46.0931 24.5779C57.9355 24.5779 67.5774 34.1086 67.5774 45.8145C67.5774 57.5204 57.9355 67.0511 46.0931 67.0511Z" fill="#71BFFF"/>
<path d="M68.7115 39.9166C65.3992 39.9166 62.6995 42.5852 62.6995 45.8593C62.6995 49.1333 65.3992 51.8019 68.7115 51.8019C72.0237 51.8019 74.7234 49.1333 74.7234 45.8593C74.7234 42.5852 72.0237 39.9166 68.7115 39.9166Z" fill="#71BFFF"/>
<path d="M29.5542 24.5106C26.242 24.5106 23.5422 27.1792 23.5422 30.4533C23.5422 33.7273 26.242 36.3959 29.5542 36.3959C32.8665 36.3959 35.5662 33.7273 35.5662 30.4533C35.5662 27.1792 32.8665 24.5106 29.5542 24.5106Z" fill="#71BFFF"/>
<path d="M46.0932 39.7821C34.7952 39.7821 23.3611 41.7555 23.3611 45.5229C23.3611 49.2903 34.7952 51.2638 46.0932 51.2638C57.3912 51.2638 68.8254 49.2903 68.8254 45.5229C68.8254 41.7555 57.3912 39.7821 46.0932 39.7821ZM46.0932 49.7837C33.1391 49.7837 24.8811 47.2721 24.8811 45.5454C24.8811 43.8186 33.1391 41.307 46.0932 41.307C59.0474 41.307 67.3053 43.8186 67.3053 45.5454C67.3053 47.2721 59.0474 49.7837 46.0932 49.7837Z" fill="#71BFFF"/>
<path d="M46.093 33.9965C39.4912 33.9965 34.1371 39.2888 34.1371 45.8145C34.1371 52.3402 39.4912 57.6325 46.093 57.6325C52.6949 57.6325 58.0489 52.3402 58.0489 45.8145C58.0489 39.2888 52.6949 33.9965 46.093 33.9965Z" fill="#71BFFF"/>
<path d="M91.9655 15.406C73.7026 14.1054 61.9963 6.74995 54.9634 0H37.0862C30.076 6.74995 18.3696 14.1278 0.106782 15.406C0.106782 15.406 -4.45325 78.6897 46.0248 97.1231C96.5028 78.6897 91.9655 15.406 91.9655 15.406ZM46.0248 89.0949C3.91816 73.7113 7.70685 20.9002 7.70685 20.9002C22.9524 19.8238 32.7077 13.6793 38.5835 8.05061H53.4887C59.3419 13.6793 69.1199 19.8238 84.3654 20.9002C84.3654 20.9002 88.1541 73.7113 46.0475 89.0949" fill="white"/>
<path d="M134.163 32.2472V33.7497H124.907V20.2946H133.981V21.8196H126.631V26.17H133.029V27.6052H126.631V32.2472H134.163Z" fill="white"/>
<path d="M144.849 33.7498H143.17V28.2108C143.17 27.1568 143.011 26.3719 142.671 25.901C142.353 25.4301 141.854 25.1834 141.196 25.1834C140.856 25.1834 140.493 25.2507 140.152 25.3852C139.812 25.5198 139.472 25.6992 139.177 25.9234C138.882 26.1477 138.61 26.4168 138.383 26.7307C138.156 27.0447 137.975 27.4035 137.861 27.7623V33.7274H136.182V23.8379H137.725V25.9683C138.133 25.2731 138.7 24.7125 139.449 24.3088C140.198 23.8827 141.015 23.6809 141.899 23.6809C142.466 23.6809 142.943 23.793 143.329 23.9949C143.714 24.1967 144.009 24.4882 144.259 24.8694C144.486 25.2507 144.644 25.6767 144.758 26.1925C144.849 26.7083 144.894 27.2465 144.894 27.852V33.7722L144.849 33.7498Z" fill="white"/>
<path d="M151.586 33.9516C150.906 33.9516 150.248 33.8171 149.658 33.5256C149.068 33.2564 148.569 32.8752 148.138 32.4043C147.707 31.9334 147.389 31.3952 147.14 30.7673C146.913 30.1394 146.777 29.489 146.777 28.8163C146.777 28.1435 146.89 27.4708 147.117 26.8429C147.344 26.215 147.662 25.6768 148.07 25.2058C148.478 24.7349 148.955 24.3761 149.499 24.107C150.066 23.8379 150.656 23.7034 151.337 23.7034C152.154 23.7034 152.857 23.9052 153.492 24.3313C154.127 24.7573 154.626 25.2507 154.989 25.8562V19.9359H156.668V31.7315C156.668 32.1128 156.85 32.337 157.213 32.337V33.7722L156.782 33.8171H156.464C156.124 33.8171 155.852 33.7274 155.602 33.5031C155.352 33.2789 155.216 33.0322 155.216 32.7407V31.9109C154.808 32.5613 154.286 33.0546 153.628 33.4134C152.97 33.7722 152.267 33.9516 151.541 33.9516M151.995 32.5164C152.29 32.5164 152.607 32.4716 152.948 32.337C153.265 32.2249 153.583 32.0679 153.855 31.8661C154.15 31.6643 154.4 31.4176 154.604 31.1485C154.808 30.8794 154.944 30.5879 155.012 30.2739V27.4259C154.899 27.112 154.717 26.8204 154.49 26.5289C154.263 26.2374 153.991 25.9907 153.719 25.7889C153.424 25.5871 153.129 25.4077 152.789 25.2955C152.471 25.1834 152.131 25.1161 151.813 25.1161C151.314 25.1161 150.86 25.2283 150.452 25.4301C150.044 25.6319 149.703 25.9234 149.409 26.2598C149.114 26.6186 148.909 26.9998 148.751 27.4483C148.592 27.8969 148.524 28.3454 148.524 28.8163C148.524 29.2872 148.614 29.7806 148.796 30.2291C148.977 30.6776 149.227 31.0588 149.522 31.3952C149.84 31.7315 150.18 31.9782 150.611 32.18C151.019 32.3819 151.473 32.4716 151.972 32.4716" fill="white"/>
<path d="M165.04 27.8295H159.391V29.3544H165.04V27.8295Z" fill="white"/>
<path d="M172.821 33.2564L172.413 33.4358C172.254 33.5031 172.05 33.5704 171.846 33.6377C171.642 33.7049 171.415 33.7722 171.165 33.8171C170.916 33.8619 170.666 33.8843 170.394 33.8843C169.781 33.8843 169.259 33.7049 168.806 33.391C168.352 33.0546 168.125 32.5388 168.125 31.8212V25.161H166.764V23.8603H168.125V20.5638H169.804V23.8603H172.05V25.161H169.804V31.3055C169.827 31.6643 169.963 31.9334 170.167 32.0903C170.394 32.2473 170.643 32.337 170.938 32.337C171.279 32.337 171.574 32.2922 171.846 32.18C172.118 32.0679 172.299 31.9782 172.413 31.9334L172.821 33.2564Z" fill="white"/>
<path d="M178.629 33.9516C177.88 33.9516 177.177 33.817 176.565 33.5255C175.952 33.2564 175.407 32.8752 174.976 32.4042C174.545 31.9333 174.182 31.3951 173.956 30.7672C173.706 30.1393 173.593 29.489 173.593 28.8162C173.593 28.1435 173.729 27.4707 173.978 26.8428C174.228 26.2149 174.568 25.6767 175.022 25.2058C175.476 24.7349 175.997 24.3536 176.61 24.0845C177.222 23.8154 177.903 23.6584 178.652 23.6584C179.4 23.6584 180.081 23.793 180.693 24.0845C181.329 24.3536 181.851 24.7349 182.304 25.2058C182.735 25.6767 183.098 26.2149 183.348 26.8428C183.597 27.4707 183.734 28.121 183.734 28.8162C183.734 29.5114 183.62 30.1393 183.371 30.7672C183.121 31.3951 182.781 31.9333 182.327 32.4042C181.873 32.8752 181.351 33.2564 180.716 33.5255C180.104 33.7946 179.4 33.9516 178.652 33.9516M175.317 28.8386C175.317 29.3544 175.407 29.8478 175.566 30.2739C175.748 30.7224 175.975 31.1036 176.27 31.44C176.564 31.7763 176.927 32.023 177.336 32.2248C177.744 32.4042 178.175 32.5164 178.629 32.5164C179.083 32.5164 179.514 32.4267 179.922 32.2248C180.33 32.0454 180.671 31.7763 180.988 31.44C181.283 31.1036 181.533 30.7224 181.714 30.2739C181.896 29.8253 181.964 29.332 181.964 28.8162C181.964 28.3004 181.873 27.8295 181.714 27.381C181.533 26.9325 181.306 26.5289 180.988 26.2149C180.671 25.8785 180.33 25.6094 179.922 25.43C179.514 25.2506 179.083 25.1385 178.629 25.1385C178.175 25.1385 177.744 25.2282 177.336 25.43C176.927 25.6319 176.587 25.901 176.27 26.2373C175.975 26.5737 175.725 26.9549 175.566 27.4034C175.385 27.8519 175.317 28.3453 175.317 28.8611" fill="white"/>
<path d="M191.266 27.8295H185.617V29.3544H191.266V27.8295Z" fill="white"/>
<path d="M203.358 32.2472V33.7497H194.124V20.2946H203.199V21.8196H195.848V26.17H202.246V27.6052H195.848V32.2472H203.358Z" fill="white"/>
<path d="M214.043 33.7498H212.364V28.2108C212.364 27.1568 212.206 26.3719 211.865 25.901C211.548 25.4301 211.049 25.1834 210.368 25.1834C210.028 25.1834 209.687 25.2507 209.324 25.3852C208.984 25.5198 208.644 25.6992 208.349 25.9234C208.031 26.1477 207.782 26.4168 207.555 26.7307C207.328 27.0447 207.146 27.4035 207.033 27.7623V33.7274H205.354V23.8379H206.897V25.9683C207.305 25.2731 207.872 24.7125 208.621 24.3088C209.37 23.8827 210.186 23.6809 211.071 23.6809C211.638 23.6809 212.115 23.793 212.5 23.9949C212.886 24.1967 213.181 24.4882 213.431 24.8694C213.657 25.2507 213.816 25.6767 213.93 26.1925C214.02 26.7083 214.066 27.2465 214.066 27.852V33.7722L214.043 33.7498Z" fill="white"/>
<path d="M220.804 33.9516C220.123 33.9516 219.465 33.8171 218.875 33.5256C218.285 33.234 217.786 32.8752 217.355 32.4043C216.947 31.9334 216.607 31.3952 216.38 30.7673C216.153 30.1394 216.017 29.489 216.017 28.8163C216.017 28.1435 216.13 27.4708 216.357 26.8429C216.584 26.215 216.902 25.6768 217.31 25.2058C217.718 24.7349 218.195 24.3761 218.739 24.107C219.306 23.8379 219.896 23.7034 220.577 23.7034C221.371 23.7034 222.097 23.9052 222.732 24.3313C223.367 24.7573 223.866 25.2507 224.229 25.8562V19.9359H225.908V31.7315C225.908 32.1128 226.09 32.337 226.453 32.337V33.7722L226.022 33.8171H225.704C225.364 33.8171 225.091 33.7274 224.842 33.5031C224.592 33.2789 224.479 33.0322 224.479 32.7407V31.9109C224.071 32.5613 223.549 33.0546 222.891 33.4134C222.233 33.7722 221.53 33.9516 220.804 33.9516ZM221.212 32.5164C221.507 32.5164 221.825 32.4716 222.165 32.337C222.482 32.2249 222.8 32.0679 223.095 31.8661C223.39 31.6643 223.639 31.4176 223.844 31.1485C224.048 30.8794 224.184 30.5879 224.252 30.2739V27.4259C224.139 27.112 223.957 26.8204 223.73 26.5289C223.503 26.2374 223.254 25.9907 222.959 25.7889C222.664 25.5871 222.369 25.4077 222.029 25.2955C221.711 25.1834 221.371 25.1161 221.053 25.1161C220.554 25.1161 220.1 25.2283 219.692 25.4301C219.284 25.6319 218.943 25.9234 218.648 26.2598C218.353 26.6186 218.149 26.9998 217.99 27.4483C217.832 27.8969 217.764 28.3454 217.764 28.8163C217.764 29.2872 217.854 29.7806 218.036 30.2291C218.217 30.6776 218.467 31.0588 218.762 31.3952C219.079 31.7315 219.42 31.9782 219.851 32.18C220.259 32.3819 220.713 32.4716 221.212 32.4716" fill="white"/>
<path d="M243.105 32.2472V33.7497H233.849V20.2946H242.923V21.8196H235.596V26.17H241.971V27.6052H235.596V32.2472H243.105Z" fill="white"/>
<path d="M260.188 33.7498H258.509V28.2108C258.509 27.1792 258.35 26.4168 258.01 25.9234C257.67 25.4301 257.171 25.1834 256.513 25.1834C255.855 25.1834 255.197 25.4301 254.652 25.9234C254.108 26.4168 253.722 27.0447 253.495 27.8071V33.7498H251.817V28.2108C251.817 27.1568 251.658 26.3719 251.317 25.901C250.977 25.4301 250.478 25.1834 249.82 25.1834C249.162 25.1834 248.527 25.4301 247.982 25.901C247.438 26.3719 247.03 26.9998 246.803 27.7847V33.7498H245.124V23.8603H246.667V25.9907C247.075 25.2507 247.597 24.69 248.255 24.2864C248.913 23.8827 249.639 23.6809 250.455 23.6809C251.272 23.6809 251.975 23.9052 252.452 24.3537C252.951 24.8022 253.246 25.3852 253.359 26.0804C254.267 24.4658 255.537 23.6809 257.171 23.6809C257.738 23.6809 258.237 23.793 258.623 23.9949C259.008 24.1967 259.326 24.4882 259.553 24.8694C259.78 25.2507 259.961 25.6767 260.052 26.1925C260.143 26.7083 260.211 27.2465 260.211 27.852V33.7722L260.188 33.7498Z" fill="white"/>
<path d="M265.383 33.9516C264.907 33.9516 264.476 33.8619 264.067 33.7049C263.659 33.5479 263.296 33.3236 263.001 33.0545C262.706 32.7854 262.457 32.4491 262.298 32.0903C262.116 31.709 262.048 31.3054 262.048 30.8793C262.048 30.4532 262.139 30.0047 262.366 29.6459C262.57 29.2647 262.865 28.9508 263.228 28.6817C263.591 28.4126 264.045 28.2107 264.566 28.0538C265.088 27.8968 265.655 27.8295 266.268 27.8295C266.744 27.8295 267.243 27.8744 267.743 27.9641C268.242 28.0538 268.673 28.1659 269.058 28.3229V27.538C269.058 26.7307 268.832 26.1028 268.378 25.6318C267.924 25.1609 267.266 24.9367 266.427 24.9367C265.429 24.9367 264.362 25.3179 263.251 26.1028L262.706 25.0264C263.999 24.1742 265.292 23.7257 266.608 23.7257C267.924 23.7257 268.945 24.0845 269.694 24.7797C270.42 25.4749 270.805 26.4616 270.805 27.7174V31.7539C270.805 32.1351 270.987 32.3369 271.35 32.3594V33.7946L270.919 33.8619H270.556C270.215 33.8619 269.966 33.7722 269.762 33.5927C269.558 33.3909 269.444 33.1667 269.399 32.8751L269.353 32.18C268.9 32.7854 268.332 33.2339 267.652 33.5255C266.971 33.8394 266.245 33.9964 265.451 33.9964M265.837 32.6957C266.427 32.6957 266.994 32.5836 267.516 32.3594C268.038 32.1351 268.423 31.8436 268.695 31.4848C268.945 31.2381 269.058 30.9914 269.058 30.7448V29.2871C268.242 28.9732 267.38 28.8162 266.518 28.8162C265.655 28.8162 264.975 28.9956 264.453 29.3544C263.931 29.7132 263.659 30.1617 263.659 30.7448C263.659 31.0139 263.704 31.283 263.818 31.5296C263.931 31.7763 264.09 31.9781 264.272 32.1575C264.476 32.3369 264.703 32.4715 264.975 32.5836C265.247 32.6957 265.519 32.7406 265.837 32.7406" fill="white"/>
<path d="M275.116 23.8603H273.437V33.7498H275.116V23.8603Z" fill="white"/>
<path d="M277.884 19.9135H279.562V31.1933C279.562 31.5521 279.653 31.8436 279.857 32.0679C280.062 32.2697 280.334 32.3818 280.697 32.3818L281.196 32.3145L281.74 32.1576L282.013 33.5031C281.74 33.6152 281.4 33.7049 281.014 33.7946C280.629 33.8619 280.288 33.9067 279.994 33.9067C279.336 33.9067 278.837 33.7273 278.451 33.3685C278.065 33.0097 277.884 32.4939 277.884 31.8436V19.9583V19.9135Z" fill="white"/>
<path d="M295.874 23.1203C295.715 22.9409 295.511 22.7839 295.262 22.6045C295.012 22.4475 294.717 22.2905 294.4 22.156C294.082 22.0214 293.719 21.9093 293.356 21.842C292.97 21.7523 292.585 21.7075 292.176 21.7075C291.11 21.7075 290.339 21.9093 289.84 22.2905C289.34 22.6718 289.114 23.21 289.114 23.9051C289.114 24.2639 289.182 24.5779 289.318 24.8246C289.454 25.0712 289.681 25.2731 289.976 25.43C290.271 25.6094 290.656 25.744 291.087 25.8785C291.541 26.0131 292.063 26.1476 292.675 26.2822C293.379 26.4392 294.014 26.5961 294.581 26.798C295.148 26.9998 295.625 27.2465 296.033 27.538C296.441 27.8295 296.736 28.1883 296.963 28.592C297.167 29.0181 297.281 29.5114 297.281 30.1169C297.281 30.7672 297.145 31.3278 296.895 31.7988C296.646 32.2697 296.283 32.6733 295.852 32.9649C295.421 33.2788 294.899 33.5031 294.286 33.6376C293.696 33.7946 293.038 33.8619 292.335 33.8619C291.292 33.8619 290.293 33.7049 289.363 33.3909C288.433 33.077 287.571 32.6061 286.8 31.9782L287.616 30.543C287.82 30.7672 288.093 30.969 288.41 31.1933C288.728 31.4175 289.114 31.5969 289.522 31.7763C289.93 31.9557 290.384 32.0903 290.861 32.2024C291.337 32.3145 291.836 32.3594 292.358 32.3594C293.333 32.3594 294.082 32.18 294.626 31.8436C295.171 31.5072 295.421 30.9915 295.421 30.3187C295.421 29.9375 295.33 29.6235 295.171 29.3544C294.989 29.1078 294.74 28.8611 294.422 28.6817C294.082 28.4799 293.674 28.3229 293.197 28.1883C292.698 28.0313 292.154 27.8968 291.518 27.7398C290.838 27.5828 290.225 27.4034 289.703 27.2016C289.182 27.0222 288.751 26.7755 288.388 26.5289C288.047 26.2598 287.775 25.9458 287.594 25.5646C287.412 25.1834 287.321 24.7349 287.321 24.1967C287.321 23.5463 287.435 22.9857 287.684 22.4924C287.934 21.999 288.274 21.5729 288.705 21.2365C289.136 20.9002 289.658 20.6311 290.248 20.4741C290.838 20.2947 291.496 20.2274 292.199 20.2274C293.129 20.2274 293.946 20.362 294.695 20.6535C295.443 20.945 296.101 21.3038 296.668 21.7747L295.874 23.1651V23.1203Z" fill="white"/>
<path d="M303.724 33.9516C302.975 33.9516 302.272 33.817 301.659 33.5479C301.024 33.2788 300.502 32.8976 300.048 32.4491C299.595 31.9781 299.254 31.4399 299.005 30.812C298.755 30.1841 298.619 29.5338 298.619 28.8386C298.619 28.1435 298.755 27.4931 299.005 26.8652C299.254 26.2373 299.595 25.6991 300.048 25.2282C300.502 24.7573 301.046 24.3985 301.659 24.1294C302.294 23.8603 302.975 23.7257 303.724 23.7257C304.472 23.7257 305.175 23.8603 305.788 24.1518C306.401 24.4209 306.945 24.8021 307.376 25.2506C307.807 25.7215 308.147 26.2597 308.374 26.8652C308.601 27.4707 308.737 28.121 308.737 28.7714V29.1526L308.692 29.4217H300.389C300.434 29.915 300.547 30.3635 300.729 30.7672C300.91 31.1708 301.16 31.5296 301.478 31.7987C301.772 32.0903 302.135 32.3145 302.521 32.4715C302.907 32.6285 303.315 32.7182 303.746 32.7182C304.041 32.7182 304.359 32.6733 304.654 32.606C304.949 32.5163 305.221 32.4042 305.47 32.2697C305.72 32.1351 305.947 31.9557 306.151 31.7539C306.355 31.5521 306.491 31.3278 306.605 31.0811L308.057 31.4848C307.898 31.8436 307.671 32.18 307.376 32.4939C307.081 32.8079 306.764 33.0545 306.378 33.2788C305.992 33.5031 305.584 33.6825 305.13 33.7946C304.676 33.9291 304.2 33.974 303.701 33.974M307.149 28.1435C307.104 27.6725 306.99 27.2464 306.786 26.8428C306.582 26.4391 306.332 26.1028 306.038 25.8337C305.743 25.5646 305.38 25.3403 304.994 25.1833C304.586 25.0264 304.177 24.9367 303.724 24.9367C303.27 24.9367 302.861 25.0039 302.453 25.1833C302.045 25.3403 301.704 25.5646 301.409 25.8561C301.115 26.1476 300.865 26.484 300.683 26.8652C300.502 27.2464 300.389 27.695 300.343 28.1435H307.127H307.149Z" fill="white"/>
<path d="M309.963 28.7938C309.963 28.0987 310.076 27.4483 310.326 26.8204C310.575 26.1925 310.915 25.6543 311.369 25.2058C311.823 24.7573 312.345 24.3761 312.98 24.107C313.593 23.8379 314.296 23.7033 315.067 23.7033C316.065 23.7033 316.927 23.9276 317.653 24.3537C318.379 24.7797 318.924 25.3852 319.287 26.1028L317.631 26.6186C317.381 26.1477 317.018 25.7889 316.564 25.5198C316.111 25.2507 315.589 25.1385 315.022 25.1385C314.568 25.1385 314.137 25.2282 313.729 25.4076C313.32 25.587 312.957 25.8561 312.685 26.1701C312.39 26.5065 312.163 26.8877 311.982 27.3362C311.8 27.7847 311.732 28.2556 311.732 28.7938C311.732 29.332 311.823 29.803 312.004 30.2515C312.186 30.7 312.413 31.1036 312.73 31.44C313.025 31.7764 313.388 32.0455 313.774 32.2249C314.182 32.4267 314.613 32.5164 315.067 32.5164C315.362 32.5164 315.657 32.4716 315.929 32.4043C316.224 32.3146 316.474 32.2025 316.723 32.0679C316.95 31.9334 317.177 31.7764 317.336 31.5745C317.517 31.3951 317.631 31.1933 317.722 30.9691L319.378 31.4624C319.219 31.8212 319.015 32.1576 318.742 32.4716C318.47 32.7855 318.153 33.0322 317.767 33.2564C317.404 33.4583 316.973 33.6377 316.542 33.7722C316.088 33.9068 315.612 33.9516 315.113 33.9516C314.364 33.9516 313.661 33.8171 313.048 33.5255C312.413 33.2564 311.891 32.8752 311.437 32.4043C310.984 31.9334 310.643 31.3951 310.394 30.7672C310.144 30.1393 310.031 29.489 310.031 28.7938" fill="white"/>
<path d="M324.324 33.9516C323.28 33.9516 322.486 33.6152 321.941 32.9201C321.397 32.2249 321.147 31.1933 321.147 29.803V23.8603H322.826V29.4666C322.826 31.4849 323.529 32.494 324.959 32.494C325.639 32.494 326.297 32.2697 326.91 31.8437C327.522 31.4176 327.976 30.8121 328.271 30.0496V23.8603H329.972V31.7091C329.972 32.0903 330.154 32.3146 330.517 32.3146V33.7498L330.063 33.7946H329.746C329.405 33.7946 329.133 33.7049 328.906 33.5031C328.679 33.3013 328.566 33.0546 328.543 32.7631L328.498 31.6194C328.044 32.3594 327.454 32.9425 326.728 33.3237C326.002 33.7274 325.208 33.9292 324.324 33.9292" fill="white"/>
<path d="M338.071 25.318C337.232 25.3404 336.483 25.5646 335.825 25.9683C335.168 26.3719 334.714 26.9326 334.464 27.6502V33.7498H332.785V23.8603H334.351V26.1477C334.691 25.4749 335.145 24.9143 335.712 24.4882C336.279 24.0622 336.869 23.8379 337.504 23.7706H338.071V25.2955V25.318Z" fill="white"/>
<path d="M341.407 23.8603H339.728V33.7498H341.407V23.8603Z" fill="white"/>
<path d="M349.324 33.2564L348.916 33.4358C348.757 33.5031 348.553 33.5704 348.349 33.6377C348.145 33.7049 347.918 33.7722 347.668 33.8171C347.419 33.8619 347.169 33.8843 346.897 33.8843C346.284 33.8843 345.763 33.7049 345.309 33.391C344.855 33.0546 344.628 32.5388 344.628 31.8212V25.161H343.267V23.8603H344.628V20.5638H346.307V23.8603H348.553V25.161H346.307V31.3055C346.33 31.6643 346.466 31.9334 346.67 32.0903C346.897 32.2473 347.146 32.337 347.441 32.337C347.782 32.337 348.077 32.2922 348.349 32.18C348.621 32.0679 348.803 31.9782 348.916 31.9334L349.324 33.2564Z" fill="white"/>
<path d="M351.366 36.4408L351.865 36.5081H352.25L352.659 36.4184C352.772 36.3511 352.908 36.2165 353.022 36.0147C353.135 35.8129 353.271 35.5214 353.43 35.1626C353.589 34.8038 353.77 34.3328 353.997 33.7498L349.755 23.8603H351.502L354.927 32.2473L358.036 23.8603H359.646L354.769 36.3511C354.587 36.7996 354.292 37.1808 353.884 37.5172C353.476 37.8536 352.908 38.0106 352.16 38.0106H351.797L351.343 37.9209V36.4408H351.366Z" fill="white"/>
</svg>
