<?xml version="1.0" encoding="UTF-8"?>
<svg width="30px" height="24px" viewBox="0 0 30 24" version="1.1" xmlns="http://www.w3.org/2000/svg" xmlns:xlink="http://www.w3.org/1999/xlink">
    <!-- Generator: Sketch 52.6 (67491) - http://www.bohemiancoding.com/sketch -->
    <title>black-back-closed-envelope-shape</title>
    <desc>Created with Sketch.</desc>
    <g id="Support" stroke="none" stroke-width="1" fill="none" fill-rule="evenodd">
        <g id="support" transform="translate(-180.000000, -629.000000)" fill="#0DC47C">
            <g id="content" transform="translate(0.000000, 300.000000)">
                <g id="black-back-closed-envelope-shape" transform="translate(180.000000, 329.000000)">
                    <path d="M27.3110526,23.9879169 C27.9851543,23.9879169 28.5692559,23.7613303 29.0658076,23.3139215 L20.5694918,14.6642217 C20.3656443,14.8128222 20.1680581,14.957321 19.9814156,15.0947252 C19.3455898,15.5716212 18.8295463,15.9437598 18.4332849,16.2104203 C18.037078,16.4776905 17.5099274,16.7501155 16.8518875,17.0282494 C16.193412,17.3067159 15.5799637,17.4455058 15.0108893,17.4455058 L14.9942287,17.4455058 L14.9775681,17.4455058 C14.4084392,17.4455058 13.7949909,17.3067714 13.1365699,17.0282494 C12.4781488,16.7501155 11.9509982,16.4776905 11.5551724,16.2104203 C11.1589655,15.9437598 10.6431942,15.5716767 10.0070417,15.0947252 C9.82976407,14.9624203 9.63315789,14.8172564 9.42059891,14.6618938 L0.922649728,23.3139215 C1.41914701,23.7613303 2.00362976,23.9879169 2.67767695,23.9879169 L27.3110526,23.9879169 Z" id="Path"></path>
                    <path d="M1.69039927,9.21749654 C1.05462795,8.78599538 0.490834846,8.291806 0,7.73515012 L0,20.8949654 L7.48862069,13.2714457 C5.99047187,12.2066882 4.06018149,10.8569238 1.69039927,9.21749654 Z" id="Path"></path>
                    <path d="M28.3153721,9.21749654 C26.035971,10.7880831 24.098657,12.1401755 22.5032123,13.2744942 L29.9888385,20.8952979 L29.9888385,7.73515012 C29.5088929,8.2806097 28.9511434,8.77446651 28.3153721,9.21749654 Z" id="Path"></path>
                    <path d="M27.3110526,0.000720554272 L2.6777314,0.000720554272 C1.81834846,0.000720554272 1.15764065,0.296147806 0.694791289,0.88639261 C0.231560799,1.47691455 0.000326678766,2.21542725 0.000326678766,3.10109931 C0.000326678766,3.81649885 0.307186933,4.59164896 0.920635209,5.42677136 C1.53408348,6.2615612 2.18684211,6.91726559 2.87858439,7.39421709 C3.25780399,7.6669746 4.40139746,8.47632333 6.30936479,9.82198614 C7.33932849,10.548582 8.23502722,11.1818938 9.00473684,11.7284065 C9.6608167,12.1937737 10.2266243,12.5967852 10.693775,12.9312333 C10.7474047,12.9695335 10.8317423,13.0309469 10.9436842,13.1124249 C11.0642831,13.2006097 11.2168966,13.3125173 11.4051724,13.4509192 C11.7677314,13.7178568 12.0689292,13.9336351 12.3088203,14.0984758 C12.5483848,14.2633718 12.8386388,14.4475566 13.179147,14.6520831 C13.5193829,14.8563326 13.8402904,15.0099215 14.1414882,15.1120739 C14.4427405,15.2141709 14.7216152,15.2653857 14.978167,15.2653857 L14.9948276,15.2653857 L15.0114882,15.2653857 C15.2679855,15.2653857 15.5469147,15.2141709 15.8482214,15.1120739 C16.1493648,15.0099215 16.47,14.8566651 16.8105082,14.6520831 C17.1506897,14.4475566 17.4405626,14.2629838 17.6808893,14.0984758 C17.9207804,13.9336351 18.2219782,13.7179122 18.5845917,13.4509192 C18.7724864,13.3125173 18.9250998,13.2005543 19.0456987,13.1127021 C19.1576951,13.0308915 19.2419782,12.9698661 19.2959347,12.9312333 C19.6598548,12.6734411 20.2269691,12.2720924 20.9894374,11.7331178 C22.3768421,10.7517783 24.4201089,9.30739954 27.1278403,7.39421709 C27.942196,6.81516859 28.622559,6.11639723 29.1693648,5.29890069 C29.7151906,4.48140416 29.9888385,3.62388915 29.9888385,2.72663279 C29.9888385,1.97697921 29.7235209,1.33551963 29.194029,0.801256351 C28.6639383,0.267658199 28.036225,0.000720554272 27.3110526,0.000720554272 Z" id="Path"></path>
                </g>
            </g>
        </g>
    </g>
</svg>