<?xml version="1.0" encoding="UTF-8"?>
<svg width="48px" height="60px" viewBox="0 0 48 60" version="1.1" xmlns="http://www.w3.org/2000/svg" xmlns:xlink="http://www.w3.org/1999/xlink">
    <!-- Generator: Sketch 52.6 (67491) - http://www.bohemiancoding.com/sketch -->
    <title>pass_management</title>
    <desc>Created with Sketch.</desc>
    <g id="homepage" stroke="none" stroke-width="1" fill="none" fill-rule="evenodd">
        <g transform="translate(-246.000000, -1782.000000)" fill="#0DC47C" id="Applications">
            <g transform="translate(135.000000, 1376.000000)">
                <g id="fingerprint" transform="translate(111.000000, 406.000000)">
                    <g id="fingerprint-with-password-entry">
                        <path d="M4.36538462,16.8255769 C4.76615385,16.9136538 5.13826923,16.9067308 6.28115385,16.0288462 C6.78846154,15.6392308 7.53884615,14.9821154 8.23153846,14.0663462 L8.535,13.6632692 C11.1296154,10.2125 17.2038462,2.13346154 25.9775,2.57153846 C33.2119231,3.09942308 38.3426923,8.56326923 40.8092308,18.3740385 C40.8934615,18.7071154 40.9440385,18.9125 41.0007692,19.0686538 C41.0459615,19.2648077 41.0975,19.4665385 41.1513462,19.6705769 L43.8155769,19.6705769 C43.6878846,19.2601923 43.5653846,18.8159615 43.4661538,18.3901923 C43.4496154,18.3180769 43.4259615,18.2480769 43.3971154,18.1792308 C43.3734615,18.095 43.3273077,17.9130769 43.2865385,17.7501923 C42.8955769,16.1955769 41.8559615,12.0648077 39.3373077,8.18 C36.0836538,3.16480769 31.6467308,0.419807692 26.1475,0.0244230769 C26.1388462,0.0230769231 26.1309615,0.0230769231 26.1211538,0.0217307692 C15.9851923,-0.495769231 9.33346154,8.35173077 6.49326923,12.1296154 L6.19480769,12.5257692 C5.41730769,13.5534615 4.49846154,14.1936538 4.18192308,14.3790385 C4.07538462,14.4215385 3.97173077,14.4788462 3.87519231,14.5517308 C3.47769231,14.8526923 3.28346154,15.3663462 3.39038462,15.8534615 C3.49788462,16.3388462 3.87865385,16.7188462 4.36538462,16.8255769 Z" id="Path"></path>
                        <path d="M17.9882692,34.6882692 C14.4603846,36.8192308 10.0017308,39.3634615 6.48807692,40.8651923 C5.83923077,41.1428846 5.53846154,41.8925 5.81538462,42.5415385 C6.02307692,43.0276923 6.49461538,43.3167308 6.99076923,43.3167308 C7.15865385,43.3167308 7.32903846,43.2836538 7.49288462,43.2153846 C12.4978846,41.0738462 19.2753846,36.945 22.8494231,34.6882692 L17.9882692,34.6882692 Z" id="Path"></path>
                        <path d="M36.9432692,19.6711538 C37.2513462,17.9509615 37.0840385,16.2809615 36.4226923,14.8986538 C35.6,13.1771154 34.0638462,11.9309615 31.9830769,11.2923077 C28.9280769,10.3575 25.2261538,12.0544231 21.8326923,15.9405769 C21.8076923,15.9682692 20.2038462,17.6546154 17.8857692,19.6707692 L21.6925,19.6707692 C22.9546154,18.4759615 23.7328846,17.6476923 23.75,17.6296154 C25.8105769,15.2698077 28.8576923,13.0075 31.2346154,13.7353846 C32.6338462,14.1644231 33.6051923,14.9265385 34.1192308,16.0015385 C34.6040385,17.015 34.67,18.3132692 34.3376923,19.6709615 L36.9432692,19.6709615 L36.9432692,19.6711538 Z" id="Path"></path>
                        <path d="M20.2040385,11.4711538 C20.3038462,11.3869231 20.4048077,11.3038462 20.5065385,11.2209615 C20.5328846,11.2003846 20.7309615,11.0432692 20.7815385,11.0028846 C21.6709615,10.3219231 22.6194231,9.71557692 23.6167308,9.20365385 C24.5578846,8.71884615 25.5034615,8.38057692 26.6498077,8.14153846 C27.0296154,8.06288462 27.1123077,8.05461538 27.3967308,8.02557692 C28.0892308,7.95346154 28.6748077,7.49769231 28.6748077,6.74788462 C28.6748077,6.10557692 28.0917308,5.39865385 27.3967308,5.47076923 C22.7794231,5.94846154 18.8305769,8.83596154 15.7863462,12.1873077 C15.2069231,12.8271154 14.6867308,13.5130769 14.1259615,14.1673077 C13.3921154,15.0251923 12.5901923,15.8269231 11.7525,16.5825 C10.8913462,17.3603846 10.1944231,17.9167308 9.17903846,18.5005769 C8.48403846,18.8994231 7.77788462,19.2915385 7.06692308,19.6717308 L12.0015385,19.6717308 C13.7809615,18.3173077 15.3125,16.7375 16.7207692,15.0082692 C17.2930769,14.3067308 17.9040385,13.6367308 18.5430769,12.9961538 C18.8911538,12.6457692 19.2519231,12.3080769 19.6203846,11.9757692 C19.8117308,11.8042308 20.0065385,11.6371154 20.2040385,11.4711538 Z" id="Path"></path>
                        <path d="M5.84442308,36.6480769 C6.64634615,36.3728846 8.41211538,35.7294231 10.7032692,34.6882692 L4.35307692,34.6882692 C4.09269231,35.0278846 4.00596154,35.4871154 4.16903846,35.9155769 C4.3625,36.4269231 4.84826923,36.7401923 5.36442308,36.7401923 C5.50865385,36.7401923 5.65634615,36.7165385 5.79980769,36.6651923 L5.84442308,36.6480769 Z" id="Path"></path>
                        <path d="M28.7682692,17.7075 C28.2846154,18.3855769 27.7751923,19.0398077 27.2467308,19.6711538 L30.4905769,19.6711538 C30.6103846,19.5109615 30.7307692,19.3540385 30.8478846,19.1907692 C31.2573077,18.6151923 31.1244231,17.8192308 30.5503846,17.4082692 C29.9765385,16.9992308 29.1776923,17.1319231 28.7682692,17.7075 Z" id="Path"></path>
                        <path d="M40.6055769,44.2525 C38.8351923,43.6628846 36.6680769,42.1201923 34.5734615,40.6275 C31.5388462,38.465 28.9196154,36.6 26.7840385,36.9671154 C25.1801923,37.2448077 22.3778846,39.035 17.9532692,41.9509615 C14.7642308,44.0530769 11.1488462,46.4367308 9.57653846,46.8590385 C8.89519231,47.0432692 8.49173077,47.7448077 8.675,48.4255769 C8.82865385,48.9967308 9.34403846,49.3719231 9.90826923,49.3719231 C10.0178846,49.3719231 10.1296154,49.3575 10.2401923,49.3271154 C12.2115385,48.7953846 15.6842308,46.5065385 19.3603846,44.0846154 C22.3294231,42.1267308 26.0246154,39.6911538 27.2190385,39.4851923 C28.3030769,39.2996154 30.9584615,41.1876923 33.0919231,42.7078846 C35.34,44.3084615 37.6644231,45.9644231 39.7980769,46.6771154 C40.4673077,46.8994231 41.19,46.5375 41.4136538,45.8688462 C41.6355769,45.1996154 41.2742308,44.4761538 40.6055769,44.2525 Z" id="Path"></path>
                        <path d="M37.4073077,50.5117308 C36.3786538,50.1392308 34.7036538,49.1048077 33.0848077,48.105 C29.6659615,45.9919231 27.4921154,44.7105769 25.9332692,44.9782692 C24.3530769,45.2521154 21.0355769,47.5067308 15.4680769,51.5725 C14.7859615,52.07 14.1976923,52.4990385 13.7892308,52.7886538 C13.2136538,53.1959615 13.0761538,53.9930769 13.4825,54.5688462 C13.7326923,54.9209615 14.1269231,55.1098077 14.5273077,55.1098077 C14.7821154,55.1098077 15.0394231,55.0334615 15.2630769,54.8753846 C15.6875,54.5751923 16.2834615,54.1390385 16.9740385,53.6369231 C19.1898077,52.0180769 25.0771154,47.7203846 26.3544231,47.4994231 C27.1513462,47.4455769 30.0251923,49.2182692 31.7430769,50.2778846 C33.5521154,51.3953846 35.2613462,52.4523077 36.5392308,52.9142308 C37.2019231,53.1544231 37.9351923,52.8103846 38.1753846,52.1463462 C38.4148077,51.4830769 38.0713462,50.7513462 37.4073077,50.5117308 Z" id="Path"></path>
                        <path d="M33.0934615,56.8619231 C32.3753846,56.3940385 31.7167308,55.9221154 31.0769231,55.4675 C28.9828846,53.9701923 27.1717308,52.6776923 25.1869231,53.0246154 C22.9523077,53.4096154 19.3926923,56.9888462 18.7011538,57.7015385 C18.2105769,58.2084615 18.2240385,59.0178846 18.7307692,59.5094231 C18.9788462,59.7475 19.2986538,59.8680769 19.6182692,59.8680769 C19.9525,59.8680769 20.2861538,59.7382692 20.5363462,59.4792308 C22.2480769,57.7126923 24.6780769,55.7036538 25.6211538,55.5403846 C26.5530769,55.3805769 27.9634615,56.3842308 29.5934615,57.5471154 C30.2219231,57.9959615 30.9332692,58.5040385 31.6953846,59.0015385 C32.2871154,59.3865385 33.0794231,59.2205769 33.4644231,58.6296154 C33.8488462,58.0386538 33.6828846,57.2480769 33.0934615,56.8619231 Z" id="Path"></path>
                        <path d="M41.8542308,37.1588462 C40.8946154,36.8626923 40.1669231,36.4890385 39.1519231,35.8880769 C38.5603846,35.5394231 37.9909615,35.1346154 37.4553846,34.6884615 L33.9607692,34.6884615 C35.7626923,37.0180769 38.3726923,38.7594231 41.175,39.6223077 C42.7544231,40.1082692 43.4244231,37.6430769 41.8542308,37.1588462 Z" id="Path"></path>
                        <path d="M0.110384615,20.3965385 L0.110384615,32.7178846 L47.0655769,32.7178846 L47.0655769,20.3965385 L0.110384615,20.3965385 Z M45.0440385,30.6961538 L2.13192308,30.6961538 L2.13192308,22.4180769 L45.0440385,22.4180769 L45.0440385,30.6961538 Z" id="Shape" fill-rule="nonzero"></path>
                        <polygon id="Path" points="8.45980769 28.5451923 9.77134615 29.3726923 10.5557692 27.6698077 11.2767308 29.3507692 12.6959615 28.5398077 11.5630769 27.1232692 13.3151923 27.3328846 13.3151923 25.7665385 11.5488462 26.0005769 12.6759615 24.5175 11.305 23.7409615 10.5759615 25.4165385 9.83519231 23.755 8.45326923 24.5476923 9.56307692 25.9890385 7.85519231 25.7678846 7.85519231 27.3355769 9.57326923 27.1144231"></polygon>
                        <polygon id="Path" points="17.1276923 28.5451923 18.4390385 29.3726923 19.2240385 27.6698077 19.9444231 29.3507692 21.3638462 28.5398077 20.2317308 27.1232692 21.9838462 27.3328846 21.9838462 25.7665385 20.2175 26.0005769 21.3442308 24.5175 19.9736538 23.7409615 19.2444231 25.4165385 18.5030769 23.755 17.1207692 24.5476923 18.2305769 25.9890385 16.5238462 25.7678846 16.5238462 27.3355769 18.2409615 27.1144231"></polygon>
                        <polygon id="Path" points="25.795 28.5451923 27.1071154 29.3726923 27.8930769 27.6698077 28.6128846 29.3507692 30.0332692 28.5398077 28.8992308 27.1232692 30.6519231 27.3328846 30.6519231 25.7665385 28.8840385 26.0005769 30.0119231 24.5175 28.6413462 23.7409615 27.9121154 25.4165385 27.1703846 23.755 25.7896154 24.5476923 26.8986538 25.9890385 25.1915385 25.7678846 25.1915385 27.3355769 26.9098077 27.1144231"></polygon>
                        <polygon id="Path" points="34.4648077 28.5451923 35.7751923 29.3726923 36.5601923 27.6698077 37.2801923 29.3507692 38.7003846 28.5398077 37.5678846 27.1232692 39.3203846 27.3328846 39.3203846 25.7665385 37.5540385 26.0005769 38.6807692 24.5175 37.3092308 23.7409615 36.58 25.4165385 35.8401923 23.755 34.4576923 24.5476923 35.5665385 25.9890385 33.86 25.7678846 33.86 27.3355769 35.5776923 27.1144231"></polygon>
                    </g>
                </g>
            </g>
        </g>
    </g>
</svg>