<svg width="24" height="24" viewBox="0 0 24 24" fill="none" xmlns="http://www.w3.org/2000/svg">
<path d="M15.8506 0H3.41264C3.06636 0 2.78564 0.280714 2.78564 0.825429V23.5714C2.78564 23.7193 3.06636 24 3.41264 24H20.5872C20.9335 24 21.2142 23.7193 21.2142 23.5714V5.562C21.2142 5.26371 21.1744 5.16771 21.1041 5.097L16.1172 0.110143C16.0465 0.0398571 15.9505 0 15.8506 0Z" fill="#E9E9E0"/>
<path d="M8.36303 14.2817C8.21389 14.2817 8.07075 14.2333 7.9486 14.142C7.50246 13.8073 7.44246 13.4349 7.47075 13.1811C7.54875 12.4834 8.41146 11.7531 10.0357 11.0091C10.6803 9.59657 11.2936 7.85614 11.6592 6.402C11.2315 5.47114 10.8157 4.26343 11.1187 3.555C11.225 3.30686 11.3575 3.11657 11.6047 3.03429C11.7025 3.00171 11.9493 2.96057 12.0402 2.96057C12.2562 2.96057 12.446 3.23871 12.5806 3.41014C12.707 3.57129 12.9937 3.91286 12.4207 6.32529C12.9985 7.51843 13.817 8.73386 14.6013 9.56614C15.1632 9.46457 15.6466 9.41271 16.0405 9.41271C16.7116 9.41271 17.1183 9.56914 17.2842 9.89143C17.4213 10.158 17.3652 10.4696 17.117 10.8171C16.8783 11.151 16.5492 11.3276 16.1656 11.3276C15.6445 11.3276 15.0376 10.9984 14.3609 10.3483C13.145 10.6024 11.7252 11.0559 10.5775 11.5577C10.2192 12.318 9.87589 12.9304 9.55617 13.3796C9.11689 13.9946 8.73803 14.2817 8.36303 14.2817ZM9.50389 12.0849C8.58803 12.5996 8.21475 13.0226 8.18775 13.2609C8.18346 13.3003 8.17189 13.404 8.37246 13.5574C8.43632 13.5373 8.80917 13.3671 9.50389 12.0849ZM15.3483 10.1811C15.6976 10.4499 15.7829 10.5857 16.0113 10.5857C16.1116 10.5857 16.3975 10.5814 16.5299 10.3967C16.5937 10.3071 16.6186 10.2497 16.6285 10.2189C16.5757 10.191 16.5059 10.1344 16.1249 10.1344C15.9085 10.1349 15.6363 10.1443 15.3483 10.1811ZM12.1469 7.36029C11.8405 8.42057 11.4359 9.56529 11.0009 10.602C11.8966 10.2544 12.8703 9.951 13.7849 9.73629C13.2063 9.06429 12.6282 8.22514 12.1469 7.36029ZM11.8867 3.73371C11.8447 3.74786 11.3167 4.48671 11.9279 5.112C12.3346 4.20557 11.9052 3.72771 11.8867 3.73371Z" fill="#CC4B4C"/>
<path d="M20.5872 24H3.41264C3.06636 24 2.78564 23.7193 2.78564 23.373V16.7143H21.2142V23.373C21.2142 23.7193 20.9335 24 20.5872 24Z" fill="#CC4B4C"/>
<path d="M7.4506 22.7143H6.74731V18.396H7.98931C8.17274 18.396 8.35446 18.4251 8.53403 18.4839C8.7136 18.5426 8.87474 18.6304 9.01746 18.7474C9.16017 18.8644 9.27546 19.0063 9.36331 19.1721C9.45117 19.338 9.49531 19.5244 9.49531 19.7319C9.49531 19.9509 9.45803 20.1489 9.38389 20.3267C9.30974 20.5046 9.20603 20.6541 9.07317 20.775C8.94031 20.8959 8.78003 20.9897 8.59274 21.0561C8.40546 21.1226 8.19803 21.1556 7.97174 21.1556H7.45017L7.4506 22.7143ZM7.4506 18.9291V20.64H8.09517C8.18089 20.64 8.26574 20.6254 8.35017 20.5959C8.43417 20.5667 8.51131 20.5187 8.5816 20.4523C8.65189 20.3859 8.70846 20.2933 8.75131 20.1741C8.79417 20.055 8.8156 19.9076 8.8156 19.7319C8.8156 19.6616 8.80574 19.5801 8.78646 19.4889C8.76674 19.3971 8.72689 19.3093 8.66646 19.2253C8.6056 19.1413 8.52074 19.071 8.41146 19.0144C8.30217 18.9579 8.15731 18.9296 7.97774 18.9296L7.4506 18.9291Z" fill="white"/>
<path d="M13.808 20.4351C13.808 20.7904 13.7698 21.0943 13.6935 21.3463C13.6172 21.5983 13.5208 21.8091 13.4034 21.9793C13.286 22.1494 13.1544 22.2831 13.0078 22.3809C12.8612 22.4786 12.7198 22.5514 12.5831 22.6007C12.4464 22.6496 12.3212 22.6809 12.2081 22.6946C12.095 22.7074 12.011 22.7143 11.9561 22.7143H10.3215V18.396H11.6222C11.9857 18.396 12.305 18.4539 12.5801 18.5687C12.8552 18.6836 13.0841 18.8374 13.2658 19.0286C13.4475 19.2197 13.583 19.4379 13.673 19.6817C13.763 19.926 13.808 20.1771 13.808 20.4351ZM11.7221 22.1987C12.1987 22.1987 12.5424 22.0466 12.7532 21.7419C12.9641 21.4371 13.0695 20.9957 13.0695 20.4176C13.0695 20.238 13.0481 20.0601 13.0052 19.8844C12.962 19.7087 12.8792 19.5497 12.7562 19.407C12.6332 19.2643 12.4661 19.149 12.2552 19.0611C12.0444 18.9733 11.771 18.9291 11.435 18.9291H11.0248V22.1987H11.7221Z" fill="white"/>
<path d="M15.5425 18.9291V20.2886H17.3472V20.769H15.5425V22.7143H14.8276V18.396H17.5285V18.9291H15.5425Z" fill="white"/>
</svg>
