<?xml version="1.0" encoding="UTF-8"?>
<svg width="13px" height="16px" viewBox="0 0 13 16" version="1.1" xmlns="http://www.w3.org/2000/svg" xmlns:xlink="http://www.w3.org/1999/xlink">
    <!-- Generator: Sketch 52.6 (67491) - http://www.bohemiancoding.com/sketch -->
    <title>pinterest-logo</title>
    <desc>Created with Sketch.</desc>
    <g id="Symbols" stroke="none" stroke-width="1" fill="none" fill-rule="evenodd">
        <g id="footer" transform="translate(-1135.000000, -347.000000)" fill="#0DC47C">
            <g id="pinterest-logo" transform="translate(1135.000000, 347.000000)">
                <g id="Path">
                    <path d="M12.3580639,4.44347137 C11.9216285,1.28542619 8.77455666,-0.322557379 5.4167579,0.0539518611 C2.76207206,0.351578144 0.115369806,2.49791079 0.00550532951,5.56705248 C-0.0614186951,7.44069519 0.469932434,8.84593543 2.2527004,9.24146726 C3.02474147,7.87519211 2.00402689,7.57654734 1.84422402,6.58678143 C1.190031,2.54183687 6.51037597,-0.22070933 9.29690574,2.60577116 C11.2264992,4.56332352 9.95507412,10.5817876 6.84696734,9.95558636 C3.86968603,9.35832968 8.30513572,4.56733174 5.92911929,3.62750422 C3.99752176,2.8624611 2.97181334,5.96458841 3.88765728,7.50666644 C3.35032668,10.1583625 2.1937928,12.6552167 2.66219527,15.9800627 C4.18028972,14.8774426 4.69265112,12.7690894 5.11213367,10.568843 C5.87517268,11.0332701 6.28368192,11.5136644 7.25646221,11.588572 C10.8439776,11.8671757 12.8504499,8.0070032 12.3580639,4.44347137 Z"></path>
                </g>
            </g>
        </g>
    </g>
</svg>