<svg width="65" height="76" viewBox="0 0 65 76" fill="none" xmlns="http://www.w3.org/2000/svg">
<path d="M42.2291 59.5547C42.2291 59.5547 42.6289 55.1999 44.2472 49.7945C46.6462 41.7724 52.9291 34.4952 55.2329 30.4459C56.756 27.7528 54.8902 25.9382 51.5583 25.8045C48.474 25.6708 44.7042 28.0966 42.3624 31.4773C41.7721 32.3368 40.6679 34.1131 39.4303 36.1951C38.4593 27.0269 37.5264 18.0307 37.1837 14.7073C36.86 11.6321 34.1184 9.37829 31.034 9.70299C27.9687 10.0277 25.7221 12.7781 26.0457 15.8724C26.2552 17.9352 27.169 26.6831 27.8925 33.6929C26.8263 32.948 25.5317 32.566 24.1418 32.6997C21.7238 32.948 19.8389 34.7244 19.3058 36.9782C18.3919 36.5198 17.3448 36.2906 16.2405 36.4052C13.2894 36.7108 11.157 39.2702 11.2522 42.1926C10.3003 41.6769 9.19599 41.4477 8.05363 41.5623C4.98831 41.887 3.17958 44.7329 2.64648 48.2665C1.42797 54.9324 4.836 65.4567 4.836 65.4567C6.8732 71.7598 11.9948 73.6698 19.3249 73.6125C26.655 73.5552 33.9851 71.6261 36.4983 70.0217C39.0305 68.4172 41.715 64.941 42.2291 59.5547Z" stroke="#31AC67" stroke-width="2.5"/>
<path d="M42.8954 13.0074L45.3134 0.458496" stroke="#31AC67" stroke-width="2.5"/>
<path d="M49.2355 15.3376L56.4513 5.42456" stroke="#31AC67" stroke-width="2.5"/>
<path d="M53.6526 20.7812L63.7815 14.7073" stroke="#31AC67" stroke-width="2.5"/>
</svg>
