<svg width="20" height="20" viewBox="0 0 20 20" fill="none" xmlns="http://www.w3.org/2000/svg">
<g id="rss 1">
<g id="Icon">
<path id="Vector" d="M4.02622 18.5526C5.42096 18.5132 6.52622 17.3421 6.48675 15.9342C6.44727 14.5921 5.36833 13.5132 4.02622 13.4737C2.63149 13.4342 1.46043 14.5395 1.42096 15.9342C1.38149 17.3421 2.47359 18.5 3.88149 18.5526H4.02622Z" fill="#115293"/>
<path id="Vector_2" d="M9.55263 18.0526C9.55263 18.2237 9.53947 18.3816 9.52632 18.5526H12.5263C12.5263 18.3816 12.5526 18.2237 12.5526 18.0526C12.5132 12.2237 7.81579 7.5 2 7.46053C1.82895 7.46053 1.67105 7.47368 1.5 7.48684V10.5C1.67105 10.4868 1.82895 10.4737 2 10.4737C6.1579 10.5 9.51316 13.8816 9.55263 18.0526Z" fill="#115293"/>
<path id="Vector_3" d="M2 1.44736C1.82895 1.44736 1.67105 1.47368 1.5 1.47368V4.47368C1.67105 4.47368 1.82895 4.44736 2 4.44736C9.46053 4.48684 15.5 10.5526 15.5395 18.0395C15.5395 18.2105 15.5263 18.3684 15.5132 18.5395H18.5C18.5 18.3684 18.5263 18.2105 18.5263 18.0395C18.5 8.89473 11.1184 1.47368 2 1.44736Z" fill="#115293"/>
</g>
</g>
</svg>
