<?xml version="1.0" encoding="UTF-8"?>
<svg width="60px" height="60px" viewBox="0 0 60 60" version="1.1" xmlns="http://www.w3.org/2000/svg" xmlns:xlink="http://www.w3.org/1999/xlink">
    <!-- Generator: Sketch 52.6 (67491) - http://www.bohemiancoding.com/sketch -->
    <title>signature</title>
    <desc>Created with Sketch.</desc>
    <g id="homepage" stroke="none" stroke-width="1" fill="none" fill-rule="evenodd">
        <g transform="translate(-540.000000, -1485.000000)" fill="#0DC47C" id="Applications">
            <g transform="translate(135.000000, 1376.000000)">
                <g id="signature" transform="translate(405.000000, 109.000000)">
                    <path d="M59.7753704,14.1955236 C59.5692568,13.4290541 59.0663981,12.7756302 58.3783784,12.3794829 C57.6898714,11.9813864 56.8712643,11.8737006 56.1033329,12.0798142 C55.336376,12.2864151 54.6829522,12.7887864 54.2868049,13.4768061 L53.7878444,14.3451143 C53.3137345,14.0727326 52.7080627,14.2330431 52.4308081,14.7047167 L49.8960499,19.0253053 L49.0277416,18.5263448 C48.797752,18.3933212 48.5239085,18.3572635 48.2676065,18.4264553 C48.0108173,18.4961344 47.7925221,18.6647284 47.660473,18.8956926 C47.3900402,19.3727262 47.5547363,19.9788851 48.0298206,20.2527287 L48.8981289,20.7516892 L40.4158004,35.451046 L38.3200689,41.0497336 L37.3221479,42.9154755 C36.7379158,43.9319127 36.8002859,45.1953937 37.4819712,46.1489736 L35.2366489,48.9030015 L34.6080756,47.3266957 C34.3244868,46.6240579 33.6681393,46.142639 32.9133641,46.0836798 C32.1581016,46.0242334 31.4345114,46.3974792 31.0451858,47.0470049 L30.6860707,47.6556002 L30.3469335,43.6639163 C30.2689709,42.7195946 29.5375845,41.9604339 28.5971608,41.8464137 C27.6562501,41.7328807 26.7655275,42.2966476 26.4648843,43.1951663 L24.0100377,50.5597063 C23.83852,51.0805938 24.1191853,51.6419244 24.6386109,51.8173402 C24.7360642,51.8626559 24.8408264,51.8899428 24.9480249,51.8967645 C25.3768191,51.8982263 25.7588358,51.6248701 25.8962447,51.2184901 L28.3408589,43.8539501 L28.6902287,47.9050805 C28.7623441,48.7694906 29.3836084,49.4882082 30.2285278,49.6840891 C31.0734473,49.8799701 31.9476026,49.5076988 32.3924767,48.7636435 L32.7618243,48.1545607 L33.3806522,49.7216086 C33.6432887,50.3818542 34.2372661,50.8530405 34.9403911,50.9578028 C35.6435162,51.0625649 36.3490775,50.7853105 36.7934642,50.2303145 L39.118698,47.2867398 C39.3759745,47.3539826 39.6410472,47.387604 39.9070946,47.3866294 C40.9766437,47.394913 41.969692,46.8316333 42.5115319,45.9092385 L43.5094529,44.2427885 L47.3115904,39.6225312 L55.8835759,24.7433732 L56.7518842,25.2423337 C56.9833355,25.3748701 57.1519296,25.5936525 57.2206341,25.8514164 C57.2898259,26.1072311 57.2537682,26.3801001 57.1212318,26.6096023 L53.1295478,33.5253704 C52.9789826,33.7524363 52.9278197,34.0311525 52.9882406,34.2971999 C53.0486617,34.5627599 53.2148194,34.7922622 53.4487072,34.9321075 C53.6786968,35.0656185 53.9525402,35.1016763 54.2088423,35.0324844 C54.4656314,34.9628053 54.6839267,34.7942113 54.8159758,34.5632471 L58.8076598,27.6474792 C59.2057562,26.9589722 59.3134421,26.1403652 59.1068412,25.3724338 C58.9002404,24.6054768 58.397869,23.952053 57.7098493,23.5559057 L56.8415411,23.0569452 L59.3363436,18.7358693 C59.6087253,18.2617594 59.4484148,17.6565748 58.9772284,17.3788331 L59.4761889,16.5105249 C59.8850052,15.811298 59.9931782,14.976124 59.7753704,14.1955236 Z M56.0131886,14.4747271 C56.1452378,14.243763 56.3645076,14.0746816 56.6222713,14.0059771 C56.8785732,13.9426326 57.1494933,13.978203 57.3804574,14.1058667 C57.6119088,14.2379158 57.7805028,14.4571856 57.8496947,14.7144621 C57.9130392,14.970764 57.8774688,15.241684 57.7498052,15.4726481 L57.2508447,16.3409563 L55.5142281,15.3430353 L56.0131886,14.4747271 Z M42.4116424,42.3370907 L41.9126819,42.0476546 L40.4357783,41.1890918 L41.8527481,37.3971868 L44.9961019,39.2132277 L42.4116424,42.3370907 Z M39.4178794,45.2207315 C38.9963943,44.92691 38.8667814,44.3616813 39.118698,43.9133965 L39.6176585,43.0455756 L41.3537877,44.0434966 L40.8548272,44.9015723 C40.7149819,45.1442308 40.4801195,45.3167229 40.2067633,45.3776313 C39.9334069,45.4380523 39.6473818,45.3815294 39.4178794,45.2207315 Z M46.1338683,37.5769881 L42.6811005,35.5811461 L50.6644685,21.7496102 L54.1172363,23.7454522 L46.1338683,37.5769881 Z M55.1151573,22.0190683 L51.6623895,20.0232263 L53.6582315,16.5704587 L57.1109993,18.5663007 L55.1151573,22.0190683 Z" id="Shape" fill-rule="nonzero"></path>
                    <path d="M15.7469789,44.721771 L12.2147869,48.2447051 L10.0990775,46.1289956 C9.70975185,45.7421063 9.0811785,45.7421063 8.69185297,46.1289956 C8.5027936,46.3165931 8.39656965,46.5714332 8.39656965,46.8374805 C8.39656965,47.1035278 8.5027936,47.3588552 8.69185297,47.5459654 L10.8075624,49.6616749 C11.1817827,50.0329716 11.6875649,50.2410343 12.2147869,50.2405471 C12.7449324,50.2434706 13.2551001,50.0354081 13.6317568,49.6616749 L17.1542035,46.1289956 C17.4933407,45.7328482 17.4704393,45.1427689 17.1020659,44.7743958 C16.7332055,44.4055353 16.1431262,44.3826338 15.7469789,44.721771 Z" id="Path"></path>
                    <path d="M3.99168399,47.40612 C3.99168399,52.0911837 7.78943601,55.8884485 12.4740125,55.8884485 C17.1585889,55.8884485 20.956341,52.0911837 20.956341,47.40612 C20.956341,46.8550221 20.509518,46.408199 19.95842,46.408199 C19.407322,46.408199 18.960499,46.8550221 18.960499,47.40612 C18.960499,50.9885005 16.0563929,53.8926065 12.4740125,53.8926065 C8.89163202,53.8926065 5.98752599,50.9885005 5.98752599,47.40612 C5.98752599,43.8237395 8.89163202,40.9196335 12.4740125,40.9196335 C13.8783133,40.9157354 15.2450949,41.3713292 16.3658069,42.2172232 C16.8067827,42.5480769 17.4324324,42.45842 17.7627989,42.0174442 C18.0936525,41.5764684 18.0044829,40.9513059 17.563507,40.6204522 C14.9931782,38.6928274 11.5540541,38.3829262 8.68064582,39.8193867 C5.80675023,41.2563344 3.99168399,44.1935746 3.99168399,47.40612 Z" id="Path"></path>
                    <path d="M35.9251559,7.98824058 C36.4762539,7.98824058 36.9230769,7.54190495 36.9230769,6.99031958 C36.9230769,6.4392217 36.4762539,5.99239859 35.9251559,5.99239859 L9.97920998,5.99239859 C9.42811198,5.99239859 8.98128898,6.4392217 8.98128898,6.99031958 L8.98128898,10.9820036 C8.98128898,11.5335889 9.42811198,11.9799246 9.97920998,11.9799246 L35.9251559,11.9799246 C36.4762539,11.9799246 36.9230769,11.5335889 36.9230769,10.9820036 C36.9230769,10.4309057 36.4762539,9.98408258 35.9251559,9.98408258 L10.977131,9.98408258 L10.977131,7.98824058 L35.9251559,7.98824058 Z" id="Path"></path>
                    <path d="M12.972973,13.9757666 C12.421875,13.9757666 11.975052,14.4225897 11.975052,14.9736876 C11.975052,15.5252729 12.421875,15.9716086 12.972973,15.9716086 L32.9313929,15.9716086 C33.4824909,15.9716086 33.9293139,15.5252729 33.9293139,14.9736876 C33.9293139,14.4225897 33.4824909,13.9757666 32.9313929,13.9757666 L12.972973,13.9757666 Z" id="Path"></path>
                    <path d="M38.9189189,20.9612136 L16.964657,20.9612136 C16.413559,20.9612136 15.966736,21.4080367 15.966736,21.9591346 C15.966736,22.5107199 16.413559,22.9570556 16.964657,22.9570556 L38.9189189,22.9570556 C39.4700169,22.9570556 39.9168399,22.5107199 39.9168399,21.9591346 C39.9168399,21.4080367 39.4700169,20.9612136 38.9189189,20.9612136 Z" id="Path"></path>
                    <path d="M28.9397089,27.9466605 C28.9397089,27.3955627 28.4928859,26.9487395 27.9417879,26.9487395 L7.98336798,26.9487395 C7.43226998,26.9487395 6.98544699,27.3955627 6.98544699,27.9466605 C6.98544699,28.4982459 7.43226998,28.9445815 7.98336798,28.9445815 L27.9417879,28.9445815 C28.4928859,28.9445815 28.9397089,28.4982459 28.9397089,27.9466605 Z" id="Path"></path>
                    <path d="M38.9189189,26.9487395 L31.9334719,26.9487395 C31.3823739,26.9487395 30.9355509,27.3955627 30.9355509,27.9466605 C30.9355509,28.4982459 31.3823739,28.9445815 31.9334719,28.9445815 L38.9189189,28.9445815 C39.4700169,28.9445815 39.9168399,28.4982459 39.9168399,27.9466605 C39.9168399,27.3955627 39.4700169,26.9487395 38.9189189,26.9487395 Z" id="Path"></path>
                    <path d="M17.962578,33.9341865 C18.513676,33.9341865 18.960499,33.4878509 18.960499,32.9362655 C18.960499,32.3851677 18.513676,31.9383445 17.962578,31.9383445 L7.98336798,31.9383445 C7.43226998,31.9383445 6.98544699,32.3851677 6.98544699,32.9362655 C6.98544699,33.4878509 7.43226998,33.9341865 7.98336798,33.9341865 L17.962578,33.9341865 Z" id="Path"></path>
                    <path d="M21.954262,33.9341865 L28.9397089,33.9341865 C29.4908069,33.9341865 29.9376299,33.4878509 29.9376299,32.9362655 C29.9376299,32.3851677 29.4908069,31.9383445 28.9397089,31.9383445 L21.954262,31.9383445 C21.403164,31.9383445 20.956341,32.3851677 20.956341,32.9362655 C20.956341,33.4878509 21.403164,33.9341865 21.954262,33.9341865 Z" id="Path"></path>
                    <path d="M44.9064449,45.9092385 C44.3553469,45.9092385 43.9085239,46.3560616 43.9085239,46.9071595 L43.9085239,56.8863695 C43.9085239,57.4379548 43.4617009,57.8842905 42.9106029,57.8842905 L2.99376299,57.8842905 C2.44266499,57.8842905 1.995842,57.4379548 1.995842,56.8863695 L1.995842,2.99863559 C1.995842,2.44753771 2.44266499,2.00071459 2.99376299,2.00071459 L42.9106029,2.00071459 C43.4617009,2.00071459 43.9085239,2.44753771 43.9085239,2.99863559 L43.9085239,21.7398649 C43.9085239,22.2909629 44.3553469,22.7377859 44.9064449,22.7377859 C45.4575429,22.7377859 45.9043659,22.2909629 45.9043659,21.7398649 L45.9043659,2.99863559 C45.9043659,1.3453417 44.5638968,0.00487266112 42.9106029,0.00487266112 L2.99376299,0.00487266112 C1.34046911,0.00487266112 0,1.3453417 0,2.99863559 L0,56.8863695 C0,58.5401507 1.34046911,59.8801325 2.99376299,59.8801325 L42.9106029,59.8801325 C44.5638968,59.8801325 45.9043659,58.5401507 45.9043659,56.8863695 L45.9043659,46.9071595 C45.9043659,46.3560616 45.4575429,45.9092385 44.9064449,45.9092385 Z" id="Path"></path>
                </g>
            </g>
        </g>
    </g>
</svg>