<svg width="20" height="20" viewBox="0 0 20 20" fill="none" xmlns="http://www.w3.org/2000/svg">
<g id="Social/Twitter">
<path id="Icon" fill-rule="evenodd" clip-rule="evenodd" d="M19.9608 3.65142C19.2234 3.98378 18.4359 4.2102 17.6068 4.31358C18.4517 3.79154 19.1017 2.96876 19.4092 1.98706C18.6167 2.46125 17.7384 2.80643 16.8035 2.99866C16.0568 2.1793 14.9927 1.66666 13.8111 1.66666C11.547 1.66666 9.71126 3.54889 9.71126 5.86772C9.71126 6.20093 9.74876 6.52133 9.81709 6.82806C6.4089 6.66316 3.38819 4.98513 1.36661 2.44843C1.01079 3.06531 0.811633 3.78214 0.811633 4.56306C0.811633 6.02407 1.5366 7.30823 2.63489 8.06266C1.96242 8.04044 1.32994 7.85077 0.778301 7.53635V7.58847C0.778301 9.6262 2.18908 11.3256 4.0665 11.7126C3.72234 11.8075 3.35903 11.8587 2.98654 11.8587C2.72489 11.8587 2.47406 11.8331 2.22324 11.7853C2.74905 13.4539 4.26066 14.6705 6.05975 14.7047C4.65981 15.8317 2.88571 16.5032 0.974959 16.5032C0.649973 16.5032 0.32582 16.4836 0 16.446C1.82409 17.637 3.97317 18.3333 6.29724 18.3333C13.8419 18.3333 17.9626 11.9288 17.9626 6.38377C17.9626 6.20521 17.9626 6.02493 17.9501 5.84551C18.7509 5.25683 19.45 4.51265 20 3.66851L19.9608 3.65142Z" fill="#115293"/>
</g>
</svg>
