<svg width="62" height="64" viewBox="0 0 62 64" fill="none" xmlns="http://www.w3.org/2000/svg">
<g clip-path="url(#clip0_95_370)">
<path d="M25.4071 35.4879C22.997 37.684 21.93 38.5883 20.9549 39.2711C17.257 41.9101 11.5905 44.5675 4.93057 44.8812" stroke="#31AC67" stroke-width="2.5"/>
<path d="M11.4617 34.4175L13.2095 35.9307L5.77686 44.5305L14.8653 51.3402L13.4855 53.1856L2.4101 44.8996L11.4617 34.4175Z" fill="#31AC67"/>
<path d="M59.2036 16.3322C54.1626 16.4429 47.4475 17.7347 41.7258 21.9977C40.8243 22.662 38.4694 24.2676 35.3786 26.9988" stroke="#31AC67" stroke-width="2.5"/>
<path d="M50.9062 7.71399L49.4712 9.52252L58.3205 16.6275L50.6119 24.9689L52.3045 26.5375L61.6872 16.3876L50.9062 7.71399Z" fill="#31AC67"/>
<path d="M2.48367 16.9043C7.35904 16.9043 13.4855 17.827 19.1887 22.0715C21.4516 23.7693 37.2552 36.9274 40.5852 39.2895C44.3015 41.9285 52.3044 43.1465 59.4979 43.1281" stroke="#31AC67" stroke-width="2.5"/>
<path d="M9.60356 26.9434L11.2593 25.3563L3.36677 17.1626L12.0688 9.87307L10.597 8.10144L0 16.9965L9.60356 26.9434Z" fill="#31AC67"/>
<path d="M51.5685 52.1707L50.0599 50.4176L58.6148 42.962L50.5751 34.9343L52.2125 33.3103L62 43.0727L51.5685 52.1707Z" fill="#31AC67"/>
<path d="M30.9264 2.50977V21.241" stroke="#31AC67" stroke-width="2.5"/>
<path d="M21.5252 10.1499L23.1994 11.7186L30.9264 3.39562L38.635 11.7186L40.3276 10.1499L30.9264 0L21.5252 10.1499Z" fill="#31AC67"/>
<path d="M30.9264 39.9723V61.5086" stroke="#31AC67" stroke-width="2.5"/>
<path d="M21.5252 53.8685L23.1994 52.2814L30.9264 60.6228L38.635 52.2814L40.3276 53.8685L30.9264 63.9999L21.5252 53.8685Z" fill="#31AC67"/>
</g>
<defs>
<clipPath id="clip0_95_370">
<rect width="62" height="64" fill="white"/>
</clipPath>
</defs>
</svg>
