<?xml version="1.0" encoding="UTF-8"?>
<svg width="60px" height="60px" viewBox="0 0 60 60" version="1.1" xmlns="http://www.w3.org/2000/svg" xmlns:xlink="http://www.w3.org/1999/xlink">
    <!-- Generator: Sketch 52.6 (67491) - http://www.bohemiancoding.com/sketch -->
    <title>vpn</title>
    <desc>Created with Sketch.</desc>
    <g id="homepage" stroke="none" stroke-width="1" fill="none" fill-rule="evenodd">
        <g transform="translate(-1140.000000, -1485.000000)" fill="#0DC47C" id="Applications">
            <g transform="translate(135.000000, 1376.000000)">
                <g id="binary-code" transform="translate(1005.000000, 109.000000)">
                    <g>
                        <path d="M45.4934693,48.1443786 L45.4934693,52.0239258 C45.4934693,53.4480286 46.6520691,54.6070862 48.0761719,54.6070862 C49.5007324,54.6070862 50.6593323,53.4480286 50.6593323,52.0239258 L50.6593323,48.1443786 C52.0967102,47.2554016 52.9980469,45.668335 52.9980469,43.9558411 C52.9980469,41.2417603 50.7902527,39.0339661 48.0761719,39.0339661 C45.3625488,39.0339661 43.1547546,41.2417603 43.1547546,43.9558411 C43.1547546,45.668335 44.0565491,47.2554016 45.4934693,48.1443786 Z M48.0766296,40.8091736 C49.811554,40.8091736 51.2228393,42.2209167 51.2228393,43.9558411 C51.2228393,45.1757812 50.506897,46.2968445 49.3981934,46.8109131 C49.085083,46.9564819 48.8841247,47.2705078 48.8841247,47.6161194 L48.8841247,52.0239258 C48.8841247,52.4693298 48.5220337,52.8318786 48.0766296,52.8318786 C47.6307679,52.8318786 47.2686768,52.4693298 47.2686768,52.0239258 L47.2686768,47.6161194 C47.2686768,47.2705078 47.0681763,46.9564819 46.7546081,46.8109131 C45.6463623,46.2968445 44.9299622,45.1757812 44.9299622,43.9558411 C44.9299622,42.2209167 46.3412475,40.8091736 48.0766296,40.8091736 Z" id="Shape" fill-rule="nonzero"></path>
                        <path d="M12.028656,21.8023682 C12.028656,19.4178772 10.5578613,18.5325622 8.67279047,18.5325622 C6.78817746,18.5325622 5.33111578,19.4178772 5.33111578,21.8023682 L5.33111578,25.7867432 C5.33111578,28.1712341 6.78771973,29.0570068 8.67279047,29.0570068 C10.5578613,29.0570068 12.028656,28.171692 12.028656,25.7867432 L12.028656,21.8023682 Z M10.1719665,25.7867432 C10.1719665,26.9146729 9.60067746,27.4287415 8.67279047,27.4287415 C7.73025516,27.4287415 7.18780523,26.9146729 7.18780523,25.7867432 L7.18780523,21.8023682 C7.18780523,20.6744385 7.73025516,20.1603698 8.67279047,20.1603698 C9.60067746,20.1603698 10.1719665,20.6744385 10.1719665,21.8023682 L10.1719665,25.7867432 Z" id="Shape" fill-rule="nonzero"></path>
                        <path d="M18.8401794,28.3854675 L18.8401794,19.1038513 C18.8401794,18.6190795 18.0189514,18.3100891 17.6261902,18.6465455 L15.9411621,19.9319459 C15.3199768,20.3201295 15.5841064,21.3455201 16.1842346,21.3455201 C16.5385437,21.3455201 16.6447448,21.0438538 16.9839478,20.7600403 L16.9839478,28.3859252 C16.9839478,29.1691589 18.8401794,29.161377 18.8401794,28.3854675 Z" id="Path"></path>
                        <path d="M29.8640442,21.8023682 C29.8640442,19.4178772 28.3932495,18.5325622 26.5086364,18.5325622 C24.6235657,18.5325622 23.1669616,19.4178772 23.1669616,21.8023682 L23.1669616,25.7867432 C23.1669616,28.1712341 24.6235657,29.0570068 26.5086364,29.0570068 C28.3937073,29.0570068 29.8640442,28.171692 29.8640442,25.7867432 L29.8640442,21.8023682 Z M28.0078125,25.7867432 C28.0078125,26.9146729 27.4365234,27.4287415 26.5086364,27.4287415 C25.566101,27.4287415 25.0236511,26.9146729 25.0236511,25.7867432 L25.0236511,21.8023682 C25.0236511,20.6744385 25.566101,20.1603698 26.5086364,20.1603698 C27.4365234,20.1603698 28.0078125,20.6744385 28.0078125,21.8023682 L28.0078125,25.7867432 Z" id="Shape" fill-rule="nonzero"></path>
                        <path d="M36.6760254,28.3854675 L36.6760254,19.1038513 C36.6760254,18.6190795 35.8547974,18.3100891 35.4620361,18.6465455 L33.7774658,19.9319459 C33.548584,20.0747681 33.4204102,20.346222 33.4204102,20.6030273 C33.4204102,21.2232971 33.9912415,21.5419007 34.3624877,21.2168884 L34.8197937,20.7600403 L34.8197937,28.3854675 C34.8197937,29.1691589 36.6760254,29.161377 36.6760254,28.3854675 Z" id="Path"></path>
                        <path d="M8.67279047,43.9805603 C6.78771973,43.9805603 5.33111578,44.8658753 5.33111578,47.2503662 L5.33111578,51.2347412 C5.33111578,53.6192321 6.78771973,54.5045471 8.67279047,54.5045471 C10.5578613,54.5045471 12.0281982,53.6192321 12.0281982,51.2347412 L12.0281982,47.2503662 C12.028656,44.8658753 10.5578613,43.9805603 8.67279047,43.9805603 Z M10.1719665,51.2347412 C10.1719665,52.3626709 9.60067746,52.8767395 8.67279047,52.8767395 C7.73025516,52.8767395 7.18780523,52.3626709 7.18780523,51.2347412 L7.18780523,47.2503662 C7.18780523,46.1224365 7.73025516,45.6083679 8.67279047,45.6083679 C9.60067746,45.6083679 10.1719665,46.1224365 10.1719665,47.2503662 L10.1719665,51.2347412 Z" id="Shape" fill-rule="nonzero"></path>
                        <path d="M18.8401794,53.8334655 L18.8401794,44.5513916 C18.8401794,44.0670776 18.0189514,43.7580872 17.6261902,44.0945435 L15.9411621,45.3799439 C15.3199768,45.7681275 15.5841064,46.7935181 16.1842346,46.7935181 C16.5385437,46.7935181 16.6447448,46.4918518 16.9839478,46.2080384 L16.9839478,53.8334655 C16.9839478,54.617157 18.8401794,54.609375 18.8401794,53.8334655 Z" id="Path"></path>
                        <path d="M26.5086364,43.9805603 C24.6235657,43.9805603 23.1669616,44.8658753 23.1669616,47.2503662 L23.1669616,51.2347412 C23.1669616,53.6192321 24.6235657,54.5045471 26.5086364,54.5045471 C28.3937073,54.5045471 29.8640442,53.6192321 29.8640442,51.2347412 L29.8640442,47.2503662 C29.8640442,44.8658753 28.3937073,43.9805603 26.5086364,43.9805603 Z M28.0078125,51.2347412 C28.0078125,52.3626709 27.4365234,52.8767395 26.5086364,52.8767395 C25.566101,52.8767395 25.0236511,52.3626709 25.0236511,51.2347412 L25.0236511,47.2503662 C25.0236511,46.1224365 25.566101,45.6083679 26.5086364,45.6083679 C27.4365234,45.6083679 28.0078125,46.1224365 28.0078125,47.2503662 L28.0078125,51.2347412 Z" id="Shape" fill-rule="nonzero"></path>
                        <path d="M6.20956418,33.8887024 L6.66641238,33.4318542 L6.66641238,41.0572815 C6.66641238,41.8409729 8.52264398,41.8331909 8.52264398,41.0572815 L8.52264398,31.7756653 C8.52264398,31.2913513 7.70141602,30.981903 7.30911258,31.3183594 L5.62408453,32.6037598 C5.39520258,32.746582 5.26702875,33.0180359 5.26702875,33.2748412 C5.26702875,33.8964844 5.8392334,34.2127991 6.20956418,33.8887024 Z" id="Path"></path>
                        <path d="M12.6498412,34.4746399 L12.6498412,38.4585572 C12.6498412,40.8430481 14.1064453,41.7288209 15.9910583,41.7288209 C17.8761292,41.7288209 19.3469238,40.8435059 19.3469238,38.4585572 L19.3469238,34.4746399 C19.3469238,32.0896911 17.8761292,31.2043763 15.9910583,31.2043763 C14.1064453,31.2043763 12.6498412,32.0896911 12.6498412,34.4746399 Z M14.506073,34.4746399 C14.506073,33.3462525 15.0489807,32.8321839 15.9910583,32.8321839 C16.919403,32.8321839 17.4906921,33.3462525 17.4906921,34.4746399 L17.4906921,38.4585572 C17.4906921,39.5864869 16.919403,40.1005554 15.9910583,40.1005554 C15.0489807,40.1005554 14.506073,39.5864869 14.506073,38.4585572 L14.506073,34.4746399 Z" id="Shape" fill-rule="nonzero"></path>
                        <path d="M23.3024597,34.017334 C23.6567688,34.017334 23.7634277,33.7156677 24.1021729,33.4318542 L24.1021729,41.0572815 C24.1021729,41.8409729 25.9588623,41.8331909 25.9588623,41.0572815 L25.9588623,31.7756653 C25.9588623,31.4039612 25.5162048,31.1755371 25.13031,31.1755371 C24.8158264,31.1755371 24.8561096,31.2634277 23.059845,32.6037598 C22.4386596,32.9919434 22.7027893,34.017334 23.3024597,34.017334 Z" id="Path"></path>
                        <path d="M32.4920654,41.6427612 C32.9489135,41.6427612 33.4204102,41.4431763 33.4204102,41.0572815 L33.4204102,31.7756653 C33.4204102,31.2913513 32.5991822,30.981903 32.2064209,31.3183594 L30.5213929,32.6037598 C29.9002076,32.9919434 30.1643372,34.017334 30.7640075,34.017334 C31.1183167,34.017334 31.2249756,33.7156677 31.5637207,33.4318542 L31.5637207,41.0577393 C31.5637207,41.4431763 32.0210266,41.6427612 32.4920654,41.6427612 Z" id="Path"></path>
                        <path d="M58.5205078,5.85754395 L54.5127868,5.85754395 C54.022522,5.85754395 53.625183,6.25488281 53.625183,6.74514773 C53.625183,7.2349548 54.022522,7.63229367 54.5127868,7.63229367 L58.2247924,7.63229367 L58.2247924,13.0769348 L1.77520758,13.0769348 L1.77520758,7.63229367 L50.9623718,7.63229367 C51.4526367,7.63229367 51.8499756,7.2349548 51.8499756,6.74514773 C51.8499756,6.25488281 51.4526367,5.85754395 50.9623718,5.85754395 L34.8921204,5.85754395 L34.209137,1.31744391 C34.0992737,0.587768555 33.4844971,0.05859375 32.7470398,0.05859375 L29.5500183,0.05859375 C29.0597534,0.05859375 28.6624146,0.455932617 28.6624146,0.946197539 C28.6624146,1.43646234 29.0597534,1.83380133 29.5500183,1.83380133 L32.4916077,1.83380133 L33.0967712,5.85754395 L19.3011475,5.85754395 L19.9063111,1.83380133 L25.9996032,1.83380133 C26.4898682,1.83380133 26.887207,1.43646234 26.887207,0.946197539 C26.887207,0.455932617 26.4898682,0.05859375 25.9996032,0.05859375 L19.6508789,0.05859375 C18.9134216,0.05859375 18.2986451,0.587768555 18.1887818,1.31744391 L17.5076295,5.84609988 L16.8264771,1.31744391 C16.7170716,0.587768555 16.1018372,0.05859375 15.3643799,0.05859375 L2.26867676,0.05859375 C1.53121945,0.05859375 0.915985078,0.588226289 0.806579531,1.31744391 L0.0100708008,6.6133118 C0.00915527344,6.61880496 0.00915527344,6.62475586 0.00823974609,6.63070676 C0.00595092187,6.64855957 0.00457763672,6.66687012 0.00320435156,6.68472293 C0.0022888125,6.69845578 0.00137329687,6.71218875 0.000915527344,6.7259216 C0.000915527344,6.73233035 0,6.73828125 0,6.74514773 L0,34.7758484 C0,35.2661133 0.397338867,35.6634521 0.887603789,35.6634521 C1.37786859,35.6634521 1.77520758,35.2661133 1.77520758,34.7758484 L1.77520758,14.8521423 L58.2247924,14.8521423 L58.2247924,33.7005615 L57.1536255,33.7005615 L57.1536255,26.4985657 C57.1536255,26.2806702 57.1467591,26.0604858 57.1298217,25.8425904 C57.0954895,25.3541565 56.672058,24.9861145 56.182251,25.0213623 C55.6933594,25.0556946 55.3253174,25.4804993 55.3596497,25.9693909 C55.3724671,26.1447143 55.378418,26.3232422 55.378418,26.4985657 L55.378418,33.7005615 L53.9868164,33.7005615 L53.9868164,26.4985657 C53.9868164,23.2392884 51.335907,20.5883789 48.0766296,20.5883789 C44.81781,20.5883789 42.1655273,23.2392884 42.1655273,26.4985657 L42.1655273,33.7005615 L40.7739258,33.7005615 L40.7739258,26.4985657 C40.7739258,22.4725342 44.0496826,19.1967773 48.0766296,19.1967773 C50.723877,19.1967773 53.1724548,20.6391907 54.4638061,22.9623412 C54.7027588,23.390808 55.2424622,23.5455322 55.670929,23.3065795 C56.0993958,23.0690003 56.2541198,22.5279236 56.0151673,22.0994568 C54.4102478,19.2146302 51.3688659,17.4215698 48.0766296,17.4215698 C43.0709838,17.4215698 38.9987182,21.4938354 38.9987182,26.4985657 L38.9987182,33.7005615 L37.6332093,33.7005615 C36.8165589,33.7005615 36.1528015,34.3656921 36.1528015,35.1823425 L36.1528015,58.1648255 L1.77520758,58.1648255 L1.77520758,38.3262634 C1.77520758,37.8359986 1.37786859,37.4386596 0.887603789,37.4386596 C0.397338867,37.4386596 9.88792381e-15,37.8359986 9.88792381e-15,38.3262634 L9.88792381e-15,58.4605407 C9.88792381e-15,59.2762757 0.663757266,59.9400329 1.47949219,59.9400329 L58.5205078,59.9400329 C59.3362427,59.9400329 60,59.2762757 60,58.4605407 L60,7.3365784 C60,6.52084348 59.3362427,5.85754395 58.5205078,5.85754395 Z M2.52365109,1.83380133 L15.1094055,1.83380133 L15.7145691,5.85754395 L1.91848758,5.85754395 L2.52365109,1.83380133 Z M43.9407349,26.4985657 C43.9407349,24.217987 45.7965088,22.3635865 48.0766296,22.3635865 C50.355835,22.3635865 52.2116088,24.217987 52.2116088,26.4985657 L52.2116088,33.7005615 L43.9407349,33.7005615 L43.9407349,26.4985657 Z M58.2247924,58.1643677 L37.9275513,58.1643677 L37.9275513,35.475769 L58.2247924,35.475769 L58.2247924,58.1643677 Z" id="Shape" fill-rule="nonzero"></path>
                        <path d="M51.1834717,9.40750125 L3.92532352,9.40750125 C3.43505859,9.40750125 3.03771973,9.80484012 3.03771973,10.2951049 C3.03771973,10.7853698 3.43505859,11.1827087 3.92532352,11.1827087 L51.1834717,11.1827087 C51.6737366,11.1827087 52.0706177,10.7853698 52.0706177,10.2951049 C52.0706177,9.80484012 51.6737366,9.40750125 51.1834717,9.40750125 Z" id="Path"></path>
                        <path d="M56.0746765,10.2951049 C56.0746765,10.9487916 55.5450439,11.4784241 54.8913574,11.4784241 C54.2376709,11.4784241 53.7080384,10.9487916 53.7080384,10.2951049 C53.7080384,9.64141852 54.2376709,9.11178586 54.8913574,9.11178586 C55.5450439,9.11178586 56.0746765,9.64141852 56.0746765,10.2951049 Z" id="Path"></path>
                    </g>
                </g>
            </g>
        </g>
    </g>
</svg>