<svg width="24" height="24" viewBox="0 0 24 24" fill="none" xmlns="http://www.w3.org/2000/svg">
<g id="video-streaming 1">
<g id="video_streaming">
<path id="Vector" d="M15.5146 9.14258L10.5146 6.14258C10.2051 5.95654 9.82031 5.95166 9.50684 6.12988C9.19336 6.30713 9 6.63965 9 7V13C9 13.3604 9.19336 13.6929 9.50684 13.8701C9.66016 13.957 9.83008 14 10 14C10.1777 14 10.3564 13.9526 10.5146 13.8574L15.5146 10.8574C15.8154 10.6768 16 10.3511 16 10C16 9.64893 15.8154 9.32324 15.5146 9.14258ZM19 2H5C3.3457 2 2 3.3457 2 5V15C2 16.6543 3.3457 18 5 18H9V20H8C7.44727 20 7 20.4478 7 21C7 21.5522 7.44727 22 8 22H16C16.5527 22 17 21.5522 17 21C17 20.4478 16.5527 20 16 20H15V18H19C20.6543 18 22 16.6543 22 15V5C22 3.3457 20.6543 2 19 2ZM20 15C20 15.5513 19.5518 16 19 16H5C4.44824 16 4 15.5513 4 15V5C4 4.44873 4.44824 4 5 4H19C19.5518 4 20 4.44873 20 5V15Z" fill="#115293"/>
</g>
</g>
</svg>
