<?xml version="1.0" encoding="UTF-8"?>
<svg width="60px" height="53px" viewBox="0 0 60 53" version="1.1" xmlns="http://www.w3.org/2000/svg" xmlns:xlink="http://www.w3.org/1999/xlink">
    <!-- Generator: Sketch 52.6 (67491) - http://www.bohemiancoding.com/sketch -->
    <title>webpage</title>
    <desc>Created with Sketch.</desc>
    <g id="homepage" stroke="none" stroke-width="1" fill="none" fill-rule="evenodd">
        <g transform="translate(-1140.000000, -1785.000000)" fill="#0DC47C" id="Applications">
            <g transform="translate(135.000000, 1376.000000)">
                <g id="webpage" transform="translate(1005.000000, 409.000000)">
                    <g>
                        <path d="M28.105653,35.8201282 C27.8259508,35.8201282 27.5479068,35.702388 27.3522258,35.4729879 L24.5010318,32.1342497 C24.1455999,31.718013 24.1947965,31.0928287 24.6110333,30.7373969 C25.0267173,30.381965 25.6519016,30.4317143 26.0073334,30.8473983 L28.2305793,33.4509508 L34.1203568,28.6589771 C34.5448851,28.313495 35.168411,28.3781692 35.513893,28.8021447 C35.859375,29.226673 35.7952535,29.8507517 35.3707252,30.1956809 L28.7302845,35.5979142 C28.5467645,35.7477153 28.325656,35.8201282 28.105653,35.8201282 Z" id="Path"></path>
                        <path d="M29.8126105,46.5626843 C29.6777343,46.5626843 29.5428582,46.5350457 29.4168263,46.4803214 L27.9536408,45.8424233 C22.1042158,43.2869619 18.322155,37.512161 18.3177328,31.1293117 L18.3177328,24.4628907 C18.3177328,24.1008255 18.5150723,23.7680573 18.8318101,23.5939343 L29.3737102,17.8163694 C29.6666789,17.6560657 30.0210054,17.6538546 30.3156324,17.8108417 L41.1576872,23.5884065 C41.4805056,23.7603184 41.6822672,24.096956 41.6822672,24.4628907 L41.6822672,30.978405 C41.6811616,37.456331 37.8222657,43.2615345 31.8512308,45.770563 L30.2050782,46.4814269 C30.0795991,46.5355984 29.9458285,46.5626843 29.8126105,46.5626843 Z M20.2988649,25.0493809 L20.2988649,31.1287588 C20.3027343,36.7233565 23.6182562,41.786188 28.7457621,44.0265699 L29.8142689,44.4920032 L31.0701651,43.9497347 C31.0734818,43.9486291 31.0762456,43.9469708 31.0795622,43.9458652 C36.315964,41.7474941 39.7000295,36.6575767 39.7011351,30.978405 L39.7011351,25.0571196 L29.8562795,19.8113208 L20.2988649,25.0493809 Z" id="Shape" fill-rule="nonzero"></path>
                        <path d="M53.3490566,52.9366893 L6.6509434,52.9366893 C2.98385915,52.9366893 0,49.9533829 0,46.2857459 L0,6.6509434 C0,2.98385915 2.98385915,0 6.6509434,0 L53.3490566,0 C57.0161408,0 60,2.98385915 60,6.6509434 L60,46.2857459 C60,49.9533829 57.0161408,52.9366893 53.3490566,52.9366893 Z M6.6509434,1.98113208 C4.07613509,1.98113208 1.98113208,4.07613509 1.98113208,6.6509434 L1.98113208,46.2857459 C1.98113208,48.8605542 4.07613509,50.9555573 6.6509434,50.9555573 L53.3490566,50.9555573 C55.9238649,50.9555573 58.0188679,48.8605542 58.0188679,46.2857459 L58.0188679,6.6509434 C58.0188679,4.07613509 55.9238649,1.98113208 53.3490566,1.98113208 L6.6509434,1.98113208 Z" id="Shape" fill-rule="nonzero"></path>
                        <path d="M59.009434,15.8617704 L0.990566038,15.8617704 C0.443322453,15.8617704 0,15.4184478 0,14.8712043 C0,14.3245135 0.443322453,13.8806383 0.990566038,13.8806383 L59.009434,13.8806383 C59.5566775,13.8806383 60,14.3245135 60,14.8712043 C60,15.4184478 59.5566775,15.8617704 59.009434,15.8617704 Z" id="Path"></path>
                        <path d="M16.9247493,11.1217571 C15.1967866,11.1217571 13.7899838,9.71495434 13.7899838,7.98699142 C13.7899838,6.25847575 15.1967866,4.85222575 16.9247493,4.85222575 C18.653265,4.85222575 20.059515,6.25847575 20.059515,7.98699142 C20.059515,9.71495434 18.653265,11.1217571 16.9247493,11.1217571 Z M16.9247493,6.83335783 C16.2890625,6.83335783 15.7711159,7.3507517 15.7711159,7.98699142 C15.7711159,8.62323113 16.2890625,9.140625 16.9247493,9.140625 C17.5609891,9.140625 18.0783829,8.62323113 18.0783829,7.98699142 C18.0783829,7.3507517 17.5609891,6.83335783 16.9247493,6.83335783 Z" id="Shape" fill-rule="nonzero"></path>
                        <path d="M7.29326349,11.0913546 C5.56474797,11.0913546 4.15849797,9.68510462 4.15849797,7.95658896 C4.15849797,6.22807344 5.56474797,4.82182344 7.29326349,4.82182344 C9.02177915,4.82182344 10.4280292,6.22807344 10.4280292,7.95658896 C10.4280292,9.68510462 9.02177915,11.0913546 7.29326349,11.0913546 Z M7.29326349,6.80295552 C6.65757665,6.80295552 6.13963005,7.32090212 6.13963005,7.95658896 C6.13963005,8.59282868 6.65757665,9.11022255 7.29326349,9.11022255 C7.92950321,9.11022255 8.44689708,8.59282868 8.44689708,7.95658896 C8.44689708,7.32090212 7.92950321,6.80295552 7.29326349,6.80295552 Z" id="Shape" fill-rule="nonzero"></path>
                        <path d="M26.5562352,11.1516068 C24.8282724,11.1516068 23.4220224,9.74535679 23.4220224,8.01684113 C23.4220224,6.28887821 24.8282724,4.88262821 26.5562352,4.88262821 C28.2847508,4.88262821 29.6910008,6.28887821 29.6910008,8.01684113 C29.6910008,9.74535679 28.2847508,11.1516068 26.5562352,11.1516068 Z M26.5562352,6.86320755 C25.9205483,6.86320755 25.4031545,7.38060142 25.4031545,8.01684113 C25.4031545,8.65308085 25.9205483,9.17047472 26.5562352,9.17047472 C27.1924749,9.17047472 27.7098688,8.65308085 27.7098688,8.01684113 C27.7098688,7.38060142 27.1924749,6.86320755 26.5562352,6.86320755 Z" id="Shape" fill-rule="nonzero"></path>
                    </g>
                </g>
            </g>
        </g>
    </g>
</svg>