<svg width="20" height="20" viewBox="0 0 20 20" fill="none" xmlns="http://www.w3.org/2000/svg">
<g id="youtube 1" clip-path="url(#clip0_105_1305)">
<g id="Group">
<g id="Group_2">
<path id="Vector" d="M19.7212 5.23477C19.6162 4.35902 18.7909 3.51926 17.9274 3.40676C12.6618 2.7525 7.33719 2.7525 2.07332 3.40676C1.20909 3.51902 0.383784 4.35902 0.278802 5.23477C-0.0929339 8.44436 -0.0929339 11.5564 0.278802 14.7652C0.383784 15.641 1.20909 16.4815 2.07332 16.5932C7.33719 17.2475 12.662 17.2475 17.9274 16.5932C18.7909 16.4817 19.6162 15.641 19.7212 14.7652C20.093 11.5567 20.093 8.44436 19.7212 5.23477ZM8.33321 13.334V6.66707L13.3333 10.0006L8.33321 13.334Z" fill="#115293"/>
</g>
</g>
</g>
<defs>
<clipPath id="clip0_105_1305">
<rect width="20" height="20" fill="white"/>
</clipPath>
</defs>
</svg>
