<svg width="50" height="50" viewBox="0 0 50 50" fill="none" xmlns="http://www.w3.org/2000/svg">
<g clip-path="url(#clip0_105_2524)">
<path d="M24.7498 49.16C38.2311 49.16 49.1598 38.2312 49.1598 24.75C49.1598 11.2687 38.2311 0.339966 24.7498 0.339966C11.2686 0.339966 0.339844 11.2687 0.339844 24.75C0.339844 38.2312 11.2686 49.16 24.7498 49.16Z" stroke="#6E8090" stroke-width="0.69" stroke-miterlimit="10"/>
<path d="M32.8909 37.9399L19.5409 28.5499H13.6609C9.06094 28.5499 9.06094 18.9299 13.6609 18.9299H19.7909L32.8909 10.3199V37.9399Z" stroke="#A1ACB7" stroke-width="1.12" stroke-linecap="round" stroke-linejoin="round"/>
<path d="M32.8906 17.14V28.29C35.7006 27.97 37.9006 25.61 37.9006 22.71C37.9006 19.81 35.7106 17.45 32.8906 17.13V17.14Z" stroke="#A1ACB7" stroke-width="1.12" stroke-linecap="round" stroke-linejoin="round"/>
<path d="M19.5402 28.5399H17.8502V32.0999L14.9702 34.8099C14.2902 35.4499 14.2602 36.5199 14.9002 37.1999C15.2302 37.5499 15.6802 37.7299 16.1302 37.7299C16.5502 37.7299 16.9602 37.5799 17.2902 37.2699L21.2302 33.5599V29.7299L19.5402 28.5399Z" stroke="#A1ACB7" stroke-width="1.12" stroke-linecap="round" stroke-linejoin="round"/>
</g>
<defs>
<clipPath id="clip0_105_2524">
<rect width="49.51" height="49.51" fill="white"/>
</clipPath>
</defs>
</svg>
