<svg width="50" height="50" viewBox="0 0 50 50" fill="none" xmlns="http://www.w3.org/2000/svg">
<g clip-path="url(#clip0_106_2938)">
<g clip-path="url(#clip1_106_2938)">
<path d="M24.7498 49.16C38.2311 49.16 49.1598 38.2313 49.1598 24.75C49.1598 11.2688 38.2311 0.340027 24.7498 0.340027C11.2686 0.340027 0.339844 11.2688 0.339844 24.75C0.339844 38.2313 11.2686 49.16 24.7498 49.16Z" stroke="#6E8090" stroke-width="0.69" stroke-miterlimit="10"/>
<path d="M24.7495 32.0201C31.504 32.0201 36.9795 26.5445 36.9795 19.7901C36.9795 13.0356 31.504 7.56006 24.7495 7.56006C17.9951 7.56006 12.5195 13.0356 12.5195 19.7901C12.5195 26.5445 17.9951 32.0201 24.7495 32.0201Z" stroke="#6E8090" stroke-width="0.69" stroke-miterlimit="10"/>
<path d="M24.8398 32.02L29.7498 41.95L33.5298 35.13L31.1098 30.23C29.2798 31.35 27.1398 32 24.8398 32.02Z" stroke="#6E8090" stroke-width="0.69" stroke-miterlimit="10"/>
<path d="M24.7491 32.02C22.7691 32.02 20.9091 31.54 19.2591 30.71L16.2891 41.27L23.6591 38.73L25.5591 31.98C25.2891 32 25.0191 32.02 24.7491 32.02Z" stroke="#6E8090" stroke-width="0.69" stroke-miterlimit="10"/>
<path d="M24.7497 12.35L26.4797 17.67H32.0797L27.5497 20.96L29.2797 26.29L24.7497 23L20.2297 26.29L21.9597 20.96L17.4297 17.67H23.0197L24.7497 12.35Z" stroke="#6E8090" stroke-width="0.69" stroke-miterlimit="10"/>
</g>
</g>
<defs>
<clipPath id="clip0_106_2938">
<rect width="49.51" height="49.51" fill="white"/>
</clipPath>
<clipPath id="clip1_106_2938">
<rect width="49.51" height="49.51" fill="white"/>
</clipPath>
</defs>
</svg>
