<svg width="60" height="51" viewBox="0 0 60 51" fill="none" xmlns="http://www.w3.org/2000/svg">
<g clip-path="url(#clip0_579_899)">
<mask id="mask0_579_899" style="mask-type:luminance" maskUnits="userSpaceOnUse" x="16" y="0" width="45" height="44">
<path d="M56.5795 20.5392C56.5795 21.9533 56.4327 23.3451 56.1617 24.6807C55.4052 28.3396 61.8862 40.7304 59.4586 43.4016C57.5731 45.478 47.0499 38.0929 44.4417 39.2601C41.8335 40.4274 38.9092 41.6059 35.9171 41.0783C16.5757 37.6888 18.1 31.9199 16.4176 23.8726C14.7353 15.8253 25.9923 19.978 25.5859 19.4729C23.1583 16.5099 34.9799 12.0766 32.304 9.05744C29.7635 6.19542 21.826 7.51981 20.5501 7.63204C9.18014 8.64217 24.5132 0 35.9283 0C47.3435 0 56.5907 9.19212 56.5907 20.5392H56.5795Z" fill="white"/>
</mask>
<g mask="url(#mask0_579_899)">
<path d="M56.7036 40.203L52.2889 26.903C53.0567 24.9501 53.497 22.8401 53.497 20.6178C53.497 11.0553 45.7063 3.31104 36.0864 3.31104C26.4665 3.31104 18.6758 11.0553 18.6758 20.6178C18.6758 30.1803 26.4665 37.9246 36.0864 37.9246C39.3721 37.9246 42.4319 37.0043 45.0627 35.433L56.7036 40.203Z" stroke="#79C99C" stroke-linecap="round" stroke-linejoin="round"/>
</g>
<mask id="mask1_579_899" style="mask-type:luminance" maskUnits="userSpaceOnUse" x="-1" y="7" width="53" height="45">
<path d="M3.42247 27.7784C3.42247 29.1926 3.56926 30.5843 3.84024 31.9199C4.59673 35.5788 -1.88426 47.9697 0.543287 50.6409C2.42887 52.7173 12.952 45.3321 15.5602 46.4994C18.1571 47.6666 21.0476 48.3176 24.0849 48.3176C31.8756 48.3176 37.8034 46.4882 41.3261 40.1581C41.4503 39.9336 39.1357 41.0559 36.6517 41.3365C34.7209 41.561 32.395 41.011 32.9257 40.6182C33.8741 39.9111 13.0536 34.7371 16.4861 26.5438C17.5136 24.0859 21.2734 21.9197 25.1349 23.4686C27.6415 24.4787 30.5772 28.5304 31.5482 30.068C33.016 32.4138 46.2151 28.2835 45.5828 26.3081C45.4134 25.7919 49.5911 25.1858 51.025 24.7705C48.6765 17.5986 32.7337 7.23926 24.0849 7.23926C12.6697 7.23926 3.42247 16.4314 3.42247 27.7784Z" fill="white"/>
</mask>
<g mask="url(#mask1_579_899)">
<path d="M23.9141 10.5615C14.2942 10.5615 6.5035 18.3058 6.5035 27.8683C6.5035 30.0906 6.94384 32.2006 7.71163 34.1535L3.29688 47.4535L14.9378 42.6834C17.5573 44.2547 20.6285 45.1751 23.9141 45.1751C33.534 45.1751 41.3247 37.4308 41.3247 27.8683C41.3247 18.3058 33.534 10.5615 23.9141 10.5615Z" stroke="#79C99C" stroke-linecap="round" stroke-linejoin="round"/>
</g>
</g>
<defs>
<clipPath id="clip0_579_899">
<rect width="60" height="51" fill="white"/>
</clipPath>
</defs>
</svg>
