<svg width="34" height="54" viewBox="0 0 34 54" fill="none" xmlns="http://www.w3.org/2000/svg">
<g clip-path="url(#clip0_579_870)">
<path d="M30.1282 0.663818H3.87206C2.09763 0.663818 0.65918 2.11282 0.65918 3.90026V50.0996C0.65918 51.887 2.09763 53.336 3.87206 53.336H30.1282C31.9026 53.336 33.3411 51.887 33.3411 50.0996V3.90026C33.3411 2.11282 31.9026 0.663818 30.1282 0.663818Z" stroke="#79C99C" stroke-linecap="round" stroke-linejoin="round"/>
<path d="M14.4639 6.52026H19.548" stroke="#79C99C" stroke-linecap="round" stroke-linejoin="round"/>
<path d="M17.0063 48.9496C18.2088 48.9496 19.1835 47.9677 19.1835 46.7564C19.1835 45.5452 18.2088 44.5632 17.0063 44.5632C15.8039 44.5632 14.8291 45.5452 14.8291 46.7564C14.8291 47.9677 15.8039 48.9496 17.0063 48.9496Z" fill="#79C99C"/>
</g>
<defs>
<clipPath id="clip0_579_870">
<rect width="34" height="54" fill="white"/>
</clipPath>
</defs>
</svg>
