<svg width="12" height="12" viewBox="0 0 12 12" fill="none" xmlns="http://www.w3.org/2000/svg">
<path d="M1.41998 0C2.27998 0 2.80001 0.555114 2.82001 1.28865C2.82001 2.00237 2.27996 2.57731 1.39996 2.57731H1.39001C0.550015 2.57731 0 2.00237 0 1.28865C0 0.57494 0.559983 0 1.41998 0ZM8.81 3.4298C10.46 3.4298 11.69 4.50037 11.69 6.79021V11.0824H9.17999V7.07767C9.17999 6.07649 8.81997 5.3826 7.90997 5.3826C7.21997 5.3826 6.79999 5.8485 6.62 6.29457C6.54999 6.45317 6.53998 6.67125 6.53998 6.89925V11.0725H4.02997C4.02997 11.0725 4.05997 4.2922 4.02997 3.59832H6.53998V4.64906C6.86998 4.14351 7.46999 3.41989 8.79999 3.41989L8.81 3.4298ZM6.54999 4.65898C6.54999 4.65898 6.53997 4.67881 6.52997 4.68872H6.54999V4.65898ZM0.149963 3.60822H2.65997V11.0824H0.149963V3.60822Z" fill="white"/>
</svg>
