<svg width="12" height="12" viewBox="0 0 12 12" fill="none" xmlns="http://www.w3.org/2000/svg">
<mask id="path-1-inside-1_93_539" fill="white">
<path d="M0.0299683 0L4.41998 5.82867L0 10.5669H1L4.87 6.42343L8 10.5669H11.39L6.75 4.41115L10.87 0H9.87L6.29999 3.8164L3.41998 0H0.0299683ZM1.5 0.723623H3.06L9.92999 9.8334H8.37L1.5 0.723623Z"/>
</mask>
<path d="M0.0299683 0L4.41998 5.82867L0 10.5669H1L4.87 6.42343L8 10.5669H11.39L6.75 4.41115L10.87 0H9.87L6.29999 3.8164L3.41998 0H0.0299683ZM1.5 0.723623H3.06L9.92999 9.8334H8.37L1.5 0.723623Z" fill="white"/>
<path d="M0.0299683 0V-1H-1.97512L-0.768812 0.601622L0.0299683 0ZM4.41998 5.82867L5.15122 6.51079L5.72355 5.89726L5.21876 5.22705L4.41998 5.82867ZM0 10.5669L-0.73124 9.88482L-2.30037 11.5669H0V10.5669ZM1 10.5669V11.5669H1.43434L1.73082 11.2495L1 10.5669ZM4.87 6.42343L5.66792 5.82067L4.95102 4.87163L4.13918 5.74085L4.87 6.42343ZM8 10.5669L7.20207 11.1697L7.50215 11.5669H8V10.5669ZM11.39 10.5669V11.5669H13.396L12.1886 9.96502L11.39 10.5669ZM6.75 4.41115L6.01919 3.72857L5.4459 4.34237L5.95145 5.01307L6.75 4.41115ZM10.87 0L11.6008 0.682577L13.1723 -1H10.87V0ZM9.87 0V-1H9.43611L9.13971 -0.68314L9.87 0ZM6.29999 3.8164L5.50177 4.41876L6.218 5.36787L7.03028 4.49954L6.29999 3.8164ZM3.41998 0L4.2182 -0.602368L3.91813 -1H3.41998V0ZM1.5 0.723623V-0.276377H-0.50662L0.701587 1.32573L1.5 0.723623ZM3.06 0.723623L3.85841 0.121512L3.55835 -0.276377H3.06V0.723623ZM9.92999 9.8334V10.8334H11.9366L10.7284 9.23129L9.92999 9.8334ZM8.37 9.8334L7.57158 10.4355L7.87164 10.8334H8.37V9.8334ZM0.0299683 0L-0.768812 0.601622L3.6212 6.4303L4.41998 5.82867L5.21876 5.22705L0.828749 -0.601622L0.0299683 0ZM4.41998 5.82867L3.68874 5.14655L-0.73124 9.88482L0 10.5669L0.73124 11.2491L5.15122 6.51079L4.41998 5.82867ZM0 10.5669V11.5669H1V10.5669V9.56694H0V10.5669ZM1 10.5669L1.73082 11.2495L5.60081 7.106L4.87 6.42343L4.13918 5.74085L0.269183 9.88437L1 10.5669ZM4.87 6.42343L4.07207 7.02618L7.20207 11.1697L8 10.5669L8.79793 9.96419L5.66792 5.82067L4.87 6.42343ZM8 10.5669V11.5669H11.39V10.5669V9.56694H8V10.5669ZM11.39 10.5669L12.1886 9.96502L7.54855 3.80923L6.75 4.41115L5.95145 5.01307L10.5915 11.1689L11.39 10.5669ZM6.75 4.41115L7.48081 5.09373L11.6008 0.682577L10.87 0L10.1392 -0.682577L6.01919 3.72857L6.75 4.41115ZM10.87 0V-1H9.87V0V1H10.87V0ZM9.87 0L9.13971 -0.68314L5.5697 3.13326L6.29999 3.8164L7.03028 4.49954L10.6003 0.68314L9.87 0ZM6.29999 3.8164L7.09821 3.21403L4.2182 -0.602368L3.41998 0L2.62176 0.602368L5.50177 4.41876L6.29999 3.8164ZM3.41998 0V-1H0.0299683V0V1H3.41998V0ZM1.5 0.723623V1.72362H3.06V0.723623V-0.276377H1.5V0.723623ZM3.06 0.723623L2.26158 1.32573L9.13158 10.4355L9.92999 9.8334L10.7284 9.23129L3.85841 0.121512L3.06 0.723623ZM9.92999 9.8334V8.8334H8.37V9.8334V10.8334H9.92999V9.8334ZM8.37 9.8334L9.16841 9.23129L2.29841 0.121512L1.5 0.723623L0.701587 1.32573L7.57158 10.4355L8.37 9.8334Z" fill="white" mask="url(#path-1-inside-1_93_539)"/>
</svg>
