<svg width="17" height="12" viewBox="0 0 17 12" fill="none" xmlns="http://www.w3.org/2000/svg">
<path fill-rule="evenodd" clip-rule="evenodd" d="M10.73 5.68988L6.38 8.01937V3.34058L8.34003 4.40124L10.73 5.68988ZM15.9301 2.52774C15.9301 2.52774 15.77 1.37787 15.29 0.872323C14.68 0.208172 13.9901 0.208165 13.6801 0.168514C11.4201 -1.81684e-06 8.05005 0 8.05005 0C8.05005 0 4.67004 -1.81684e-06 2.42004 0.168514C2.10004 0.208165 1.42005 0.208166 0.800049 0.88223C0.320049 1.38778 0.160034 2.53765 0.160034 2.53765C0.160034 2.53765 0 3.88578 0 5.2339V6.49282C0 7.84095 0.160034 9.18908 0.160034 9.18908C0.160034 9.18908 0.320049 10.339 0.800049 10.8445C1.41005 11.5086 2.22001 11.4888 2.57001 11.5582C3.86001 11.6772 8.04004 11.7267 8.04004 11.7267C8.04004 11.7267 11.4201 11.7267 13.6801 11.5582C13.9901 11.5186 14.68 11.5186 15.29 10.8445C15.77 10.339 15.9301 9.18908 15.9301 9.18908C15.9301 9.18908 16.09 7.84095 16.09 6.49282V5.2339C16.09 3.88578 15.9301 2.53765 15.9301 2.53765V2.52774Z" fill="white"/>
</svg>
