<svg width="47" height="35" viewBox="0 0 47 35" fill="none" xmlns="http://www.w3.org/2000/svg">
<g clip-path="url(#clip0_31_1455)">
<path d="M23.04 13.6799L17.2 10.1699V4.12988L23.04 7.62988V13.6799Z" stroke="#79C99C" stroke-width="1.25" stroke-linecap="round" stroke-linejoin="round"/>
<path d="M29.11 4.13012L23.04 0.620117L17.2 4.13012L23.04 7.63012L29.11 4.13012Z" stroke="#79C99C" stroke-width="1.25" stroke-linecap="round" stroke-linejoin="round"/>
<path d="M23.04 13.6799L29.15 10.1699L29.11 4.12988L23.04 7.62988V13.6799Z" stroke="#79C99C" stroke-width="1.25" stroke-linecap="round" stroke-linejoin="round"/>
<path d="M39.78 23.4299L33.94 19.9199V13.8799L39.78 17.3799V23.4299Z" stroke="#79C99C" stroke-width="1.25" stroke-linecap="round" stroke-linejoin="round"/>
<path d="M45.86 13.8799L39.78 10.3799L33.94 13.8799L39.78 17.3799L45.86 13.8799Z" stroke="#79C99C" stroke-width="1.25" stroke-linecap="round" stroke-linejoin="round"/>
<path d="M39.78 23.4299L45.89 19.9199L45.86 13.8799L39.78 17.3799V23.4299Z" stroke="#79C99C" stroke-width="1.25" stroke-linecap="round" stroke-linejoin="round"/>
<path d="M34.12 14.1199L25.74 8.8999" stroke="#79C99C" stroke-width="1.25" stroke-linecap="round" stroke-linejoin="round"/>
<path d="M6.46 23.4799L0.619995 19.9799V13.9299L6.46 17.4399V23.4799Z" stroke="#79C99C" stroke-width="1.25" stroke-linecap="round" stroke-linejoin="round"/>
<path d="M12.54 13.9299L6.46 10.4299L0.619995 13.9299L6.46 17.4399L12.54 13.9299Z" stroke="#79C99C" stroke-width="1.25" stroke-linecap="round" stroke-linejoin="round"/>
<path d="M6.46002 23.4799L12.58 19.9799L12.54 13.9299L6.46002 17.4399V23.4799Z" stroke="#79C99C" stroke-width="1.25" stroke-linecap="round" stroke-linejoin="round"/>
<path d="M22.83 33.8L16.99 30.3V24.25L22.83 27.76V33.8Z" stroke="#79C99C" stroke-width="1.25" stroke-linecap="round" stroke-linejoin="round"/>
<path d="M28.91 24.25L22.83 20.75L16.99 24.25L22.83 27.76L28.91 24.25Z" stroke="#79C99C" stroke-width="1.25" stroke-linecap="round" stroke-linejoin="round"/>
<path d="M22.83 33.8L28.94 30.3L28.91 24.25L22.83 27.76V33.8Z" stroke="#79C99C" stroke-width="1.25" stroke-linecap="round" stroke-linejoin="round"/>
<path d="M17.64 23.8001L9.70001 19.0701" stroke="#79C99C" stroke-width="1.25" stroke-linecap="round" stroke-linejoin="round"/>
<path d="M36.93 18.8799L28.8 23.7999" stroke="#79C99C" stroke-width="1.25" stroke-linecap="round" stroke-linejoin="round"/>
<path d="M19.81 9.20996L12.46 13.33" stroke="#79C99C" stroke-width="1.25" stroke-linecap="round" stroke-linejoin="round"/>
<g clip-path="url(#clip1_31_1455)">
</g>
</g>
<defs>
<clipPath id="clip0_31_1455">
<rect width="46.52" height="34.42" fill="white"/>
</clipPath>
<clipPath id="clip1_31_1455">
<rect width="480.88" height="458.59" fill="white" transform="translate(-217 -212)"/>
</clipPath>
</defs>
</svg>
