<svg width="1495" height="4120" viewBox="0 0 1495 4120" fill="none" xmlns="http://www.w3.org/2000/svg">
<line x1="1485" y1="3845.5" x2="1459" y2="3845.5" stroke="#6E8090"/>
<line x1="24" y1="3845.5" x2="1" y2="3845.5" stroke="#6E8090"/>
<circle cx="733" cy="3846" r="1" fill="#ABACAC"/>
<circle cx="743" cy="3846" r="1" fill="#ABACAC"/>
<circle cx="753" cy="3846" r="1" fill="#ABACAC"/>
<line x1="1485" y1="2926.5" x2="1459" y2="2926.5" stroke="#6E8090"/>
<line x1="24" y1="2926.5" x2="1" y2="2926.5" stroke="#6E8090"/>
<circle cx="733" cy="2927" r="0.5" fill="#6E8090" stroke="#6E8090"/>
<circle cx="743" cy="2927" r="0.5" fill="#6E8090" stroke="#6E8090"/>
<circle cx="753" cy="2927" r="0.5" fill="#6E8090" stroke="#6E8090"/>
<line x1="1485" y1="2874.5" x2="1459" y2="2874.5" stroke="#6E8090"/>
<line x1="24" y1="2874.5" x2="1" y2="2874.5" stroke="#6E8090"/>
<circle cx="733" cy="2875" r="0.5" fill="#6E8090" stroke="#6E8090"/>
<circle cx="743" cy="2875" r="0.5" fill="#6E8090" stroke="#6E8090"/>
<circle cx="753" cy="2875" r="0.5" fill="#6E8090" stroke="#6E8090"/>
<line x1="1485" y1="2340.5" x2="1459" y2="2340.5" stroke="#6E8090"/>
<line x1="24" y1="2340.5" x2="1" y2="2340.5" stroke="#6E8090"/>
<circle cx="733" cy="2341" r="1" fill="#6E8090"/>
<circle cx="743" cy="2341" r="1" fill="#6E8090"/>
<circle cx="753" cy="2341" r="1" fill="#6E8090"/>
<line x1="1485" y1="2288.5" x2="1459" y2="2288.5" stroke="#6E8090"/>
<line x1="24" y1="2288.5" x2="1" y2="2288.5" stroke="#6E8090"/>
<circle cx="733" cy="2289" r="1" fill="#6E8090"/>
<circle cx="743" cy="2289" r="1" fill="#6E8090"/>
<circle cx="753" cy="2289" r="1" fill="#6E8090"/>
<line x1="1485" y1="1494.5" x2="1459" y2="1494.5" stroke="#6E8090"/>
<line x1="24" y1="1494.5" x2="1" y2="1494.5" stroke="#6E8090"/>
<circle cx="733" cy="1495" r="1" fill="#6E8090"/>
<circle cx="743" cy="1495" r="1" fill="#6E8090"/>
<circle cx="753" cy="1495" r="1" fill="#6E8090"/>
<line x1="1485" y1="1442.5" x2="1459" y2="1442.5" stroke="#6E8090"/>
<line x1="24" y1="1442.5" x2="1" y2="1442.5" stroke="#6E8090"/>
<circle cx="733" cy="1443" r="1" fill="#6E8090"/>
<circle cx="743" cy="1443" r="1" fill="#6E8090"/>
<circle cx="753" cy="1443" r="1" fill="#6E8090"/>
<line x1="1484" y1="730.5" x2="1458" y2="730.5" stroke="#ABACAC"/>
<line x1="23" y1="730.5" y2="730.5" stroke="#ABACAC"/>
<circle cx="732" cy="731" r="1" fill="#ABACAC"/>
<circle cx="742" cy="731" r="1" fill="#ABACAC"/>
<circle cx="752" cy="731" r="1" fill="#ABACAC"/>
<line x1="1478.25" y1="-1.09278e-08" x2="1478.25" y2="4199" stroke="#6E8090" stroke-width="0.5"/>
<line x1="6.24963" y1="-1.09278e-08" x2="6.24982" y2="4191" stroke="#B6BBCD" stroke-width="0.5"/>
</svg>
