<svg width="94" height="308" viewBox="0 0 94 308" fill="none" xmlns="http://www.w3.org/2000/svg">
<ellipse cx="68.0473" cy="306.375" rx="1.04726" ry="1" fill="#ABACAC"/>
<ellipse cx="78.5199" cy="306.375" rx="1.04726" ry="1" fill="#ABACAC"/>
<ellipse cx="88.9924" cy="306.375" rx="1.04726" ry="1" fill="#ABACAC"/>
<ellipse cx="67.0473" cy="222.375" rx="1.04726" ry="1" fill="#ABACAC"/>
<ellipse cx="77.5199" cy="222.375" rx="1.04726" ry="1" fill="#ABACAC"/>
<ellipse cx="87.9924" cy="222.375" rx="1.04726" ry="1" fill="#ABACAC"/>
<ellipse cx="69.0473" cy="138.375" rx="1.04726" ry="1" fill="#ABACAC"/>
<ellipse cx="79.5199" cy="138.375" rx="1.04726" ry="1" fill="#ABACAC"/>
<ellipse cx="89.9924" cy="138.375" rx="1.04726" ry="1" fill="#ABACAC"/>
<ellipse cx="71.0473" cy="57.375" rx="1.04726" ry="1" fill="#ABACAC"/>
<ellipse cx="81.5199" cy="57.375" rx="1.04726" ry="1" fill="#ABACAC"/>
<ellipse cx="91.9924" cy="57.375" rx="1.04726" ry="1" fill="#ABACAC"/>
<g clip-path="url(#clip0_30_969)">
<mask id="mask0_30_969" style="mask-type:luminance" maskUnits="userSpaceOnUse" x="2" y="249" width="17" height="19">
<path d="M10.42 267.335C1.18999 263.925 2.01999 252.225 2.01999 252.225C5.35999 251.985 7.49999 250.625 8.77999 249.375H12.05C13.33 250.625 15.47 251.985 18.81 252.225C18.81 252.225 18.81 254.325 18.55 256.285C18.52 256.555 16.44 254.815 16.39 255.095C16.09 256.885 13.61 261.485 12.45 263.445C12.3 263.695 15.77 263.255 15.6 263.495C14.36 265.295 12.98 266.405 10.41 267.345" fill="white"/>
</mask>
<g mask="url(#mask0_30_969)">
<path d="M10.42 265.945C2.61 263.055 3.31 253.145 3.31 253.145C6.14 252.945 7.95 251.785 9.04 250.735H11.81C12.9 251.795 14.71 252.945 17.54 253.145C17.54 253.145 18.24 263.055 10.43 265.945" stroke="#6E8090" stroke-width="1.38" stroke-linecap="round" stroke-linejoin="round"/>
</g>
<path d="M18.13 256.785C18.13 256.785 18.03 256.785 17.98 256.785C17.56 255.405 16.28 254.405 14.76 254.405C13.24 254.405 11.96 255.405 11.54 256.785C9.74999 256.865 8.32999 258.335 8.32999 260.145C8.32999 261.955 9.83999 263.515 11.7 263.515H18.13C19.99 263.515 21.5 262.005 21.5 260.145C21.5 258.285 19.99 256.775 18.13 256.775V256.785Z" stroke="#6E8090" stroke-width="1.18" stroke-linecap="round" stroke-linejoin="round"/>
<path d="M16.1 262.055L15.41 258.875C15.8 258.695 16.07 258.305 16.07 257.855C16.07 257.235 15.56 256.735 14.94 256.735C14.32 256.735 13.81 257.235 13.81 257.855C13.81 258.245 14.01 258.585 14.31 258.785C14.38 258.835 14.46 258.875 14.54 258.905L13.81 262.045L16.09 262.065L16.1 262.055Z" stroke="#6E8090" stroke-width="1.18" stroke-linecap="round" stroke-linejoin="round"/>
</g>
<g clip-path="url(#clip1_30_969)">
<mask id="mask1_30_969" style="mask-type:luminance" maskUnits="userSpaceOnUse" x="1" y="165" width="17" height="19">
<path d="M9.41999 183.335C0.189988 179.925 1.01999 168.225 1.01999 168.225C4.35999 167.985 6.49999 166.625 7.77999 165.375H11.05C12.33 166.625 14.47 167.985 17.81 168.225C17.81 168.225 17.91 169.605 17.66 171.555C17.63 171.825 15.37 170.555 15.32 170.845C15.02 172.635 12.31 178.325 11.14 180.285C10.99 180.535 14.19 180.975 14.02 181.225C12.78 183.025 11.98 182.395 9.40999 183.345" fill="white"/>
</mask>
<g mask="url(#mask1_30_969)">
<path d="M9.42 181.945C1.61 179.055 2.31 169.145 2.31 169.145C5.14 168.945 6.95 167.785 8.04 166.735H10.81C11.9 167.795 13.71 168.945 16.54 169.145C16.54 169.145 17.24 179.055 9.43 181.945" stroke="#6E8090" stroke-width="1.38" stroke-linecap="round" stroke-linejoin="round"/>
</g>
<path d="M13.8 181.045C16.705 181.045 19.06 178.69 19.06 175.785C19.06 172.88 16.705 170.525 13.8 170.525C10.895 170.525 8.54001 172.88 8.54001 175.785C8.54001 178.69 10.895 181.045 13.8 181.045Z" stroke="#6E8090" stroke-width="1.05" stroke-linecap="round" stroke-linejoin="round"/>
<path d="M12.23 174.405C12.49 173.775 13.11 173.325 13.84 173.325C14.8 173.325 15.58 174.105 15.58 175.065C15.58 176.025 14.8 176.805 13.84 176.805V177.935" stroke="#6E8090" stroke-width="1.05" stroke-linecap="round" stroke-linejoin="round"/>
<path d="M13.84 178.835V178.875" stroke="#6E8090" stroke-width="1.05" stroke-linecap="round" stroke-linejoin="round"/>
</g>
<g clip-path="url(#clip2_30_969)">
<path d="M20.19 87.425H7.73001V95.175H20.19V87.425Z" stroke="#6E8090" stroke-width="1.38" stroke-linecap="round" stroke-linejoin="round"/>
<path d="M7.73001 87.425L13.96 91.305L20.19 87.425" stroke="#6E8090" stroke-width="1.38" stroke-linecap="round" stroke-linejoin="round"/>
<path d="M20.19 95.055L14.89 90.725L13.96 91.305L13.03 90.725L7.73001 95.055" stroke="#6E8090" stroke-width="1.38" stroke-linecap="round" stroke-linejoin="round"/>
<mask id="mask2_30_969" style="mask-type:luminance" maskUnits="userSpaceOnUse" x="0" y="81" width="17" height="19">
<path d="M8.41999 99.335C-0.810012 95.925 0.0199877 84.225 0.0199877 84.225C3.35999 83.985 5.49999 82.625 6.77999 81.375H10.05C11.33 82.625 13.47 83.985 16.81 84.225C16.81 84.225 16.91 85.605 16.66 87.555C16.63 87.825 14.31 87.445 14.26 87.725C13.96 89.515 12.03 92.985 10.86 94.945C10.71 95.195 14.18 94.755 14.01 94.995C12.77 96.795 10.98 98.385 8.40999 99.335" fill="white"/>
</mask>
<g mask="url(#mask2_30_969)">
<path d="M8.42 97.945C0.609998 95.055 1.31 85.145 1.31 85.145C4.14 84.945 5.95 83.785 7.04 82.735H9.81C10.9 83.795 12.71 84.945 15.54 85.145C15.54 85.145 16.24 95.055 8.43 97.945" stroke="#6E8090" stroke-width="1.38" stroke-linecap="round" stroke-linejoin="round"/>
</g>
</g>
<g clip-path="url(#clip3_30_969)">
<path d="M7.62999 6.76498C8.19332 6.76498 8.64999 6.30831 8.64999 5.74498C8.64999 5.18165 8.19332 4.72498 7.62999 4.72498C7.06666 4.72498 6.60999 5.18165 6.60999 5.74498C6.60999 6.30831 7.06666 6.76498 7.62999 6.76498Z" stroke="#6E8090" stroke-width="0.33" stroke-linecap="round" stroke-linejoin="round"/>
<path d="M10.82 16.2749C3.00001 13.3849 3.70001 3.47494 3.70001 3.47494C6.53001 3.27494 8.34001 2.11494 9.43001 1.06494H12.2C13.29 2.12494 15.1 3.27494 17.93 3.47494C17.93 3.47494 18.63 13.3849 10.82 16.2749Z" stroke="#6E8090" stroke-width="1.38" stroke-linecap="round" stroke-linejoin="round"/>
<path d="M11.05 12.195C13.3862 12.195 15.28 10.3012 15.28 7.96499C15.28 5.62882 13.3862 3.73499 11.05 3.73499C8.71384 3.73499 6.82001 5.62882 6.82001 7.96499C6.82001 10.3012 8.71384 12.195 11.05 12.195Z" stroke="#6E8090" stroke-width="1.38" stroke-linecap="round" stroke-linejoin="round"/>
<path d="M11.05 10.395C12.381 10.395 13.46 9.31596 13.46 7.98495C13.46 6.65395 12.381 5.57495 11.05 5.57495C9.71901 5.57495 8.64001 6.65395 8.64001 7.98495C8.64001 9.31596 9.71901 10.395 11.05 10.395Z" stroke="#6E8090" stroke-width="0.78" stroke-linecap="round" stroke-linejoin="round"/>
</g>
<rect x="3" y="0.375" width="15.63" height="16.59" stroke="black" stroke-width="0.75"/>
<defs>
<clipPath id="clip0_30_969">
<rect width="20.08" height="17.96" fill="white" transform="translate(2 249.375)"/>
</clipPath>
<clipPath id="clip1_30_969">
<rect width="18.58" height="17.96" fill="white" transform="translate(1 165.375)"/>
</clipPath>
<clipPath id="clip2_30_969">
<rect width="20.88" height="17.96" fill="white" transform="translate(0 81.375)"/>
</clipPath>
<clipPath id="clip3_30_969">
<rect x="3" y="0.375" width="15.63" height="16.59" fill="white"/>
</clipPath>
</defs>
</svg>
