<svg width="74" height="74" viewBox="0 0 74 74" fill="none" xmlns="http://www.w3.org/2000/svg">
<g clip-path="url(#clip0_30_1358)">
<path d="M36.86 73.0299C56.8361 73.0299 73.03 56.8361 73.03 36.8599C73.03 16.8838 56.8361 0.689941 36.86 0.689941C16.8839 0.689941 0.690002 16.8838 0.690002 36.8599C0.690002 56.8361 16.8839 73.0299 36.86 73.0299Z" stroke="#B6BBCD" stroke-width="1.38" stroke-miterlimit="10"/>
<path d="M38.07 59.4999C50.3141 59.4999 60.24 49.5741 60.24 37.3299C60.24 25.0858 50.3141 15.1599 38.07 15.1599C25.8258 15.1599 15.9 25.0858 15.9 37.3299C15.9 49.5741 25.8258 59.4999 38.07 59.4999Z" stroke="#79C99C" stroke-width="2.75" stroke-miterlimit="10" stroke-linecap="round"/>
<path d="M42.92 58.19C51.5412 58.19 58.53 51.2011 58.53 42.58C58.53 33.9588 51.5412 26.97 42.92 26.97C34.2988 26.97 27.31 33.9588 27.31 42.58C27.31 51.2011 34.2988 58.19 42.92 58.19Z" stroke="#79C99C" stroke-width="2.75" stroke-miterlimit="10" stroke-linecap="round"/>
<path d="M47.13 56.2001C52.4154 56.2001 56.7 51.9154 56.7 46.6301C56.7 41.3447 52.4154 37.0601 47.13 37.0601C41.8446 37.0601 37.56 41.3447 37.56 46.6301C37.56 51.9154 41.8446 56.2001 47.13 56.2001Z" stroke="#79C99C" stroke-width="2.75" stroke-miterlimit="10" stroke-linecap="round"/>
<path d="M49.76 48.9399L58.57 55.0699" stroke="#79C99C" stroke-width="2.75" stroke-miterlimit="10" stroke-linecap="round"/>
</g>
<defs>
<clipPath id="clip0_30_1358">
<rect width="73.72" height="73.72" fill="white"/>
</clipPath>
</defs>
</svg>
