<svg width="76" height="51" viewBox="0 0 76 51" fill="none" xmlns="http://www.w3.org/2000/svg">
<g clip-path="url(#clip0_41_1051)">
<path d="M15.6653 46.7055C15.9312 46.7722 16.1749 46.8613 16.4187 47.0393C16.6402 47.195 16.8618 47.3508 17.0612 47.5288C17.2606 47.6846 17.4601 47.8403 17.6373 47.9738C17.8146 48.1073 17.9918 48.1741 18.1691 48.1741C18.2577 48.1741 18.3464 48.1741 18.4128 48.1296C18.4793 48.1073 18.5458 48.0851 18.6122 48.0851C18.6344 48.0851 18.6566 48.0851 18.6566 48.1296C18.6566 48.1963 18.5901 48.2631 18.5236 48.3298C18.4571 48.3966 18.3685 48.4411 18.2799 48.4856C18.1913 48.5301 18.0805 48.5524 17.9918 48.5746C17.9032 48.5746 17.8146 48.5969 17.7481 48.5969C17.5265 48.5969 17.3271 48.5524 17.1277 48.4856C16.9283 48.3966 16.751 48.3076 16.5516 48.1741C16.3743 48.0406 16.1971 47.9071 16.0198 47.7736C15.8426 47.6178 15.6875 47.4843 15.5324 47.3508C15.3773 47.2173 15.2222 47.106 15.0671 46.9948C14.912 46.8835 14.779 46.8168 14.6461 46.7722C14.2472 46.7277 13.8706 46.6165 13.5382 46.4607C13.2058 46.2827 12.9399 46.0602 12.6962 45.7932C12.4746 45.5262 12.2974 45.1924 12.1644 44.8364C12.0315 44.4581 11.9872 44.0576 11.9872 43.6348C11.9872 43.212 12.0758 42.7893 12.2309 42.411C12.386 42.0327 12.6076 41.699 12.8735 41.4097C13.1394 41.1204 13.4496 40.8979 13.8041 40.7199C14.1586 40.5419 14.5353 40.4751 14.9341 40.4751C15.488 40.4751 15.9534 40.5641 16.3522 40.7421C16.751 40.9202 17.0834 41.1427 17.3493 41.4319C17.6152 41.7212 17.8146 42.055 17.9475 42.4332C18.0805 42.8115 18.1469 43.212 18.1469 43.6348C18.1469 44.0576 18.0805 44.4136 17.9697 44.7696C17.8589 45.1257 17.6816 45.4149 17.4601 45.6819C17.2385 45.949 16.9948 46.1715 16.6846 46.3495C16.3743 46.5275 16.042 46.6387 15.6875 46.7055V46.75L15.6653 46.7055ZM15.2 46.3272C15.4881 46.3272 15.7539 46.2605 15.9977 46.1492C16.2414 46.038 16.4408 45.8822 16.6181 45.6819C16.7953 45.4817 16.9283 45.2369 17.0169 44.9699C17.1055 44.7029 17.172 44.3914 17.172 44.0576C17.172 43.6126 17.1277 43.1898 17.0391 42.8115C16.9504 42.4332 16.7953 42.0995 16.6181 41.8102C16.4187 41.5209 16.1971 41.2984 15.8869 41.1427C15.5988 40.9869 15.2665 40.8979 14.8676 40.8979C14.6018 40.8979 14.358 40.9424 14.1364 41.0537C13.8927 41.1427 13.6933 41.2984 13.516 41.4764C13.3388 41.6544 13.2058 41.8992 13.095 42.1662C12.9843 42.4332 12.9399 42.7448 12.9399 43.1008C12.9399 43.5681 12.9843 43.9908 13.095 44.3914C13.2058 44.7919 13.3388 45.1257 13.5382 45.4372C13.7376 45.7264 13.9592 45.9489 14.2472 46.127C14.5353 46.2827 14.8455 46.3717 15.2222 46.3717L15.2 46.3272Z" fill="white"/>
<path d="M25.3703 44.5471C25.3703 44.9031 25.3259 45.2369 25.2373 45.5262C25.1487 45.8154 25.0157 46.0602 24.8385 46.2827C24.6391 46.5052 24.3953 46.661 24.0851 46.7722C23.7749 46.8835 23.3761 46.9503 22.9108 46.9503C22.379 46.9503 21.9359 46.8835 21.6035 46.75C21.2711 46.6165 21.0274 46.4385 20.8501 46.216C20.6729 45.9934 20.5621 45.7487 20.4956 45.4594C20.4292 45.1701 20.407 44.8809 20.407 44.5916V41.3874C20.407 41.2539 20.3627 41.1649 20.2741 41.1204C20.1854 41.0537 20.0303 41.0092 19.7866 40.9869C19.7201 40.9869 19.698 40.9201 19.698 40.8311C19.698 40.7866 19.698 40.7421 19.698 40.6754C19.8752 40.6754 20.0746 40.6976 20.2741 40.6976C20.4735 40.6976 20.6507 40.6976 20.8501 40.6976C21.0052 40.6976 21.2047 40.6976 21.4262 40.6976C21.6478 40.6976 21.8472 40.6976 22.0466 40.6754C22.0466 40.7421 22.0466 40.7866 22.0466 40.8311C22.0466 40.9424 22.0245 40.9869 21.958 40.9869C21.7143 41.0092 21.5592 41.0537 21.4484 41.1204C21.3376 41.1872 21.2933 41.2762 21.2933 41.3874V44.3914C21.2933 45.0366 21.4262 45.5484 21.6921 45.8822C21.958 46.2382 22.4012 46.394 22.9994 46.394C23.3539 46.394 23.642 46.3495 23.8857 46.2827C24.1294 46.1937 24.3289 46.0824 24.484 45.9267C24.6391 45.7709 24.7499 45.5484 24.8163 45.2814C24.8828 45.0144 24.9271 44.7029 24.9271 44.3468V41.3874C24.9271 41.2539 24.8828 41.1649 24.7942 41.1204C24.7055 41.0537 24.5283 41.0092 24.2845 40.9869C24.2181 40.9869 24.1738 40.9201 24.1738 40.8311C24.1738 40.7866 24.1738 40.7421 24.1738 40.6754C24.351 40.6754 24.5283 40.6976 24.7055 40.6976C24.8828 40.6976 25.0157 40.6976 25.1487 40.6976C25.3038 40.6976 25.4589 40.6976 25.614 40.6976C25.7691 40.6976 25.9242 40.6976 26.0793 40.6754C26.0793 40.7421 26.0793 40.7866 26.0793 40.8311C26.0793 40.8534 26.0793 40.8979 26.0571 40.9201C26.0571 40.9646 26.0128 40.9647 25.9907 40.9869C25.7691 41.0092 25.5918 41.0537 25.5032 41.1204C25.4146 41.1872 25.3703 41.2762 25.3703 41.3874V44.5471Z" fill="white"/>
<path d="M30.7545 44.4136H28.6717L28.0735 45.9267C28.0735 45.9267 28.0292 46.0602 28.0292 46.1047C28.0292 46.2382 28.2286 46.3272 28.6053 46.394C28.6496 46.394 28.6717 46.4162 28.6939 46.4385C28.6939 46.4607 28.716 46.5052 28.716 46.5275C28.716 46.5497 28.716 46.6165 28.716 46.6832C28.5388 46.6832 28.3615 46.661 28.1843 46.661C28.007 46.661 27.8076 46.661 27.6303 46.661C27.4974 46.661 27.3866 46.661 27.2536 46.661C27.1207 46.661 26.9878 46.661 26.8327 46.7055C26.8327 46.661 26.8327 46.5942 26.8327 46.5497C26.8327 46.5052 26.8327 46.4607 26.8548 46.4385C26.8548 46.4162 26.8991 46.394 26.9434 46.3717C27.1429 46.3495 27.2758 46.305 27.3866 46.2605C27.4752 46.216 27.5639 46.1492 27.6082 46.038L29.8682 40.5864C29.8682 40.5864 29.979 40.4306 30.0455 40.4306C30.0676 40.4306 30.112 40.4306 30.1563 40.4306L32.4163 46.0602C32.4163 46.0602 32.5493 46.216 32.6601 46.2605C32.793 46.305 32.926 46.3495 33.0367 46.3717C33.0811 46.3717 33.1032 46.394 33.1254 46.4162C33.1254 46.4162 33.1475 46.483 33.1475 46.5275C33.1475 46.572 33.1475 46.6165 33.1475 46.6832C32.9481 46.6832 32.7487 46.661 32.5493 46.661C32.3499 46.661 32.1726 46.661 31.9953 46.661C31.8181 46.661 31.6187 46.661 31.3971 46.661C31.1755 46.661 30.9761 46.661 30.7767 46.6832C30.7767 46.6165 30.7767 46.572 30.7767 46.5275C30.7767 46.4607 30.7767 46.4385 30.7988 46.4162C30.7988 46.4162 30.8432 46.394 30.8653 46.394C31.0204 46.3717 31.1534 46.3272 31.2641 46.2827C31.3749 46.2382 31.4192 46.1715 31.4192 46.1047C31.4192 46.0602 31.4192 46.0157 31.3749 45.9712L30.7767 44.4136H30.7545ZM30.6216 44.0353L29.7574 41.7212L28.849 44.0353H30.6216Z" fill="white"/>
<path d="M39.3738 45.3482V41.4319C39.3959 41.2984 39.3738 41.1872 39.263 41.1427C39.1522 41.0759 38.9971 41.0314 38.7534 41.0091C38.6869 41.0091 38.6426 40.9424 38.6426 40.8534C38.6426 40.8089 38.6426 40.7644 38.6426 40.6976C38.7977 40.6976 38.9528 40.7199 39.13 40.7199C39.2851 40.7199 39.4402 40.7199 39.5953 40.7199C39.7504 40.7199 39.8834 40.7199 40.0163 40.7199C40.1714 40.7199 40.3044 40.7199 40.4595 40.6976C40.4595 40.7644 40.4595 40.8089 40.4595 40.8534C40.4595 40.9646 40.4373 41.0091 40.3708 41.0091C40.1493 41.0314 40.0163 41.0759 39.9277 41.1427C39.8391 41.2094 39.8169 41.2984 39.8169 41.4097V46.9502C39.8169 46.9502 39.7504 46.9502 39.7283 46.9502C39.7061 46.9502 39.6618 46.9502 39.6618 46.9502C39.6175 46.9502 39.5732 46.9502 39.5289 46.928C39.4845 46.928 39.4402 46.8612 39.3959 46.7945L35.6292 41.7657V46.2382C35.6292 46.3717 35.6735 46.4607 35.7621 46.5052C35.8507 46.5497 36.028 46.5942 36.2717 46.6387C36.3382 46.6387 36.3604 46.7055 36.3604 46.7945C36.3604 46.839 36.3604 46.8835 36.3604 46.9502C36.2052 46.9502 36.0501 46.928 35.895 46.928C35.7399 46.928 35.5848 46.928 35.4519 46.928C35.319 46.928 35.186 46.928 35.0087 46.928C34.8315 46.928 34.6764 46.928 34.5434 46.9502C34.5434 46.8835 34.5434 46.839 34.5434 46.7945C34.5434 46.7055 34.5878 46.661 34.6542 46.6387C34.8758 46.5942 35.0309 46.5497 35.1195 46.5052C35.2082 46.4607 35.2303 46.3717 35.2303 46.2382V41.3652C35.2303 41.3652 35.186 41.1872 35.1195 41.1427C35.0531 41.0982 34.898 41.0537 34.6764 41.0091C34.6099 41.0091 34.5656 40.9424 34.5656 40.8534C34.5656 40.8311 34.5656 40.7866 34.5656 40.7644C34.5656 40.7644 34.5656 40.7199 34.5656 40.6976C34.6985 40.6976 34.8093 40.6976 34.9201 40.7199C35.0309 40.7199 35.1195 40.7199 35.2303 40.7199C35.3411 40.7199 35.4519 40.7199 35.5405 40.7199C35.7178 40.7199 35.8507 40.7199 35.895 40.7199C35.9615 40.7199 36.0058 40.7644 36.0501 40.8089L39.3738 45.3037V45.3482Z" fill="white"/>
<path d="M45.2898 41.0982V46.1937C45.2898 46.3495 45.3563 46.4385 45.4671 46.5052C45.5778 46.572 45.7773 46.6165 46.0653 46.6387C46.1318 46.6387 46.1761 46.6832 46.1761 46.7945C46.1761 46.839 46.1761 46.8835 46.1761 46.9503C45.9767 46.9503 45.7551 46.928 45.5335 46.928C45.3119 46.928 45.0904 46.928 44.8688 46.928C44.6472 46.928 44.4257 46.928 44.2041 46.928C43.9825 46.928 43.7609 46.928 43.5615 46.9503C43.5615 46.8835 43.5615 46.839 43.5615 46.7945C43.5615 46.7055 43.5837 46.661 43.6501 46.6387C43.9382 46.5942 44.1376 46.5497 44.2706 46.5052C44.4035 46.4385 44.4478 46.3495 44.4478 46.1937V41.0982H43.4729C43.2956 41.0982 43.1184 41.0982 43.0076 41.1649C42.8746 41.2094 42.7638 41.2539 42.6752 41.3429C42.5866 41.4097 42.498 41.5209 42.4315 41.6322C42.365 41.7434 42.2985 41.8992 42.2099 42.055C42.2099 42.0772 42.1878 42.0995 42.1434 42.1217C42.1213 42.1217 42.0991 42.1217 42.0548 42.1217C41.9883 42.1217 41.9219 42.1217 41.8775 42.055C41.944 41.8325 41.9883 41.6322 42.0105 41.4542C42.0326 41.2762 42.077 41.1204 42.0991 41.0092C42.1213 40.8979 42.1434 40.8089 42.1878 40.7421C42.2099 40.6754 42.2542 40.6531 42.3207 40.6531C42.365 40.6531 42.4315 40.6531 42.498 40.6531C42.5866 40.6531 42.6752 40.6531 42.7638 40.6531C42.8525 40.6531 42.9411 40.6531 43.0297 40.6531C43.1184 40.6531 43.207 40.6531 43.2956 40.6531H46.4198C46.4198 40.6531 46.5749 40.6531 46.6636 40.6531C46.7522 40.6531 46.8408 40.6531 46.9516 40.6531C47.0402 40.6531 47.1289 40.6531 47.2175 40.6531C47.3061 40.6531 47.3504 40.6531 47.4169 40.6531C47.4834 40.6531 47.5277 40.6754 47.5498 40.7421C47.572 40.8089 47.5942 40.8979 47.6385 41.0314C47.6606 41.1427 47.6828 41.2984 47.7271 41.4764C47.7493 41.6544 47.7936 41.8547 47.8822 42.0772C47.8601 42.0772 47.8157 42.0995 47.7936 42.1217C47.7714 42.1217 47.7271 42.1217 47.705 42.1217C47.6828 42.1217 47.6606 42.1217 47.6163 42.1217C47.5942 42.1217 47.572 42.0772 47.5498 42.055C47.4834 41.8992 47.4169 41.7657 47.3504 41.6322C47.284 41.5209 47.1953 41.4097 47.1067 41.3429C47.0181 41.2762 46.9073 41.2094 46.7743 41.1649C46.6414 41.1204 46.4863 41.0982 46.309 41.0982H45.3341H45.2898Z" fill="white"/>
<path d="M54.9061 44.5471C54.9061 44.9031 54.8618 45.2369 54.7732 45.5262C54.6846 45.8154 54.5516 46.0602 54.3744 46.2827C54.1749 46.5052 53.9312 46.661 53.621 46.7722C53.3108 46.8835 52.912 46.9503 52.4467 46.9503C51.9149 46.9503 51.4717 46.8835 51.1394 46.75C50.807 46.6165 50.5633 46.4385 50.386 46.216C50.2088 45.9934 50.098 45.7487 50.0315 45.4594C49.965 45.1701 49.9429 44.8809 49.9429 44.5916V41.3874C49.9429 41.2539 49.8985 41.1649 49.8099 41.1204C49.7213 41.0537 49.5662 41.0092 49.3225 40.9869C49.256 40.9869 49.2338 40.9201 49.2338 40.8311C49.2338 40.7866 49.2338 40.7421 49.2338 40.6754C49.4111 40.6754 49.6105 40.6976 49.8099 40.6976C50.0093 40.6976 50.1866 40.6976 50.386 40.6976C50.5411 40.6976 50.7405 40.6976 50.9621 40.6976C51.1837 40.6976 51.3831 40.6976 51.5825 40.6754C51.5825 40.7421 51.5825 40.7866 51.5825 40.8311C51.5825 40.9424 51.5604 40.9869 51.4939 40.9869C51.2502 41.0092 51.0951 41.0537 50.9843 41.1204C50.8735 41.1872 50.8292 41.2762 50.8292 41.3874V44.3914C50.8292 45.0366 50.9621 45.5484 51.228 45.8822C51.4939 46.2382 51.937 46.394 52.5353 46.394C52.8898 46.394 53.1779 46.3495 53.4216 46.2827C53.6653 46.1937 53.8647 46.0824 54.0198 45.9267C54.1749 45.7709 54.2857 45.5484 54.3522 45.2814C54.4187 45.0144 54.463 44.7029 54.463 44.3468V41.3874C54.463 41.2539 54.4187 41.1649 54.33 41.1204C54.2414 41.0537 54.0642 41.0092 53.8204 40.9869C53.7539 40.9869 53.7096 40.9201 53.7096 40.8311C53.7096 40.7866 53.7096 40.7421 53.7096 40.6754C53.8869 40.6754 54.0641 40.6976 54.2414 40.6976C54.4187 40.6976 54.5516 40.6976 54.6846 40.6976C54.8397 40.6976 54.9948 40.6976 55.1499 40.6976C55.305 40.6976 55.4601 40.6976 55.6152 40.6754C55.6152 40.7421 55.6152 40.7866 55.6152 40.8311C55.6152 40.8534 55.6152 40.8979 55.593 40.9201C55.593 40.9646 55.5487 40.9647 55.5265 40.9869C55.305 41.0092 55.1277 41.0537 55.0391 41.1204C54.9504 41.1872 54.9061 41.2762 54.9061 41.3874V44.5471Z" fill="white"/>
<path d="M63.0822 40.8757C63.0822 40.8757 63.1044 40.8312 63.1265 40.8089C63.1265 40.7867 63.1708 40.7644 63.2152 40.7421C63.2595 40.7421 63.3038 40.7199 63.3703 40.6976C63.4367 40.6976 63.5254 40.6976 63.6362 40.6976C63.6805 40.6976 63.7469 40.6976 63.8356 40.6976C63.9242 40.6976 64.0128 40.6976 64.1015 40.6976C64.1901 40.6976 64.3009 40.6976 64.3895 40.6976C64.4781 40.6976 64.5668 40.6976 64.6554 40.6976C64.6554 40.7644 64.6554 40.8089 64.6554 40.8534C64.6554 40.9647 64.6332 41.0092 64.5668 41.0092C64.3452 41.0314 64.1901 41.0759 64.1236 41.1427C64.0571 41.1872 64.0128 41.2762 64.0128 41.3652C64.0128 41.3652 64.0128 41.4542 64.0128 41.61C64.0128 41.7657 64.035 42.0327 64.0571 42.411C64.0571 42.7893 64.1015 43.3011 64.1236 43.9241C64.1458 44.5471 64.1901 45.3259 64.2122 46.2605C64.2122 46.3717 64.2566 46.4607 64.3452 46.5275C64.4117 46.5942 64.5668 46.6387 64.8105 46.661C64.8327 46.661 64.8548 46.6832 64.877 46.7055C64.877 46.7278 64.8991 46.7723 64.8991 46.7945C64.8991 46.8168 64.8991 46.8835 64.8991 46.9503C64.6776 46.9503 64.4781 46.928 64.3009 46.928C64.1236 46.928 63.9685 46.928 63.8134 46.928C63.7469 46.928 63.6805 46.928 63.5697 46.928C63.4811 46.928 63.3703 46.928 63.2816 46.928C63.1708 46.928 63.0822 46.928 62.9714 46.928C62.8606 46.928 62.7942 46.928 62.7055 46.928C62.7055 46.8613 62.7055 46.8168 62.7055 46.7723C62.7055 46.661 62.7277 46.6165 62.7942 46.6165C63.0379 46.572 63.2152 46.5052 63.3038 46.4607C63.3924 46.4162 63.4367 46.3272 63.4367 46.1937C63.4367 46.1937 63.4367 46.0602 63.4367 45.8377C63.4367 45.6152 63.4367 45.3482 63.3924 45.0367C63.3924 44.7251 63.3703 44.3914 63.3481 44.0353C63.3481 43.6793 63.3259 43.3233 63.3038 43.0118C63.3038 42.7003 63.2816 42.411 63.2595 42.1885C63.2595 41.966 63.2595 41.8102 63.2595 41.7657L61.1988 46.7723C61.1988 46.7723 61.1545 46.8835 61.1324 46.9058C61.1324 46.928 61.088 46.9503 61.0437 46.9503C60.9994 46.9503 60.9773 46.9503 60.9551 46.9503L58.6729 41.6322C58.6729 41.6322 58.6729 41.8547 58.6507 42.0995C58.6507 42.3442 58.6507 42.6335 58.6064 42.9673C58.6064 43.301 58.5843 43.6571 58.5621 44.0353C58.5621 44.4136 58.5178 44.7474 58.5178 45.0812C58.5178 45.3927 58.4956 45.6597 58.4735 45.8822C58.4735 46.1047 58.4735 46.216 58.4735 46.216C58.4735 46.4162 58.695 46.5497 59.116 46.6165C59.1825 46.6165 59.2047 46.6833 59.2047 46.7723C59.2047 46.8168 59.2047 46.8613 59.2047 46.928C59.0274 46.928 58.8723 46.9058 58.7172 46.9058C58.5621 46.9058 58.407 46.9058 58.2962 46.9058C58.1854 46.9058 58.0525 46.9058 57.8974 46.9058C57.7201 46.9058 57.565 46.9058 57.4099 46.928C57.4099 46.8613 57.4099 46.8168 57.4099 46.7723C57.4099 46.6833 57.4321 46.6387 57.4985 46.6165C57.6758 46.5942 57.8087 46.5497 57.8974 46.483C58.0082 46.4162 58.0525 46.3272 58.0746 46.216C58.0746 46.1492 58.0746 45.9935 58.0746 45.7264C58.0746 45.4594 58.0968 45.1479 58.1189 44.7919C58.1189 44.4359 58.1411 44.0353 58.1633 43.6348C58.1633 43.2343 58.2076 42.856 58.2076 42.5C58.2076 42.144 58.2297 41.877 58.2519 41.6322C58.2519 41.4097 58.2519 41.2984 58.2519 41.2762C58.2519 41.1649 58.2076 41.0982 58.1411 41.0537C58.0525 41.0092 57.9195 40.9647 57.698 40.9202C57.6315 40.9202 57.6093 40.8534 57.6093 40.7644C57.6093 40.7199 57.6093 40.6754 57.6093 40.6086C57.698 40.6086 57.7866 40.6086 57.8752 40.6086C57.986 40.6086 58.0746 40.6086 58.1854 40.6086C58.2962 40.6086 58.3848 40.6086 58.4735 40.6086C58.5621 40.6086 58.6507 40.6086 58.695 40.6086C58.8058 40.6086 58.8945 40.6086 58.9609 40.6086C59.0274 40.6086 59.0717 40.6086 59.116 40.6531C59.1604 40.6531 59.1825 40.6754 59.2047 40.7199C59.2047 40.7421 59.2268 40.7644 59.249 40.7867L61.2653 45.5484L63.1708 40.7867L63.0822 40.8757Z" fill="white"/>
<path d="M56.9446 27.2579L58.407 28.9712C62.6391 25.3442 70.5493 18.8246 76.0222 15.8874L74.9586 13.9071C69.3085 16.9555 61.2432 23.5864 56.9446 27.2579Z" fill="#495B9A"/>
<path d="M15.1448 23.8367L-0.0158081 34.133L1.23788 35.9947L16.3984 25.6983L15.1448 23.8367Z" fill="#495B9A"/>
<path d="M65.3644 0.378296H11.4997V38.2278H65.3644V0.378296Z" fill="#193057"/>
<path d="M65.7411 38.6283H11.1009V0H65.719V38.6283H65.7411ZM11.8764 37.8495H64.9656V0.756544H11.8764V37.8495Z" fill="white"/>
<path d="M38.1329 8.72251C38.1329 8.72251 29.8904 19.0471 25.3481 24.7212C26.6332 20.805 29.4251 12.216 29.4251 12.216C29.4251 12.216 21.4927 20.1819 18.2577 23.4306C18.8117 21.606 20.2962 16.7552 20.2962 16.7552L0 30.284L1.24082 32.1531C1.24082 32.1531 12.519 24.6322 16.3079 22.0955C15.5988 24.4319 13.4717 31.3966 13.4717 31.3966C13.4717 31.3966 21.1382 23.6976 24.3732 20.4489C23.0437 24.5654 19.4099 35.7356 19.4099 35.7356C19.4099 35.7356 30.3114 22.1178 35.1417 16.0432C33.1475 21.0052 29.2921 30.64 29.2921 30.64C29.2921 30.64 37.4682 23.5864 40.6811 20.805C39.3738 24.6099 35.7178 35.2461 35.7178 35.2461C35.7178 35.2461 44.1376 25.5 48.3032 20.6715C46.5085 24.4319 42.2764 33.2435 42.2764 33.2435C42.2764 33.2435 52.0035 24.5654 55.1499 21.7618C54.5959 23.9647 53.1557 29.7722 53.1557 29.7722L55.8589 27.3469C55.9918 27.2356 68.4443 16.1322 76.0222 12.0602L74.9586 10.0798C69.2641 13.1283 61.221 19.7814 57.0554 23.3194C57.6093 21.0942 59.0717 15.2421 59.0717 15.2421C59.0717 15.2421 52.491 21.1165 49.1452 24.0982C51.2945 19.6256 57.5872 6.49738 57.5872 6.49738C57.5872 6.49738 45.6886 20.2487 41.5895 24.9882C42.8303 21.3613 45.4892 13.64 45.4892 13.64C45.4892 13.64 38.0665 20.0707 34.8093 22.8743C36.7592 18.0236 42.8746 2.75916 42.8746 2.75916L38.1329 8.678V8.72251Z" fill="#8992C1"/>
<path d="M36.6705 20.4934C36.6705 28.4817 34.4991 32.9097 31.2198 32.9097C26.6554 32.9097 24.9493 25.856 24.9493 19.2919C24.9493 11.2146 27.0764 6.87564 30.3335 6.87564C34.8536 6.87564 36.6927 13.9961 36.6927 20.4934H36.6705ZM41.1464 19.0249C41.1464 13.3285 39.1965 5.18454 31.0869 5.18454C23.7306 5.18454 20.4292 11.8377 20.4292 20.716C20.4292 26.4568 22.4455 34.6008 30.4886 34.6008C37.7341 34.6008 41.1464 27.9476 41.1464 19.0249Z" fill="white"/>
<path d="M47.6163 16.7107C47.6163 14.6859 47.572 13.0615 47.572 11.7932C47.572 10.9031 47.572 10.4359 47.0181 10.4359C46.309 10.4359 43.495 11.9044 42.6752 12.2382C42.498 12.305 42.2985 12.394 42.1434 12.394C42.0327 12.394 41.8775 12.216 41.8775 11.9712C41.8775 11.7264 42.0548 11.5484 42.2542 11.4372C42.4093 11.3704 49.544 6.63088 50.8956 5.65182C51.1837 5.42931 51.5603 5.16229 51.8706 5.16229C52.2029 5.16229 52.2915 5.58507 52.2915 5.94109C52.2915 6.23036 52.1143 9.94632 52.1143 15.6872V22.6296C52.1143 26.2343 52.1143 29.4162 52.2694 31.0628C52.3802 32.2644 52.5574 32.8207 53.7539 33.0877C54.3079 33.1989 55.9254 33.3102 56.2134 33.3102C56.3685 33.3102 56.5236 33.4215 56.5236 33.6885C56.5236 33.9555 56.3464 34.0222 55.9254 34.0222C53.0892 34.0222 50.6962 33.911 49.677 33.911C48.8128 33.911 45.6886 34.0222 43.2956 34.0222C42.8746 34.0222 42.6974 33.9555 42.6974 33.6885C42.6974 33.4215 42.8525 33.3102 42.9854 33.3102C43.4064 33.3102 45.2676 33.1989 45.9767 33.0432C47.1289 32.7762 47.3504 32.2644 47.4612 31.0628C47.6163 29.4162 47.6163 26.212 47.6163 22.6296V16.6662V16.7107Z" fill="white"/>
<path d="M65.0542 49.4424H11.6327V51H65.0542V49.4424Z" fill="#193057"/>
<path d="M11.8321 50.822H64.877V49.6427H11.8321V50.822Z" fill="white"/>
<path d="M61.7971 36.7814H61.509V35.6466H61.088V35.4018H62.1959V35.6466H61.7749V36.7814H61.7971Z" fill="white"/>
<path d="M63.7248 36.7814H63.4589V35.6466L63.2152 36.7814H62.9271L62.6834 35.6466V36.7814H62.4175V35.4018H62.8385L63.0822 36.4921L63.326 35.4018H63.7469V36.7814H63.7248Z" fill="white"/>
</g>
<defs>
<clipPath id="clip0_41_1051">
<rect width="76" height="51" fill="white"/>
</clipPath>
</defs>
</svg>
