<svg width="76" height="51" viewBox="0 0 76 51" fill="none" xmlns="http://www.w3.org/2000/svg">
<g clip-path="url(#clip0_93_562)">
<path d="M15.6653 46.2978C15.9312 46.364 16.1749 46.4522 16.4187 46.6287C16.6402 46.7831 16.8618 46.9375 17.0612 47.1139C17.2607 47.2683 17.4601 47.4227 17.6373 47.5551C17.8146 47.6874 17.9918 47.7536 18.1691 47.7536C18.2577 47.7536 18.3464 47.7536 18.4128 47.7095C18.4793 47.6874 18.5458 47.6653 18.6123 47.6653C18.6344 47.6653 18.6566 47.6653 18.6566 47.7095C18.6566 47.7756 18.5901 47.8418 18.5236 47.908C18.4572 47.9741 18.3685 48.0183 18.2799 48.0624C18.1913 48.1065 18.0805 48.1285 17.9918 48.1506C17.9032 48.1506 17.8146 48.1727 17.7481 48.1727C17.5265 48.1727 17.3271 48.1285 17.1277 48.0624C16.9283 47.9741 16.751 47.8859 16.5516 47.7536C16.3744 47.6212 16.1971 47.4889 16.0198 47.3565C15.8426 47.2021 15.6875 47.0698 15.5324 46.9375C15.3773 46.8051 15.2222 46.6948 15.0671 46.5845C14.912 46.4743 14.779 46.4081 14.6461 46.364C14.2472 46.3199 13.8706 46.2096 13.5382 46.0552C13.2058 45.8787 12.94 45.6581 12.6962 45.3935C12.4746 45.1288 12.2974 44.7979 12.1644 44.445C12.0315 44.07 11.9872 43.673 11.9872 43.2539C11.9872 42.8348 12.0758 42.4158 12.2309 42.0408C12.386 41.6658 12.6076 41.335 12.8735 41.0482C13.1394 40.7615 13.4496 40.5409 13.8041 40.3645C14.1586 40.188 14.5353 40.1218 14.9341 40.1218C15.4881 40.1218 15.9534 40.2101 16.3522 40.3865C16.751 40.563 17.0834 40.7835 17.3493 41.0703C17.6152 41.357 17.8146 41.6879 17.9475 42.0628C18.0805 42.4378 18.1469 42.8348 18.1469 43.2539C18.1469 43.673 18.0805 44.0259 17.9697 44.3788C17.8589 44.7318 17.6816 45.0185 17.4601 45.2832C17.2385 45.5479 16.9948 45.7684 16.6846 45.9449C16.3744 46.1213 16.042 46.2316 15.6875 46.2978V46.3419L15.6653 46.2978ZM15.2 45.9228C15.4881 45.9228 15.7539 45.8567 15.9977 45.7464C16.2414 45.6361 16.4408 45.4817 16.6181 45.2832C16.7953 45.0847 16.9283 44.842 17.0169 44.5773C17.1056 44.3127 17.172 44.0039 17.172 43.673C17.172 43.2319 17.1277 42.8128 17.0391 42.4378C16.9504 42.0628 16.7953 41.732 16.6181 41.4453C16.4187 41.1585 16.1971 40.9379 15.8869 40.7835C15.5988 40.6291 15.2665 40.5409 14.8676 40.5409C14.6018 40.5409 14.358 40.585 14.1365 40.6953C13.8927 40.7835 13.6933 40.9379 13.516 41.1144C13.3388 41.2908 13.2058 41.5335 13.0951 41.7982C12.9843 42.0628 12.94 42.3716 12.94 42.7246C12.94 43.1878 12.9843 43.6068 13.0951 44.0039C13.2058 44.4009 13.3388 44.7317 13.5382 45.0405C13.7376 45.3273 13.9592 45.5479 14.2472 45.7243C14.5353 45.8787 14.8455 45.9669 15.2222 45.9669L15.2 45.9228Z" fill="white"/>
<path d="M25.3703 44.1582C25.3703 44.5112 25.326 44.842 25.2373 45.1287C25.1487 45.4155 25.0158 45.6581 24.8385 45.8787C24.6391 46.0993 24.3953 46.2537 24.0851 46.3639C23.7749 46.4742 23.3761 46.5404 22.9108 46.5404C22.379 46.5404 21.9359 46.4742 21.6035 46.3419C21.2711 46.2095 21.0274 46.0331 20.8502 45.8125C20.6729 45.5919 20.5621 45.3493 20.4956 45.0626C20.4292 44.7758 20.407 44.4891 20.407 44.2024V41.0261C20.407 40.8938 20.3627 40.8056 20.2741 40.7615C20.1854 40.6953 20.0303 40.6512 19.7866 40.6291C19.7201 40.6291 19.698 40.5629 19.698 40.4747C19.698 40.4306 19.698 40.3865 19.698 40.3203C19.8752 40.3203 20.0746 40.3424 20.2741 40.3424C20.4735 40.3424 20.6507 40.3424 20.8502 40.3424C21.0053 40.3424 21.2047 40.3424 21.4262 40.3424C21.6478 40.3424 21.8472 40.3424 22.0467 40.3203C22.0467 40.3865 22.0467 40.4306 22.0467 40.4747C22.0467 40.585 22.0245 40.6291 21.958 40.6291C21.7143 40.6512 21.5592 40.6953 21.4484 40.7615C21.3376 40.8276 21.2933 40.9159 21.2933 41.0261V44.0038C21.2933 44.6435 21.4262 45.1508 21.6921 45.4817C21.958 45.8346 22.4012 45.989 22.9994 45.989C23.3539 45.989 23.642 45.9449 23.8857 45.8787C24.1295 45.7905 24.3289 45.6802 24.484 45.5258C24.6391 45.3714 24.7499 45.1508 24.8163 44.8861C24.8828 44.6214 24.9271 44.3126 24.9271 43.9597V41.0261C24.9271 40.8938 24.8828 40.8056 24.7942 40.7615C24.7055 40.6953 24.5283 40.6512 24.2846 40.6291C24.2181 40.6291 24.1738 40.5629 24.1738 40.4747C24.1738 40.4306 24.1738 40.3865 24.1738 40.3203C24.351 40.3203 24.5283 40.3424 24.7055 40.3424C24.8828 40.3424 25.0158 40.3424 25.1487 40.3424C25.3038 40.3424 25.4589 40.3424 25.614 40.3424C25.7691 40.3424 25.9242 40.3424 26.0793 40.3203C26.0793 40.3865 26.0793 40.4306 26.0793 40.4747C26.0793 40.4968 26.0793 40.5409 26.0572 40.5629C26.0572 40.6071 26.0128 40.6071 25.9907 40.6291C25.7691 40.6512 25.5918 40.6953 25.5032 40.7615C25.4146 40.8276 25.3703 40.9159 25.3703 41.0261V44.1582Z" fill="white"/>
<path d="M30.7545 44.0258H28.6717L28.0735 45.5257C28.0735 45.5257 28.0291 45.6581 28.0291 45.7022C28.0291 45.8345 28.2286 45.9228 28.6052 45.9889C28.6496 45.9889 28.6717 46.011 28.6939 46.033C28.6939 46.0551 28.716 46.0992 28.716 46.1213C28.716 46.1433 28.716 46.2095 28.716 46.2757C28.5388 46.2757 28.3615 46.2536 28.1842 46.2536C28.007 46.2536 27.8076 46.2536 27.6303 46.2536C27.4974 46.2536 27.3866 46.2536 27.2536 46.2536C27.1207 46.2536 26.9877 46.2536 26.8326 46.2977C26.8326 46.2536 26.8326 46.1874 26.8326 46.1433C26.8326 46.0992 26.8326 46.0551 26.8548 46.033C26.8548 46.011 26.8991 45.9889 26.9434 45.9669C27.1428 45.9448 27.2758 45.9007 27.3866 45.8566C27.4752 45.8125 27.5638 45.7463 27.6082 45.636L29.8682 40.232C29.8682 40.232 29.979 40.0776 30.0455 40.0776C30.0676 40.0776 30.1119 40.0776 30.1563 40.0776L32.4163 45.6581C32.4163 45.6581 32.5493 45.8125 32.66 45.8566C32.793 45.9007 32.9259 45.9448 33.0367 45.9669C33.081 45.9669 33.1032 45.9889 33.1254 46.011C33.1254 46.011 33.1475 46.0772 33.1475 46.1213C33.1475 46.1654 33.1475 46.2095 33.1475 46.2757C32.9481 46.2757 32.7487 46.2536 32.5493 46.2536C32.3498 46.2536 32.1726 46.2536 31.9953 46.2536C31.8181 46.2536 31.6186 46.2536 31.3971 46.2536C31.1755 46.2536 30.9761 46.2536 30.7767 46.2757C30.7767 46.2095 30.7767 46.1654 30.7767 46.1213C30.7767 46.0551 30.7767 46.033 30.7988 46.011C30.7988 46.011 30.8431 45.9889 30.8653 45.9889C31.0204 45.9669 31.1533 45.9228 31.2641 45.8786C31.3749 45.8345 31.4192 45.7684 31.4192 45.7022C31.4192 45.6581 31.4192 45.614 31.3749 45.5698L30.7767 44.0258H30.7545ZM30.6216 43.6509L29.7574 41.3569L28.849 43.6509H30.6216Z" fill="white"/>
<path d="M39.3738 44.9522V41.0702C39.3959 40.9378 39.3738 40.8275 39.263 40.7834C39.1522 40.7173 38.9971 40.6731 38.7534 40.6511C38.6869 40.6511 38.6426 40.5849 38.6426 40.4967C38.6426 40.4526 38.6426 40.4085 38.6426 40.3423C38.7977 40.3423 38.9528 40.3643 39.13 40.3643C39.2851 40.3643 39.4403 40.3643 39.5954 40.3643C39.7505 40.3643 39.8834 40.3643 40.0163 40.3643C40.1714 40.3643 40.3044 40.3643 40.4595 40.3423C40.4595 40.4085 40.4595 40.4526 40.4595 40.4967C40.4595 40.607 40.4373 40.6511 40.3709 40.6511C40.1493 40.6731 40.0163 40.7173 39.9277 40.7834C39.8391 40.8496 39.8169 40.9378 39.8169 41.0481V46.5403C39.8169 46.5403 39.7505 46.5403 39.7283 46.5403C39.7061 46.5403 39.6618 46.5403 39.6618 46.5403C39.6175 46.5403 39.5732 46.5403 39.5289 46.5183C39.4846 46.5183 39.4403 46.4521 39.3959 46.3859L35.6292 41.401V45.8345C35.6292 45.9668 35.6735 46.0551 35.7621 46.0992C35.8507 46.1433 36.028 46.1874 36.2717 46.2315C36.3382 46.2315 36.3604 46.2977 36.3604 46.3859C36.3604 46.43 36.3604 46.4741 36.3604 46.5403C36.2053 46.5403 36.0502 46.5183 35.8951 46.5183C35.74 46.5183 35.5849 46.5183 35.4519 46.5183C35.319 46.5183 35.186 46.5183 35.0088 46.5183C34.8315 46.5183 34.6764 46.5183 34.5435 46.5403C34.5435 46.4741 34.5435 46.43 34.5435 46.3859C34.5435 46.2977 34.5878 46.2536 34.6542 46.2315C34.8758 46.1874 35.0309 46.1433 35.1196 46.0992C35.2082 46.0551 35.2303 45.9668 35.2303 45.8345V41.004C35.2303 41.004 35.186 40.8275 35.1196 40.7834C35.0531 40.7393 34.898 40.6952 34.6764 40.6511C34.6099 40.6511 34.5656 40.5849 34.5656 40.4967C34.5656 40.4746 34.5656 40.4305 34.5656 40.4085C34.5656 40.4085 34.5656 40.3643 34.5656 40.3423C34.6986 40.3423 34.8093 40.3423 34.9201 40.3643C35.0309 40.3643 35.1195 40.3643 35.2303 40.3643C35.3411 40.3643 35.4519 40.3643 35.5405 40.3643C35.7178 40.3643 35.8507 40.3643 35.8951 40.3643C35.9615 40.3643 36.0058 40.4085 36.0502 40.4526L39.3738 44.9081V44.9522Z" fill="white"/>
<path d="M45.2898 40.7395V45.7905C45.2898 45.9449 45.3563 46.0332 45.4671 46.0993C45.5779 46.1655 45.7773 46.2096 46.0653 46.2317C46.1318 46.2317 46.1761 46.2758 46.1761 46.3861C46.1761 46.4302 46.1761 46.4743 46.1761 46.5405C45.9767 46.5405 45.7551 46.5184 45.5335 46.5184C45.312 46.5184 45.0904 46.5184 44.8688 46.5184C44.6472 46.5184 44.4257 46.5184 44.2041 46.5184C43.9825 46.5184 43.7609 46.5184 43.5615 46.5405C43.5615 46.4743 43.5615 46.4302 43.5615 46.3861C43.5615 46.2979 43.5837 46.2537 43.6502 46.2317C43.9382 46.1876 44.1376 46.1435 44.2706 46.0993C44.4035 46.0332 44.4478 45.9449 44.4478 45.7905V40.7395H43.4729C43.2956 40.7395 43.1184 40.7395 43.0076 40.8057C42.8746 40.8498 42.7639 40.8939 42.6752 40.9821C42.5866 41.0483 42.498 41.1586 42.4315 41.2688C42.365 41.3791 42.2986 41.5335 42.2099 41.6879C42.2099 41.71 42.1878 41.732 42.1435 41.7541C42.1213 41.7541 42.0991 41.7541 42.0548 41.7541C41.9884 41.7541 41.9219 41.7541 41.8776 41.6879C41.944 41.4674 41.9883 41.2688 42.0105 41.0924C42.0327 40.9159 42.077 40.7615 42.0991 40.6513C42.1213 40.541 42.1435 40.4527 42.1878 40.3866C42.2099 40.3204 42.2542 40.2983 42.3207 40.2983C42.365 40.2983 42.4315 40.2983 42.498 40.2983C42.5866 40.2983 42.6752 40.2983 42.7639 40.2983C42.8525 40.2983 42.9411 40.2983 43.0298 40.2983C43.1184 40.2983 43.207 40.2983 43.2956 40.2983H46.4198C46.4198 40.2983 46.5749 40.2983 46.6636 40.2983C46.7522 40.2983 46.8408 40.2983 46.9516 40.2983C47.0402 40.2983 47.1289 40.2983 47.2175 40.2983C47.3061 40.2983 47.3504 40.2983 47.4169 40.2983C47.4834 40.2983 47.5277 40.3204 47.5499 40.3866C47.572 40.4527 47.5942 40.541 47.6385 40.6733C47.6607 40.7836 47.6828 40.938 47.7271 41.1144C47.7493 41.2909 47.7936 41.4894 47.8822 41.71C47.8601 41.71 47.8158 41.732 47.7936 41.7541C47.7714 41.7541 47.7271 41.7541 47.705 41.7541C47.6828 41.7541 47.6607 41.7541 47.6163 41.7541C47.5942 41.7541 47.572 41.71 47.5499 41.6879C47.4834 41.5335 47.4169 41.4012 47.3505 41.2688C47.284 41.1586 47.1953 41.0483 47.1067 40.9821C47.0181 40.9159 46.9073 40.8498 46.7744 40.8057C46.6414 40.7615 46.4863 40.7395 46.3091 40.7395H45.3341H45.2898Z" fill="white"/>
<path d="M54.9061 44.1582C54.9061 44.5112 54.8618 44.842 54.7732 45.1287C54.6846 45.4155 54.5516 45.6581 54.3744 45.8787C54.1749 46.0993 53.9312 46.2537 53.621 46.3639C53.3108 46.4742 52.912 46.5404 52.4467 46.5404C51.9149 46.5404 51.4717 46.4742 51.1394 46.3419C50.807 46.2095 50.5633 46.0331 50.386 45.8125C50.2088 45.5919 50.098 45.3493 50.0315 45.0626C49.965 44.7758 49.9429 44.4891 49.9429 44.2024V41.0261C49.9429 40.8938 49.8985 40.8056 49.8099 40.7615C49.7213 40.6953 49.5662 40.6512 49.3225 40.6291C49.256 40.6291 49.2338 40.5629 49.2338 40.4747C49.2338 40.4306 49.2338 40.3865 49.2338 40.3203C49.4111 40.3203 49.6105 40.3424 49.8099 40.3424C50.0093 40.3424 50.1866 40.3424 50.386 40.3424C50.5411 40.3424 50.7405 40.3424 50.9621 40.3424C51.1837 40.3424 51.3831 40.3424 51.5825 40.3203C51.5825 40.3865 51.5825 40.4306 51.5825 40.4747C51.5825 40.585 51.5604 40.6291 51.4939 40.6291C51.2502 40.6512 51.0951 40.6953 50.9843 40.7615C50.8735 40.8276 50.8292 40.9159 50.8292 41.0261V44.0038C50.8292 44.6435 50.9621 45.1508 51.228 45.4817C51.4939 45.8346 51.937 45.989 52.5353 45.989C52.8898 45.989 53.1779 45.9449 53.4216 45.8787C53.6653 45.7905 53.8647 45.6802 54.0198 45.5258C54.1749 45.3714 54.2857 45.1508 54.3522 44.8861C54.4187 44.6214 54.463 44.3126 54.463 43.9597V41.0261C54.463 40.8938 54.4187 40.8056 54.33 40.7615C54.2414 40.6953 54.0642 40.6512 53.8204 40.6291C53.7539 40.6291 53.7096 40.5629 53.7096 40.4747C53.7096 40.4306 53.7096 40.3865 53.7096 40.3203C53.8869 40.3203 54.0641 40.3424 54.2414 40.3424C54.4187 40.3424 54.5516 40.3424 54.6846 40.3424C54.8397 40.3424 54.9948 40.3424 55.1499 40.3424C55.305 40.3424 55.4601 40.3424 55.6152 40.3203C55.6152 40.3865 55.6152 40.4306 55.6152 40.4747C55.6152 40.4968 55.6152 40.5409 55.593 40.5629C55.593 40.6071 55.5487 40.6071 55.5265 40.6291C55.305 40.6512 55.1277 40.6953 55.0391 40.7615C54.9504 40.8276 54.9061 40.9159 54.9061 41.0261V44.1582Z" fill="white"/>
<path d="M63.0822 40.5188C63.0822 40.5188 63.1044 40.4747 63.1265 40.4527C63.1265 40.4306 63.1708 40.4085 63.2152 40.3865C63.2595 40.3865 63.3038 40.3644 63.3703 40.3424C63.4367 40.3424 63.5254 40.3424 63.6362 40.3424C63.6805 40.3424 63.7469 40.3424 63.8356 40.3424C63.9242 40.3424 64.0128 40.3424 64.1015 40.3424C64.1901 40.3424 64.3009 40.3424 64.3895 40.3424C64.4781 40.3424 64.5668 40.3424 64.6554 40.3424C64.6554 40.4086 64.6554 40.4527 64.6554 40.4968C64.6554 40.6071 64.6332 40.6512 64.5668 40.6512C64.3452 40.6732 64.1901 40.7173 64.1236 40.7835C64.0571 40.8276 64.0128 40.9159 64.0128 41.0041C64.0128 41.0041 64.0128 41.0923 64.0128 41.2467C64.0128 41.4011 64.035 41.6658 64.0571 42.0408C64.0571 42.4157 64.1015 42.9231 64.1236 43.5407C64.1458 44.1582 64.1901 44.9302 64.2122 45.8566C64.2122 45.9669 64.2566 46.0552 64.3452 46.1213C64.4117 46.1875 64.5668 46.2316 64.8105 46.2537C64.8327 46.2537 64.8548 46.2757 64.877 46.2978C64.877 46.3198 64.8991 46.364 64.8991 46.386C64.8991 46.4081 64.8991 46.4742 64.8991 46.5404C64.6776 46.5404 64.4781 46.5184 64.3009 46.5184C64.1236 46.5184 63.9685 46.5184 63.8134 46.5184C63.7469 46.5184 63.6805 46.5184 63.5697 46.5184C63.4811 46.5184 63.3703 46.5184 63.2816 46.5184C63.1708 46.5184 63.0822 46.5184 62.9714 46.5184C62.8606 46.5184 62.7942 46.5184 62.7055 46.5184C62.7055 46.4522 62.7055 46.4081 62.7055 46.364C62.7055 46.2537 62.7277 46.2096 62.7942 46.2096C63.0379 46.1654 63.2152 46.0993 63.3038 46.0552C63.3924 46.011 63.4367 45.9228 63.4367 45.7905C63.4367 45.7905 63.4367 45.6581 63.4367 45.4376C63.4367 45.217 63.4367 44.9523 63.3924 44.6435C63.3924 44.3347 63.3703 44.0039 63.3481 43.6509C63.3481 43.298 63.3259 42.9451 63.3038 42.6363C63.3038 42.3275 63.2816 42.0408 63.2595 41.8202C63.2595 41.5996 63.2595 41.4452 63.2595 41.4011L61.1988 46.364C61.1988 46.364 61.1545 46.4742 61.1324 46.4963C61.1324 46.5184 61.088 46.5404 61.0437 46.5404C60.9994 46.5404 60.9773 46.5404 60.9551 46.5404L58.6729 41.2688C58.6729 41.2688 58.6729 41.4893 58.6507 41.732C58.6507 41.9746 58.6507 42.2613 58.6064 42.5922C58.6064 42.9231 58.5843 43.276 58.5621 43.6509C58.5621 44.0259 58.5178 44.3568 58.5178 44.6876C58.5178 44.9964 58.4956 45.2611 58.4735 45.4817C58.4735 45.7022 58.4735 45.8125 58.4735 45.8125C58.4735 46.011 58.695 46.1434 59.116 46.2096C59.1825 46.2096 59.2047 46.2757 59.2047 46.364C59.2047 46.4081 59.2047 46.4522 59.2047 46.5184C59.0274 46.5184 58.8723 46.4963 58.7172 46.4963C58.5621 46.4963 58.407 46.4963 58.2962 46.4963C58.1854 46.4963 58.0525 46.4963 57.8974 46.4963C57.7201 46.4963 57.565 46.4963 57.4099 46.5184C57.4099 46.4522 57.4099 46.4081 57.4099 46.364C57.4099 46.2757 57.4321 46.2316 57.4985 46.2096C57.6758 46.1875 57.8087 46.1434 57.8974 46.0772C58.0082 46.011 58.0525 45.9228 58.0746 45.8125C58.0746 45.7464 58.0746 45.592 58.0746 45.3273C58.0746 45.0626 58.0968 44.7538 58.1189 44.4009C58.1189 44.048 58.1411 43.6509 58.1633 43.2539C58.1633 42.8569 58.2076 42.4819 58.2076 42.129C58.2076 41.7761 58.2297 41.5114 58.2519 41.2688C58.2519 41.0482 58.2519 40.9379 58.2519 40.9159C58.2519 40.8056 58.2076 40.7394 58.1411 40.6953C58.0525 40.6512 57.9195 40.6071 57.698 40.5629C57.6315 40.5629 57.6093 40.4968 57.6093 40.4085C57.6093 40.3644 57.6093 40.3203 57.6093 40.2542C57.698 40.2542 57.7866 40.2542 57.8752 40.2542C57.986 40.2542 58.0746 40.2542 58.1854 40.2542C58.2962 40.2542 58.3848 40.2542 58.4735 40.2542C58.5621 40.2542 58.6507 40.2542 58.695 40.2542C58.8058 40.2542 58.8945 40.2542 58.9609 40.2542C59.0274 40.2542 59.0717 40.2542 59.116 40.2983C59.1604 40.2983 59.1825 40.3203 59.2047 40.3644C59.2047 40.3865 59.2268 40.4085 59.249 40.4306L61.2653 45.1508L63.1708 40.4306L63.0822 40.5188Z" fill="white"/>
<path d="M56.9446 27.0199L58.407 28.7183C62.6391 25.123 70.5493 18.6603 76.0222 15.7487L74.9586 13.7856C69.3085 16.8075 61.2432 23.3805 56.9446 27.0199Z" fill="#495B9A"/>
<path d="M15.1448 23.6285L-0.0158081 33.835L1.23788 35.6803L16.3984 25.4739L15.1448 23.6285Z" fill="#495B9A"/>
<path d="M65.3644 0.375H11.4997V37.8941H65.3644V0.375Z" fill="#193057"/>
<path d="M65.7411 38.2911H11.1009V0H65.7189V38.2911H65.7411ZM11.8764 37.5191H64.9656V0.74994H11.8764V37.5191Z" fill="white"/>
<path d="M38.1329 8.6464C38.1329 8.6464 29.8904 18.8809 25.3481 24.5054C26.6332 20.6234 29.4251 12.1094 29.4251 12.1094C29.4251 12.1094 21.4927 20.0058 18.2577 23.2261C18.8117 21.4174 20.2962 16.609 20.2962 16.609L0 30.0197L1.24082 31.8725C1.24082 31.8725 12.519 24.4172 16.3079 21.9027C15.5988 24.2187 13.4717 31.1225 13.4717 31.1225C13.4717 31.1225 21.1382 23.4908 24.3732 20.2705C23.0437 24.351 19.4099 35.4237 19.4099 35.4237C19.4099 35.4237 30.3114 21.9247 35.1417 15.9032C33.1475 20.8219 29.2921 30.3726 29.2921 30.3726C29.2921 30.3726 37.4682 23.3805 40.6811 20.6234C39.3738 24.3951 35.7178 34.9384 35.7178 34.9384C35.7178 34.9384 44.1376 25.2774 48.3032 20.491C46.5085 24.2187 42.2764 32.9533 42.2764 32.9533C42.2764 32.9533 52.0035 24.351 55.1499 21.5718C54.5959 23.7555 53.1557 29.5124 53.1557 29.5124L55.8589 27.1082C55.9918 26.9979 68.4443 15.9914 76.0222 11.955L74.9586 9.99188C69.2641 13.0137 61.221 19.6088 57.0554 23.1158C57.6093 20.9101 59.0717 15.1091 59.0717 15.1091C59.0717 15.1091 52.491 20.9322 49.1452 23.8878C51.2945 19.4544 57.5872 6.44069 57.5872 6.44069C57.5872 6.44069 45.6886 20.072 41.5895 24.7701C42.8303 21.1748 45.4892 13.521 45.4892 13.521C45.4892 13.521 38.0665 19.8955 34.8093 22.6747C36.7592 17.8662 42.8746 2.73511 42.8746 2.73511L38.1329 8.60229V8.6464Z" fill="#8992C1"/>
<path d="M36.6706 20.3147C36.6706 28.2331 34.4991 32.6225 31.2198 32.6225C26.6554 32.6225 24.9493 25.6304 24.9493 19.1236C24.9493 11.1169 27.0764 6.81574 30.3335 6.81574C34.8537 6.81574 36.6927 13.874 36.6927 20.3147H36.6706ZM41.1464 18.8589C41.1464 13.2123 39.1965 5.1394 31.0869 5.1394C23.7306 5.1394 20.4292 11.7345 20.4292 20.5352C20.4292 26.226 22.4455 34.2988 30.4886 34.2988C37.7341 34.2988 41.1464 27.7038 41.1464 18.8589Z" fill="white"/>
<path d="M47.6163 16.5648C47.6163 14.5576 47.572 12.9474 47.572 11.6902C47.572 10.8079 47.572 10.3447 47.0181 10.3447C46.309 10.3447 43.4951 11.8005 42.6752 12.1313C42.498 12.1975 42.2986 12.2857 42.1435 12.2857C42.0327 12.2857 41.8776 12.1093 41.8776 11.8666C41.8776 11.624 42.0548 11.4476 42.2542 11.3373C42.4093 11.2711 49.544 6.57295 50.8956 5.60244C51.1837 5.38187 51.5604 5.11719 51.8706 5.11719C52.2029 5.11719 52.2916 5.53627 52.2916 5.88918C52.2916 6.17593 52.1143 9.85946 52.1143 15.5502V22.432C52.1143 26.0052 52.1143 29.1594 52.2694 30.7916C52.3802 31.9827 52.5574 32.5341 53.754 32.7988C54.3079 32.9091 55.9254 33.0194 56.2134 33.0194C56.3685 33.0194 56.5236 33.1297 56.5236 33.3943C56.5236 33.659 56.3464 33.7252 55.9254 33.7252C53.0892 33.7252 50.6962 33.6149 49.677 33.6149C48.8128 33.6149 45.6886 33.7252 43.2956 33.7252C42.8747 33.7252 42.6974 33.659 42.6974 33.3943C42.6974 33.1297 42.8525 33.0194 42.9854 33.0194C43.4064 33.0194 45.2677 32.9091 45.9767 32.7547C47.1289 32.49 47.3505 31.9827 47.4612 30.7916C47.6163 29.1594 47.6163 25.9832 47.6163 22.432V16.5207V16.5648Z" fill="white"/>
<path d="M65.0542 49.0107H11.6327V50.5547H65.0542V49.0107Z" fill="#193057"/>
<path d="M11.8321 50.3783H64.877V49.2092H11.8321V50.3783Z" fill="white"/>
<path d="M61.7971 36.4603H61.509V35.3354H61.088V35.0928H62.1959V35.3354H61.7749V36.4603H61.7971Z" fill="white"/>
<path d="M63.7248 36.4603H63.4589V35.3354L63.2151 36.4603H62.9271L62.6834 35.3354V36.4603H62.4175V35.0928H62.8385L63.0822 36.1736L63.3259 35.0928H63.7469V36.4603H63.7248Z" fill="white"/>
</g>
<defs>
<clipPath id="clip0_93_562">
<rect width="76" height="50.5548" fill="white"/>
</clipPath>
</defs>
</svg>
