<svg width="55" height="55" viewBox="0 0 55 55" fill="none" xmlns="http://www.w3.org/2000/svg">
<path d="M27.2748 53.9751C42.0621 53.9751 54.0496 42.0043 54.0496 27.2376C54.0496 12.4708 42.0621 0.5 27.2748 0.5C12.4875 0.5 0.5 12.4708 0.5 27.2376C0.5 42.0043 12.4875 53.9751 27.2748 53.9751Z" stroke="#79C99C" stroke-miterlimit="10"/>
<path d="M43.3888 17.1313C36.9284 16.6652 32.8017 14.0405 30.2962 11.6366H23.9832C21.5022 14.0405 17.3509 16.6898 10.8906 17.1313C10.8906 17.1313 9.29392 39.7478 27.1274 46.3218C44.9854 39.7478 43.3642 17.1313 43.3642 17.1313H43.3888Z" stroke="#B6BBCD" stroke-width="1.25" stroke-miterlimit="10"/>
<path d="M27.3976 35.1852C23.2217 35.1852 19.8073 31.7756 19.8073 27.6055C19.8073 23.4354 23.2217 20.0258 27.3976 20.0258C31.5735 20.0258 34.9879 23.4354 34.9879 27.6055C34.9879 31.7756 31.5735 35.1852 27.3976 35.1852Z" stroke="#79C99C" stroke-width="0.75" stroke-miterlimit="10"/>
<path d="M35.4055 25.496C34.2264 25.496 33.293 26.4526 33.293 27.6055C33.293 28.7584 34.251 29.7396 35.4055 29.7396C36.56 29.7396 37.518 28.783 37.518 27.6055C37.518 26.4281 36.56 25.496 35.4055 25.496Z" stroke="#79C99C" stroke-width="0.75" stroke-miterlimit="10"/>
<path d="M21.5514 20.0012C20.3723 20.0012 19.4143 20.9579 19.4143 22.1108C19.4143 23.2637 20.3723 24.2449 21.5514 24.2449C22.7304 24.2449 23.6639 23.2882 23.6639 22.1108C23.6639 20.9334 22.7059 20.0012 21.5514 20.0012Z" stroke="#79C99C" stroke-width="0.75" stroke-miterlimit="10"/>
<path d="M27.3976 29.0283C22.8287 29.0283 19.9056 28.1207 19.9056 27.5074C19.9056 26.8942 22.8287 25.9866 27.3976 25.9866C31.9665 25.9866 34.8896 26.8942 34.8896 27.5074C34.8896 28.1207 31.9665 29.0283 27.3976 29.0283Z" stroke="#79C99C" stroke-width="0.75" stroke-miterlimit="10"/>
<path opacity="0.1" d="M27.3976 23.3864C25.064 23.3864 23.1726 25.2752 23.1726 27.6055C23.1726 29.9358 25.064 31.8246 27.3976 31.8246C29.7312 31.8246 31.6226 29.9358 31.6226 27.6055C31.6226 25.2752 29.7312 23.3864 27.3976 23.3864Z" stroke="#79C99C" stroke-width="0.75" stroke-miterlimit="10"/>
</svg>
