<svg width="97" height="63" viewBox="0 0 97 63" fill="none" xmlns="http://www.w3.org/2000/svg">
<path d="M87.6396 9.10962C88.3496 9.10962 88.9296 9.68456 88.9296 10.3884C88.9296 11.0922 88.3496 11.6671 87.6396 11.6671C86.9296 11.6671 86.3496 11.0922 86.3496 10.3884C86.3496 9.68456 86.9296 9.10962 87.6396 9.10962Z" fill="white"/>
<path d="M86.3398 7.1564C87.5498 7.1564 88.6899 7.62231 89.5499 8.48472C90.4099 9.33721 90.8799 10.4772 90.8799 11.6865H92.7499C92.7499 8.16751 89.8698 5.30273 86.3398 5.30273V7.1564Z" fill="white"/>
<path d="M86.3496 3.87589C90.6696 3.87589 94.1896 7.38499 94.1896 11.6871H96.0596C96.0596 6.35407 91.6996 2.02222 86.3496 2.02222V3.87589Z" fill="white"/>
<path fill-rule="evenodd" clip-rule="evenodd" d="M69.9996 6.69061L65.6495 9.0201V4.34131L67.6096 5.40197L69.9996 6.69061ZM75.1996 3.52847C75.1996 3.52847 75.0396 2.3786 74.5596 1.87305C73.9496 1.2089 73.2596 1.2089 72.9496 1.16925C70.6896 1.00073 67.3196 1.00073 67.3196 1.00073C67.3196 1.00073 63.9396 1.00073 61.6896 1.16925C61.3696 1.2089 60.6896 1.2089 60.0696 1.88296C59.5896 2.38851 59.4296 3.53838 59.4296 3.53838C59.4296 3.53838 59.2695 4.88651 59.2695 6.23464V7.49355C59.2695 8.84168 59.4296 10.1898 59.4296 10.1898C59.4296 10.1898 59.5896 11.3397 60.0696 11.8452C60.6796 12.5094 61.4895 12.4896 61.8395 12.5589C63.1295 12.6779 67.3096 12.7275 67.3096 12.7275C67.3096 12.7275 70.6896 12.7275 72.9496 12.5589C73.2596 12.5193 73.9496 12.5193 74.5596 11.8452C75.0396 11.3397 75.1996 10.1898 75.1996 10.1898C75.1996 10.1898 75.3596 8.84168 75.3596 7.49355V6.23464C75.3596 4.88651 75.1996 3.53838 75.1996 3.53838V3.52847Z" fill="white"/>
<path d="M39.4805 1.31812C40.3405 1.31812 40.8606 1.87323 40.8806 2.60677C40.8806 3.32048 40.3405 3.89542 39.4605 3.89542H39.4506C38.6106 3.89542 38.0605 3.32048 38.0605 2.60677C38.0605 1.89305 38.6205 1.31812 39.4805 1.31812ZM46.8705 4.74792C48.5205 4.74792 49.7505 5.81849 49.7505 8.10832V12.4005H47.2405V8.39578C47.2405 7.3946 46.8805 6.70072 45.9705 6.70072C45.2805 6.70072 44.8605 7.16662 44.6805 7.61269C44.6105 7.77129 44.6005 7.98937 44.6005 8.21736V12.3906H42.0905C42.0905 12.3906 42.1205 5.61032 42.0905 4.91643H44.6005V5.96717C44.9305 5.46163 45.5305 4.73801 46.8605 4.73801L46.8705 4.74792ZM44.6105 5.9771C44.6105 5.9771 44.6005 5.99692 44.5905 6.00683H44.6105V5.9771ZM38.2105 4.92634H40.7205V12.4005H38.2105V4.92634Z" fill="white"/>
<path d="M27.48 6.68117L27.7601 4.50037H25.5801V3.10268C25.5801 2.46827 25.76 2.04203 26.67 2.04203H27.84V0.0892258C27.64 0.0594877 26.9501 0 26.1401 0C24.4601 0 23.3101 1.02101 23.3101 2.8846V4.50037H21.41V6.68117H23.3101V12.2918H25.59V6.68117H27.4901H27.48Z" fill="white"/>
<mask id="path-7-inside-1_93_532" fill="white">
<path d="M0.0299683 1.58545L4.41998 7.41412L0 12.1524H1L4.87 8.00888L8 12.1524H11.39L6.75 5.9966L10.87 1.58545H9.87L6.29999 5.40185L3.41998 1.58545H0.0299683ZM1.5 2.30907H3.06L9.92999 11.4188H8.37L1.5 2.30907Z"/>
</mask>
<path d="M0.0299683 1.58545L4.41998 7.41412L0 12.1524H1L4.87 8.00888L8 12.1524H11.39L6.75 5.9966L10.87 1.58545H9.87L6.29999 5.40185L3.41998 1.58545H0.0299683ZM1.5 2.30907H3.06L9.92999 11.4188H8.37L1.5 2.30907Z" fill="white"/>
<path d="M0.0299683 1.58545V0.585449H-1.97512L-0.768812 2.18707L0.0299683 1.58545ZM4.41998 7.41412L5.15122 8.09624L5.72355 7.48271L5.21876 6.8125L4.41998 7.41412ZM0 12.1524L-0.73124 11.4703L-2.30037 13.1524H0V12.1524ZM1 12.1524V13.1524H1.43434L1.73082 12.835L1 12.1524ZM4.87 8.00888L5.66792 7.40612L4.95102 6.45708L4.13918 7.3263L4.87 8.00888ZM8 12.1524L7.20207 12.7551L7.50215 13.1524H8V12.1524ZM11.39 12.1524V13.1524H13.396L12.1886 11.5505L11.39 12.1524ZM6.75 5.9966L6.01919 5.31402L5.4459 5.92782L5.95145 6.59852L6.75 5.9966ZM10.87 1.58545L11.6008 2.26803L13.1723 0.585449H10.87V1.58545ZM9.87 1.58545V0.585449H9.43611L9.13971 0.902309L9.87 1.58545ZM6.29999 5.40185L5.50177 6.00421L6.218 6.95332L7.03028 6.08499L6.29999 5.40185ZM3.41998 1.58545L4.2182 0.983082L3.91813 0.585449H3.41998V1.58545ZM1.5 2.30907V1.30907H-0.50662L0.701587 2.91118L1.5 2.30907ZM3.06 2.30907L3.85841 1.70696L3.55835 1.30907H3.06V2.30907ZM9.92999 11.4188V12.4188H11.9366L10.7284 10.8167L9.92999 11.4188ZM8.37 11.4188L7.57158 12.021L7.87164 12.4188H8.37V11.4188ZM0.0299683 1.58545L-0.768812 2.18707L3.6212 8.01574L4.41998 7.41412L5.21876 6.8125L0.828749 0.983827L0.0299683 1.58545ZM4.41998 7.41412L3.68874 6.732L-0.73124 11.4703L0 12.1524L0.73124 12.8345L5.15122 8.09624L4.41998 7.41412ZM0 12.1524V13.1524H1V12.1524V11.1524H0V12.1524ZM1 12.1524L1.73082 12.835L5.60081 8.69145L4.87 8.00888L4.13918 7.3263L0.269183 11.4698L1 12.1524ZM4.87 8.00888L4.07207 8.61163L7.20207 12.7551L8 12.1524L8.79793 11.5496L5.66792 7.40612L4.87 8.00888ZM8 12.1524V13.1524H11.39V12.1524V11.1524H8V12.1524ZM11.39 12.1524L12.1886 11.5505L7.54855 5.39468L6.75 5.9966L5.95145 6.59852L10.5915 12.7543L11.39 12.1524ZM6.75 5.9966L7.48081 6.67918L11.6008 2.26803L10.87 1.58545L10.1392 0.902872L6.01919 5.31402L6.75 5.9966ZM10.87 1.58545V0.585449H9.87V1.58545V2.58545H10.87V1.58545ZM9.87 1.58545L9.13971 0.902309L5.5697 4.71871L6.29999 5.40185L7.03028 6.08499L10.6003 2.26859L9.87 1.58545ZM6.29999 5.40185L7.09821 4.79948L4.2182 0.983082L3.41998 1.58545L2.62176 2.18782L5.50177 6.00421L6.29999 5.40185ZM3.41998 1.58545V0.585449H0.0299683V1.58545V2.58545H3.41998V1.58545ZM1.5 2.30907V3.30907H3.06V2.30907V1.30907H1.5V2.30907ZM3.06 2.30907L2.26158 2.91118L9.13158 12.021L9.92999 11.4188L10.7284 10.8167L3.85841 1.70696L3.06 2.30907ZM9.92999 11.4188V10.4188H8.37V11.4188V12.4188H9.92999V11.4188ZM8.37 11.4188L9.16841 10.8167L2.29841 1.70696L1.5 2.30907L0.701587 2.91118L7.57158 12.021L8.37 11.4188Z" fill="white" mask="url(#path-7-inside-1_93_532)"/>
</svg>
