<svg width="571" height="372" viewBox="0 0 571 372" fill="none" xmlns="http://www.w3.org/2000/svg">
<path d="M37.6465 311.5V352.5C37.6465 362.993 46.1531 371.5 56.6465 371.5H97.0878" stroke="#B6BBCD"/>
<path d="M570.441 60.5V19.5C570.441 9.00659 561.935 0.5 551.441 0.5H511" stroke="#B6BBCD"/>
<path d="M570.441 311.5V352.5C570.441 362.993 561.935 371.5 551.441 371.5H511" stroke="#B6BBCD"/>
<path d="M37.6465 223.5L37.6465 315.5" stroke="#B6BBCD"/>
<g clip-path="url(#clip0_102_1719)">
<path d="M58.7967 171.768C50.1277 171.139 44.5715 167.57 41.2354 164.298H32.7543C29.4183 167.57 23.8621 171.139 15.1931 171.768C15.1931 171.768 13.0317 202.442 36.9949 211.37C60.9463 202.43 58.7967 171.768 58.7967 171.768ZM36.9949 207.469C17.002 200.011 18.7993 174.424 18.7993 174.424C26.0352 173.902 30.6752 170.926 33.4474 168.187H40.5189C43.3028 170.914 47.9428 173.89 55.167 174.424C55.167 174.424 56.9642 200.023 36.9831 207.469" fill="#6E8090"/>
<path d="M51.3704 203.402C58.4612 203.402 64.2095 197.6 64.2095 190.442C64.2095 183.285 58.4612 177.483 51.3704 177.483C44.2795 177.483 38.5312 183.285 38.5312 190.442C38.5312 197.6 44.2795 203.402 51.3704 203.402Z" fill="white"/>
<path d="M50.9609 177.236C58.2802 177.236 64.2392 183.244 64.2393 190.644C64.2393 198.044 58.2803 204.052 50.9609 204.052C43.6414 204.052 37.6816 198.044 37.6816 190.644C37.6817 183.244 43.6414 177.236 50.9609 177.236ZM50.9609 177.765C43.9144 177.765 38.1973 183.543 38.1973 190.644C38.1973 197.745 43.9143 203.523 50.9609 203.523C58.0074 203.523 63.7236 197.745 63.7236 190.644C63.7236 183.543 58.0073 177.765 50.9609 177.765Z" fill="#71BFFF" stroke="#71BFFF"/>
<path d="M41.5277 178.23C39.6365 178.23 38.0977 179.783 38.0977 181.692C38.0977 183.601 39.6365 185.154 41.5277 185.154C43.4189 185.154 44.9577 183.601 44.9577 181.692C44.9577 179.783 43.4189 178.23 41.5277 178.23Z" fill="#6E8090"/>
<mask id="path-9-inside-1_102_1719" fill="white">
<path d="M50.9606 187.123C44.5116 187.123 37.9688 188.273 37.9688 190.478C37.9688 192.684 44.4999 193.834 50.9606 193.834C57.4212 193.834 63.9524 192.684 63.9524 190.478C63.9524 188.273 57.4212 187.123 50.9606 187.123ZM50.9606 192.956C43.5602 192.956 38.838 191.486 38.838 190.478C38.838 189.47 43.5602 188 50.9606 188C58.361 188 63.0831 189.47 63.0831 190.478C63.0831 191.486 58.361 192.956 50.9606 192.956Z"/>
</mask>
<path d="M50.9606 187.123C44.5116 187.123 37.9688 188.273 37.9688 190.478C37.9688 192.684 44.4999 193.834 50.9606 193.834C57.4212 193.834 63.9524 192.684 63.9524 190.478C63.9524 188.273 57.4212 187.123 50.9606 187.123ZM50.9606 192.956C43.5602 192.956 38.838 191.486 38.838 190.478C38.838 189.47 43.5602 188 50.9606 188C58.361 188 63.0831 189.47 63.0831 190.478C63.0831 191.486 58.361 192.956 50.9606 192.956Z" fill="#71BFFF"/>
<path d="M50.9606 187.123V186.123C47.6897 186.123 44.361 186.413 41.8216 186.999C40.5603 187.29 39.428 187.668 38.5867 188.16C37.7865 188.629 36.9688 189.375 36.9688 190.478H37.9688H38.9688C38.9688 190.469 38.9671 190.422 39.0473 190.32C39.1362 190.208 39.3055 190.057 39.5969 189.886C40.184 189.543 41.0905 189.22 42.2711 188.948C44.6153 188.407 47.7825 188.123 50.9606 188.123V187.123ZM37.9688 190.478H36.9688C36.9688 191.581 37.7847 192.327 38.5846 192.796C39.425 193.288 40.5564 193.666 41.817 193.957C44.3551 194.543 47.6839 194.834 50.9606 194.834V193.834V192.834C47.7765 192.834 44.6094 192.549 42.2668 192.009C41.087 191.736 40.1818 191.413 39.5958 191.07C39.3048 190.9 39.136 190.749 39.0473 190.636C38.9673 190.535 38.9688 190.488 38.9688 190.478H37.9688ZM50.9606 193.834V194.834C54.2372 194.834 57.566 194.543 60.1041 193.957C61.3647 193.666 62.4961 193.288 63.3365 192.796C64.1364 192.327 64.9524 191.581 64.9524 190.478H63.9524H62.9524C62.9524 190.488 62.9538 190.535 62.8739 190.636C62.7851 190.749 62.6163 190.9 62.3254 191.07C61.7393 191.413 60.8341 191.736 59.6544 192.009C57.3117 192.549 54.1446 192.834 50.9606 192.834V193.834ZM63.9524 190.478H64.9524C64.9524 189.375 64.1364 188.629 63.3365 188.161C62.4961 187.668 61.3647 187.29 60.1041 186.999C57.566 186.413 54.2372 186.123 50.9606 186.123V187.123V188.123C54.1446 188.123 57.3117 188.407 59.6544 188.948C60.8341 189.22 61.7393 189.543 62.3254 189.886C62.6163 190.057 62.7851 190.207 62.8739 190.32C62.9538 190.421 62.9524 190.468 62.9524 190.478H63.9524ZM50.9606 192.956V191.956C47.3203 191.956 44.3683 191.594 42.3524 191.122C41.3378 190.884 40.6 190.627 40.1392 190.396C39.9053 190.279 39.7885 190.191 39.7448 190.15C39.6849 190.093 39.838 190.205 39.838 190.478H38.838H37.838C37.838 191.004 38.1387 191.382 38.3659 191.598C38.6094 191.83 38.9193 192.022 39.2437 192.185C39.8996 192.513 40.8048 192.813 41.8959 193.069C44.0911 193.583 47.2004 193.956 50.9606 193.956V192.956ZM38.838 190.478H39.838C39.838 190.752 39.6849 190.864 39.7448 190.807C39.7885 190.765 39.9053 190.677 40.1392 190.56C40.6 190.329 41.3378 190.073 42.3524 189.835C44.3683 189.362 47.3203 189 50.9606 189V188V187C47.2004 187 44.0911 187.373 41.8959 187.887C40.8048 188.143 39.8996 188.443 39.2437 188.772C38.9193 188.934 38.6094 189.126 38.3659 189.358C38.1387 189.574 37.838 189.953 37.838 190.478H38.838ZM50.9606 188V189C54.6008 189 57.5528 189.362 59.5688 189.835C60.5833 190.073 61.3212 190.329 61.7819 190.56C62.0158 190.677 62.1327 190.765 62.1763 190.807C62.2362 190.864 62.0831 190.752 62.0831 190.478H63.0831H64.0831C64.0831 189.953 63.7825 189.574 63.5552 189.358C63.3117 189.126 63.0018 188.934 62.6774 188.772C62.0215 188.443 61.1163 188.143 60.0252 187.887C57.83 187.373 54.7207 187 50.9606 187V188ZM63.0831 190.478H62.0831C62.0831 190.205 62.2362 190.093 62.1763 190.15C62.1327 190.191 62.0158 190.279 61.7819 190.396C61.3212 190.627 60.5833 190.884 59.5688 191.122C57.5528 191.594 54.6008 191.956 50.9606 191.956V192.956V193.956C54.7207 193.956 57.83 193.583 60.0252 193.069C61.1163 192.813 62.0215 192.513 62.6774 192.185C63.0018 192.022 63.3117 191.83 63.5552 191.598C63.7825 191.382 64.0831 191.004 64.0831 190.478H63.0831Z" fill="#71BFFF" mask="url(#path-9-inside-1_102_1719)"/>
<path d="M50.9596 183.755C47.1889 183.755 44.1348 186.85 44.1348 190.644C44.1348 194.438 47.2006 197.533 50.9596 197.533C54.7185 197.533 57.7844 194.438 57.7844 190.644C57.7844 186.85 54.7185 183.755 50.9596 183.755Z" fill="#6E8090"/>
<path d="M63.8832 187.194C61.9919 187.194 60.4531 188.747 60.4531 190.656C60.4531 192.565 61.9919 194.118 63.8832 194.118C65.7744 194.118 67.3132 192.565 67.3132 190.656C67.3132 188.747 65.7744 187.194 63.8832 187.194Z" fill="#6E8090"/>
<path d="M59.2967 192.7C57.194 193.198 54.576 193.4 50.8758 193.4C43.4754 193.4 38.9875 192 38.4922 190.865" stroke="#71BFFF" stroke-width="0.8" stroke-miterlimit="10"/>
<path d="M36.5168 222.53C56.307 222.53 72.35 206.336 72.35 186.36C72.35 166.384 56.307 150.19 36.5168 150.19C16.7267 150.19 0.683594 166.384 0.683594 186.36C0.683594 206.336 16.7267 222.53 36.5168 222.53Z" stroke="#B6BBCD" stroke-width="1.38" stroke-miterlimit="10"/>
</g>
<path d="M37.6465 60.5V147.5" stroke="#B6BBCD"/>
<path d="M37.6465 60.5V19.5C37.6465 9.00659 46.1531 0.499998 56.6465 0.499998H97.0878" stroke="#B6BBCD"/>
<defs>
<clipPath id="clip0_102_1719">
<rect width="73.0336" height="73.72" fill="white" transform="translate(0 149.5)"/>
</clipPath>
</defs>
</svg>
