<svg width="538" height="312" viewBox="0 0 538 312" fill="none" xmlns="http://www.w3.org/2000/svg">
<path d="M38 251.5V292.5C38 302.993 46.5066 311.5 57 311.5H98" stroke="#B6BBCD"/>
<path d="M537 60.5V19.5C537 9.00659 528.493 0.5 518 0.5H477" stroke="#B6BBCD"/>
<path d="M537 251.5V292.5C537 302.993 528.493 311.5 518 311.5H477" stroke="#B6BBCD"/>
<path d="M38 193V253" stroke="#B6BBCD"/>
<g clip-path="url(#clip0_101_1342)">
<path d="M59.3496 141.768C50.599 141.139 44.9907 137.57 41.6232 134.298H33.0624C29.695 137.57 24.0866 141.139 15.3361 141.768C15.3361 141.768 13.1544 172.442 37.3428 181.37C61.5194 172.43 59.3496 141.768 59.3496 141.768ZM37.3428 177.469C17.1621 170.011 18.9762 144.424 18.9762 144.424C26.2802 143.902 30.9637 140.926 33.762 138.187H40.9C43.7101 140.914 48.3936 143.89 55.6857 144.424C55.6857 144.424 57.4999 170.023 37.331 177.469" fill="#B6BBCD"/>
<path d="M51.8543 173.402C59.0118 173.402 64.8141 167.6 64.8141 160.442C64.8141 153.285 59.0118 147.483 51.8543 147.483C44.6968 147.483 38.8945 153.285 38.8945 160.442C38.8945 167.6 44.6968 173.402 51.8543 173.402Z" fill="white"/>
<path d="M51.4395 147.236C58.8348 147.236 64.8476 153.249 64.8477 160.644C64.8477 168.039 58.8348 174.052 51.4395 174.052C44.0441 174.052 38.0312 168.039 38.0312 160.644C38.0313 153.249 44.0442 147.236 51.4395 147.236ZM51.4395 147.765C44.3338 147.765 38.5606 153.538 38.5605 160.644C38.5605 167.75 44.3337 173.523 51.4395 173.523C58.5453 173.523 64.3184 167.75 64.3184 160.644C64.3183 153.538 58.5452 147.765 51.4395 147.765Z" fill="#71BFFF" stroke="#71BFFF"/>
<path d="M41.9193 148.23C40.0103 148.23 38.457 149.783 38.457 151.692C38.457 153.601 40.0103 155.154 41.9193 155.154C43.8283 155.154 45.3816 153.601 45.3816 151.692C45.3816 149.783 43.8283 148.23 41.9193 148.23Z" fill="#6E8090"/>
<mask id="path-9-inside-1_101_1342" fill="white">
<path d="M51.4401 157.122C44.9306 157.122 38.3262 158.273 38.3262 160.478C38.3262 162.683 44.9187 163.834 51.4401 163.834C57.9615 163.834 64.554 162.683 64.554 160.478C64.554 158.273 57.9615 157.122 51.4401 157.122ZM51.4401 162.956C43.9701 162.956 39.2036 161.486 39.2036 160.478C39.2036 159.47 43.9701 158 51.4401 158C58.9101 158 63.6766 159.47 63.6766 160.478C63.6766 161.486 58.9101 162.956 51.4401 162.956Z"/>
</mask>
<path d="M51.4401 157.122C44.9306 157.122 38.3262 158.273 38.3262 160.478C38.3262 162.683 44.9187 163.834 51.4401 163.834C57.9615 163.834 64.554 162.683 64.554 160.478C64.554 158.273 57.9615 157.122 51.4401 157.122ZM51.4401 162.956C43.9701 162.956 39.2036 161.486 39.2036 160.478C39.2036 159.47 43.9701 158 51.4401 158C58.9101 158 63.6766 159.47 63.6766 160.478C63.6766 161.486 58.9101 162.956 51.4401 162.956Z" fill="#71BFFF"/>
<path d="M51.4401 157.122V156.122C48.1394 156.122 44.7809 156.413 42.2193 156.998C40.947 157.289 39.8057 157.667 38.9582 158.158C38.1542 158.624 37.3262 159.37 37.3262 160.478H38.3262H39.3262C39.3262 160.471 39.3235 160.426 39.4047 160.324C39.4947 160.211 39.6662 160.06 39.9614 159.888C40.5557 159.544 41.4723 159.221 42.6648 158.948C45.0328 158.407 48.2313 158.122 51.4401 158.122V157.122ZM38.3262 160.478H37.3262C37.3262 161.585 38.1523 162.331 38.9561 162.798C39.8028 163.289 40.9431 163.667 42.2147 163.958C44.775 164.543 48.1336 164.834 51.4401 164.834V163.834V162.834C48.2252 162.834 45.0269 162.549 42.6605 162.008C41.4688 161.736 40.5534 161.412 39.9602 161.068C39.6656 160.897 39.4945 160.746 39.4046 160.633C39.3237 160.531 39.3262 160.485 39.3262 160.478H38.3262ZM51.4401 163.834V164.834C54.7466 164.834 58.1052 164.543 60.6655 163.958C61.9371 163.667 63.0774 163.289 63.9241 162.798C64.7278 162.331 65.554 161.585 65.554 160.478H64.554H63.554C63.554 160.485 63.5565 160.531 63.4756 160.633C63.3857 160.746 63.2146 160.897 62.92 161.068C62.3268 161.412 61.4114 161.736 60.2197 162.008C57.8533 162.549 54.6549 162.834 51.4401 162.834V163.834ZM64.554 160.478H65.554C65.554 159.371 64.7278 158.625 63.9241 158.159C63.0774 157.667 61.9371 157.289 60.6655 156.998C58.1052 156.413 54.7466 156.122 51.4401 156.122V157.122V158.122C54.6549 158.122 57.8533 158.407 60.2197 158.948C61.4114 159.221 62.3268 159.544 62.92 159.888C63.2146 160.059 63.3857 160.21 63.4756 160.323C63.5565 160.425 63.554 160.471 63.554 160.478H64.554ZM51.4401 162.956V161.956C47.7645 161.956 44.7833 161.594 42.7468 161.121C41.722 160.883 40.9759 160.626 40.5095 160.395C40.2726 160.277 40.1538 160.189 40.109 160.146C40.0472 160.088 40.2036 160.201 40.2036 160.478H39.2036H38.2036C38.2036 161.007 38.5089 161.386 38.7369 161.601C38.982 161.833 39.294 162.024 39.6207 162.186C40.2814 162.514 41.1938 162.814 42.2944 163.069C44.5087 163.583 47.6457 163.956 51.4401 163.956V162.956ZM39.2036 160.478H40.2036C40.2036 160.755 40.0472 160.868 40.109 160.81C40.1538 160.768 40.2726 160.679 40.5095 160.561C40.9759 160.33 41.722 160.073 42.7468 159.835C44.7833 159.362 47.7645 159 51.4401 159V158V157C47.6457 157 44.5087 157.373 42.2944 157.887C41.1938 158.143 40.2814 158.442 39.6207 158.77C39.294 158.932 38.982 159.124 38.7369 159.355C38.5089 159.57 38.2036 159.949 38.2036 160.478H39.2036ZM51.4401 158V159C55.1157 159 58.0969 159.362 60.1334 159.835C61.1582 160.073 61.9043 160.33 62.3707 160.561C62.6076 160.679 62.7264 160.768 62.7711 160.81C62.833 160.868 62.6766 160.755 62.6766 160.478H63.6766H64.6766C64.6766 159.949 64.3713 159.57 64.1432 159.355C63.8982 159.124 63.5862 158.932 63.2595 158.77C62.5988 158.442 61.6864 158.143 60.5858 157.887C58.3715 157.373 55.2345 157 51.4401 157V158ZM63.6766 160.478H62.6766C62.6766 160.201 62.833 160.088 62.7711 160.146C62.7264 160.189 62.6076 160.277 62.3707 160.395C61.9043 160.626 61.1582 160.883 60.1334 161.121C58.0969 161.594 55.1157 161.956 51.4401 161.956V162.956V163.956C55.2345 163.956 58.3715 163.583 60.5858 163.069C61.6864 162.814 62.5988 162.514 63.2595 162.186C63.5862 162.024 63.8982 161.833 64.1432 161.601C64.3713 161.386 64.6766 161.007 64.6766 160.478H63.6766Z" fill="#71BFFF" mask="url(#path-9-inside-1_101_1342)"/>
<path d="M51.4397 153.755C47.6336 153.755 44.5508 156.85 44.5508 160.644C44.5508 164.438 47.6455 167.533 51.4397 167.533C55.234 167.533 58.3287 164.438 58.3287 160.644C58.3287 156.85 55.234 153.755 51.4397 153.755Z" fill="#6E8090"/>
<path d="M64.4838 157.194C62.5748 157.194 61.0215 158.747 61.0215 160.656C61.0215 162.565 62.5748 164.118 64.4838 164.118C66.3927 164.118 67.946 162.565 67.946 160.656C67.946 158.747 66.3927 157.194 64.4838 157.194Z" fill="#6E8090"/>
<path d="M59.8535 162.7C57.7311 163.198 55.0885 163.4 51.3535 163.4C43.8836 163.4 39.3535 162 38.8535 160.865" stroke="#71BFFF" stroke-width="0.8" stroke-miterlimit="10"/>
<path d="M36.8595 192.53C56.8356 192.53 73.0294 176.336 73.0294 156.36C73.0294 136.384 56.8356 120.19 36.8595 120.19C16.8833 120.19 0.689453 136.384 0.689453 156.36C0.689453 176.336 16.8833 192.53 36.8595 192.53Z" stroke="#B6BBCD" stroke-width="1.38" stroke-miterlimit="10"/>
</g>
<path d="M38 60.5V120.5" stroke="#B6BBCD"/>
<path d="M38 60.5V19.5C38 9.00659 46.5066 0.499998 57 0.499998H98" stroke="#B6BBCD"/>
<defs>
<clipPath id="clip0_101_1342">
<rect width="73.72" height="73.72" fill="white" transform="translate(0 119.5)"/>
</clipPath>
</defs>
</svg>
