<svg width="24" height="23" viewBox="0 0 24 23" fill="none" xmlns="http://www.w3.org/2000/svg">
<path fill-rule="evenodd" clip-rule="evenodd" d="M22.7635 9.188H11.7193C11.7193 10.3429 11.7193 12.6178 11.7193 13.7728H18.1354C17.89 14.9277 17.0135 16.5377 15.7863 17.3426C14.1385 18.4276 11.9998 18.6726 10.387 18.3576C7.86256 17.8676 5.89915 16.0477 5.09275 13.7378V13.7028C4.60189 12.2679 4.60189 10.3429 5.09275 9.188C5.75891 7.08809 7.79244 5.16317 10.3168 4.63819C12.3504 4.21821 14.6293 4.67319 16.3123 6.24812C16.5226 6.03813 19.3976 3.23825 19.608 2.99326C13.858 -2.18652 4.70708 -0.366593 1.2711 6.31812H1.23604C-0.446888 9.60798 -0.376766 13.4928 1.23604 16.6077C2.7086 19.4776 5.44336 21.6825 8.70403 22.5224C12.1751 23.4324 16.5927 22.8024 19.5379 20.1425C22.0272 17.9026 23.6049 14.0528 22.7985 9.118" fill="#6E8090"/>
</svg>
