<svg width="76" height="51" viewBox="0 0 76 51" fill="none" xmlns="http://www.w3.org/2000/svg">
<g clip-path="url(#clip0_97_1199)">
<path d="M15.6654 46.7055C15.9313 46.7722 16.1751 46.8613 16.4188 47.0393C16.6404 47.195 16.8619 47.3508 17.0614 47.5288C17.2608 47.6846 17.4602 47.8403 17.6375 47.9738C17.8147 48.1073 17.992 48.1741 18.1692 48.1741C18.2579 48.1741 18.3465 48.1741 18.413 48.1296C18.4794 48.1073 18.5459 48.0851 18.6124 48.0851C18.6345 48.0851 18.6567 48.0851 18.6567 48.1296C18.6567 48.1963 18.5902 48.2631 18.5237 48.3298C18.4573 48.3966 18.3686 48.4411 18.28 48.4856C18.1914 48.5301 18.0806 48.5524 17.992 48.5746C17.9033 48.5746 17.8147 48.5969 17.7482 48.5969C17.5267 48.5969 17.3272 48.5524 17.1278 48.4856C16.9284 48.3966 16.7512 48.3076 16.5517 48.1741C16.3745 48.0406 16.1972 47.9071 16.02 47.7736C15.8427 47.6178 15.6876 47.4843 15.5325 47.3508C15.3774 47.2173 15.2223 47.106 15.0672 46.9948C14.9121 46.8835 14.7791 46.8168 14.6462 46.7722C14.2474 46.7277 13.8707 46.6165 13.5383 46.4607C13.206 46.2827 12.9401 46.0602 12.6963 45.7932C12.4748 45.5262 12.2975 45.1924 12.1646 44.8364C12.0316 44.4581 11.9873 44.0576 11.9873 43.6348C11.9873 43.212 12.0759 42.7893 12.231 42.411C12.3861 42.0327 12.6077 41.699 12.8736 41.4097C13.1395 41.1204 13.4497 40.8979 13.8042 40.7199C14.1587 40.5419 14.5354 40.4751 14.9342 40.4751C15.4882 40.4751 15.9535 40.5641 16.3523 40.7421C16.7512 40.9202 17.0835 41.1427 17.3494 41.4319C17.6153 41.7212 17.8147 42.055 17.9477 42.4332C18.0806 42.8115 18.1471 43.212 18.1471 43.6348C18.1471 44.0576 18.0806 44.4136 17.9698 44.7696C17.859 45.1257 17.6818 45.4149 17.4602 45.6819C17.2386 45.949 16.9949 46.1715 16.6847 46.3495C16.3745 46.5275 16.0421 46.6387 15.6876 46.7055V46.75L15.6654 46.7055ZM15.2001 46.3272C15.4882 46.3272 15.7541 46.2605 15.9978 46.1492C16.2415 46.038 16.4409 45.8822 16.6182 45.6819C16.7955 45.4817 16.9284 45.2369 17.017 44.9699C17.1057 44.7029 17.1721 44.3914 17.1721 44.0576C17.1721 43.6126 17.1278 43.1898 17.0392 42.8115C16.9506 42.4332 16.7955 42.0995 16.6182 41.8102C16.4188 41.5209 16.1972 41.2984 15.887 41.1427C15.599 40.9869 15.2666 40.8979 14.8678 40.8979C14.6019 40.8979 14.3582 40.9424 14.1366 41.0537C13.8928 41.1427 13.6934 41.2984 13.5162 41.4764C13.3389 41.6544 13.206 41.8992 13.0952 42.1662C12.9844 42.4332 12.9401 42.7448 12.9401 43.1008C12.9401 43.5681 12.9844 43.9908 13.0952 44.3914C13.206 44.7919 13.3389 45.1257 13.5383 45.4372C13.7377 45.7264 13.9593 45.9489 14.2474 46.127C14.5354 46.2827 14.8456 46.3717 15.2223 46.3717L15.2001 46.3272Z" fill="white"/>
<path d="M25.3705 44.5471C25.3705 44.9032 25.3262 45.2369 25.2376 45.5262C25.149 45.8155 25.016 46.0602 24.8388 46.2827C24.6393 46.5053 24.3956 46.661 24.0854 46.7723C23.7752 46.8835 23.3764 46.9503 22.9111 46.9503C22.3793 46.9503 21.9361 46.8835 21.6038 46.75C21.2714 46.6165 21.0277 46.4385 20.8504 46.216C20.6732 45.9935 20.5624 45.7487 20.4959 45.4594C20.4294 45.1702 20.4073 44.8809 20.4073 44.5916V41.3875C20.4073 41.2539 20.363 41.1649 20.2743 41.1204C20.1857 41.0537 20.0306 41.0092 19.7869 40.9869C19.7204 40.9869 19.6982 40.9202 19.6982 40.8312C19.6982 40.7867 19.6982 40.7422 19.6982 40.6754C19.8755 40.6754 20.0749 40.6977 20.2743 40.6977C20.4738 40.6977 20.651 40.6977 20.8504 40.6977C21.0055 40.6977 21.2049 40.6977 21.4265 40.6977C21.6481 40.6977 21.8475 40.6977 22.0469 40.6754C22.0469 40.7422 22.0469 40.7867 22.0469 40.8312C22.0469 40.9424 22.0248 40.9869 21.9583 40.9869C21.7146 41.0092 21.5595 41.0537 21.4487 41.1204C21.3379 41.1872 21.2936 41.2762 21.2936 41.3875V44.3914C21.2936 45.0367 21.4265 45.5485 21.6924 45.8822C21.9583 46.2382 22.4014 46.394 22.9997 46.394C23.3542 46.394 23.6423 46.3495 23.886 46.2827C24.1297 46.1937 24.3291 46.0825 24.4842 45.9267C24.6393 45.771 24.7501 45.5485 24.8166 45.2814C24.8831 45.0144 24.9274 44.7029 24.9274 44.3469V41.3875C24.9274 41.2539 24.8831 41.1649 24.7945 41.1204C24.7058 41.0537 24.5286 41.0092 24.2848 40.9869C24.2184 40.9869 24.174 40.9202 24.174 40.8312C24.174 40.7867 24.174 40.7422 24.174 40.6754C24.3513 40.6754 24.5286 40.6977 24.7058 40.6977C24.8831 40.6977 25.016 40.6977 25.149 40.6977C25.3041 40.6977 25.4592 40.6977 25.6143 40.6977C25.7694 40.6977 25.9245 40.6977 26.0796 40.6754C26.0796 40.7422 26.0796 40.7867 26.0796 40.8312C26.0796 40.8534 26.0796 40.8979 26.0574 40.9202C26.0574 40.9647 26.0131 40.9647 25.991 40.9869C25.7694 41.0092 25.5921 41.0537 25.5035 41.1204C25.4149 41.1872 25.3705 41.2762 25.3705 41.3875V44.5471Z" fill="white"/>
<path d="M30.7549 44.4136H28.6721L28.0738 45.9267C28.0738 45.9267 28.0295 46.0602 28.0295 46.1047C28.0295 46.2383 28.2289 46.3273 28.6056 46.394C28.6499 46.394 28.6721 46.4163 28.6942 46.4385C28.6942 46.4608 28.7164 46.5053 28.7164 46.5275C28.7164 46.5498 28.7164 46.6165 28.7164 46.6833C28.5391 46.6833 28.3619 46.661 28.1846 46.661C28.0074 46.661 27.8079 46.661 27.6307 46.661C27.4977 46.661 27.3869 46.661 27.254 46.661C27.1211 46.661 26.9881 46.661 26.833 46.7055C26.833 46.661 26.833 46.5943 26.833 46.5498C26.833 46.5053 26.833 46.4608 26.8552 46.4385C26.8552 46.4163 26.8995 46.394 26.9438 46.3718C27.1432 46.3495 27.2762 46.305 27.3869 46.2605C27.4756 46.216 27.5642 46.1493 27.6085 46.038L29.8686 40.5864C29.8686 40.5864 29.9794 40.4307 30.0458 40.4307C30.068 40.4307 30.1123 40.4307 30.1566 40.4307L32.4167 46.0602C32.4167 46.0602 32.5496 46.216 32.6604 46.2605C32.7934 46.305 32.9263 46.3495 33.0371 46.3718C33.0814 46.3718 33.1036 46.394 33.1257 46.4163C33.1257 46.4163 33.1479 46.483 33.1479 46.5275C33.1479 46.572 33.1479 46.6165 33.1479 46.6833C32.9485 46.6833 32.749 46.661 32.5496 46.661C32.3502 46.661 32.1729 46.661 31.9957 46.661C31.8184 46.661 31.619 46.661 31.3974 46.661C31.1759 46.661 30.9764 46.661 30.777 46.6833C30.777 46.6165 30.777 46.572 30.777 46.5275C30.777 46.4608 30.777 46.4385 30.7992 46.4163C30.7992 46.4163 30.8435 46.394 30.8657 46.394C31.0208 46.3718 31.1537 46.3273 31.2645 46.2828C31.3753 46.2383 31.4196 46.1715 31.4196 46.1047C31.4196 46.0602 31.4196 46.0157 31.3753 45.9712L30.777 44.4136H30.7549ZM30.6219 44.0354L29.7578 41.7212L28.8493 44.0354H30.6219Z" fill="white"/>
<path d="M39.3733 45.3482V41.4319C39.3954 41.2984 39.3733 41.1872 39.2625 41.1427C39.1517 41.0759 38.9966 41.0314 38.7529 41.0091C38.6864 41.0091 38.6421 40.9424 38.6421 40.8534C38.6421 40.8089 38.6421 40.7644 38.6421 40.6976C38.7972 40.6976 38.9523 40.7199 39.1296 40.7199C39.2847 40.7199 39.4398 40.7199 39.5949 40.7199C39.75 40.7199 39.8829 40.7199 40.0159 40.7199C40.171 40.7199 40.3039 40.7199 40.459 40.6976C40.459 40.7644 40.459 40.8089 40.459 40.8534C40.459 40.9646 40.4368 41.0091 40.3704 41.0091C40.1488 41.0314 40.0159 41.0759 39.9272 41.1427C39.8386 41.2094 39.8164 41.2984 39.8164 41.4097V46.9502C39.8164 46.9502 39.75 46.9502 39.7278 46.9502C39.7057 46.9502 39.6613 46.9502 39.6613 46.9502C39.617 46.9502 39.5727 46.9502 39.5284 46.928C39.4841 46.928 39.4398 46.8612 39.3954 46.7945L35.6287 41.7657V46.2382C35.6287 46.3717 35.673 46.4607 35.7616 46.5052C35.8503 46.5497 36.0275 46.5942 36.2713 46.6387C36.3377 46.6387 36.3599 46.7055 36.3599 46.7945C36.3599 46.839 36.3599 46.8835 36.3599 46.9502C36.2048 46.9502 36.0497 46.928 35.8946 46.928C35.7395 46.928 35.5844 46.928 35.4514 46.928C35.3185 46.928 35.1855 46.928 35.0083 46.928C34.831 46.928 34.6759 46.928 34.543 46.9502C34.543 46.8835 34.543 46.839 34.543 46.7945C34.543 46.7055 34.5873 46.661 34.6538 46.6387C34.8753 46.5942 35.0304 46.5497 35.1191 46.5052C35.2077 46.4607 35.2298 46.3717 35.2298 46.2382V41.3652C35.2298 41.3652 35.1855 41.1872 35.1191 41.1427C35.0526 41.0982 34.8975 41.0537 34.6759 41.0091C34.6094 41.0091 34.5651 40.9424 34.5651 40.8534C34.5651 40.8311 34.5651 40.7866 34.5651 40.7644C34.5651 40.7644 34.5651 40.7199 34.5651 40.6976C34.6981 40.6976 34.8089 40.6976 34.9196 40.7199C35.0304 40.7199 35.1191 40.7199 35.2298 40.7199C35.3406 40.7199 35.4514 40.7199 35.5401 40.7199C35.7173 40.7199 35.8503 40.7199 35.8946 40.7199C35.961 40.7199 36.0054 40.7644 36.0497 40.8089L39.3733 45.3037V45.3482Z" fill="white"/>
<path d="M45.2902 41.0982V46.1938C45.2902 46.3495 45.3566 46.4385 45.4674 46.5053C45.5782 46.572 45.7776 46.6165 46.0657 46.6388C46.1322 46.6388 46.1765 46.6833 46.1765 46.7946C46.1765 46.8391 46.1765 46.8836 46.1765 46.9503C45.9771 46.9503 45.7555 46.9281 45.5339 46.9281C45.3123 46.9281 45.0908 46.9281 44.8692 46.9281C44.6476 46.9281 44.426 46.9281 44.2045 46.9281C43.9829 46.9281 43.7613 46.9281 43.5619 46.9503C43.5619 46.8836 43.5619 46.8391 43.5619 46.7946C43.5619 46.7056 43.5841 46.661 43.6505 46.6388C43.9386 46.5943 44.138 46.5498 44.2709 46.5053C44.4039 46.4385 44.4482 46.3495 44.4482 46.1938V41.0982H43.4733C43.296 41.0982 43.1187 41.0982 43.008 41.165C42.875 41.2095 42.7642 41.254 42.6756 41.343C42.587 41.4097 42.4983 41.521 42.4319 41.6323C42.3654 41.7435 42.2989 41.8993 42.2103 42.055C42.2103 42.0773 42.1881 42.0995 42.1438 42.1218C42.1217 42.1218 42.0995 42.1218 42.0552 42.1218C41.9887 42.1218 41.9222 42.1218 41.8779 42.055C41.9444 41.8325 41.9887 41.6323 42.0109 41.4542C42.033 41.2762 42.0773 41.1205 42.0995 41.0092C42.1217 40.898 42.1438 40.809 42.1881 40.7422C42.2103 40.6754 42.2546 40.6532 42.3211 40.6532C42.3654 40.6532 42.4319 40.6532 42.4983 40.6532C42.587 40.6532 42.6756 40.6532 42.7642 40.6532C42.8529 40.6532 42.9415 40.6532 43.0301 40.6532C43.1187 40.6532 43.2074 40.6532 43.296 40.6532H46.4202C46.4202 40.6532 46.5753 40.6532 46.6639 40.6532C46.7526 40.6532 46.8412 40.6532 46.952 40.6532C47.0406 40.6532 47.1292 40.6532 47.2179 40.6532C47.3065 40.6532 47.3508 40.6532 47.4173 40.6532C47.4838 40.6532 47.5281 40.6754 47.5502 40.7422C47.5724 40.809 47.5945 40.898 47.6389 41.0315C47.661 41.1427 47.6832 41.2985 47.7275 41.4765C47.7497 41.6545 47.794 41.8548 47.8826 42.0773C47.8604 42.0773 47.8161 42.0995 47.794 42.1218C47.7718 42.1218 47.7275 42.1218 47.7053 42.1218C47.6832 42.1218 47.661 42.1218 47.6167 42.1218C47.5945 42.1218 47.5724 42.0773 47.5502 42.055C47.4838 41.8993 47.4173 41.7658 47.3508 41.6323C47.2843 41.521 47.1957 41.4097 47.1071 41.343C47.0185 41.2762 46.9077 41.2095 46.7747 41.165C46.6418 41.1205 46.4867 41.0982 46.3094 41.0982H45.3345H45.2902Z" fill="white"/>
<path d="M54.9057 44.5471C54.9057 44.9032 54.8614 45.2369 54.7728 45.5262C54.6841 45.8155 54.5512 46.0602 54.3739 46.2827C54.1745 46.5053 53.9308 46.661 53.6206 46.7723C53.3104 46.8835 52.9115 46.9503 52.4462 46.9503C51.9144 46.9503 51.4713 46.8835 51.1389 46.75C50.8066 46.6165 50.5628 46.4385 50.3856 46.216C50.2083 45.9935 50.0975 45.7487 50.0311 45.4594C49.9646 45.1702 49.9424 44.8809 49.9424 44.5916V41.3875C49.9424 41.2539 49.8981 41.1649 49.8095 41.1204C49.7209 41.0537 49.5658 41.0092 49.322 40.9869C49.2556 40.9869 49.2334 40.9202 49.2334 40.8312C49.2334 40.7867 49.2334 40.7422 49.2334 40.6754C49.4107 40.6754 49.6101 40.6977 49.8095 40.6977C50.0089 40.6977 50.1862 40.6977 50.3856 40.6977C50.5407 40.6977 50.7401 40.6977 50.9617 40.6977C51.1833 40.6977 51.3827 40.6977 51.5821 40.6754C51.5821 40.7422 51.5821 40.7867 51.5821 40.8312C51.5821 40.9424 51.5599 40.9869 51.4935 40.9869C51.2497 41.0092 51.0946 41.0537 50.9838 41.1204C50.8731 41.1872 50.8287 41.2762 50.8287 41.3875V44.3914C50.8287 45.0367 50.9617 45.5485 51.2276 45.8822C51.4935 46.2382 51.9366 46.394 52.5349 46.394C52.8894 46.394 53.1774 46.3495 53.4212 46.2827C53.6649 46.1937 53.8643 46.0825 54.0194 45.9267C54.1745 45.771 54.2853 45.5485 54.3518 45.2814C54.4182 45.0144 54.4626 44.7029 54.4626 44.3469V41.3875C54.4626 41.2539 54.4182 41.1649 54.3296 41.1204C54.241 41.0537 54.0637 41.0092 53.82 40.9869C53.7535 40.9869 53.7092 40.9202 53.7092 40.8312C53.7092 40.7867 53.7092 40.7422 53.7092 40.6754C53.8865 40.6754 54.0637 40.6977 54.241 40.6977C54.4182 40.6977 54.5512 40.6977 54.6841 40.6977C54.8392 40.6977 54.9943 40.6977 55.1494 40.6977C55.3045 40.6977 55.4596 40.6977 55.6147 40.6754C55.6147 40.7422 55.6147 40.7867 55.6147 40.8312C55.6147 40.8534 55.6147 40.8979 55.5926 40.9202C55.5926 40.9647 55.5483 40.9647 55.5261 40.9869C55.3045 41.0092 55.1273 41.0537 55.0386 41.1204C54.95 41.1872 54.9057 41.2762 54.9057 41.3875V44.5471Z" fill="white"/>
<path d="M63.0825 40.8757C63.0825 40.8757 63.1046 40.8312 63.1268 40.8089C63.1268 40.7867 63.1711 40.7644 63.2154 40.7421C63.2597 40.7421 63.304 40.7199 63.3705 40.6976C63.437 40.6976 63.5256 40.6976 63.6364 40.6976C63.6807 40.6976 63.7472 40.6976 63.8358 40.6976C63.9244 40.6976 64.0131 40.6976 64.1017 40.6976C64.1903 40.6976 64.3011 40.6976 64.3897 40.6976C64.4784 40.6976 64.567 40.6976 64.6556 40.6976C64.6556 40.7644 64.6556 40.8089 64.6556 40.8534C64.6556 40.9647 64.6335 41.0092 64.567 41.0092C64.3454 41.0314 64.1903 41.0759 64.1239 41.1427C64.0574 41.1872 64.0131 41.2762 64.0131 41.3652C64.0131 41.3652 64.0131 41.4542 64.0131 41.61C64.0131 41.7657 64.0352 42.0327 64.0574 42.411C64.0574 42.7893 64.1017 43.3011 64.1239 43.9241C64.146 44.5471 64.1903 45.3259 64.2125 46.2605C64.2125 46.3717 64.2568 46.4607 64.3454 46.5275C64.4119 46.5942 64.567 46.6387 64.8107 46.661C64.8329 46.661 64.8551 46.6832 64.8772 46.7055C64.8772 46.7278 64.8994 46.7723 64.8994 46.7945C64.8994 46.8168 64.8994 46.8835 64.8994 46.9503C64.6778 46.9503 64.4784 46.928 64.3011 46.928C64.1239 46.928 63.9688 46.928 63.8137 46.928C63.7472 46.928 63.6807 46.928 63.5699 46.928C63.4813 46.928 63.3705 46.928 63.2819 46.928C63.1711 46.928 63.0825 46.928 62.9717 46.928C62.8609 46.928 62.7944 46.928 62.7058 46.928C62.7058 46.8613 62.7058 46.8168 62.7058 46.7723C62.7058 46.661 62.7279 46.6165 62.7944 46.6165C63.0381 46.572 63.2154 46.5052 63.304 46.4607C63.3927 46.4162 63.437 46.3272 63.437 46.1937C63.437 46.1937 63.437 46.0602 63.437 45.8377C63.437 45.6152 63.437 45.3482 63.3927 45.0367C63.3927 44.7251 63.3705 44.3914 63.3483 44.0353C63.3483 43.6793 63.3262 43.3233 63.304 43.0118C63.304 42.7003 63.2819 42.411 63.2597 42.1885C63.2597 41.966 63.2597 41.8102 63.2597 41.7657L61.1991 46.7723C61.1991 46.7723 61.1548 46.8835 61.1326 46.9058C61.1326 46.928 61.0883 46.9503 61.044 46.9503C60.9997 46.9503 60.9775 46.9503 60.9553 46.9503L58.6731 41.6322C58.6731 41.6322 58.6731 41.8547 58.651 42.0995C58.651 42.3442 58.651 42.6335 58.6067 42.9673C58.6067 43.301 58.5845 43.6571 58.5623 44.0353C58.5623 44.4136 58.518 44.7474 58.518 45.0812C58.518 45.3927 58.4959 45.6597 58.4737 45.8822C58.4737 46.1047 58.4737 46.216 58.4737 46.216C58.4737 46.4162 58.6953 46.5497 59.1163 46.6165C59.1828 46.6165 59.2049 46.6833 59.2049 46.7723C59.2049 46.8168 59.2049 46.8613 59.2049 46.928C59.0276 46.928 58.8725 46.9058 58.7174 46.9058C58.5623 46.9058 58.4072 46.9058 58.2965 46.9058C58.1857 46.9058 58.0527 46.9058 57.8976 46.9058C57.7204 46.9058 57.5653 46.9058 57.4102 46.928C57.4102 46.8613 57.4102 46.8168 57.4102 46.7723C57.4102 46.6833 57.4323 46.6387 57.4988 46.6165C57.676 46.5942 57.809 46.5497 57.8976 46.483C58.0084 46.4162 58.0527 46.3272 58.0749 46.216C58.0749 46.1492 58.0749 45.9935 58.0749 45.7264C58.0749 45.4594 58.097 45.1479 58.1192 44.7919C58.1192 44.4359 58.1414 44.0353 58.1635 43.6348C58.1635 43.2343 58.2078 42.856 58.2078 42.5C58.2078 42.144 58.23 41.877 58.2521 41.6322C58.2521 41.4097 58.2521 41.2984 58.2521 41.2762C58.2521 41.1649 58.2078 41.0982 58.1414 41.0537C58.0527 41.0092 57.9198 40.9647 57.6982 40.9202C57.6317 40.9202 57.6096 40.8534 57.6096 40.7644C57.6096 40.7199 57.6096 40.6754 57.6096 40.6086C57.6982 40.6086 57.7868 40.6086 57.8755 40.6086C57.9863 40.6086 58.0749 40.6086 58.1857 40.6086C58.2965 40.6086 58.3851 40.6086 58.4737 40.6086C58.5623 40.6086 58.651 40.6086 58.6953 40.6086C58.8061 40.6086 58.8947 40.6086 58.9612 40.6086C59.0277 40.6086 59.072 40.6086 59.1163 40.6531C59.1606 40.6531 59.1827 40.6754 59.2049 40.7199C59.2049 40.7421 59.2271 40.7644 59.2492 40.7867L61.2655 45.5484L63.1711 40.7867L63.0825 40.8757Z" fill="white"/>
<path d="M56.9443 27.2579L58.4067 28.9712C62.6388 25.3443 70.549 18.8246 76.0219 15.8875L74.9583 13.9071C69.3082 16.9555 61.2429 23.5864 56.9443 27.2579Z" fill="#495B9A"/>
<path d="M15.1449 23.8367L-0.015625 34.133L1.23806 35.9947L16.3986 25.6983L15.1449 23.8367Z" fill="#495B9A"/>
<path d="M65.3647 0.378296H11.5V38.2278H65.3647V0.378296Z" fill="#193057"/>
<path d="M65.7408 38.6283H11.1006V0H65.7187V38.6283H65.7408ZM11.8761 37.8495H64.9653V0.756544H11.8761V37.8495Z" fill="white"/>
<path d="M38.1329 8.72251C38.1329 8.72251 29.8904 19.0471 25.3481 24.7212C26.6332 20.805 29.4251 12.216 29.4251 12.216C29.4251 12.216 21.4927 20.1819 18.2577 23.4306C18.8117 21.606 20.2962 16.7552 20.2962 16.7552L0 30.284L1.24082 32.1531C1.24082 32.1531 12.519 24.6322 16.3079 22.0955C15.5988 24.4319 13.4717 31.3966 13.4717 31.3966C13.4717 31.3966 21.1382 23.6976 24.3732 20.4489C23.0437 24.5654 19.4099 35.7356 19.4099 35.7356C19.4099 35.7356 30.3114 22.1178 35.1417 16.0432C33.1475 21.0052 29.2921 30.64 29.2921 30.64C29.2921 30.64 37.4682 23.5864 40.6811 20.805C39.3738 24.6099 35.7178 35.2461 35.7178 35.2461C35.7178 35.2461 44.1376 25.5 48.3032 20.6715C46.5085 24.4319 42.2764 33.2435 42.2764 33.2435C42.2764 33.2435 52.0035 24.5654 55.1499 21.7618C54.5959 23.9647 53.1557 29.7722 53.1557 29.7722L55.8589 27.3469C55.9918 27.2356 68.4443 16.1322 76.0222 12.0602L74.9586 10.0798C69.2641 13.1283 61.221 19.7814 57.0554 23.3194C57.6093 21.0942 59.0717 15.2421 59.0717 15.2421C59.0717 15.2421 52.491 21.1165 49.1452 24.0982C51.2945 19.6256 57.5872 6.49738 57.5872 6.49738C57.5872 6.49738 45.6886 20.2487 41.5895 24.9882C42.8303 21.3613 45.4892 13.64 45.4892 13.64C45.4892 13.64 38.0665 20.0707 34.8093 22.8743C36.7592 18.0236 42.8746 2.75916 42.8746 2.75916L38.1329 8.678V8.72251Z" fill="#8992C1"/>
<path d="M36.6701 20.4935C36.6701 28.4817 34.4987 32.9097 31.2194 32.9097C26.6549 32.9097 24.9488 25.856 24.9488 19.2919C24.9488 11.2147 27.0759 6.87567 30.3331 6.87567C34.8532 6.87567 36.6923 13.9961 36.6923 20.4935H36.6701ZM41.1459 19.0249C41.1459 13.3286 39.1961 5.18457 31.0864 5.18457C23.7302 5.18457 20.4287 11.8377 20.4287 20.716C20.4287 26.4568 22.445 34.6008 30.4882 34.6008C37.7337 34.6008 41.1459 27.9477 41.1459 19.0249Z" fill="white"/>
<path d="M47.6167 16.7108C47.6167 14.6859 47.5724 13.0616 47.5724 11.7932C47.5724 10.9032 47.5724 10.4359 47.0185 10.4359C46.3094 10.4359 43.4954 11.9045 42.6756 12.2383C42.4983 12.305 42.2989 12.394 42.1438 12.394C42.033 12.394 41.8779 12.216 41.8779 11.9713C41.8779 11.7265 42.0552 11.5485 42.2546 11.4372C42.4097 11.3705 49.5444 6.63094 50.896 5.65188C51.1841 5.42937 51.5607 5.16235 51.8709 5.16235C52.2033 5.16235 52.2919 5.58513 52.2919 5.94115C52.2919 6.23042 52.1147 9.94639 52.1147 15.6872V22.6296C52.1147 26.2343 52.1147 29.4163 52.2698 31.0629C52.3806 32.2644 52.5578 32.8207 53.7543 33.0877C54.3083 33.199 55.9257 33.3103 56.2138 33.3103C56.3689 33.3103 56.524 33.4215 56.524 33.6885C56.524 33.9555 56.3467 34.0223 55.9257 34.0223C53.0896 34.0223 50.6966 33.911 49.6773 33.911C48.8132 33.911 45.689 34.0223 43.296 34.0223C42.875 34.0223 42.6978 33.9555 42.6978 33.6885C42.6978 33.4215 42.8529 33.3103 42.9858 33.3103C43.4068 33.3103 45.268 33.199 45.9771 33.0432C47.1292 32.7762 47.3508 32.2644 47.4616 31.0629C47.6167 29.4163 47.6167 26.2121 47.6167 22.6296V16.6663V16.7108Z" fill="white"/>
<path d="M65.0544 49.4424H11.6328V51H65.0544V49.4424Z" fill="#193057"/>
<path d="M11.832 50.822H64.8769V49.6427H11.832V50.822Z" fill="white"/>
<path d="M61.7969 36.7814H61.5089V35.6466H61.0879V35.4018H62.1958V35.6466H61.7748V36.7814H61.7969Z" fill="white"/>
<path d="M63.7253 36.7814H63.4594V35.6466L63.2156 36.7814H62.9276L62.6839 35.6466V36.7814H62.418V35.4019H62.839L63.0827 36.4922L63.3264 35.4019H63.7474V36.7814H63.7253Z" fill="white"/>
</g>
<defs>
<clipPath id="clip0_97_1199">
<rect width="76" height="51" fill="white"/>
</clipPath>
</defs>
</svg>
