<svg width="76" height="51" viewBox="0 0 76 51" fill="none" xmlns="http://www.w3.org/2000/svg">
<g clip-path="url(#clip0_135_955)">
<path d="M15.6654 46.2978C15.9313 46.364 16.1751 46.4522 16.4188 46.6287C16.6404 46.7831 16.8619 46.9375 17.0614 47.1139C17.2608 47.2683 17.4602 47.4227 17.6375 47.5551C17.8147 47.6874 17.992 47.7536 18.1692 47.7536C18.2579 47.7536 18.3465 47.7536 18.413 47.7095C18.4794 47.6874 18.5459 47.6653 18.6124 47.6653C18.6345 47.6653 18.6567 47.6653 18.6567 47.7095C18.6567 47.7756 18.5902 47.8418 18.5237 47.908C18.4573 47.9741 18.3686 48.0183 18.28 48.0624C18.1914 48.1065 18.0806 48.1285 17.992 48.1506C17.9033 48.1506 17.8147 48.1727 17.7482 48.1727C17.5267 48.1727 17.3272 48.1285 17.1278 48.0624C16.9284 47.9741 16.7512 47.8859 16.5517 47.7536C16.3745 47.6212 16.1972 47.4889 16.02 47.3565C15.8427 47.2021 15.6876 47.0698 15.5325 46.9375C15.3774 46.8051 15.2223 46.6948 15.0672 46.5845C14.9121 46.4743 14.7791 46.4081 14.6462 46.364C14.2474 46.3199 13.8707 46.2096 13.5383 46.0552C13.206 45.8787 12.9401 45.6581 12.6963 45.3935C12.4748 45.1288 12.2975 44.7979 12.1646 44.445C12.0316 44.07 11.9873 43.673 11.9873 43.2539C11.9873 42.8348 12.0759 42.4158 12.231 42.0408C12.3861 41.6658 12.6077 41.335 12.8736 41.0482C13.1395 40.7615 13.4497 40.5409 13.8042 40.3645C14.1587 40.188 14.5354 40.1218 14.9342 40.1218C15.4882 40.1218 15.9535 40.2101 16.3523 40.3865C16.7512 40.563 17.0835 40.7835 17.3494 41.0703C17.6153 41.357 17.8147 41.6879 17.9477 42.0628C18.0806 42.4378 18.1471 42.8348 18.1471 43.2539C18.1471 43.673 18.0806 44.0259 17.9698 44.3788C17.859 44.7318 17.6818 45.0185 17.4602 45.2832C17.2386 45.5479 16.9949 45.7684 16.6847 45.9449C16.3745 46.1213 16.0421 46.2316 15.6876 46.2978V46.3419L15.6654 46.2978ZM15.2001 45.9228C15.4882 45.9228 15.7541 45.8567 15.9978 45.7464C16.2415 45.6361 16.4409 45.4817 16.6182 45.2832C16.7955 45.0847 16.9284 44.842 17.017 44.5773C17.1057 44.3127 17.1721 44.0039 17.1721 43.673C17.1721 43.2319 17.1278 42.8128 17.0392 42.4378C16.9506 42.0628 16.7955 41.732 16.6182 41.4453C16.4188 41.1585 16.1972 40.9379 15.887 40.7835C15.599 40.6291 15.2666 40.5409 14.8678 40.5409C14.6019 40.5409 14.3582 40.585 14.1366 40.6953C13.8928 40.7835 13.6934 40.9379 13.5162 41.1144C13.3389 41.2908 13.206 41.5335 13.0952 41.7982C12.9844 42.0628 12.9401 42.3716 12.9401 42.7246C12.9401 43.1878 12.9844 43.6068 13.0952 44.0039C13.206 44.4009 13.3389 44.7317 13.5383 45.0405C13.7377 45.3273 13.9593 45.5479 14.2474 45.7243C14.5354 45.8787 14.8456 45.9669 15.2223 45.9669L15.2001 45.9228Z" fill="white"/>
<path d="M25.3705 44.1582C25.3705 44.5112 25.3262 44.842 25.2376 45.1287C25.149 45.4155 25.016 45.6581 24.8388 45.8787C24.6393 46.0993 24.3956 46.2537 24.0854 46.3639C23.7752 46.4742 23.3764 46.5404 22.9111 46.5404C22.3793 46.5404 21.9361 46.4742 21.6038 46.3419C21.2714 46.2095 21.0277 46.0331 20.8504 45.8125C20.6732 45.5919 20.5624 45.3493 20.4959 45.0626C20.4294 44.7758 20.4073 44.4891 20.4073 44.2024V41.0261C20.4073 40.8938 20.363 40.8056 20.2743 40.7615C20.1857 40.6953 20.0306 40.6512 19.7869 40.6291C19.7204 40.6291 19.6982 40.5629 19.6982 40.4747C19.6982 40.4306 19.6982 40.3865 19.6982 40.3203C19.8755 40.3203 20.0749 40.3424 20.2743 40.3424C20.4738 40.3424 20.651 40.3424 20.8504 40.3424C21.0055 40.3424 21.2049 40.3424 21.4265 40.3424C21.6481 40.3424 21.8475 40.3424 22.0469 40.3203C22.0469 40.3865 22.0469 40.4306 22.0469 40.4747C22.0469 40.585 22.0248 40.6291 21.9583 40.6291C21.7146 40.6512 21.5595 40.6953 21.4487 40.7615C21.3379 40.8276 21.2936 40.9159 21.2936 41.0261V44.0038C21.2936 44.6435 21.4265 45.1508 21.6924 45.4817C21.9583 45.8346 22.4014 45.989 22.9997 45.989C23.3542 45.989 23.6423 45.9449 23.886 45.8787C24.1297 45.7905 24.3291 45.6802 24.4842 45.5258C24.6393 45.3714 24.7501 45.1508 24.8166 44.8861C24.8831 44.6214 24.9274 44.3126 24.9274 43.9597V41.0261C24.9274 40.8938 24.8831 40.8056 24.7945 40.7615C24.7058 40.6953 24.5286 40.6512 24.2848 40.6291C24.2184 40.6291 24.174 40.5629 24.174 40.4747C24.174 40.4306 24.174 40.3865 24.174 40.3203C24.3513 40.3203 24.5286 40.3424 24.7058 40.3424C24.8831 40.3424 25.016 40.3424 25.149 40.3424C25.3041 40.3424 25.4592 40.3424 25.6143 40.3424C25.7694 40.3424 25.9245 40.3424 26.0796 40.3203C26.0796 40.3865 26.0796 40.4306 26.0796 40.4747C26.0796 40.4968 26.0796 40.5409 26.0574 40.5629C26.0574 40.6071 26.0131 40.6071 25.991 40.6291C25.7694 40.6512 25.5921 40.6953 25.5035 40.7615C25.4149 40.8276 25.3705 40.9159 25.3705 41.0261V44.1582Z" fill="white"/>
<path d="M30.7549 44.0258H28.6721L28.0738 45.5257C28.0738 45.5257 28.0295 45.6581 28.0295 45.7022C28.0295 45.8345 28.2289 45.9228 28.6056 45.9889C28.6499 45.9889 28.6721 46.011 28.6942 46.033C28.6942 46.0551 28.7164 46.0992 28.7164 46.1213C28.7164 46.1433 28.7164 46.2095 28.7164 46.2757C28.5391 46.2757 28.3619 46.2536 28.1846 46.2536C28.0074 46.2536 27.8079 46.2536 27.6307 46.2536C27.4977 46.2536 27.3869 46.2536 27.254 46.2536C27.1211 46.2536 26.9881 46.2536 26.833 46.2977C26.833 46.2536 26.833 46.1874 26.833 46.1433C26.833 46.0992 26.833 46.0551 26.8552 46.033C26.8552 46.011 26.8995 45.9889 26.9438 45.9669C27.1432 45.9448 27.2762 45.9007 27.3869 45.8566C27.4756 45.8125 27.5642 45.7463 27.6085 45.636L29.8686 40.232C29.8686 40.232 29.9794 40.0776 30.0458 40.0776C30.068 40.0776 30.1123 40.0776 30.1566 40.0776L32.4167 45.6581C32.4167 45.6581 32.5496 45.8125 32.6604 45.8566C32.7934 45.9007 32.9263 45.9448 33.0371 45.9669C33.0814 45.9669 33.1036 45.9889 33.1257 46.011C33.1257 46.011 33.1479 46.0772 33.1479 46.1213C33.1479 46.1654 33.1479 46.2095 33.1479 46.2757C32.9485 46.2757 32.749 46.2536 32.5496 46.2536C32.3502 46.2536 32.1729 46.2536 31.9957 46.2536C31.8184 46.2536 31.619 46.2536 31.3974 46.2536C31.1759 46.2536 30.9764 46.2536 30.777 46.2757C30.777 46.2095 30.777 46.1654 30.777 46.1213C30.777 46.0551 30.777 46.033 30.7992 46.011C30.7992 46.011 30.8435 45.9889 30.8657 45.9889C31.0208 45.9669 31.1537 45.9228 31.2645 45.8786C31.3753 45.8345 31.4196 45.7684 31.4196 45.7022C31.4196 45.6581 31.4196 45.614 31.3753 45.5698L30.777 44.0258H30.7549ZM30.6219 43.6509L29.7578 41.3569L28.8493 43.6509H30.6219Z" fill="white"/>
<path d="M39.3733 44.9523V41.0703C39.3954 40.9379 39.3733 40.8277 39.2625 40.7835C39.1517 40.7174 38.9966 40.6733 38.7529 40.6512C38.6864 40.6512 38.6421 40.585 38.6421 40.4968C38.6421 40.4527 38.6421 40.4086 38.6421 40.3424C38.7972 40.3424 38.9523 40.3645 39.1296 40.3645C39.2847 40.3645 39.4398 40.3645 39.5949 40.3645C39.75 40.3645 39.8829 40.3645 40.0159 40.3645C40.171 40.3645 40.3039 40.3645 40.459 40.3424C40.459 40.4086 40.459 40.4527 40.459 40.4968C40.459 40.6071 40.4368 40.6512 40.3704 40.6512C40.1488 40.6733 40.0159 40.7174 39.9272 40.7835C39.8386 40.8497 39.8164 40.9379 39.8164 41.0482V46.5404C39.8164 46.5404 39.75 46.5404 39.7278 46.5404C39.7057 46.5404 39.6613 46.5404 39.6613 46.5404C39.617 46.5404 39.5727 46.5404 39.5284 46.5184C39.4841 46.5184 39.4398 46.4522 39.3954 46.386L35.6287 41.4011V45.8346C35.6287 45.967 35.673 46.0552 35.7616 46.0993C35.8503 46.1434 36.0275 46.1875 36.2713 46.2316C36.3377 46.2316 36.3599 46.2978 36.3599 46.386C36.3599 46.4302 36.3599 46.4743 36.3599 46.5404C36.2048 46.5404 36.0497 46.5184 35.8946 46.5184C35.7395 46.5184 35.5844 46.5184 35.4514 46.5184C35.3185 46.5184 35.1855 46.5184 35.0083 46.5184C34.831 46.5184 34.6759 46.5184 34.543 46.5404C34.543 46.4743 34.543 46.4302 34.543 46.386C34.543 46.2978 34.5873 46.2537 34.6538 46.2316C34.8753 46.1875 35.0304 46.1434 35.1191 46.0993C35.2077 46.0552 35.2298 45.967 35.2298 45.8346V41.0041C35.2298 41.0041 35.1855 40.8277 35.1191 40.7835C35.0526 40.7394 34.8975 40.6953 34.6759 40.6512C34.6094 40.6512 34.5651 40.585 34.5651 40.4968C34.5651 40.4747 34.5651 40.4306 34.5651 40.4086C34.5651 40.4086 34.5651 40.3645 34.5651 40.3424C34.6981 40.3424 34.8089 40.3424 34.9196 40.3645C35.0304 40.3645 35.1191 40.3645 35.2298 40.3645C35.3406 40.3645 35.4514 40.3645 35.5401 40.3645C35.7173 40.3645 35.8503 40.3645 35.8946 40.3645C35.961 40.3645 36.0054 40.4086 36.0497 40.4527L39.3733 44.9082V44.9523Z" fill="white"/>
<path d="M45.2902 40.7394V45.7904C45.2902 45.9448 45.3566 46.0331 45.4674 46.0992C45.5782 46.1654 45.7776 46.2095 46.0657 46.2316C46.1322 46.2316 46.1765 46.2757 46.1765 46.386C46.1765 46.4301 46.1765 46.4742 46.1765 46.5404C45.9771 46.5404 45.7555 46.5183 45.5339 46.5183C45.3123 46.5183 45.0908 46.5183 44.8692 46.5183C44.6476 46.5183 44.426 46.5183 44.2045 46.5183C43.9829 46.5183 43.7613 46.5183 43.5619 46.5404C43.5619 46.4742 43.5619 46.4301 43.5619 46.386C43.5619 46.2977 43.5841 46.2536 43.6505 46.2316C43.9386 46.1874 44.138 46.1433 44.2709 46.0992C44.4039 46.0331 44.4482 45.9448 44.4482 45.7904V40.7394H43.4733C43.296 40.7394 43.1187 40.7394 43.008 40.8055C42.875 40.8496 42.7642 40.8938 42.6756 40.982C42.587 41.0482 42.4983 41.1584 42.4319 41.2687C42.3654 41.379 42.2989 41.5334 42.2103 41.6878C42.2103 41.7099 42.1881 41.7319 42.1438 41.754C42.1217 41.754 42.0995 41.754 42.0552 41.754C41.9887 41.754 41.9222 41.754 41.8779 41.6878C41.9444 41.4672 41.9887 41.2687 42.0109 41.0923C42.033 40.9158 42.0773 40.7614 42.0995 40.6511C42.1217 40.5408 42.1438 40.4526 42.1881 40.3864C42.2103 40.3203 42.2546 40.2982 42.3211 40.2982C42.3654 40.2982 42.4319 40.2982 42.4983 40.2982C42.587 40.2982 42.6756 40.2982 42.7642 40.2982C42.8529 40.2982 42.9415 40.2982 43.0301 40.2982C43.1187 40.2982 43.2074 40.2982 43.296 40.2982H46.4202C46.4202 40.2982 46.5753 40.2982 46.6639 40.2982C46.7526 40.2982 46.8412 40.2982 46.952 40.2982C47.0406 40.2982 47.1292 40.2982 47.2179 40.2982C47.3065 40.2982 47.3508 40.2982 47.4173 40.2982C47.4838 40.2982 47.5281 40.3203 47.5502 40.3864C47.5724 40.4526 47.5945 40.5408 47.6389 40.6732C47.661 40.7835 47.6832 40.9379 47.7275 41.1143C47.7497 41.2908 47.794 41.4893 47.8826 41.7099C47.8604 41.7099 47.8161 41.7319 47.794 41.754C47.7718 41.754 47.7275 41.754 47.7053 41.754C47.6832 41.754 47.661 41.754 47.6167 41.754C47.5945 41.754 47.5724 41.7099 47.5502 41.6878C47.4838 41.5334 47.4173 41.4011 47.3508 41.2687C47.2843 41.1584 47.1957 41.0482 47.1071 40.982C47.0185 40.9158 46.9077 40.8496 46.7747 40.8055C46.6418 40.7614 46.4867 40.7394 46.3094 40.7394H45.3345H45.2902Z" fill="white"/>
<path d="M54.9057 44.1582C54.9057 44.5112 54.8614 44.842 54.7728 45.1287C54.6841 45.4155 54.5512 45.6581 54.3739 45.8787C54.1745 46.0993 53.9308 46.2537 53.6206 46.3639C53.3104 46.4742 52.9115 46.5404 52.4462 46.5404C51.9144 46.5404 51.4713 46.4742 51.1389 46.3419C50.8066 46.2095 50.5628 46.0331 50.3856 45.8125C50.2083 45.5919 50.0975 45.3493 50.0311 45.0626C49.9646 44.7758 49.9424 44.4891 49.9424 44.2024V41.0261C49.9424 40.8938 49.8981 40.8056 49.8095 40.7615C49.7209 40.6953 49.5658 40.6512 49.322 40.6291C49.2556 40.6291 49.2334 40.5629 49.2334 40.4747C49.2334 40.4306 49.2334 40.3865 49.2334 40.3203C49.4107 40.3203 49.6101 40.3424 49.8095 40.3424C50.0089 40.3424 50.1862 40.3424 50.3856 40.3424C50.5407 40.3424 50.7401 40.3424 50.9617 40.3424C51.1833 40.3424 51.3827 40.3424 51.5821 40.3203C51.5821 40.3865 51.5821 40.4306 51.5821 40.4747C51.5821 40.585 51.5599 40.6291 51.4935 40.6291C51.2497 40.6512 51.0946 40.6953 50.9838 40.7615C50.8731 40.8276 50.8287 40.9159 50.8287 41.0261V44.0038C50.8287 44.6435 50.9617 45.1508 51.2276 45.4817C51.4935 45.8346 51.9366 45.989 52.5349 45.989C52.8894 45.989 53.1774 45.9449 53.4212 45.8787C53.6649 45.7905 53.8643 45.6802 54.0194 45.5258C54.1745 45.3714 54.2853 45.1508 54.3518 44.8861C54.4182 44.6214 54.4626 44.3126 54.4626 43.9597V41.0261C54.4626 40.8938 54.4182 40.8056 54.3296 40.7615C54.241 40.6953 54.0637 40.6512 53.82 40.6291C53.7535 40.6291 53.7092 40.5629 53.7092 40.4747C53.7092 40.4306 53.7092 40.3865 53.7092 40.3203C53.8865 40.3203 54.0637 40.3424 54.241 40.3424C54.4182 40.3424 54.5512 40.3424 54.6841 40.3424C54.8392 40.3424 54.9943 40.3424 55.1494 40.3424C55.3045 40.3424 55.4596 40.3424 55.6147 40.3203C55.6147 40.3865 55.6147 40.4306 55.6147 40.4747C55.6147 40.4968 55.6147 40.5409 55.5926 40.5629C55.5926 40.6071 55.5483 40.6071 55.5261 40.6291C55.3045 40.6512 55.1273 40.6953 55.0386 40.7615C54.95 40.8276 54.9057 40.9159 54.9057 41.0261V44.1582Z" fill="white"/>
<path d="M63.0825 40.5188C63.0825 40.5188 63.1046 40.4747 63.1268 40.4527C63.1268 40.4306 63.1711 40.4085 63.2154 40.3865C63.2597 40.3865 63.304 40.3644 63.3705 40.3424C63.437 40.3424 63.5256 40.3424 63.6364 40.3424C63.6807 40.3424 63.7472 40.3424 63.8358 40.3424C63.9244 40.3424 64.0131 40.3424 64.1017 40.3424C64.1903 40.3424 64.3011 40.3424 64.3897 40.3424C64.4784 40.3424 64.567 40.3424 64.6556 40.3424C64.6556 40.4086 64.6556 40.4527 64.6556 40.4968C64.6556 40.6071 64.6335 40.6512 64.567 40.6512C64.3454 40.6732 64.1903 40.7173 64.1239 40.7835C64.0574 40.8276 64.0131 40.9159 64.0131 41.0041C64.0131 41.0041 64.0131 41.0923 64.0131 41.2467C64.0131 41.4011 64.0352 41.6658 64.0574 42.0408C64.0574 42.4157 64.1017 42.9231 64.1239 43.5407C64.146 44.1582 64.1903 44.9302 64.2125 45.8566C64.2125 45.9669 64.2568 46.0552 64.3454 46.1213C64.4119 46.1875 64.567 46.2316 64.8107 46.2537C64.8329 46.2537 64.8551 46.2757 64.8772 46.2978C64.8772 46.3198 64.8994 46.364 64.8994 46.386C64.8994 46.4081 64.8994 46.4742 64.8994 46.5404C64.6778 46.5404 64.4784 46.5184 64.3011 46.5184C64.1239 46.5184 63.9688 46.5184 63.8137 46.5184C63.7472 46.5184 63.6807 46.5184 63.5699 46.5184C63.4813 46.5184 63.3705 46.5184 63.2819 46.5184C63.1711 46.5184 63.0825 46.5184 62.9717 46.5184C62.8609 46.5184 62.7944 46.5184 62.7058 46.5184C62.7058 46.4522 62.7058 46.4081 62.7058 46.364C62.7058 46.2537 62.7279 46.2096 62.7944 46.2096C63.0381 46.1654 63.2154 46.0993 63.304 46.0552C63.3927 46.011 63.437 45.9228 63.437 45.7905C63.437 45.7905 63.437 45.6581 63.437 45.4376C63.437 45.217 63.437 44.9523 63.3927 44.6435C63.3927 44.3347 63.3705 44.0039 63.3483 43.6509C63.3483 43.298 63.3262 42.9451 63.304 42.6363C63.304 42.3275 63.2819 42.0408 63.2597 41.8202C63.2597 41.5996 63.2597 41.4452 63.2597 41.4011L61.1991 46.364C61.1991 46.364 61.1548 46.4742 61.1326 46.4963C61.1326 46.5184 61.0883 46.5404 61.044 46.5404C60.9997 46.5404 60.9775 46.5404 60.9553 46.5404L58.6731 41.2688C58.6731 41.2688 58.6731 41.4893 58.651 41.732C58.651 41.9746 58.651 42.2613 58.6067 42.5922C58.6067 42.9231 58.5845 43.276 58.5623 43.6509C58.5623 44.0259 58.518 44.3568 58.518 44.6876C58.518 44.9964 58.4959 45.2611 58.4737 45.4817C58.4737 45.7022 58.4737 45.8125 58.4737 45.8125C58.4737 46.011 58.6953 46.1434 59.1163 46.2096C59.1828 46.2096 59.2049 46.2757 59.2049 46.364C59.2049 46.4081 59.2049 46.4522 59.2049 46.5184C59.0276 46.5184 58.8725 46.4963 58.7174 46.4963C58.5623 46.4963 58.4072 46.4963 58.2965 46.4963C58.1857 46.4963 58.0527 46.4963 57.8976 46.4963C57.7204 46.4963 57.5653 46.4963 57.4102 46.5184C57.4102 46.4522 57.4102 46.4081 57.4102 46.364C57.4102 46.2757 57.4323 46.2316 57.4988 46.2096C57.676 46.1875 57.809 46.1434 57.8976 46.0772C58.0084 46.011 58.0527 45.9228 58.0749 45.8125C58.0749 45.7464 58.0749 45.592 58.0749 45.3273C58.0749 45.0626 58.097 44.7538 58.1192 44.4009C58.1192 44.048 58.1414 43.6509 58.1635 43.2539C58.1635 42.8569 58.2078 42.4819 58.2078 42.129C58.2078 41.7761 58.23 41.5114 58.2521 41.2688C58.2521 41.0482 58.2521 40.9379 58.2521 40.9159C58.2521 40.8056 58.2078 40.7394 58.1414 40.6953C58.0527 40.6512 57.9198 40.6071 57.6982 40.5629C57.6317 40.5629 57.6096 40.4968 57.6096 40.4085C57.6096 40.3644 57.6096 40.3203 57.6096 40.2542C57.6982 40.2542 57.7868 40.2542 57.8755 40.2542C57.9863 40.2542 58.0749 40.2542 58.1857 40.2542C58.2965 40.2542 58.3851 40.2542 58.4737 40.2542C58.5623 40.2542 58.651 40.2542 58.6953 40.2542C58.8061 40.2542 58.8947 40.2542 58.9612 40.2542C59.0277 40.2542 59.072 40.2542 59.1163 40.2983C59.1606 40.2983 59.1827 40.3203 59.2049 40.3644C59.2049 40.3865 59.2271 40.4085 59.2492 40.4306L61.2655 45.1508L63.1711 40.4306L63.0825 40.5188Z" fill="white"/>
<path d="M56.9453 27.0199L58.4077 28.7183C62.6398 25.123 70.55 18.6603 76.0229 15.7487L74.9593 13.7856C69.3092 16.8075 61.2439 23.3805 56.9453 27.0199Z" fill="#495B9A"/>
<path d="M15.1449 23.6286L-0.015625 33.8351L1.23806 35.6805L16.3986 25.474L15.1449 23.6286Z" fill="#495B9A"/>
<path d="M65.3647 0.375H11.5V37.8941H65.3647V0.375Z" fill="#193057"/>
<path d="M65.7408 38.2911H11.1006V0H65.7187V38.2911H65.7408ZM11.8761 37.5191H64.9653V0.74994H11.8761V37.5191Z" fill="white"/>
<path d="M38.1329 8.6464C38.1329 8.6464 29.8904 18.8809 25.3481 24.5054C26.6332 20.6234 29.4251 12.1094 29.4251 12.1094C29.4251 12.1094 21.4927 20.0058 18.2577 23.2261C18.8117 21.4174 20.2962 16.609 20.2962 16.609L0 30.0197L1.24082 31.8725C1.24082 31.8725 12.519 24.4172 16.3079 21.9027C15.5988 24.2187 13.4717 31.1225 13.4717 31.1225C13.4717 31.1225 21.1382 23.4908 24.3732 20.2705C23.0437 24.351 19.4099 35.4237 19.4099 35.4237C19.4099 35.4237 30.3114 21.9247 35.1417 15.9032C33.1475 20.8219 29.2921 30.3726 29.2921 30.3726C29.2921 30.3726 37.4682 23.3805 40.6811 20.6234C39.3738 24.3951 35.7178 34.9384 35.7178 34.9384C35.7178 34.9384 44.1376 25.2774 48.3032 20.491C46.5085 24.2187 42.2764 32.9533 42.2764 32.9533C42.2764 32.9533 52.0035 24.351 55.1499 21.5718C54.5959 23.7555 53.1557 29.5124 53.1557 29.5124L55.8589 27.1082C55.9918 26.9979 68.4443 15.9914 76.0222 11.955L74.9586 9.99188C69.2641 13.0137 61.221 19.6088 57.0554 23.1158C57.6093 20.9101 59.0717 15.1091 59.0717 15.1091C59.0717 15.1091 52.491 20.9322 49.1452 23.8878C51.2945 19.4544 57.5872 6.44069 57.5872 6.44069C57.5872 6.44069 45.6886 20.072 41.5895 24.7701C42.8303 21.1748 45.4892 13.521 45.4892 13.521C45.4892 13.521 38.0665 19.8955 34.8093 22.6747C36.7592 17.8662 42.8746 2.73511 42.8746 2.73511L38.1329 8.60229V8.6464Z" fill="#8992C1"/>
<path d="M36.6701 20.3145C36.6701 28.233 34.4987 32.6224 31.2194 32.6224C26.6549 32.6224 24.9488 25.6303 24.9488 19.1235C24.9488 11.1167 27.0759 6.81562 30.3331 6.81562C34.8532 6.81562 36.6923 13.8739 36.6923 20.3145H36.6701ZM41.1459 18.8588C41.1459 13.2122 39.1961 5.13928 31.0864 5.13928C23.7302 5.13928 20.4287 11.7343 20.4287 20.5351C20.4287 26.2258 22.445 34.2987 30.4882 34.2987C37.7337 34.2987 41.1459 27.7037 41.1459 18.8588Z" fill="white"/>
<path d="M47.6167 16.5648C47.6167 14.5576 47.5724 12.9474 47.5724 11.6902C47.5724 10.8079 47.5724 10.3447 47.0185 10.3447C46.3094 10.3447 43.4954 11.8005 42.6756 12.1313C42.4983 12.1975 42.2989 12.2857 42.1438 12.2857C42.033 12.2857 41.8779 12.1093 41.8779 11.8666C41.8779 11.624 42.0552 11.4476 42.2546 11.3373C42.4097 11.2711 49.5444 6.57295 50.896 5.60244C51.1841 5.38187 51.5607 5.11719 51.8709 5.11719C52.2033 5.11719 52.2919 5.53627 52.2919 5.88918C52.2919 6.17593 52.1147 9.85946 52.1147 15.5502V22.432C52.1147 26.0052 52.1147 29.1594 52.2698 30.7916C52.3806 31.9827 52.5578 32.5341 53.7543 32.7988C54.3083 32.9091 55.9257 33.0194 56.2138 33.0194C56.3689 33.0194 56.524 33.1297 56.524 33.3943C56.524 33.659 56.3467 33.7252 55.9257 33.7252C53.0896 33.7252 50.6966 33.6149 49.6773 33.6149C48.8132 33.6149 45.689 33.7252 43.296 33.7252C42.875 33.7252 42.6978 33.659 42.6978 33.3943C42.6978 33.1297 42.8529 33.0194 42.9858 33.0194C43.4068 33.0194 45.268 32.9091 45.9771 32.7547C47.1292 32.49 47.3508 31.9827 47.4616 30.7916C47.6167 29.1594 47.6167 25.9832 47.6167 22.432V16.5207V16.5648Z" fill="white"/>
<path d="M65.0544 49.0107H11.6328V50.5547H65.0544V49.0107Z" fill="#193057"/>
<path d="M11.832 50.3784H64.8769V49.2094H11.832V50.3784Z" fill="white"/>
<path d="M61.7969 36.4603H61.5089V35.3354H61.0879V35.0928H62.1958V35.3354H61.7748V36.4603H61.7969Z" fill="white"/>
<path d="M63.7253 36.4603H63.4594V35.3354L63.2156 36.4603H62.9276L62.6839 35.3354V36.4603H62.418V35.0928H62.839L63.0827 36.1736L63.3264 35.0928H63.7474V36.4603H63.7253Z" fill="white"/>
</g>
<defs>
<clipPath id="clip0_135_955">
<rect width="76" height="50.5548" fill="white"/>
</clipPath>
</defs>
</svg>
