<svg width="97" height="63" viewBox="0 0 97 63" fill="none" xmlns="http://www.w3.org/2000/svg">
<path d="M87.6396 9.1095C88.3496 9.1095 88.9296 9.68444 88.9296 10.3882C88.9296 11.092 88.3496 11.667 87.6396 11.667C86.9296 11.667 86.3496 11.092 86.3496 10.3882C86.3496 9.68444 86.9296 9.1095 87.6396 9.1095Z" fill="white"/>
<path d="M86.3398 7.15665C87.5498 7.15665 88.6899 7.62256 89.5499 8.48496C90.4099 9.33745 90.8799 10.4774 90.8799 11.6868H92.7499C92.7499 8.16775 89.8698 5.30298 86.3398 5.30298V7.15665Z" fill="white"/>
<path d="M86.3496 3.87625C90.6696 3.87625 94.1896 7.38535 94.1896 11.6875H96.0596C96.0596 6.35443 91.6996 2.02258 86.3496 2.02258V3.87625Z" fill="white"/>
<path fill-rule="evenodd" clip-rule="evenodd" d="M69.9996 6.69098L65.6495 9.02047V4.34167L67.6096 5.40234L69.9996 6.69098ZM75.1996 3.52884C75.1996 3.52884 75.0396 2.37897 74.5596 1.87342C73.9496 1.20927 73.2596 1.20926 72.9496 1.16961C70.6896 1.0011 67.3196 1.0011 67.3196 1.0011C67.3196 1.0011 63.9396 1.0011 61.6896 1.16961C61.3696 1.20926 60.6896 1.20926 60.0696 1.88333C59.5896 2.38888 59.4296 3.53875 59.4296 3.53875C59.4296 3.53875 59.2695 4.88688 59.2695 6.235V7.49392C59.2695 8.84205 59.4296 10.1902 59.4296 10.1902C59.4296 10.1902 59.5896 11.34 60.0696 11.8456C60.6796 12.5097 61.4895 12.4899 61.8395 12.5593C63.1295 12.6783 67.3096 12.7278 67.3096 12.7278C67.3096 12.7278 70.6896 12.7278 72.9496 12.5593C73.2596 12.5197 73.9496 12.5197 74.5596 11.8456C75.0396 11.34 75.1996 10.1902 75.1996 10.1902C75.1996 10.1902 75.3596 8.84205 75.3596 7.49392V6.235C75.3596 4.88688 75.1996 3.53875 75.1996 3.53875V3.52884Z" fill="white"/>
<path d="M39.4805 1.31848C40.3405 1.31848 40.8606 1.8736 40.8806 2.60714C40.8806 3.32085 40.3405 3.89579 39.4605 3.89579H39.4506C38.6106 3.89579 38.0605 3.32085 38.0605 2.60714C38.0605 1.89342 38.6205 1.31848 39.4805 1.31848ZM46.8705 4.74828C48.5205 4.74828 49.7505 5.81885 49.7505 8.10869V12.4009H47.2405V8.39615C47.2405 7.39497 46.8805 6.70109 45.9705 6.70109C45.2805 6.70109 44.8605 7.16698 44.6805 7.61305C44.6105 7.77166 44.6005 7.98974 44.6005 8.21773V12.391H42.0905C42.0905 12.391 42.1205 5.61069 42.0905 4.9168H44.6005V5.96754C44.9305 5.46199 45.5305 4.73838 46.8605 4.73838L46.8705 4.74828ZM44.6105 5.97746C44.6105 5.97746 44.6005 5.99729 44.5905 6.0072H44.6105V5.97746ZM38.2105 4.9267H40.7205V12.4009H38.2105V4.9267Z" fill="white"/>
<path d="M27.4802 6.68117L27.7602 4.50037H25.5802V3.10268C25.5802 2.46827 25.7602 2.04203 26.6702 2.04203H27.8401V0.0892258C27.6401 0.0594877 26.9502 0 26.1402 0C24.4602 0 23.3102 1.02101 23.3102 2.8846V4.50037H21.4102V6.68117H23.3102V12.2918H25.5901V6.68117H27.4902H27.4802Z" fill="white"/>
<mask id="path-7-inside-1_135_925" fill="white">
<path d="M0.0299683 1.58569L4.41998 7.41437L0 12.1526H1L4.87 8.00912L8 12.1526H11.39L6.75 5.99684L10.87 1.58569H9.87L6.29999 5.40209L3.41998 1.58569H0.0299683ZM1.5 2.30932H3.06L9.92999 11.4191H8.37L1.5 2.30932Z"/>
</mask>
<path d="M0.0299683 1.58569L4.41998 7.41437L0 12.1526H1L4.87 8.00912L8 12.1526H11.39L6.75 5.99684L10.87 1.58569H9.87L6.29999 5.40209L3.41998 1.58569H0.0299683ZM1.5 2.30932H3.06L9.92999 11.4191H8.37L1.5 2.30932Z" fill="white"/>
<path d="M0.0299683 1.58569V0.585693H-1.97512L-0.768812 2.18732L0.0299683 1.58569ZM4.41998 7.41437L5.15122 8.09649L5.72355 7.48295L5.21876 6.81274L4.41998 7.41437ZM0 12.1526L-0.73124 11.4705L-2.30037 13.1526H0V12.1526ZM1 12.1526V13.1526H1.43434L1.73082 12.8352L1 12.1526ZM4.87 8.00912L5.66792 7.40637L4.95102 6.45733L4.13918 7.32655L4.87 8.00912ZM8 12.1526L7.20207 12.7554L7.50215 13.1526H8V12.1526ZM11.39 12.1526V13.1526H13.396L12.1886 11.5507L11.39 12.1526ZM6.75 5.99684L6.01919 5.31427L5.4459 5.92807L5.95145 6.59876L6.75 5.99684ZM10.87 1.58569L11.6008 2.26827L13.1723 0.585693H10.87V1.58569ZM9.87 1.58569V0.585693H9.43611L9.13971 0.902554L9.87 1.58569ZM6.29999 5.40209L5.50177 6.00446L6.218 6.95356L7.03028 6.08523L6.29999 5.40209ZM3.41998 1.58569L4.2182 0.983326L3.91813 0.585693H3.41998V1.58569ZM1.5 2.30932V1.30932H-0.50662L0.701587 2.91143L1.5 2.30932ZM3.06 2.30932L3.85841 1.70721L3.55835 1.30932H3.06V2.30932ZM9.92999 11.4191V12.4191H11.9366L10.7284 10.817L9.92999 11.4191ZM8.37 11.4191L7.57158 12.0212L7.87164 12.4191H8.37V11.4191ZM0.0299683 1.58569L-0.768812 2.18732L3.6212 8.01599L4.41998 7.41437L5.21876 6.81274L0.828749 0.984071L0.0299683 1.58569ZM4.41998 7.41437L3.68874 6.73225L-0.73124 11.4705L0 12.1526L0.73124 12.8348L5.15122 8.09649L4.41998 7.41437ZM0 12.1526V13.1526H1V12.1526V11.1526H0V12.1526ZM1 12.1526L1.73082 12.8352L5.60081 8.69169L4.87 8.00912L4.13918 7.32655L0.269183 11.4701L1 12.1526ZM4.87 8.00912L4.07207 8.61187L7.20207 12.7554L8 12.1526L8.79793 11.5499L5.66792 7.40637L4.87 8.00912ZM8 12.1526V13.1526H11.39V12.1526V11.1526H8V12.1526ZM11.39 12.1526L12.1886 11.5507L7.54855 5.39492L6.75 5.99684L5.95145 6.59876L10.5915 12.7546L11.39 12.1526ZM6.75 5.99684L7.48081 6.67942L11.6008 2.26827L10.87 1.58569L10.1392 0.903116L6.01919 5.31427L6.75 5.99684ZM10.87 1.58569V0.585693H9.87V1.58569V2.58569H10.87V1.58569ZM9.87 1.58569L9.13971 0.902554L5.5697 4.71895L6.29999 5.40209L7.03028 6.08523L10.6003 2.26883L9.87 1.58569ZM6.29999 5.40209L7.09821 4.79972L4.2182 0.983326L3.41998 1.58569L2.62176 2.18806L5.50177 6.00446L6.29999 5.40209ZM3.41998 1.58569V0.585693H0.0299683V1.58569V2.58569H3.41998V1.58569ZM1.5 2.30932V3.30932H3.06V2.30932V1.30932H1.5V2.30932ZM3.06 2.30932L2.26158 2.91143L9.13158 12.0212L9.92999 11.4191L10.7284 10.817L3.85841 1.70721L3.06 2.30932ZM9.92999 11.4191V10.4191H8.37V11.4191V12.4191H9.92999V11.4191ZM8.37 11.4191L9.16841 10.817L2.29841 1.70721L1.5 2.30932L0.701587 2.91143L7.57158 12.0212L8.37 11.4191Z" fill="white" mask="url(#path-7-inside-1_135_925)"/>
</svg>
